<svg width="91" height="82" viewBox="0 0 91 82" fill="none" xmlns="http://www.w3.org/2000/svg">
<path d="M37.4431 23.42C37.2904 23.4279 37.1387 23.391 37.0066 23.3139C36.8745 23.2368 36.7679 23.1227 36.6997 22.9858L36.2953 22.1175C36.2261 21.9048 36.2383 21.6739 36.3294 21.4695C36.4206 21.2652 36.5843 21.102 36.7889 21.0114C37.7443 20.4812 38.7383 20.0239 39.7625 19.6435C39.9689 19.5398 40.207 19.519 40.4282 19.5854C40.6494 19.6517 40.8368 19.8002 40.952 20.0003L41.3504 20.8686C41.4243 21.0753 41.4182 21.3021 41.3335 21.5045C41.2488 21.7069 41.0915 21.8704 40.8925 21.9629C39.9292 22.534 38.9086 23.0024 37.8475 23.3605C37.7169 23.4024 37.5803 23.4225 37.4431 23.42ZM40.1788 20.1609C40.1081 20.1626 40.038 20.1746 39.9707 20.1966C38.9789 20.5649 38.0166 21.0082 37.0922 21.5228C36.896 21.6358 36.8187 21.7964 36.8484 21.8678L37.2528 22.742C37.2528 22.8074 37.4372 22.8609 37.6453 22.7896C38.6661 22.4432 39.6486 21.9928 40.5773 21.4455C40.7676 21.3325 40.8271 21.1779 40.7973 21.1125L40.3989 20.2382C40.3691 20.1966 40.2859 20.1609 40.1788 20.1609Z" fill="#758287"/>
<path d="M50.3013 23.4199C50.1718 23.418 50.0434 23.3959 49.9207 23.3545C48.8596 22.9964 47.839 22.528 46.8757 21.9569C46.6767 21.8644 46.5194 21.701 46.4347 21.4985C46.35 21.2961 46.3439 21.0693 46.4178 20.8627L46.8162 19.9944C46.9314 19.7942 47.1188 19.6457 47.34 19.5794C47.5611 19.513 47.7993 19.5338 48.0057 19.6375C49.0299 20.0179 50.0239 20.4752 50.9793 21.0054C51.1861 21.095 51.3517 21.2591 51.4431 21.4651C51.5346 21.6711 51.5452 21.904 51.4729 22.1175L51.0744 22.9858C51.003 23.1266 50.8914 23.243 50.7538 23.3203C50.6162 23.3976 50.4586 23.4323 50.3013 23.4199ZM47.5656 20.1609C47.4585 20.1609 47.3753 20.1966 47.3574 20.2382L46.9589 21.1124C46.9589 21.1779 46.9589 21.3325 47.179 21.4455C48.1074 21.9948 49.0899 22.4472 50.111 22.7955C50.3191 22.8669 50.4797 22.7955 50.5094 22.7479L50.9079 21.8737C50.9079 21.8023 50.8663 21.6417 50.6641 21.5287C49.7437 21.0127 48.7854 20.5673 47.7975 20.1966C47.7229 20.171 47.6444 20.159 47.5656 20.1609Z" fill="#758287"/>
<path d="M25.686 31.413H25.6384C25.561 31.3998 25.4917 31.3571 25.4451 31.2939C25.3985 31.2307 25.3783 31.1519 25.3886 31.074C26.3105 25.335 28.957 20.2263 32.8107 16.6937C32.8699 16.6462 32.9449 16.6231 33.0205 16.6291C33.096 16.6351 33.1665 16.6697 33.2174 16.726C33.2682 16.7822 33.2957 16.8557 33.2942 16.9315C33.2927 17.0073 33.2623 17.0796 33.2092 17.1338C29.4446 20.5713 26.8754 25.561 25.9774 31.1692C25.966 31.2379 25.9304 31.3004 25.8769 31.3451C25.8234 31.3898 25.7557 31.4139 25.686 31.413Z" fill="#758287"/>
<path d="M63.1176 30.7054C63.049 30.7054 62.9826 30.6817 62.9295 30.6384C62.8764 30.595 62.8399 30.5347 62.8262 30.4675C61.9563 25.3563 59.4522 20.6652 55.6895 17.0982C55.6579 17.0728 55.6319 17.0412 55.6129 17.0054C55.5939 16.9696 55.5825 16.9303 55.5793 16.8899C55.5761 16.8495 55.5812 16.8088 55.5942 16.7705C55.6073 16.7321 55.6281 16.6968 55.6553 16.6668C55.6825 16.6367 55.7156 16.6125 55.7524 16.5957C55.7893 16.5789 55.8293 16.5698 55.8698 16.569C55.9103 16.5682 55.9506 16.5757 55.9881 16.591C56.0256 16.6063 56.0596 16.6292 56.088 16.6581C59.9471 20.3047 62.5201 25.1041 63.4209 30.3367C63.4348 30.4155 63.4169 30.4966 63.3713 30.5623C63.3256 30.628 63.2558 30.6731 63.1771 30.6875L63.1176 30.7054Z" fill="#758287"/>
<path d="M36.5871 22.4268C36.5477 22.4329 36.5075 22.4329 36.4681 22.4268C34.8114 21.7137 33.228 20.8413 31.7401 19.8219C31.7077 19.8 31.6799 19.772 31.6583 19.7394C31.6367 19.7068 31.6218 19.6702 31.6143 19.6318C31.6069 19.5935 31.6071 19.554 31.6149 19.5157C31.6227 19.4774 31.6379 19.441 31.6598 19.4086C31.6817 19.3761 31.7097 19.3484 31.7423 19.3268C31.7749 19.3052 31.8115 19.2903 31.8498 19.2828C31.8882 19.2754 31.9277 19.2755 31.966 19.2833C32.0043 19.2911 32.0407 19.3064 32.0731 19.3283C33.5361 20.3272 35.0915 21.1835 36.7179 21.8856C36.7902 21.9158 36.8477 21.9734 36.8777 22.0458C36.9078 22.1182 36.9081 22.1995 36.8785 22.2721C36.85 22.3233 36.8073 22.3651 36.7556 22.3925C36.7039 22.42 36.6454 22.4319 36.5871 22.4268Z" fill="#758287"/>
<path d="M44.4671 24.0862C42.4113 24.0811 40.3688 23.7561 38.4129 23.1227C38.3738 23.111 38.3375 23.0917 38.3059 23.0659C38.2743 23.0402 38.2481 23.0084 38.2288 22.9725C38.2094 22.9366 38.1974 22.8973 38.1932 22.8567C38.1891 22.8162 38.193 22.7752 38.2047 22.7361C38.2165 22.6971 38.2358 22.6607 38.2615 22.6291C38.2873 22.5975 38.319 22.5713 38.3549 22.552C38.3908 22.5327 38.4302 22.5206 38.4707 22.5165C38.5113 22.5124 38.5523 22.5163 38.5913 22.528C42.2034 23.7098 46.0883 23.772 49.7364 22.7064C49.8152 22.6843 49.8996 22.6945 49.971 22.7346C50.0424 22.7748 50.0949 22.8416 50.117 22.9205C50.1391 22.9994 50.1289 23.0838 50.0888 23.1552C50.0486 23.2265 49.9818 23.279 49.9029 23.3011C48.1367 23.8163 46.3069 24.0805 44.4671 24.0862Z" fill="#758287"/>
<path d="M50.878 22.9861C50.8161 22.9857 50.756 22.9659 50.7059 22.9297C50.6558 22.8934 50.6182 22.8425 50.5985 22.7839C50.5738 22.7098 50.5793 22.6289 50.6138 22.5588C50.6483 22.4886 50.709 22.4349 50.7828 22.4092C52.9403 21.6437 54.9878 20.598 56.8728 19.2988C56.9052 19.277 56.9416 19.2617 56.9799 19.2539C57.0182 19.2461 57.0577 19.2459 57.096 19.2534C57.1344 19.2608 57.171 19.2758 57.2036 19.2974C57.2362 19.3189 57.2642 19.3467 57.2861 19.3791C57.3079 19.4115 57.3232 19.4479 57.331 19.4863C57.3388 19.5246 57.339 19.564 57.3315 19.6024C57.3241 19.6408 57.3091 19.6773 57.2876 19.7099C57.266 19.7426 57.2382 19.7706 57.2058 19.7925C55.2777 21.1182 53.1843 22.1859 50.9791 22.9683C50.9466 22.9799 50.9124 22.986 50.878 22.9861Z" fill="#758287"/>
<path d="M44.4615 20.1253C40.4405 20.0595 36.5157 18.8844 33.1202 16.7295C33.0867 16.7099 33.0574 16.6838 33.0341 16.6527C33.0108 16.6216 32.9939 16.5862 32.9845 16.5485C32.9751 16.5109 32.9733 16.4717 32.9793 16.4333C32.9852 16.3949 32.9987 16.3581 33.0191 16.325C33.0381 16.2909 33.0639 16.261 33.0949 16.2372C33.1259 16.2134 33.1615 16.1963 33.1994 16.1868C33.2373 16.1773 33.2768 16.1757 33.3153 16.1821C33.3539 16.1885 33.3907 16.2027 33.4235 16.2239C40.7505 20.6249 48.1785 20.6249 55.4995 16.2239C55.5327 16.1996 55.5706 16.1824 55.6108 16.1734C55.6509 16.1644 55.6925 16.1639 55.7329 16.1718C55.7733 16.1798 55.8116 16.196 55.8454 16.2195C55.8792 16.2431 55.9077 16.2733 55.9292 16.3084C55.9507 16.3436 55.9646 16.3827 55.9702 16.4235C55.9757 16.4643 55.9727 16.5058 55.9614 16.5454C55.9501 16.585 55.9307 16.6218 55.9044 16.6534C55.8781 16.6851 55.8456 16.711 55.8088 16.7295C52.4115 18.8854 48.4846 20.0606 44.4615 20.1253Z" fill="#758287"/>
<path d="M36.7423 12.3643C36.6619 12.3641 36.5849 12.3321 36.5282 12.2751C36.4733 12.2185 36.4426 12.1428 36.4426 12.064C36.4426 11.9852 36.4733 11.9095 36.5282 11.8529C38.7844 9.66408 41.4391 7.92791 44.3487 6.73829C44.4206 6.71105 44.5003 6.71271 44.5709 6.74291C44.6416 6.77312 44.6979 6.82952 44.7279 6.9003C44.7579 6.97107 44.7593 7.05071 44.7319 7.12252C44.7044 7.19432 44.6502 7.25271 44.5807 7.28543C41.7395 8.45224 39.1491 10.1543 36.9504 12.2989C36.8908 12.3443 36.8172 12.3675 36.7423 12.3643Z" fill="#758287"/>
<path d="M31.8892 19.8219H31.8059C31.7684 19.811 31.7334 19.7928 31.703 19.7683C31.6725 19.7439 31.6472 19.7137 31.6284 19.6794C31.5905 19.6103 31.5816 19.5289 31.6037 19.4532C32.06 18.0606 32.7064 16.7378 33.5246 15.5221C33.5683 15.4572 33.6354 15.4116 33.7119 15.395C33.7884 15.3784 33.8683 15.3919 33.935 15.4329C33.9679 15.4539 33.9962 15.4814 34.0183 15.5136C34.0404 15.5458 34.0558 15.5821 34.0636 15.6204C34.0713 15.6587 34.0713 15.6982 34.0635 15.7364C34.0558 15.7747 34.0404 15.811 34.0183 15.8432C33.2323 17.0148 32.6082 18.2871 32.1627 19.6257C32.1423 19.6822 32.1052 19.7312 32.0564 19.7662C32.0076 19.8013 31.9493 19.8207 31.8892 19.8219Z" fill="#758287"/>
<path d="M52.1927 12.3644C52.1541 12.366 52.1156 12.3595 52.0797 12.3451C52.0438 12.3307 52.0114 12.309 51.9846 12.2812C49.7826 10.1377 47.1905 8.43592 44.3483 7.26768C44.277 7.23621 44.2206 7.17851 44.1907 7.10653C44.1608 7.03456 44.1597 6.95384 44.1878 6.88111C44.2027 6.84458 44.2248 6.81139 44.2527 6.78348C44.2806 6.75557 44.3138 6.7335 44.3504 6.71855C44.3869 6.7036 44.4261 6.69608 44.4655 6.69642C44.505 6.69676 44.544 6.70496 44.5803 6.72054C47.4916 7.91765 50.1464 9.66194 52.4009 11.8589C52.4416 11.9005 52.4693 11.9531 52.4804 12.0102C52.4915 12.0674 52.4856 12.1265 52.4635 12.1803C52.4413 12.2341 52.4039 12.2803 52.3557 12.313C52.3076 12.3457 52.2509 12.3636 52.1927 12.3644Z" fill="#758287"/>
<path d="M57.0397 19.8219C56.9746 19.8215 56.9114 19.7998 56.8598 19.7601C56.8083 19.7203 56.7712 19.6647 56.7542 19.6019C56.3054 18.2655 55.6793 16.9953 54.8928 15.8254C54.8494 15.7591 54.8341 15.6784 54.8503 15.6009C54.8665 15.5234 54.9128 15.4554 54.979 15.4121C55.0453 15.3687 55.126 15.3534 55.2035 15.3696C55.281 15.3857 55.349 15.432 55.3923 15.4983C56.2135 16.7251 56.8601 18.0601 57.3133 19.4651C57.3354 19.5408 57.3265 19.6222 57.2885 19.6913C57.2506 19.7605 57.1868 19.8117 57.1111 19.8338L57.0397 19.8219Z" fill="#758287"/>
<path d="M35.1125 16.7412C34.8974 16.7404 34.6847 16.6969 34.4867 16.6131C34.2886 16.5294 34.1092 16.4072 33.9587 16.2536C30.777 13.0659 29.6054 9.49159 30.658 6.179C31.5798 3.27677 34.1788 0.91573 36.968 0.439954C37.101 0.414497 37.2387 0.429837 37.3628 0.483962C37.487 0.538086 37.5919 0.628469 37.6638 0.74326C37.7398 0.86006 37.7803 0.996421 37.7803 1.13578C37.7803 1.27513 37.7398 1.41149 37.6638 1.52829C35.5585 4.67436 34.7973 7.3506 35.4098 9.48565C35.6496 10.234 36.047 10.9223 36.5754 11.504C37.1037 12.0857 37.7507 12.5473 38.4726 12.8577C38.6537 12.934 38.7975 13.0784 38.8731 13.2597C38.9488 13.441 38.9502 13.6448 38.877 13.8271C38.5983 14.5865 38.1196 15.2566 37.4915 15.7664C36.8634 16.2762 36.1092 16.6068 35.3087 16.7234C35.2438 16.734 35.1782 16.74 35.1125 16.7412ZM37.0929 1.02873C35.7344 1.32943 34.4791 1.98235 33.4529 2.92189C32.4267 3.86143 31.6658 5.05449 31.2468 6.38121C30.2655 9.4678 31.3836 12.8339 34.3988 15.8492C34.5113 15.9634 34.6489 16.0498 34.8007 16.1014C34.9525 16.153 35.1142 16.1685 35.273 16.1465C35.9654 16.0441 36.6166 15.7546 37.1563 15.3091C37.6961 14.8637 38.104 14.2793 38.3358 13.6189C38.3501 13.581 38.3494 13.539 38.334 13.5015C38.3185 13.464 38.2894 13.4337 38.2526 13.4167C37.453 13.0686 36.7369 12.5537 36.1523 11.9066C35.5677 11.2594 35.128 10.4948 34.8627 9.66406C34.2025 7.35655 34.9816 4.51379 37.194 1.21309C37.2071 1.19489 37.2141 1.17305 37.2141 1.15064C37.2141 1.12824 37.2071 1.1064 37.194 1.0882C37.1884 1.06695 37.1746 1.04878 37.1557 1.03764C37.1367 1.0265 37.1142 1.02329 37.0929 1.02873Z" fill="#758287"/>
<path d="M53.816 16.7413C53.7408 16.7472 53.6652 16.7472 53.59 16.7413C52.7965 16.619 52.0505 16.2856 51.4301 15.7761C50.8096 15.2666 50.3376 14.5996 50.0633 13.845C49.9913 13.6649 49.9919 13.4638 50.0651 13.2841C50.1384 13.1044 50.2784 12.9601 50.4558 12.8816C51.1772 12.5702 51.8236 12.1083 52.3518 11.5267C52.8801 10.9451 53.2779 10.2574 53.5187 9.50953C54.1134 7.37448 53.37 4.69824 51.2647 1.55217C51.1879 1.43565 51.147 1.29918 51.147 1.15966C51.147 1.02013 51.1879 0.883668 51.2647 0.767142C51.3377 0.653519 51.4428 0.564077 51.5666 0.510099C51.6905 0.45612 51.8275 0.440023 51.9605 0.463836C54.7497 0.939612 57.313 3.30065 58.2705 6.20288C59.3231 9.51547 58.1515 13.0897 54.9698 16.2774C54.6613 16.5779 54.2467 16.7446 53.816 16.7413ZM50.6997 13.4049C50.6804 13.4121 50.6628 13.4231 50.648 13.4374C50.6332 13.4516 50.6216 13.4688 50.6137 13.4878C50.6059 13.5068 50.6021 13.5272 50.6026 13.5478C50.603 13.5683 50.6077 13.5885 50.6164 13.6071C50.8467 14.2673 51.2533 14.8519 51.7922 15.2975C52.331 15.743 52.9816 16.0326 53.6733 16.1347C53.8321 16.1562 53.9937 16.1406 54.1454 16.089C54.2971 16.0373 54.4348 15.9512 54.5475 15.8373C57.5627 12.8221 58.7106 9.456 57.6995 6.36941C57.2826 5.04254 56.5232 3.84907 55.4978 2.90935C54.4725 1.96963 53.2175 1.31688 51.8594 1.01693C51.8397 1.01318 51.8193 1.01576 51.8011 1.02431C51.783 1.03286 51.768 1.04692 51.7583 1.0645C51.7473 1.08349 51.7415 1.10502 51.7415 1.12695C51.7415 1.14887 51.7473 1.17041 51.7583 1.18939C53.9647 4.49009 54.7319 7.33285 54.0896 9.64037C53.8242 10.4711 53.3846 11.2357 52.8 11.8829C52.2154 12.53 51.4993 13.0449 50.6997 13.393V13.4049Z" fill="#758287"/>
<path d="M42.576 30.1464H42.5105C40.6406 29.7141 38.9662 28.6753 37.7484 27.1918C36.5307 25.7083 35.838 23.8636 35.7783 21.9452C35.7767 21.9057 35.783 21.8662 35.7969 21.8292C35.8108 21.7921 35.8319 21.7582 35.859 21.7294C35.8862 21.7006 35.9188 21.6775 35.955 21.6614C35.9911 21.6454 36.0302 21.6367 36.0697 21.636C36.1472 21.6359 36.2217 21.6653 36.2781 21.7184C36.3345 21.7715 36.3685 21.8441 36.373 21.9214C36.4286 23.7085 37.0743 25.4269 38.2094 26.8083C39.3445 28.1898 40.905 29.1565 42.6473 29.5577C42.7262 29.5671 42.7981 29.6075 42.8471 29.67C42.8962 29.7324 42.9185 29.8118 42.909 29.8907C42.8995 29.9696 42.8591 30.0414 42.7967 30.0905C42.7342 30.1396 42.6548 30.1618 42.576 30.1524V30.1464Z" fill="#758287"/>
<path d="M46.2694 30.1642C46.1905 30.1729 46.1114 30.1499 46.0495 30.1002C45.9876 30.0506 45.948 29.9784 45.9393 29.8996C45.9306 29.8207 45.9536 29.7416 46.0033 29.6797C46.0529 29.6178 46.1251 29.5782 46.2039 29.5695C47.9644 29.1844 49.5457 28.222 50.6966 26.8352C51.8474 25.4484 52.5017 23.7167 52.5556 21.9154C52.5626 21.8385 52.5972 21.7667 52.6529 21.7132C52.7086 21.6596 52.7817 21.628 52.8589 21.624C52.9383 21.6271 53.0133 21.6613 53.0678 21.7191C53.1223 21.7769 53.1519 21.8538 53.1503 21.9333C53.0943 23.868 52.3931 25.7285 51.1582 27.2188C49.9232 28.7092 48.2254 29.7438 46.3348 30.1583L46.2694 30.1642Z" fill="#758287"/>
<path d="M44.4615 30.6637C43.705 30.6648 42.9674 30.4276 42.3535 29.9856C41.7396 29.5436 41.2806 28.9193 41.0418 28.2015C40.9342 27.8643 40.9014 27.5076 40.9456 27.1564C40.9897 26.8051 41.1098 26.4677 41.2976 26.1676C41.6252 25.5846 42.0721 25.0773 42.6091 24.6786C43.1461 24.28 43.761 23.9991 44.4139 23.8541C44.4473 23.8481 44.4816 23.8481 44.515 23.8541C45.1678 23.9991 45.7828 24.28 46.3198 24.6786C46.8567 25.0773 47.3036 25.5846 47.6313 26.1676C47.819 26.4677 47.9391 26.8051 47.9833 27.1564C48.0275 27.5076 47.9946 27.8643 47.8871 28.2015C47.6471 28.9198 47.1871 29.5442 46.5721 29.9862C45.9572 30.4281 45.2187 30.6652 44.4615 30.6637ZM44.4615 24.4548C43.9022 24.5907 43.3773 24.8411 42.9197 25.1902C42.4622 25.5392 42.0819 25.9794 41.8031 26.4828C41.66 26.7086 41.5683 26.963 41.5344 27.2282C41.5005 27.4933 41.5252 27.7626 41.6068 28.0172C41.8082 28.6155 42.1924 29.1355 42.7051 29.5038C43.2178 29.8722 43.8331 30.0703 44.4644 30.0703C45.0957 30.0703 45.7111 29.8722 46.2238 29.5038C46.7365 29.1355 47.1206 28.6155 47.3221 28.0172C47.4037 27.7626 47.4284 27.4933 47.3945 27.2282C47.3606 26.963 47.2688 26.7086 47.1258 26.4828C46.8463 25.9787 46.4651 25.5382 46.0065 25.1891C45.5479 24.84 45.0218 24.59 44.4615 24.4548Z" fill="#758287"/>
<path d="M49.243 24.0504C48.7375 24.0504 48.3271 24.6451 48.3271 25.3945C48.3271 26.1438 48.7375 26.7385 49.243 26.7385C49.7485 26.7385 50.1589 26.1438 50.1589 25.3945C50.1589 24.6451 49.7485 24.0504 49.243 24.0504ZM49.243 25.7037C49.2019 25.7045 49.1611 25.6971 49.1228 25.6819C49.0846 25.6667 49.0498 25.6441 49.0205 25.6153C48.9911 25.5865 48.9678 25.5521 48.9519 25.5142C48.936 25.4763 48.9278 25.4356 48.9278 25.3945C48.9278 25.3109 48.961 25.2307 49.0201 25.1716C49.0793 25.1125 49.1594 25.0793 49.243 25.0793C49.3266 25.0793 49.4068 25.1125 49.4659 25.1716C49.525 25.2307 49.5582 25.3109 49.5582 25.3945C49.5582 25.4356 49.55 25.4763 49.5341 25.5142C49.5182 25.5521 49.4949 25.5865 49.4655 25.6153C49.4362 25.6441 49.4014 25.6667 49.3632 25.6819C49.325 25.6971 49.2841 25.7045 49.243 25.7037Z" fill="#758287"/>
<path d="M39.5313 24.0504C39.0257 24.0504 38.6213 24.6451 38.6213 25.3945C38.6213 26.1438 39.0257 26.7385 39.5313 26.7385C40.0368 26.7385 40.4471 26.1438 40.4471 25.3945C40.4471 24.6451 40.0665 24.0504 39.5313 24.0504ZM39.5313 25.7037C39.4492 25.7037 39.3706 25.6712 39.3126 25.6132C39.2546 25.5552 39.222 25.4765 39.222 25.3945C39.2212 25.3534 39.2286 25.3125 39.2438 25.2743C39.259 25.2361 39.2817 25.2013 39.3105 25.1719C39.3392 25.1426 39.3736 25.1193 39.4115 25.1034C39.4494 25.0875 39.4901 25.0793 39.5313 25.0793C39.6149 25.0793 39.695 25.1125 39.7541 25.1716C39.8133 25.2307 39.8465 25.3109 39.8465 25.3945C39.8465 25.4356 39.8383 25.4763 39.8224 25.5142C39.8065 25.5521 39.7831 25.5865 39.7538 25.6153C39.7244 25.6441 39.6896 25.6667 39.6514 25.6819C39.6132 25.6971 39.5724 25.7045 39.5313 25.7037Z" fill="#758287"/>
<path d="M33.59 27.036C33.5359 27.0342 33.483 27.02 33.4354 26.9944C33.4354 26.9944 30.5331 25.2102 31.9248 22.3318C32.043 22.1375 32.2088 21.9766 32.4066 21.8642C32.6043 21.7518 32.8273 21.6917 33.0548 21.6895C33.4114 21.702 33.757 21.8161 34.0509 22.0184C34.3449 22.2207 34.5749 22.5027 34.714 22.8313C34.7406 22.9002 34.7406 22.9765 34.714 23.0454L33.8814 26.804C33.8703 26.8495 33.849 26.8919 33.8191 26.928C33.7893 26.964 33.7516 26.9928 33.7089 27.0122C33.6715 27.0286 33.6309 27.0367 33.59 27.036ZM33.1023 22.2782H33.0726C32.9565 22.2814 32.8427 22.3109 32.7397 22.3645C32.6367 22.418 32.5471 22.4943 32.4779 22.5875C32.1732 23.2072 32.1004 23.9155 32.2727 24.5843C32.4451 25.253 32.8512 25.8379 33.4175 26.2331L34.1193 23.0276C34.026 22.8281 33.8839 22.6554 33.7062 22.5254C33.5284 22.3955 33.3207 22.3125 33.1023 22.2842V22.2782Z" fill="#758287"/>
<path d="M55.3391 27.036C55.2999 27.045 55.2593 27.045 55.2201 27.036C55.1775 27.0167 55.1398 26.9879 55.1099 26.9518C55.0801 26.9157 55.0588 26.8734 55.0477 26.8279L54.1794 23.0693C54.1528 23.0004 54.1528 22.924 54.1794 22.8552C54.7384 21.8858 55.3688 21.7014 55.8446 21.7133C56.0706 21.7148 56.2926 21.774 56.4893 21.8854C56.686 21.9968 56.851 22.1566 56.9686 22.3496C58.3602 25.234 55.4877 27.0004 55.458 27.0182C55.4199 27.0319 55.3795 27.0379 55.3391 27.036ZM54.786 23.0276L55.5294 26.2391C56.0961 25.8428 56.502 25.2564 56.6733 24.5865C56.8446 23.9165 56.77 23.2072 56.4631 22.5875C56.3923 22.4964 56.3024 22.4219 56.1996 22.3695C56.0968 22.3171 55.9837 22.288 55.8684 22.2842C55.458 22.2545 55.0952 22.5281 54.786 23.0276Z" fill="#758287"/>
<path d="M51.9609 35.3206C51.4675 36.3101 50.7845 37.1932 49.9507 37.9195C49.3977 37.2653 48.0001 36.3138 44.4972 36.4268C40.9883 36.3138 39.5848 37.2653 39.0376 37.9195C38.1952 37.1938 37.5076 36.3059 37.0156 35.3087C36.545 34.4576 36.3634 33.4767 36.4982 32.5135C36.5581 32.1916 36.6925 31.8881 36.8907 31.6274C37.0324 31.4397 37.2221 31.2937 37.4398 31.2048C37.6575 31.1158 37.8951 31.0872 38.1277 31.1219C38.318 32.0972 39.3172 34.7675 44.4674 34.7675C49.6177 34.7675 50.6049 32.0972 50.8012 31.1219C51.0371 31.0851 51.2785 31.1133 51.4996 31.2034C51.7207 31.2935 51.9131 31.4421 52.0561 31.6333C52.2547 31.8931 52.3873 32.1972 52.4426 32.5195C52.5986 33.4808 52.429 34.4666 51.9609 35.3206Z" fill="#758287"/>
<path d="M38.9958 38.2581C38.9232 38.2567 38.8536 38.2293 38.7995 38.1808C37.9272 37.4308 37.2152 36.5125 36.7061 35.4808C36.2126 34.573 36.0308 33.5283 36.1887 32.5072C36.256 32.1352 36.4109 31.7845 36.6407 31.4843C36.8191 31.2608 37.0531 31.0882 37.3193 30.9838C37.5855 30.8794 37.8745 30.8469 38.1572 30.8896C38.2203 30.8969 38.2794 30.9238 38.3263 30.9664C38.3733 31.0091 38.4057 31.0654 38.4189 31.1275C38.6152 32.1563 39.6084 34.5352 44.4672 34.5352C49.3261 34.5352 50.3074 32.1563 50.5036 31.1275C50.5177 31.0658 50.5503 31.01 50.5971 30.9674C50.6439 30.9249 50.7026 30.8977 50.7653 30.8896C51.0491 30.8433 51.3401 30.8741 51.6079 30.9787C51.8757 31.0833 52.1105 31.2579 52.2878 31.4843C52.5155 31.7851 52.6684 32.1357 52.7338 32.5072C52.9023 33.5277 52.7221 34.5752 52.2224 35.4808C51.7145 36.5082 51.0068 37.4241 50.1409 38.1749C50.0879 38.2154 50.0231 38.2374 49.9565 38.2374C49.8898 38.2374 49.825 38.2154 49.7721 38.1749C49.7449 38.1527 49.7191 38.1289 49.6948 38.1035C49.219 37.5088 47.9107 36.5989 44.4732 36.7178C41.006 36.6108 39.7154 37.5385 39.2396 38.1035C39.2166 38.1392 39.186 38.1694 39.15 38.192C39.1141 38.2146 39.0736 38.229 39.0315 38.2344L38.9958 38.2581ZM37.8896 31.401C37.7361 31.4049 37.5855 31.4439 37.4495 31.5151C37.3134 31.5862 37.1954 31.6876 37.1046 31.8114C36.9352 32.0354 36.8211 32.2962 36.7715 32.5726C36.6379 33.4728 36.803 34.3919 37.2414 35.1894C37.6718 36.0617 38.2583 36.8479 38.972 37.5088C39.7154 36.7713 41.2617 36.0161 44.4732 36.1172C47.6549 36.0161 49.2309 36.7713 49.9565 37.5088C50.671 36.8472 51.2594 36.0613 51.6931 35.1894C52.1321 34.3922 52.2932 33.4715 52.151 32.5726C52.1032 32.2967 51.9912 32.036 51.8239 31.8114C51.7334 31.6872 51.6155 31.5856 51.4794 31.5145C51.3432 31.4433 51.1925 31.4045 51.0389 31.401C50.7415 32.5013 49.5104 35.0586 44.497 35.0586C39.4835 35.0586 38.181 32.5013 37.8896 31.401Z" fill="#758287"/>
<path d="M44.4673 32.4538C42.6083 32.4508 40.7602 32.1701 38.984 31.6212L38.877 31.5855C38.6287 31.499 38.3713 31.4411 38.1098 31.4131C38.0707 31.4103 38.0326 31.3999 37.9976 31.3825C37.9626 31.365 37.9313 31.3408 37.9056 31.3112C37.8538 31.2516 37.8277 31.1738 37.8332 31.0949C37.8388 31.016 37.8754 30.9426 37.9351 30.8907C37.9947 30.8389 38.0726 30.8128 38.1514 30.8183C38.4566 30.8534 38.7575 30.9191 39.0494 31.0146L39.1624 31.0503C42.6201 32.1207 46.3206 32.1207 49.7782 31.0503C50.1029 30.9408 50.4376 30.8631 50.7773 30.8183C50.8164 30.8148 50.8557 30.819 50.8932 30.8307C50.9306 30.8424 50.9653 30.8614 50.9954 30.8865C51.0255 30.9116 51.0504 30.9424 51.0686 30.9772C51.0868 31.0119 51.0979 31.0499 51.1014 31.0889C51.105 31.128 51.1007 31.1674 51.0891 31.2048C51.0774 31.2422 51.0584 31.2769 51.0333 31.307C51.0082 31.3371 50.9773 31.362 50.9426 31.3802C50.9079 31.3984 50.8699 31.4095 50.8309 31.4131C50.5372 31.4506 50.2482 31.5184 49.9685 31.6153C48.1867 32.167 46.3326 32.4496 44.4673 32.4538Z" fill="#758287"/>
<path d="M44.4674 40.4649C44.1507 40.463 43.8346 40.4372 43.5218 40.3876C41.7729 40.0878 40.1397 39.3144 38.7997 38.1514C38.77 38.1263 38.7456 38.0955 38.7279 38.0609C38.7103 38.0262 38.6998 37.9884 38.697 37.9496C38.6943 37.9108 38.6993 37.8718 38.7118 37.835C38.7243 37.7981 38.7441 37.7642 38.7699 37.7351C38.8226 37.6761 38.8962 37.64 38.975 37.6344C39.0539 37.6289 39.1318 37.6543 39.1922 37.7054C40.4532 38.7972 41.99 39.5214 43.6348 39.7988C44.1957 39.894 44.7687 39.894 45.3297 39.7988C46.9722 39.5163 48.5063 38.7904 49.7663 37.6994C49.826 37.6514 49.9019 37.6282 49.9783 37.6348C50.0546 37.6413 50.1255 37.6771 50.1761 37.7346C50.2267 37.7921 50.2532 37.8669 50.2499 37.9435C50.2467 38.02 50.2141 38.0924 50.1588 38.1455C48.8088 39.3155 47.1628 40.0912 45.4011 40.3876C45.0922 40.4364 44.7801 40.4622 44.4674 40.4649Z" fill="#758287"/>
<path d="M38.1272 31.4073C38.0884 31.408 38.0499 31.4011 38.0139 31.3868C37.9778 31.3725 37.945 31.3512 37.9173 31.324C37.8896 31.2969 37.8676 31.2645 37.8526 31.2288C37.8376 31.193 37.8298 31.1546 37.8298 31.1158C37.8298 31.037 37.8612 30.9613 37.9169 30.9056C37.9727 30.8498 38.0483 30.8185 38.1272 30.8185C38.2061 30.8185 38.2817 30.8498 38.3375 30.9056C38.3932 30.9613 38.4246 31.037 38.4246 31.1158C38.4202 31.1927 38.3873 31.2652 38.3323 31.3191C38.2773 31.373 38.2041 31.4044 38.1272 31.4073Z" fill="#758287"/>
<path d="M50.8013 31.4073C50.7625 31.408 50.724 31.4011 50.6879 31.3868C50.6519 31.3725 50.619 31.3512 50.5914 31.324C50.5637 31.2969 50.5417 31.2645 50.5266 31.2288C50.5116 31.193 50.5039 31.1546 50.5039 31.1158C50.5039 31.037 50.5352 30.9613 50.591 30.9056C50.6468 30.8498 50.7224 30.8185 50.8013 30.8185C50.8801 30.8185 50.9558 30.8498 51.0115 30.9056C51.0673 30.9613 51.0986 31.037 51.0986 31.1158C51.0942 31.1927 51.0613 31.2652 51.0063 31.3191C50.9513 31.373 50.8782 31.4044 50.8013 31.4073Z" fill="#758287"/>
<path d="M44.4614 81.5539C20.1909 81.5539 0.452148 67.578 0.452148 50.4025C0.452148 37.4495 11.9659 25.7157 29.1058 21.1958C29.1846 21.1761 29.2681 21.1885 29.3378 21.2303C29.4075 21.2722 29.4577 21.34 29.4775 21.4188C29.4972 21.4977 29.4848 21.5812 29.4429 21.6509C29.4011 21.7206 29.3333 21.7708 29.2544 21.7905C12.3822 26.239 1.04687 37.7409 1.04687 50.4203C1.04687 67.2688 20.5239 80.9771 44.4614 80.9771C49.3024 80.9872 54.1269 80.4121 58.8299 79.2643C58.9063 79.2464 58.9868 79.2595 59.0537 79.3007C59.1205 79.3419 59.1683 79.4079 59.1867 79.4843C59.1973 79.5218 59.2002 79.5611 59.195 79.5998C59.1899 79.6384 59.1769 79.6756 59.1568 79.709C59.1368 79.7425 59.1101 79.7714 59.0784 79.7942C59.0467 79.8169 59.0107 79.8329 58.9726 79.8411C54.2223 80.995 49.3498 81.5701 44.4614 81.5539Z" fill="#758287"/>
<path d="M87.1857 57.2895H87.0965C87.0214 57.2649 86.9589 57.212 86.9223 57.1421C86.8856 57.0721 86.8777 56.9906 86.9002 56.9149C87.5524 54.8137 87.8852 52.6265 87.8875 50.4265C87.8875 37.753 76.5878 26.2511 59.6977 21.8026C59.6189 21.7829 59.5511 21.7326 59.5093 21.6629C59.4674 21.5932 59.455 21.5098 59.4747 21.4309C59.4944 21.352 59.5447 21.2842 59.6144 21.2424C59.6841 21.2006 59.7676 21.1882 59.8464 21.2079C76.9744 25.7278 88.4822 37.4616 88.4822 50.4086C88.4779 52.6688 88.1372 54.9157 87.4712 57.0754C87.4532 57.1372 87.4156 57.1915 87.3641 57.2301C87.3127 57.2687 87.25 57.2895 87.1857 57.2895Z" fill="#758287"/>
<path d="M44.461 63.1058H41.4339C41.3713 63.1057 41.3102 63.0862 41.2591 63.05C41.208 63.0138 41.1693 62.9627 41.1484 62.9036C41.1484 62.9036 40.6251 61.28 40.1374 59.93C40.1114 59.8551 40.1162 59.7729 40.1508 59.7015C40.1853 59.6301 40.2468 59.5754 40.3218 59.5494C40.3967 59.5234 40.4789 59.5282 40.5503 59.5627C40.6216 59.5973 40.6764 59.6588 40.7024 59.7338C41.0771 60.8102 41.4874 62.0532 41.648 62.5349H44.461C44.5399 62.5349 44.6155 62.5662 44.6713 62.622C44.7271 62.6777 44.7584 62.7534 44.7584 62.8323C44.7524 62.9069 44.7184 62.9766 44.6633 63.0273C44.6082 63.078 44.5359 63.1061 44.461 63.1058Z" fill="#758287"/>
<path d="M38.6632 81.2865H38.6216C38.5829 81.2807 38.5458 81.2673 38.5123 81.2472C38.4788 81.227 38.4496 81.2004 38.4264 81.1689C38.4032 81.1374 38.3864 81.1016 38.377 81.0636C38.3677 81.0257 38.3659 80.9862 38.3718 80.9475L41.1373 62.7729C41.1423 62.7339 41.1552 62.6963 41.1752 62.6624C41.1951 62.6285 41.2217 62.5989 41.2534 62.5756C41.2851 62.5523 41.3212 62.5356 41.3595 62.5266C41.3978 62.5175 41.4375 62.5164 41.4763 62.5231C41.5149 62.5289 41.5521 62.5423 41.5856 62.5625C41.6191 62.5827 41.6483 62.6093 41.6715 62.6408C41.6947 62.6723 41.7115 62.708 41.7208 62.746C41.7302 62.784 41.732 62.8234 41.726 62.8621L38.9606 81.0367C38.9481 81.1066 38.9115 81.1698 38.8571 81.2155C38.8028 81.2611 38.7342 81.2863 38.6632 81.2865Z" fill="#758287"/>
<path d="M47.4942 63.106H44.4612C44.3823 63.106 44.3067 63.0746 44.2509 63.0189C44.1951 62.9631 44.1638 62.8875 44.1638 62.8086C44.1638 62.7297 44.1951 62.6541 44.2509 62.5983C44.3067 62.5426 44.3823 62.5112 44.4612 62.5112H47.2742C47.4348 62.0295 47.8392 60.7984 48.2258 59.7101C48.236 59.6702 48.2544 59.6328 48.2799 59.6004C48.3053 59.5679 48.3372 59.5412 48.3736 59.5217C48.4099 59.5023 48.4499 59.4906 48.491 59.4874C48.5321 59.4843 48.5734 59.4897 48.6123 59.5034C48.6512 59.517 48.6868 59.5386 48.7169 59.5668C48.747 59.5949 48.771 59.629 48.7872 59.6669C48.8034 59.7048 48.8116 59.7457 48.8111 59.7869C48.8107 59.8281 48.8018 59.8688 48.7848 59.9064C48.3031 61.2802 47.7797 62.88 47.7738 62.88C47.7591 62.9435 47.7237 63.0002 47.673 63.0412C47.6223 63.0822 47.5594 63.105 47.4942 63.106Z" fill="#758287"/>
<path d="M50.2597 81.2865C50.1885 81.2858 50.12 81.2596 50.0665 81.2127C50.0131 81.1657 49.9782 81.1012 49.9682 81.0308L47.2028 62.8502C47.191 62.7713 47.2109 62.691 47.2583 62.6268C47.3057 62.5627 47.3767 62.52 47.4555 62.5082C47.5344 62.4964 47.6147 62.5164 47.6789 62.5638C47.743 62.6112 47.7857 62.6821 47.7975 62.761L50.5689 80.9416C50.5748 80.9802 50.573 81.0197 50.5637 81.0577C50.5543 81.0956 50.5376 81.1314 50.5144 81.1629C50.4911 81.1944 50.462 81.221 50.4285 81.2412C50.395 81.2614 50.3578 81.2747 50.3191 81.2806L50.2597 81.2865Z" fill="#758287"/>
<path d="M53.6498 63.5996C53.59 63.6 53.5316 63.5812 53.4833 63.546L46.7689 58.9905C46.7363 58.9684 46.7084 58.9401 46.6868 58.9071C46.6652 58.8741 46.6504 58.8372 46.6432 58.7985C46.636 58.7598 46.6366 58.72 46.6449 58.6815C46.6532 58.643 46.6691 58.6065 46.6916 58.5742C46.7371 58.5112 46.805 58.468 46.8813 58.4537C46.9577 58.4393 47.0367 58.4547 47.1019 58.4969L53.4833 62.8264L56.3023 53.5666C56.3269 53.4916 56.3798 53.4291 56.4497 53.3924C56.5197 53.3558 56.6012 53.3479 56.6769 53.3704C56.7516 53.3937 56.814 53.4455 56.8507 53.5145C56.8874 53.5835 56.8955 53.6642 56.8732 53.7391L53.9353 63.3855C53.9216 63.431 53.8971 63.4726 53.864 63.5067C53.8309 63.5409 53.7901 63.5666 53.745 63.5817C53.7146 63.5934 53.6823 63.5994 53.6498 63.5996Z" fill="#758287"/>
<path d="M35.3083 63.5996C35.2749 63.6058 35.2406 63.6058 35.2072 63.5996C35.1631 63.5856 35.1232 63.5609 35.091 63.5277C35.0589 63.4945 35.0354 63.4538 35.0228 63.4093L32.0492 53.7629C32.0256 53.6841 32.0342 53.599 32.0732 53.5266C32.1123 53.4541 32.1785 53.4 32.2574 53.3764C32.3362 53.3527 32.4213 53.3614 32.4938 53.4004C32.5663 53.4394 32.6203 53.5057 32.6439 53.5845L35.4689 62.8443L41.8502 58.4791C41.9158 58.436 41.9957 58.4206 42.0725 58.4362C42.1494 58.4518 42.217 58.4971 42.2606 58.5623C42.283 58.5942 42.2987 58.6302 42.307 58.6682C42.3152 58.7063 42.3157 58.7456 42.3085 58.7838C42.3013 58.8221 42.2865 58.8585 42.265 58.8909C42.2435 58.9234 42.2157 58.9512 42.1833 58.9727L35.4748 63.5282C35.4283 63.5691 35.37 63.5941 35.3083 63.5996Z" fill="#758287"/>
<path d="M88.6906 80.2931H60.1798C59.9728 80.2931 59.7679 80.2524 59.5767 80.1732C59.3854 80.094 59.2117 79.9779 59.0654 79.8316C58.919 79.6852 58.8029 79.5115 58.7237 79.3203C58.6445 79.129 58.6038 78.9241 58.6038 78.7171V58.4967C58.6038 58.2897 58.6445 58.0848 58.7237 57.8935C58.8029 57.7023 58.919 57.5286 59.0654 57.3823C59.2117 57.2359 59.3854 57.1198 59.5767 57.0406C59.7679 56.9614 59.9728 56.9207 60.1798 56.9207H88.6906C89.1086 56.9207 89.5095 57.0867 89.8051 57.3823C90.1006 57.6778 90.2667 58.0787 90.2667 58.4967V78.7171C90.2667 79.1351 90.1006 79.536 89.8051 79.8316C89.5095 80.1271 89.1086 80.2931 88.6906 80.2931ZM60.1798 57.5273C59.9195 57.5273 59.6699 57.6306 59.4859 57.8147C59.3019 57.9987 59.1985 58.2483 59.1985 58.5086V78.729C59.1985 78.9893 59.3019 79.2389 59.4859 79.4229C59.6699 79.6069 59.9195 79.7103 60.1798 79.7103H88.6906C88.8195 79.7103 88.9471 79.6849 89.0662 79.6356C89.1852 79.5863 89.2934 79.514 89.3845 79.4229C89.4756 79.3318 89.5479 79.2236 89.5972 79.1046C89.6466 78.9855 89.6719 78.8579 89.6719 78.729V58.5086C89.6719 58.3797 89.6466 58.2521 89.5972 58.133C89.5479 58.014 89.4756 57.9058 89.3845 57.8147C89.2934 57.7236 89.1852 57.6513 89.0662 57.602C88.9471 57.5527 88.8195 57.5273 88.6906 57.5273H60.1798Z" fill="#758287"/>
<path d="M80.2398 57.5274H68.613C68.5342 57.5274 68.4585 57.496 68.4028 57.4403C68.347 57.3845 68.3157 57.3089 68.3157 57.23V53.3584C68.3157 53.0429 68.441 52.7404 68.6641 52.5173C68.8871 52.2943 69.1897 52.1689 69.5051 52.1689H79.318C79.6335 52.1689 79.936 52.2943 80.1591 52.5173C80.3821 52.7404 80.5074 53.0429 80.5074 53.3584V57.23C80.5078 57.304 80.4806 57.3754 80.4311 57.4304C80.3816 57.4854 80.3134 57.52 80.2398 57.5274ZM68.9401 56.9326H79.9543V53.3643C79.9543 53.2066 79.8917 53.0553 79.7802 52.9438C79.6686 52.8323 79.5174 52.7696 79.3596 52.7696H69.5349C69.3771 52.7696 69.2259 52.8323 69.1143 52.9438C69.0028 53.0553 68.9401 53.2066 68.9401 53.3643V56.9326Z" fill="#758287"/>
<path d="M76.939 68.1071H71.8958C71.6892 68.1071 71.491 68.025 71.3449 67.8789C71.1988 67.7328 71.1167 67.5347 71.1167 67.328V64.8064C71.1167 64.5998 71.1988 64.4016 71.3449 64.2555C71.491 64.1094 71.6892 64.0273 71.8958 64.0273H76.939C77.1456 64.0273 77.3438 64.1094 77.4899 64.2555C77.636 64.4016 77.7181 64.5998 77.7181 64.8064V67.328C77.7181 67.5347 77.636 67.7328 77.4899 67.8789C77.3438 68.025 77.1456 68.1071 76.939 68.1071ZM71.8958 64.6221C71.8469 64.6221 71.8 64.6415 71.7654 64.6761C71.7308 64.7106 71.7114 64.7575 71.7114 64.8064V67.328C71.7114 67.3769 71.7308 67.4238 71.7654 67.4584C71.8 67.493 71.8469 67.5124 71.8958 67.5124H76.939C76.9879 67.5124 77.0348 67.493 77.0694 67.4584C77.1039 67.4238 77.1234 67.3769 77.1234 67.328V64.8064C77.1234 64.7575 77.1039 64.7106 77.0694 64.6761C77.0348 64.6415 76.9879 64.6221 76.939 64.6221H71.8958Z" fill="#758287"/>
<path d="M89.9692 66.3647H77.4385C77.3596 66.3647 77.284 66.3334 77.2282 66.2776C77.1724 66.2219 77.1411 66.1462 77.1411 66.0674C77.1411 65.9885 77.1724 65.9129 77.2282 65.8571C77.284 65.8014 77.3596 65.77 77.4385 65.77H89.9692C90.0481 65.77 90.1237 65.8014 90.1795 65.8571C90.2353 65.9129 90.2666 65.9885 90.2666 66.0674C90.2666 66.1462 90.2353 66.2219 90.1795 66.2776C90.1237 66.3334 90.0481 66.3647 89.9692 66.3647Z" fill="#758287"/>
<path d="M71.4319 66.3647H58.9011C58.8223 66.3647 58.7466 66.3334 58.6909 66.2776C58.6351 66.2219 58.6038 66.1462 58.6038 66.0674C58.6038 65.9885 58.6351 65.9129 58.6909 65.8571C58.7466 65.8014 58.8223 65.77 58.9011 65.77H71.4319C71.5107 65.77 71.5864 65.8014 71.6421 65.8571C71.6979 65.9129 71.7292 65.9885 71.7292 66.0674C71.7292 66.1462 71.6979 66.2219 71.6421 66.2776C71.5864 66.3334 71.5107 66.3647 71.4319 66.3647Z" fill="#758287"/>
<path d="M51.8417 0.731508H51.9072C56.5936 1.53438 61.9104 8.46287 55.1305 15.659C55.309 15.9385 55.4695 16.2061 55.6301 16.4618L55.8323 16.8246C57.3302 18.1799 58.6296 19.7395 59.692 21.4575H59.7872C76.3799 25.8406 88.191 37.1343 88.191 50.3728C88.1908 52.6022 87.8581 54.8191 87.2038 56.9504L87.0908 57.2002H88.4586C88.6583 57.1994 88.8561 57.238 89.0408 57.3139C89.2255 57.3898 89.3934 57.5013 89.5349 57.6423C89.6763 57.7831 89.7885 57.9506 89.8651 58.135C89.9417 58.3194 89.9811 58.517 89.9811 58.7167V78.4436C89.9819 78.6437 89.9431 78.8421 89.8668 79.0271C89.7906 79.2122 89.6785 79.3804 89.537 79.5219C89.3954 79.6634 89.2273 79.7755 89.0422 79.8518C88.8571 79.928 88.6588 79.9668 88.4586 79.9661H60.4176C60.1872 79.9638 59.9603 79.9091 59.7542 79.806C59.5481 79.703 59.3682 79.5543 59.2282 79.3713L58.9189 79.52C56.082 80.2249 53.195 80.7101 50.2836 80.9711C48.3924 81.1555 46.4536 81.2447 44.491 81.2447C42.5284 81.2447 40.5837 81.1555 38.6865 80.9771C17.2766 78.9729 0.767189 66.0437 0.767189 50.3906C0.767189 37.1462 12.5902 25.8525 29.2008 21.4753H29.2602C30.2997 19.784 31.5686 18.2449 33.0308 16.9019L33.1021 16.8365C33.1735 16.7235 33.2389 16.6046 33.3162 16.4856C33.4649 16.2299 33.6255 15.9623 33.8098 15.6828C27.0241 8.46287 32.3349 1.54033 37.0154 0.737454H37.0927C37.1669 0.739819 37.2391 0.762271 37.3015 0.80242C37.364 0.842568 37.4144 0.898908 37.4473 0.965435C37.4803 1.03196 37.4946 1.10619 37.4887 1.1802C37.4828 1.25421 37.4569 1.32523 37.4138 1.3857C33.3995 7.39237 35.035 10.5801 36.724 12.0907C38.9491 9.91596 41.5746 8.1932 44.4553 7.0177C47.3337 8.19771 49.9584 9.91993 52.1867 12.0907C53.8995 10.5563 55.4993 7.38048 51.4968 1.3857C51.4546 1.32539 51.4296 1.25469 51.4246 1.18123C51.4196 1.10777 51.4347 1.03434 51.4684 0.968857C51.5021 0.903372 51.553 0.848319 51.6156 0.809636C51.6783 0.770953 51.7503 0.750109 51.8239 0.749348L51.8417 0.731508ZM51.8239 0.00594847C51.617 0.00768439 51.4144 0.0653142 51.2376 0.172739C51.0608 0.280164 50.9163 0.433391 50.8194 0.616207C50.7225 0.799023 50.6768 1.00463 50.6872 1.21127C50.6975 1.41792 50.7636 1.61792 50.8783 1.79011C53.5248 5.75094 53.9649 8.92675 52.1688 11.044C49.9885 9.03509 47.4722 7.42472 44.7348 6.28619C44.6438 6.25075 44.547 6.2326 44.4494 6.23267C44.3498 6.23255 44.251 6.25069 44.158 6.28619C41.4198 7.42329 38.9034 9.03381 36.724 11.044C34.9398 8.94459 35.3561 5.76284 38.0145 1.78416C38.1274 1.61112 38.1918 1.41094 38.2009 1.20452C38.21 0.998105 38.1635 0.793031 38.0663 0.610721C37.9691 0.428411 37.8246 0.275555 37.6482 0.168125C37.4717 0.0606948 37.2696 0.00263119 37.063 0H36.8786C33.9764 0.493618 31.2525 2.93197 30.2534 5.9472C29.623 7.83246 29.1591 11.5614 32.8523 15.7601L32.6323 16.1288C32.6312 16.1427 32.6312 16.1566 32.6323 16.1704C32.5966 16.224 32.5669 16.2834 32.5371 16.337V16.3845C31.09 17.6927 29.8221 19.1865 28.7666 20.8271C20.4703 23.0454 13.3693 26.9587 8.20714 32.0911C2.85466 37.4436 0 43.7833 0 50.4025C0 58.1339 3.98462 65.6155 11.2105 71.3961C18.3114 77.0698 28.0351 80.7392 38.5676 81.7324C40.5004 81.9108 42.4809 82 44.4434 82C46.406 82 48.3983 81.9108 50.3074 81.7205C53.2424 81.4564 56.153 80.9693 59.0141 80.2634C59.4089 80.5698 59.894 80.7371 60.3938 80.7392H88.423C89.0234 80.7376 89.5989 80.4984 90.0235 80.0738C90.4481 79.6492 90.6873 79.0738 90.6889 78.4733V58.7464C90.6873 58.1465 90.4479 57.5717 90.0231 57.1481C89.5983 56.7244 89.0229 56.4865 88.423 56.4865H88.084C88.6239 54.5036 88.8979 52.4577 88.8987 50.4025C88.8987 43.7892 86.0619 37.4614 80.7035 32.097C75.5413 26.9408 68.4344 23.0454 60.1321 20.7974C59.0912 19.1527 57.8374 17.6529 56.4032 16.337L56.3616 16.2537L56.2902 16.1229L56.2308 16.0218L56.0761 15.7779C59.7753 11.5792 59.3055 7.85031 58.6751 5.96504C57.6759 2.99144 54.9521 0.529302 52.0499 0.0178431H51.8596L51.8239 0.00594847Z" fill="#758287"/>
<path d="M63.1477 51.598C63.1087 51.5984 63.0701 51.5908 63.0342 51.5754C62.9984 51.56 62.9661 51.5373 62.9396 51.5088C62.9188 51.4934 62.9024 51.4729 62.892 51.4493C62.8526 51.4093 62.8268 51.3578 62.8183 51.3023C62.8098 51.2468 62.8189 51.1901 62.8444 51.14C62.8779 51.0723 62.9355 51.0195 63.0059 50.992C63.0763 50.9645 63.1545 50.9643 63.225 50.9914C63.2715 51.0022 63.3147 51.0241 63.3509 51.0551C63.3871 51.0862 63.4154 51.1255 63.4332 51.1698C63.4613 51.2465 63.459 51.331 63.427 51.4061C63.395 51.4812 63.3355 51.5413 63.2607 51.5742C63.2254 51.5906 63.1867 51.5988 63.1477 51.598Z" fill="#758287"/>
<path d="M61.5237 57.4499C61.4685 57.4513 61.414 57.4369 61.3666 57.4085C61.3192 57.3801 61.2809 57.3387 61.2561 57.2894C61.0578 56.9344 60.9496 56.5362 60.9409 56.1297C60.9495 55.0105 61.2076 53.9072 61.6962 52.9003C61.9748 52.323 62.3398 51.7916 62.7786 51.3243C62.806 51.2948 62.8391 51.2711 62.8759 51.2548C62.9127 51.2384 62.9524 51.2297 62.9927 51.2292C63.0336 51.2274 63.0745 51.2344 63.1124 51.2498C63.1504 51.2652 63.1846 51.2886 63.2127 51.3184L63.2782 51.3481C63.8182 51.568 64.3836 51.7199 64.9612 51.8001C64.9974 51.7823 65.0368 51.772 65.077 51.7699C65.1172 51.7677 65.1575 51.7738 65.1953 51.7877C65.2331 51.8016 65.2677 51.8231 65.297 51.8507C65.3263 51.8784 65.3496 51.9118 65.3656 51.9488C65.7284 52.7814 66.5551 54.8867 66.1982 56.4805C66.1507 56.6815 66.0932 56.88 66.0258 57.0753V57.1823C66.0029 57.2612 65.9496 57.3277 65.8777 57.3673C65.8058 57.4069 65.721 57.4163 65.6422 57.3934C65.5633 57.3706 65.4968 57.3173 65.4572 57.2454C65.4176 57.1734 65.4082 57.0887 65.4311 57.0098V56.9028C65.4948 56.7175 65.5484 56.5289 65.5916 56.3378C65.8711 55.0116 65.2407 53.2334 64.878 52.3532C64.2658 52.2598 63.6669 52.0941 63.0938 51.8596C62.7644 52.2376 62.4865 52.6576 62.2671 53.1085C61.8152 54.0352 61.5755 55.0511 61.5654 56.0821C61.5776 56.3949 61.6632 56.7005 61.8152 56.9742C61.8509 57.0437 61.8578 57.1244 61.8344 57.199C61.811 57.2736 61.7593 57.3359 61.6903 57.3726C61.6448 57.416 61.5863 57.4432 61.5237 57.4499Z" fill="#758287"/>
<path d="M65.1281 52.0915C65.0477 52.0913 64.9707 52.0592 64.914 52.0023C64.8829 51.9651 64.855 51.9253 64.8307 51.8834C64.8054 51.8306 64.7958 51.7717 64.8032 51.7137C64.8106 51.6556 64.8346 51.601 64.8724 51.5563C64.9116 51.5121 64.963 51.4805 65.0202 51.4657C65.0774 51.4509 65.1378 51.4534 65.1935 51.473C65.2605 51.4977 65.3191 51.5411 65.3623 51.598C65.4055 51.6549 65.4315 51.723 65.4373 51.7942C65.4317 51.8611 65.4059 51.9247 65.3635 51.9767C65.321 52.0287 65.2639 52.0666 65.1995 52.0856L65.1281 52.0915ZM65.0567 51.4968L65.1162 51.7347L65.0567 51.4968Z" fill="#758287"/>
<path d="M64.9257 52.4011C64.2777 52.3132 63.644 52.1412 63.0404 51.8896C62.9859 51.8702 62.934 51.8442 62.8858 51.8123C62.8497 51.7899 62.8158 51.764 62.7847 51.735C62.6859 51.6329 62.6306 51.4964 62.6306 51.3543C62.6306 51.2123 62.6859 51.0758 62.7847 50.9737C62.8175 50.9342 62.8598 50.9036 62.9077 50.8849C62.9555 50.8661 63.0073 50.8599 63.0583 50.8667C63.099 50.8717 63.1381 50.8855 63.173 50.9071C63.2079 50.9286 63.2377 50.9574 63.2605 50.9916H63.2962C63.379 51.0371 63.4668 51.073 63.5578 51.0986C63.6369 51.131 63.7184 51.1568 63.8017 51.1759L64.9614 51.4079C65.0115 51.4187 65.0583 51.4411 65.0982 51.4733C65.1573 51.4678 65.2169 51.4794 65.2696 51.5068C65.3223 51.5343 65.3661 51.5763 65.3955 51.6279C65.431 51.6825 65.455 51.7438 65.4661 51.808C65.4772 51.8721 65.4752 51.9379 65.4602 52.0012C65.4452 52.0646 65.4175 52.1243 65.3788 52.1767C65.3401 52.229 65.2911 52.273 65.2349 52.3059C65.1631 52.354 65.0774 52.377 64.9911 52.3713L64.9257 52.4011ZM64.9257 51.8063L64.9673 51.8836L64.9257 51.8123V51.8063Z" fill="#758287"/>
<path d="M63.1477 51.598C63.1087 51.5984 63.0701 51.5908 63.0342 51.5754C62.9984 51.56 62.9661 51.5373 62.9396 51.5088C62.9188 51.4934 62.9024 51.4729 62.892 51.4493C62.8526 51.4093 62.8268 51.3578 62.8183 51.3023C62.8098 51.2468 62.8189 51.1901 62.8444 51.14C62.8779 51.0723 62.9355 51.0195 63.0059 50.992C63.0763 50.9645 63.1545 50.9643 63.225 50.9914C63.2715 51.0022 63.3147 51.0241 63.3509 51.0551C63.3871 51.0862 63.4154 51.1255 63.4332 51.1698C63.4613 51.2465 63.459 51.331 63.427 51.4061C63.395 51.4812 63.3355 51.5413 63.2607 51.5742C63.2254 51.5906 63.1867 51.5988 63.1477 51.598Z" fill="#758287"/>
<path d="M26.1023 51.5744H26.0131C25.9717 51.5598 25.9333 51.5377 25.9001 51.509C25.8584 51.4668 25.83 51.4134 25.8184 51.3552C25.8068 51.2971 25.8124 51.2368 25.8347 51.1819C25.8529 51.1385 25.8813 51.1001 25.9176 51.07C25.9538 51.04 25.9968 51.0192 26.0428 51.0094C26.1052 50.9883 26.1729 50.9886 26.2351 51.0101C26.2974 51.0316 26.3507 51.0732 26.3868 51.1283C26.4229 51.1834 26.4396 51.249 26.4344 51.3146C26.4292 51.3803 26.4023 51.4424 26.358 51.4911C26.3219 51.5278 26.2768 51.5544 26.2272 51.5684C26.1861 51.5768 26.144 51.5788 26.1023 51.5744Z" fill="#758287"/>
<path d="M44.4614 59.2402C37.5448 59.2402 31.1991 54.7619 27.7319 47.6312C27.7223 48.0676 27.6584 48.5012 27.5416 48.9218C27.3215 49.8365 26.9167 50.6966 26.3522 51.4493C26.3138 51.4903 26.2672 51.5227 26.2154 51.5445C26.1036 51.6023 25.986 51.6482 25.8645 51.6813C25.7775 51.7174 25.6881 51.7472 25.5969 51.7705L24.5383 51.9786C24.5001 52.0189 24.4501 52.0459 24.3955 52.0559C24.3285 52.0651 24.2604 52.0651 24.1933 52.0559C24.1313 52.0564 24.0707 52.037 24.0204 52.0006C23.9702 51.9643 23.9328 51.9128 23.9138 51.8537L23.8544 51.6515C23.5035 50.4264 23.2953 49.683 23.6284 48.7969C23.7434 48.4884 23.9148 48.204 24.1339 47.9583C23.7406 47.3005 23.4442 46.5894 23.2537 45.8471C22.9583 44.4789 23.089 43.053 23.6284 41.7613C23.7275 41.4939 23.8702 41.2447 24.0506 41.0239C23.7848 40.5012 23.5716 39.9533 23.4143 39.3884C22.7898 37.1523 24.009 34.702 24.0922 34.595C24.1134 34.558 24.1417 34.5257 24.1755 34.4998L24.4669 34.2679C24.4414 33.2231 24.7114 32.1923 25.246 31.2943C25.2839 31.2249 25.3477 31.1733 25.4236 31.151C25.4994 31.1287 25.581 31.1375 25.6504 31.1753C25.7198 31.2132 25.7713 31.277 25.7936 31.3529C25.8159 31.4287 25.8072 31.5103 25.7694 31.5797C25.2637 32.4036 25.0209 33.362 25.0735 34.3273C25.0826 34.3792 25.0775 34.4327 25.0586 34.4819C25.0398 34.5311 25.0079 34.5743 24.9665 34.6069L24.6037 34.928C24.4312 35.2908 23.4856 37.3901 24.009 39.2278C24.1721 39.8272 24.4036 40.4059 24.6989 40.9525C24.7225 40.9985 24.7348 41.0495 24.7345 41.1012C24.7353 41.1806 24.7055 41.2573 24.6513 41.3153C24.4592 41.5141 24.3112 41.7512 24.2171 42.0111C23.7217 43.1846 23.5952 44.481 23.8544 45.7281C24.0438 46.4889 24.3594 47.2126 24.7881 47.8691C24.8284 47.9294 24.8458 48.0022 24.837 48.0742C24.8283 48.1462 24.794 48.2127 24.7405 48.2616C24.5066 48.482 24.3257 48.7524 24.2112 49.0526C23.9555 49.7306 24.1041 50.3075 24.4193 51.4315L25.5017 51.2174C25.5671 51.2018 25.6309 51.1799 25.692 51.152C25.7927 51.1241 25.8903 51.0862 25.9835 51.039C26.4614 50.3563 26.8065 49.5896 27.0004 48.779C27.2733 47.6434 27.1987 46.4521 26.7863 45.3594C26.7863 45.2999 26.7447 45.2464 26.7209 45.1929C26.6941 45.1187 26.6979 45.037 26.7313 44.9656C26.7648 44.8943 26.8252 44.8391 26.8993 44.8122C26.9356 44.798 26.9743 44.7912 27.0133 44.7922C27.0522 44.7932 27.0906 44.802 27.1261 44.8181C27.1615 44.8342 27.1934 44.8572 27.2199 44.8858C27.2463 44.9144 27.2667 44.9481 27.2799 44.9847C27.3033 45.0389 27.3232 45.0945 27.3394 45.1512C30.3963 53.3643 37.1107 58.6633 44.4911 58.6633C52.3712 58.6633 59.484 52.5793 62.19 43.5336C62.2002 43.4957 62.218 43.4602 62.2423 43.4293C62.2666 43.3984 62.2968 43.3728 62.3313 43.3539C62.3657 43.335 62.4036 43.3233 62.4427 43.3194C62.4818 43.3155 62.5213 43.3196 62.5587 43.3314C62.6333 43.3547 62.6958 43.4065 62.7325 43.4755C62.7692 43.5445 62.7773 43.6252 62.755 43.7001C62.4755 44.6398 62.0235 47.7204 62.3208 48.7731C62.5164 49.5831 62.8613 50.3495 63.3378 51.033C63.4157 51.0745 63.4973 51.1083 63.5816 51.1341C63.6607 51.1665 63.7422 51.1923 63.8255 51.2114L64.896 51.4255C65.2112 50.3194 65.3599 49.7425 65.1041 49.0467C64.994 48.7442 64.8124 48.4729 64.5748 48.2557C64.5199 48.2074 64.4852 48.1402 64.4774 48.0675C64.4697 47.9948 64.4896 47.9219 64.5332 47.8632C64.9593 47.2053 65.2748 46.4821 65.4669 45.7222C65.7261 44.4751 65.5996 43.1786 65.1041 42.0052C65.01 41.7452 64.8621 41.5081 64.67 41.3093C64.6145 41.2541 64.5825 41.1795 64.5808 41.1012C64.5834 41.0473 64.5976 40.9945 64.6224 40.9466C64.918 40.4008 65.1476 39.8219 65.3063 39.2219C65.8237 37.3842 64.8781 35.2848 64.7116 34.9221L64.3429 34.6306C64.3018 34.5976 64.2698 34.5545 64.25 34.5056C64.2302 34.4567 64.2233 34.4035 64.2299 34.3511C64.4737 32.6383 62.9453 30.6758 62.9275 30.6579C62.9032 30.6271 62.8853 30.5917 62.8748 30.554C62.8642 30.5162 62.8612 30.4767 62.8659 30.4378C62.8706 30.3989 62.8829 30.3612 62.9021 30.3271C62.9214 30.2929 62.9472 30.2628 62.978 30.2386C63.0089 30.2144 63.0442 30.1965 63.0819 30.186C63.1197 30.1754 63.1592 30.1724 63.1981 30.1771C63.2371 30.1818 63.2747 30.1941 63.3089 30.2133C63.343 30.2326 63.3731 30.2583 63.3973 30.2892C63.4627 30.3724 65.003 32.3469 64.8365 34.2619L65.1339 34.4939C65.1659 34.52 65.1922 34.5524 65.2112 34.589C65.2647 34.6961 66.5196 37.1463 65.8951 39.3825C65.7359 39.961 65.5207 40.5227 65.2528 41.0596C65.4235 41.292 65.5542 41.5513 65.6394 41.8268C66.1787 43.1184 66.3095 44.5443 66.0141 45.9125C65.8209 46.6539 65.5246 47.3646 65.1339 48.0237C65.3508 48.271 65.522 48.555 65.6394 48.8623C65.9724 49.7484 65.7643 50.4918 65.4134 51.7169L65.3777 51.8418C65.3576 51.9128 65.3179 51.9766 65.2632 52.026C65.2086 52.0755 65.141 52.1085 65.0685 52.1214C65.0013 52.1301 64.9334 52.1301 64.8662 52.1214C64.8121 52.1103 64.7624 52.0834 64.7235 52.044L63.6768 51.8359C63.5667 51.8101 63.4592 51.7743 63.3557 51.7288C63.2523 51.7006 63.1526 51.6607 63.0583 51.6099C63.0054 51.5999 62.9573 51.5727 62.9215 51.5326C62.3555 50.7698 61.9508 49.8996 61.7321 48.9753C61.5936 48.2219 61.5715 47.4517 61.6667 46.6916C58.3243 54.3159 51.711 59.2402 44.4614 59.2402Z" fill="#758287"/>
<path d="M26.0191 59.9478C25.5272 59.9134 25.0485 59.7735 24.6156 59.5374C24.5766 59.5143 24.5423 59.484 24.5145 59.4482C23.9712 58.7278 23.5475 57.9245 23.2596 57.0694C23.1904 56.8752 23.1347 56.6765 23.0931 56.4746C22.76 54.8808 23.5629 52.7755 23.9257 51.9429C23.9444 51.8987 23.9738 51.8599 24.0111 51.8298C24.0485 51.7997 24.0927 51.7793 24.1398 51.7704C24.1886 51.7583 24.2396 51.7583 24.2885 51.7704C24.8683 51.6915 25.4358 51.5396 25.9775 51.3184L26.0488 51.2887C26.11 51.2387 26.1844 51.2077 26.2629 51.1995C26.3033 51.1993 26.3433 51.2077 26.3802 51.2241C26.4171 51.2405 26.4501 51.2645 26.477 51.2946C26.9267 51.7681 27.2981 52.3101 27.5773 52.9004C28.0688 53.9063 28.327 55.0101 28.3326 56.1297C28.2674 56.8345 27.9965 57.5045 27.5535 58.0566C27.2785 58.4098 27.0764 58.8141 26.9588 59.246C26.938 59.373 26.8872 59.4932 26.8107 59.5967C26.7342 59.7001 26.634 59.7838 26.5187 59.8407C26.3631 59.916 26.1918 59.9527 26.0191 59.9478ZM24.9546 59.0379C25.3388 59.2734 25.7923 59.37 26.2391 59.3114C26.2867 59.3114 26.3343 59.252 26.3581 59.1271C26.4858 58.6196 26.7166 58.1439 27.0361 57.7295C27.4124 57.2727 27.6498 56.7174 27.72 56.1297C27.7119 55.0991 27.4742 54.0833 27.0242 53.1561C26.8051 52.7037 26.5249 52.2834 26.1916 51.9072C25.6185 52.1419 25.0196 52.3076 24.4074 52.4008C24.0446 53.275 23.4142 55.0592 23.6937 56.3854C23.7299 56.5692 23.7796 56.7501 23.8424 56.9266C24.0982 57.6852 24.4736 58.3979 24.9546 59.0379Z" fill="#758287"/>
<path d="M24.1335 52.0912H24.0621C23.9969 52.0739 23.9387 52.0363 23.896 51.984C23.8533 51.9317 23.8282 51.8672 23.8242 51.7998C23.8285 51.7282 23.854 51.6594 23.8974 51.6023C23.9408 51.5451 24.0002 51.5021 24.0681 51.4787C24.1228 51.4587 24.1824 51.456 24.2387 51.4709C24.2951 51.4858 24.3455 51.5176 24.3833 51.5619C24.4224 51.6059 24.4474 51.6607 24.4548 51.719C24.4622 51.7774 24.4518 51.8367 24.4249 51.889C24.4026 51.9309 24.3768 51.9707 24.3476 52.008C24.2899 52.0627 24.213 52.0926 24.1335 52.0912ZM24.0145 51.6809L23.9194 51.5857L24.0145 51.6809Z" fill="#758287"/>
<path d="M24.3127 52.3951H24.2473C24.1689 52.3973 24.0918 52.3744 24.0272 52.3297C23.9722 52.2957 23.9244 52.2511 23.8867 52.1985C23.8491 52.1458 23.8223 52.0862 23.8079 52.0231C23.7935 51.96 23.7918 51.8947 23.8029 51.8309C23.814 51.7672 23.8377 51.7062 23.8726 51.6517C23.9002 51.6025 23.941 51.562 23.9904 51.5346C24.0398 51.5073 24.0958 51.4943 24.1521 51.4971C24.1958 51.4638 24.2468 51.4413 24.3008 51.4317L25.4903 51.1997C25.5557 51.1842 25.6194 51.1623 25.6806 51.1343C25.7875 51.1054 25.8911 51.0656 25.9898 51.0154H26.0255C26.0491 50.982 26.0791 50.9538 26.1139 50.9323C26.1486 50.9108 26.1873 50.8966 26.2277 50.8905C26.2796 50.8814 26.333 50.8865 26.3823 50.9054C26.4315 50.9242 26.4747 50.9561 26.5072 50.9975C26.5553 51.051 26.5924 51.1134 26.6163 51.1813C26.6402 51.2491 26.6505 51.3209 26.6467 51.3927C26.6428 51.4645 26.6248 51.5349 26.5938 51.5997C26.5627 51.6646 26.5191 51.7227 26.4656 51.7707L26.3704 51.842C26.3313 51.8667 26.2894 51.8866 26.2456 51.9015C25.6269 52.1536 24.9765 52.3197 24.3127 52.3951Z" fill="#758287"/>
<path d="M26.1023 51.5744H26.0131C25.9717 51.5598 25.9333 51.5377 25.9001 51.509C25.8584 51.4668 25.83 51.4134 25.8184 51.3552C25.8068 51.2971 25.8124 51.2368 25.8347 51.1819C25.8529 51.1385 25.8813 51.1001 25.9176 51.07C25.9538 51.04 25.9968 51.0192 26.0428 51.0094C26.1052 50.9883 26.1729 50.9886 26.2351 51.0101C26.2974 51.0316 26.3507 51.0732 26.3868 51.1283C26.4229 51.1834 26.4396 51.249 26.4344 51.3146C26.4292 51.3803 26.4023 51.4424 26.358 51.4911C26.3219 51.5278 26.2768 51.5544 26.2272 51.5684C26.1861 51.5768 26.144 51.5788 26.1023 51.5744Z" fill="#758287"/>
</svg>
