<svg width="13" height="15" viewBox="0 0 13 15" fill="none" xmlns="http://www.w3.org/2000/svg">
<path d="M11.8809 1.41602V13.416H1.88086V1.41602H11.8809ZM11.8809 0.416016H1.88086C1.61564 0.416016 1.36129 0.521372 1.17375 0.708909C0.986216 0.896445 0.880859 1.1508 0.880859 1.41602V13.416C0.880859 13.6812 0.986216 13.9356 1.17375 14.1231C1.36129 14.3107 1.61564 14.416 1.88086 14.416H11.8809C12.1461 14.416 12.4004 14.3107 12.588 14.1231C12.7755 13.9356 12.8809 13.6812 12.8809 13.416V1.41602C12.8809 1.1508 12.7755 0.896445 12.588 0.708909C12.4004 0.521372 12.1461 0.416016 11.8809 0.416016Z" fill="#8D8E90"/>
<path d="M3.38086 10.916H4.38086V11.916H3.38086V10.916Z" fill="#8D8E90"/>
<path d="M9.38086 10.916H10.3809V11.916H9.38086V10.916Z" fill="#8D8E90"/>
<path d="M3.38086 8.41602H4.38086V9.41602H3.38086V8.41602Z" fill="#8D8E90"/>
<path d="M9.38086 8.41602H10.3809V9.41602H9.38086V8.41602Z" fill="#8D8E90"/>
<path d="M3.38086 5.91602H4.38086V6.91602H3.38086V5.91602Z" fill="#8D8E90"/>
<path d="M6.38086 10.916H7.38086V11.916H6.38086V10.916Z" fill="#8D8E90"/>
<path d="M6.38086 8.41602H7.38086V9.41602H6.38086V8.41602Z" fill="#8D8E90"/>
<path d="M6.38086 5.91602H7.38086V6.91602H6.38086V5.91602Z" fill="#8D8E90"/>
<path d="M9.38086 5.91602H10.3809V6.91602H9.38086V5.91602Z" fill="#8D8E90"/>
<path d="M3.38086 2.91602H10.3809V4.41602H3.38086V2.91602Z" fill="#8D8E90"/>
</svg>
