<svg width="16" height="16" viewBox="0 0 16 16" fill="none" xmlns="http://www.w3.org/2000/svg">
<path d="M8 16C3.57647 16 0 12.4235 0 8C0 3.57647 3.57647 0 8 0C12.4235 0 16 3.57647 16 8C16 12.4235 12.4235 16 8 16ZM8 0.941176C4.09412 0.941176 0.941176 4.09412 0.941176 8C0.941176 11.9059 4.09412 15.0588 8 15.0588C11.9059 15.0588 15.0588 11.9059 15.0588 8C15.0588 4.09412 11.9059 0.941176 8 0.941176Z" fill="#ED4C5C"/>
<path d="M7.5293 11.2943H8.47047V12.2355H7.5293V11.2943Z" fill="#ED4C5C"/>
<path d="M8.28224 10.3528H7.71753L7.5293 6.58806V3.76453H8.47047V6.58806L8.28224 10.3528Z" fill="#ED4C5C"/>
</svg>
