<svg width="82" height="82" viewBox="0 0 82 82" fill="none" xmlns="http://www.w3.org/2000/svg">
<path d="M63.1506 72.4932H45.0356C44.9694 72.4927 44.9056 72.4688 44.8555 72.4256C44.8053 72.3825 44.7721 72.323 44.7618 72.2577L42.9875 58.5126H38.9516L37.1718 72.2577C37.1638 72.323 37.132 72.3831 37.0825 72.4265C37.033 72.4699 36.9693 72.4937 36.9035 72.4932H18.7885C18.0409 72.4917 17.3245 72.1941 16.7959 71.6655C16.2673 71.137 15.9697 70.4205 15.9683 69.673V40.5509C15.9683 39.8024 16.2652 39.0845 16.7939 38.5548C17.3227 38.025 18.04 37.7267 18.7885 37.7252H63.1451C63.8936 37.7267 64.6109 38.025 65.1396 38.5548C65.6684 39.0845 65.9653 39.8024 65.9653 40.5509V69.673C65.9639 70.4195 65.6671 71.1352 65.1397 71.6636C64.6123 72.192 63.8972 72.4903 63.1506 72.4932ZM45.2765 71.9456H63.1506C63.7533 71.9456 64.3314 71.7061 64.7576 71.2799C65.1838 70.8537 65.4232 70.2757 65.4232 69.673V40.5509C65.4232 39.9477 65.1839 39.3691 64.7579 38.942C64.3319 38.5149 63.7538 38.2743 63.1506 38.2728H18.7939C18.1907 38.2743 17.6127 38.5149 17.1866 38.942C16.7606 39.3691 16.5214 39.9477 16.5214 40.5509V69.673C16.5214 70.2757 16.7608 70.8537 17.187 71.2799C17.6132 71.7061 18.1912 71.9456 18.7939 71.9456H36.6626L38.4423 58.2224C38.4503 58.1565 38.4818 58.0958 38.5312 58.0515C38.5805 58.0072 38.6443 57.9823 38.7106 57.9814H43.223C43.2902 57.9809 43.3553 58.0052 43.4058 58.0497C43.4563 58.0941 43.4887 58.1556 43.4968 58.2224L45.2765 71.9456Z" fill="#758287"/>
<path d="M48.256 81.5781H33.6785C33.5627 81.5832 33.447 81.5655 33.3381 81.5259C33.2292 81.4863 33.1291 81.4255 33.0436 81.3472C32.9582 81.2689 32.889 81.1745 32.8401 81.0694C32.7912 80.9643 32.7635 80.8506 32.7585 80.7348V78.0843C32.7635 77.9685 32.7912 77.8548 32.8401 77.7497C32.889 77.6446 32.9582 77.5502 33.0436 77.4719C33.1291 77.3935 33.2292 77.3328 33.3381 77.2932C33.447 77.2536 33.5627 77.2358 33.6785 77.241H48.256C48.3718 77.2358 48.4875 77.2536 48.5964 77.2932C48.7054 77.3328 48.8054 77.3935 48.8909 77.4719C48.9763 77.5502 49.0455 77.6446 49.0944 77.7497C49.1433 77.8548 49.1711 77.9685 49.176 78.0843V80.7348C49.1711 80.8506 49.1433 80.9643 49.0944 81.0694C49.0455 81.1745 48.9763 81.2689 48.8909 81.3472C48.8054 81.4255 48.7054 81.4863 48.5964 81.5259C48.4875 81.5655 48.3718 81.5832 48.256 81.5781ZM33.6785 77.7886C33.5901 77.7793 33.5016 77.8051 33.4319 77.8604C33.3623 77.9157 33.3171 77.9961 33.3062 78.0843V80.7348C33.3171 80.823 33.3623 80.9034 33.4319 80.9587C33.5016 81.014 33.5901 81.0397 33.6785 81.0305H48.256C48.3444 81.0397 48.433 81.014 48.5026 80.9587C48.5722 80.9034 48.6174 80.823 48.6284 80.7348V78.0843C48.6174 77.9961 48.5722 77.9157 48.5026 77.8604C48.433 77.8051 48.3444 77.7793 48.256 77.7886H33.6785Z" fill="#758287"/>
<path d="M45.7259 77.7885H36.2138C36.1745 77.7888 36.1355 77.7807 36.0996 77.7646C36.0637 77.7486 36.0317 77.725 36.0057 77.6954C35.9807 77.6662 35.9619 77.6322 35.9506 77.5955C35.9393 77.5587 35.9357 77.52 35.94 77.4818L38.4426 58.2223C38.4506 58.1564 38.4821 58.0957 38.5315 58.0514C38.5809 58.0071 38.6446 57.9822 38.7109 57.9813H43.2233C43.2905 57.9808 43.3556 58.0051 43.4061 58.0496C43.4566 58.094 43.489 58.1555 43.4971 58.2223L45.9997 77.4983C46.004 77.5365 46.0004 77.5752 45.9891 77.6119C45.9778 77.6487 45.959 77.6827 45.934 77.7118C45.9062 77.7379 45.8734 77.7581 45.8377 77.7713C45.8019 77.7844 45.7639 77.7903 45.7259 77.7885ZM36.526 77.2409H45.4137L42.9878 58.5125H38.9519L36.526 77.2409Z" fill="#758287"/>
<path d="M23.8544 38.1685C23.791 38.1696 23.7293 38.1482 23.6802 38.1081C23.6311 38.068 23.5977 38.0118 23.5861 37.9495C23.25 36.258 23.0813 34.5375 23.0823 32.8129C23.0823 25.8911 25.6944 19.5388 30.2451 15.3824C30.2717 15.3579 30.3028 15.3389 30.3368 15.3265C30.3707 15.3141 30.4068 15.3085 30.4429 15.3101C30.479 15.3116 30.5144 15.3202 30.5472 15.3354C30.58 15.3507 30.6094 15.3722 30.6339 15.3988C30.6583 15.4254 30.6773 15.4566 30.6897 15.4905C30.7021 15.5244 30.7077 15.5605 30.7062 15.5966C30.7046 15.6327 30.696 15.6682 30.6808 15.7009C30.6656 15.7337 30.644 15.7632 30.6174 15.7876C26.1763 19.8399 23.6299 26.0444 23.6299 32.8129C23.6281 34.5007 23.7932 36.1846 24.1227 37.84C24.1357 37.9118 24.12 37.9858 24.079 38.0461C24.0381 38.1065 23.9752 38.1485 23.9037 38.1631L23.8544 38.1685Z" fill="#758287"/>
<path d="M58.0907 38.2125H58.0359C57.9654 38.1967 57.9038 38.1542 57.864 38.094C57.8242 38.0338 57.8092 37.9604 57.8223 37.8894C58.1537 36.2195 58.3206 34.521 58.3207 32.8185C58.3207 26.1322 55.6976 19.758 51.3057 15.7659C51.2766 15.7425 51.2526 15.7134 51.2352 15.6804C51.2177 15.6474 51.2072 15.6112 51.2042 15.574C51.2013 15.5368 51.206 15.4994 51.218 15.4641C51.23 15.4288 51.2492 15.3963 51.2742 15.3686C51.2993 15.3409 51.3297 15.3187 51.3637 15.3032C51.3976 15.2877 51.4344 15.2794 51.4717 15.2786C51.509 15.2779 51.5461 15.2848 51.5806 15.2989C51.6152 15.313 51.6465 15.334 51.6726 15.3606C56.2452 19.517 58.8683 25.8803 58.8683 32.8185C58.8703 34.5561 58.6997 36.2896 58.359 37.9935C58.3454 38.0548 58.3116 38.1099 58.2629 38.1496C58.2142 38.1894 58.1535 38.2115 58.0907 38.2125Z" fill="#758287"/>
<path d="M34.3405 20.9243C34.3079 20.9295 34.2746 20.9295 34.242 20.9243C32.4752 20.2218 30.7926 19.3236 29.2258 18.2465C29.1958 18.2261 29.1701 18.2 29.1502 18.1697C29.1303 18.1393 29.1167 18.1054 29.1101 18.0697C29.1034 18.034 29.104 17.9974 29.1116 17.9619C29.1193 17.9265 29.1339 17.8929 29.1546 17.8631C29.1745 17.8333 29.2001 17.8077 29.2299 17.7879C29.2598 17.7681 29.2933 17.7544 29.3285 17.7478C29.3638 17.7412 29.4 17.7417 29.435 17.7492C29.47 17.7568 29.5032 17.7713 29.5325 17.7919C31.0734 18.8411 32.7265 19.7154 34.461 20.3986C34.5283 20.4244 34.5826 20.4756 34.6124 20.5412C34.6421 20.6068 34.6448 20.6815 34.6198 20.7491C34.5979 20.8041 34.559 20.8508 34.5088 20.8823C34.4586 20.9138 34.3997 20.9285 34.3405 20.9243Z" fill="#758287"/>
<path d="M40.9673 22.2005C39.1722 22.1985 37.3875 21.929 35.6718 21.401C35.6031 21.3795 35.5457 21.3318 35.5118 21.2683C35.478 21.2047 35.4706 21.1304 35.4911 21.0614C35.5138 20.9923 35.5625 20.9348 35.6269 20.901C35.6914 20.8673 35.7664 20.86 35.8361 20.8807C39.1819 21.9186 42.7636 21.9186 46.1094 20.8807C46.1783 20.8602 46.2526 20.8676 46.3162 20.9014C46.3797 20.9353 46.4274 20.9927 46.4489 21.0614C46.4696 21.1312 46.4623 21.2062 46.4286 21.2706C46.3948 21.3351 46.3373 21.3838 46.2682 21.4064C44.5505 21.9331 42.7639 22.2008 40.9673 22.2005Z" fill="#758287"/>
<path d="M47.5277 20.9517C47.4551 20.9648 47.3802 20.9485 47.3196 20.9064C47.2591 20.8643 47.2177 20.7998 47.2046 20.7272C47.1915 20.6546 47.2078 20.5798 47.2499 20.5192C47.2921 20.4586 47.3565 20.4172 47.4291 20.4041C49.1813 19.7203 50.8496 18.8384 52.4014 17.7756C52.4308 17.755 52.4639 17.7405 52.499 17.7329C52.534 17.7253 52.5702 17.7248 52.6054 17.7314C52.6406 17.7381 52.6741 17.7517 52.704 17.7715C52.7339 17.7913 52.7595 17.8169 52.7793 17.8468C52.8 17.8765 52.8147 17.9101 52.8223 17.9456C52.83 17.981 52.8305 18.0177 52.8239 18.0533C52.8172 18.089 52.8036 18.123 52.7837 18.1533C52.7639 18.1837 52.7382 18.2098 52.7081 18.2301C51.1216 19.3162 49.4167 20.2182 47.6263 20.9189C47.5955 20.9353 47.5622 20.9464 47.5277 20.9517Z" fill="#758287"/>
<path d="M40.9673 18.5529C37.2617 18.4899 33.645 17.4081 30.5134 15.4261C30.4518 15.3876 30.4076 15.3266 30.3902 15.256C30.3728 15.1855 30.3836 15.1109 30.4203 15.0482C30.4389 15.0172 30.4634 14.9901 30.4925 14.9686C30.5216 14.9471 30.5547 14.9315 30.5898 14.9229C30.6249 14.9142 30.6614 14.9126 30.6972 14.9181C30.733 14.9237 30.7673 14.9363 30.7981 14.9551C37.5447 19.0129 44.3899 19.0129 51.1365 14.9606C51.1674 14.9417 51.2017 14.9292 51.2374 14.9236C51.2732 14.9181 51.3097 14.9197 51.3448 14.9283C51.38 14.937 51.413 14.9525 51.4421 14.9741C51.4712 14.9956 51.4958 15.0226 51.5143 15.0537C51.551 15.1164 51.5618 15.191 51.5444 15.2615C51.5271 15.3321 51.4829 15.3931 51.4212 15.4316C48.2891 17.4116 44.6724 18.4915 40.9673 18.5529Z" fill="#758287"/>
<path d="M33.8479 11.4013C33.812 11.4011 33.7766 11.3937 33.7437 11.3796C33.7108 11.3655 33.681 11.3449 33.6562 11.3192C33.6305 11.2937 33.6102 11.2634 33.5963 11.2301C33.5824 11.1967 33.5752 11.1609 33.5752 11.1247C33.5752 11.0886 33.5824 11.0528 33.5963 11.0194C33.6102 10.9861 33.6305 10.9558 33.6562 10.9303C35.7345 8.90786 38.1807 7.30185 40.8628 6.19897C40.9296 6.17172 41.0045 6.17197 41.0712 6.19966C41.1378 6.22735 41.1909 6.28024 41.2187 6.34683C41.233 6.37983 41.2404 6.41537 41.2407 6.45132C41.2409 6.48727 41.234 6.52291 41.2202 6.55611C41.2064 6.58931 41.1861 6.61941 41.1604 6.6446C41.1348 6.66979 41.1043 6.68958 41.0709 6.70277C38.4549 7.78051 36.0685 9.3473 34.0395 11.3192C34.0151 11.3455 33.9854 11.3664 33.9524 11.3805C33.9194 11.3946 33.8838 11.4017 33.8479 11.4013Z" fill="#758287"/>
<path d="M29.3791 18.2903C29.3538 18.2956 29.3277 18.2956 29.3025 18.2903C29.2681 18.2809 29.2361 18.2647 29.2081 18.2427C29.1801 18.2207 29.1567 18.1934 29.1394 18.1623C29.1221 18.1312 29.1111 18.097 29.1071 18.0616C29.1032 18.0262 29.1063 17.9904 29.1163 17.9563C29.5381 16.6676 30.1371 15.4438 30.896 14.3201C30.936 14.2591 30.9985 14.2165 31.0699 14.2016C31.1412 14.1867 31.2156 14.2008 31.2766 14.2407C31.3376 14.2807 31.3802 14.3432 31.3951 14.4146C31.41 14.4859 31.3959 14.5603 31.356 14.6213C30.6322 15.7008 30.0557 16.8721 29.642 18.1041C29.6242 18.1594 29.589 18.2075 29.5416 18.2411C29.4942 18.2746 29.4372 18.2919 29.3791 18.2903Z" fill="#758287"/>
<path d="M48.086 11.4013C48.0148 11.4007 47.9464 11.3733 47.8944 11.3247C45.8681 9.3481 43.4811 7.77907 40.863 6.70282C40.8029 6.67091 40.7568 6.61776 40.7337 6.55371C40.7107 6.48967 40.7123 6.41933 40.7383 6.35641C40.7643 6.2935 40.8127 6.24252 40.8743 6.21342C40.9358 6.18432 41.006 6.17918 41.0711 6.19901C43.7552 7.30051 46.202 8.90876 48.2777 10.9359C48.3032 10.9608 48.3235 10.9907 48.3373 11.0236C48.3511 11.0565 48.3582 11.0918 48.3582 11.1275C48.3582 11.1632 48.3511 11.1986 48.3373 11.2315C48.3235 11.2644 48.3032 11.2942 48.2777 11.3192C48.2268 11.3703 48.1581 11.3997 48.086 11.4013Z" fill="#758287"/>
<path d="M52.5546 18.2901C52.4951 18.2911 52.437 18.2722 52.3895 18.2365C52.3419 18.2008 52.3075 18.1503 52.2917 18.093C51.878 16.8609 51.3015 15.6897 50.5777 14.6102C50.5386 14.5492 50.5253 14.4751 50.5407 14.4043C50.5561 14.3334 50.5989 14.2716 50.6598 14.2323C50.6898 14.2122 50.7236 14.1984 50.759 14.1916C50.7945 14.1849 50.831 14.1853 50.8662 14.193C50.9015 14.2007 50.9349 14.2154 50.9644 14.2363C50.9938 14.2571 51.0188 14.2837 51.0377 14.3145C51.797 15.436 52.3961 16.658 52.8174 17.9451C52.8274 17.9793 52.8305 18.0151 52.8266 18.0505C52.8226 18.0858 52.8116 18.1201 52.7943 18.1512C52.777 18.1822 52.7536 18.2096 52.7256 18.2316C52.6976 18.2535 52.6656 18.2697 52.6313 18.2792C52.6068 18.2882 52.5806 18.2919 52.5546 18.2901Z" fill="#758287"/>
<path d="M32.353 15.4316C32.1501 15.4347 31.9486 15.3971 31.7605 15.3209C31.5723 15.2447 31.4014 15.1315 31.2578 14.9881C28.3555 12.0529 27.2767 8.75624 28.235 5.70604C29.0893 3.03369 31.4769 0.859663 34.0506 0.416097C34.1736 0.396167 34.2996 0.412487 34.4134 0.463059C34.5272 0.513631 34.6238 0.596265 34.6914 0.700856C34.7609 0.807569 34.7979 0.932185 34.7979 1.05954C34.7979 1.1869 34.7609 1.31152 34.6914 1.41823C32.7583 4.32058 32.0683 6.79031 32.6159 8.75077C32.8385 9.44042 33.2057 10.0746 33.693 10.611C34.1802 11.1474 34.7764 11.5736 35.4416 11.8612C35.5256 11.8965 35.6019 11.948 35.6659 12.0129C35.7299 12.0778 35.7804 12.1547 35.8145 12.2392C35.8486 12.3238 35.8657 12.4142 35.8646 12.5053C35.8636 12.5965 35.8445 12.6865 35.8085 12.7702C35.5545 13.4652 35.1187 14.0792 34.5466 14.5483C33.9744 15.0173 33.2869 15.3243 32.5557 15.4371C32.4881 15.4407 32.4203 15.4389 32.353 15.4316ZM34.1711 0.952757C32.9187 1.22599 31.7609 1.82592 30.8154 2.69157C29.8699 3.55721 29.1705 4.65773 28.7881 5.88127C27.879 8.72338 28.914 11.8229 31.6904 14.6047C31.794 14.71 31.9207 14.7895 32.0605 14.837C32.2002 14.8846 32.3492 14.8988 32.4954 14.8786C33.1329 14.7843 33.7325 14.5177 34.2295 14.1075C34.7266 13.6973 35.1021 13.1592 35.3156 12.5512C35.3287 12.5162 35.3281 12.4776 35.3139 12.443C35.2997 12.4085 35.2729 12.3806 35.239 12.365C34.5013 12.0457 33.8405 11.5721 33.3012 10.976C32.7618 10.38 32.3564 9.67539 32.1121 8.90958C31.5042 6.78484 32.2271 4.16177 34.2642 1.12252C34.276 1.10464 34.2823 1.08369 34.2823 1.06228C34.2823 1.04087 34.276 1.01993 34.2642 1.00204C34.2555 0.985387 34.2419 0.971765 34.2253 0.962968C34.2087 0.954171 34.1898 0.95061 34.1711 0.952757Z" fill="#758287"/>
<path d="M49.5919 15.4317C49.5244 15.4372 49.4567 15.4372 49.3893 15.4317C48.6567 15.3212 47.9673 15.0159 47.3931 14.5477C46.819 14.0795 46.3812 13.4657 46.1255 12.7703C46.0592 12.6044 46.0598 12.4193 46.1272 12.2538C46.1946 12.0884 46.3235 11.9555 46.4869 11.8832C47.1521 11.5956 47.7482 11.1694 48.2355 10.633C48.7228 10.0966 49.09 9.46242 49.3126 8.77277C49.8602 6.81231 49.1757 4.34258 47.2317 1.4457C47.1617 1.33815 47.1244 1.2126 47.1244 1.08428C47.1244 0.95596 47.1617 0.830402 47.2317 0.722854C47.2987 0.617751 47.3952 0.534707 47.5092 0.484071C47.6231 0.433435 47.7494 0.417446 47.8724 0.438095C50.4462 0.881661 52.8338 3.05568 53.688 5.72804C54.6573 8.77824 53.5785 12.0749 50.6488 15.0101C50.3645 15.2824 49.9855 15.4337 49.5919 15.4317ZM47.7738 0.95285C47.7593 0.954098 47.7454 0.958709 47.733 0.966316C47.7207 0.973922 47.7102 0.984314 47.7026 0.99666C47.6908 1.01454 47.6846 1.03549 47.6846 1.0569C47.6846 1.07831 47.6908 1.09925 47.7026 1.11714C49.7397 4.15639 50.4407 6.77945 49.8547 8.90419C49.6105 9.67001 49.205 10.3746 48.6656 10.9707C48.1263 11.5667 47.4655 12.0403 46.7279 12.3596C46.6939 12.3752 46.6672 12.4031 46.6529 12.4377C46.6387 12.4722 46.6381 12.5108 46.6512 12.5458C46.8647 13.1538 47.2403 13.692 47.7373 14.1021C48.2343 14.5123 48.8339 14.7789 49.4714 14.8732C49.6176 14.8934 49.7666 14.8792 49.9063 14.8317C50.0461 14.7841 50.1728 14.7046 50.2764 14.5994C53.0528 11.8175 54.1097 8.718 53.1787 5.87589C52.7964 4.65235 52.0969 3.55183 51.1514 2.68618C50.2059 1.82054 49.0482 1.22061 47.7957 0.947375L47.7738 0.95285Z" fill="#758287"/>
<path d="M39.2311 27.786H39.1708C37.4453 27.3903 35.8999 26.433 34.7771 25.0643C33.6542 23.6957 33.0174 21.9931 32.9664 20.2235C32.9649 20.1518 32.9916 20.0824 33.0407 20.0301C33.0899 19.9779 33.1576 19.9471 33.2292 19.9442C33.3011 19.944 33.3704 19.971 33.4232 20.0197C33.476 20.0685 33.5085 20.1354 33.514 20.2071C33.5649 21.8533 34.1593 23.4363 35.2044 24.7093C36.2495 25.9822 37.6865 26.8734 39.2913 27.2439C39.3266 27.2517 39.36 27.2663 39.3897 27.2871C39.4193 27.3079 39.4445 27.3343 39.4638 27.3648C39.4832 27.3954 39.4963 27.4294 39.5024 27.4651C39.5085 27.5007 39.5075 27.5372 39.4994 27.5725C39.4848 27.6328 39.4505 27.6866 39.4019 27.7253C39.3533 27.764 39.2932 27.7853 39.2311 27.786Z" fill="#758287"/>
<path d="M42.6321 27.8023C42.569 27.8023 42.5078 27.7805 42.4589 27.7406C42.41 27.7007 42.3764 27.6451 42.3638 27.5833C42.3557 27.5484 42.3548 27.5122 42.3609 27.4769C42.3671 27.4416 42.3803 27.4079 42.3997 27.3778C42.4191 27.3477 42.4443 27.3218 42.4739 27.3016C42.5034 27.2814 42.5368 27.2673 42.5719 27.2602C44.196 26.9058 45.6546 26.0174 46.7147 24.7369C47.7748 23.4565 48.3753 21.8577 48.4204 20.196C48.4293 20.1256 48.4628 20.0607 48.5148 20.0127C48.5669 19.9646 48.6343 19.9364 48.7051 19.9331C48.7768 19.936 48.8445 19.9668 48.8936 20.019C48.9428 20.0713 48.9695 20.1407 48.968 20.2124C48.9183 21.9958 48.2728 23.7113 47.1343 25.085C45.9958 26.4587 44.4301 27.4115 42.6868 27.7914L42.6321 27.8023Z" fill="#758287"/>
<path d="M40.9669 28.2623C40.2698 28.2629 39.5901 28.0443 39.0241 27.6375C38.4581 27.2306 38.0343 26.6561 37.8126 25.9952C37.7135 25.6838 37.6832 25.3545 37.7238 25.0302C37.7645 24.7058 37.8751 24.3942 38.0481 24.1169C38.3498 23.5801 38.7613 23.1129 39.2557 22.7459C39.7502 22.3788 40.3164 22.1201 40.9176 21.9867C40.9502 21.9812 40.9835 21.9812 41.0161 21.9867C41.6173 22.1201 42.1836 22.3788 42.678 22.7459C43.1724 23.1129 43.5839 23.5801 43.8856 24.1169C44.0577 24.3947 44.1674 24.7065 44.2071 25.0308C44.2468 25.3551 44.2156 25.6841 44.1156 25.9952C43.8943 26.6552 43.4713 27.2291 42.9064 27.6359C42.3414 28.0426 41.663 28.2618 40.9669 28.2623ZM40.9669 22.5398C40.4509 22.6642 39.9665 22.8945 39.5442 23.2159C39.1219 23.5374 38.7709 23.943 38.5136 24.4071C38.3818 24.615 38.2974 24.8493 38.2662 25.0935C38.235 25.3376 38.2577 25.5856 38.3328 25.82C38.5171 26.3729 38.8706 26.8537 39.3433 27.1945C39.8161 27.5353 40.3841 27.7187 40.9669 27.7187C41.5496 27.7187 42.1176 27.5353 42.5904 27.1945C43.0631 26.8537 43.4167 26.3729 43.6009 25.82C43.676 25.5856 43.6988 25.3376 43.6675 25.0935C43.6363 24.8493 43.5519 24.615 43.4202 24.4071C43.1628 23.943 42.8118 23.5374 42.3895 23.2159C41.9672 22.8945 41.4828 22.6642 40.9669 22.5398Z" fill="#758287"/>
<path d="M45.3701 22.1672C44.9101 22.1672 44.5322 22.7148 44.5322 23.4048C44.5322 24.0948 44.9101 24.6424 45.3701 24.6424C45.8301 24.6424 46.2134 24.0948 46.2134 23.4048C46.2134 22.7148 45.8355 22.1672 45.3701 22.1672ZM45.3701 24.3194C45.2946 24.3194 45.2221 24.2894 45.1687 24.236C45.1153 24.1825 45.0853 24.1101 45.0853 24.0346C45.0846 23.9967 45.0914 23.9591 45.1054 23.9239C45.1194 23.8888 45.1402 23.8567 45.1668 23.8297C45.1933 23.8027 45.2249 23.7812 45.2598 23.7665C45.2947 23.7519 45.3322 23.7444 45.3701 23.7444C45.447 23.7444 45.5209 23.7749 45.5753 23.8294C45.6297 23.8838 45.6603 23.9576 45.6603 24.0346C45.6603 24.0725 45.6528 24.1099 45.6381 24.1448C45.6235 24.1798 45.602 24.2114 45.575 24.2379C45.548 24.2644 45.5159 24.2853 45.4807 24.2993C45.4455 24.3133 45.4079 24.3201 45.3701 24.3194Z" fill="#758287"/>
<path d="M36.449 22.1672C35.9836 22.1672 35.6057 22.7148 35.6057 23.4048C35.6057 24.0948 35.9836 24.6424 36.449 24.6424C36.9145 24.6424 37.2869 24.0948 37.2869 23.4048C37.2869 22.7148 36.8871 22.1672 36.449 22.1672ZM36.5421 24.3194C36.5043 24.3201 36.4667 24.3133 36.4315 24.2993C36.3963 24.2853 36.3643 24.2644 36.3372 24.2379C36.3102 24.2114 36.2887 24.1798 36.2741 24.1448C36.2594 24.1099 36.2519 24.0725 36.2519 24.0346C36.2519 23.9576 36.2825 23.8838 36.3369 23.8294C36.3913 23.7749 36.4652 23.7444 36.5421 23.7444C36.58 23.7444 36.6175 23.7519 36.6524 23.7665C36.6873 23.7812 36.7189 23.8027 36.7454 23.8297C36.772 23.8567 36.7928 23.8888 36.8068 23.9239C36.8208 23.9591 36.8276 23.9967 36.8269 24.0346C36.827 24.0739 36.819 24.1128 36.8033 24.1489C36.7877 24.1849 36.7647 24.2174 36.7359 24.2441C36.7071 24.2709 36.6731 24.2914 36.6359 24.3043C36.5988 24.3173 36.5594 24.3224 36.5202 24.3194H36.5421Z" fill="#758287"/>
<path d="M30.973 24.9163C30.9247 24.9167 30.8772 24.9034 30.8361 24.878C30.8361 24.878 28.1638 23.2352 29.4452 20.5792C29.5562 20.4028 29.7095 20.2568 29.8912 20.1545C30.0729 20.0522 30.2772 19.9968 30.4856 19.9933C30.9018 19.9933 31.4987 20.1521 32.0135 21.0447C32.0321 21.0736 32.0446 21.106 32.0503 21.1399C32.0559 21.1738 32.0546 21.2085 32.0463 21.2418L31.214 24.7082C31.205 24.75 31.1858 24.7889 31.1581 24.8214C31.1304 24.8539 31.095 24.879 31.0551 24.8944C31.0292 24.9064 31.0014 24.9138 30.973 24.9163ZM30.524 20.5354C30.4178 20.5389 30.3136 20.5657 30.219 20.614C30.1243 20.6622 30.0415 20.7308 29.9764 20.8147C29.6908 21.3853 29.6211 22.0398 29.7801 22.6577C29.9391 23.2756 30.3161 23.8152 30.8416 24.177L31.5261 21.2199C31.4311 21.0249 31.2854 20.8589 31.1043 20.7394C30.9232 20.62 30.7133 20.5514 30.4966 20.5409L30.524 20.5354Z" fill="#758287"/>
<path d="M50.9879 24.9163C50.9519 24.9246 50.9145 24.9246 50.8784 24.9163C50.8386 24.9009 50.8032 24.8758 50.7755 24.8433C50.7477 24.8108 50.7285 24.7719 50.7196 24.7301L49.9146 21.2638C49.9063 21.2304 49.905 21.1957 49.9107 21.1618C49.9163 21.1279 49.9288 21.0955 49.9475 21.0666C50.4622 20.174 51.0427 19.9714 51.4753 20.0152C51.6838 20.0187 51.8881 20.0741 52.0698 20.1764C52.2514 20.2787 52.4047 20.4247 52.5158 20.6012C53.7972 23.2571 51.1522 24.8835 51.1248 24.8999C51.0815 24.9177 51.0342 24.9234 50.9879 24.9163ZM50.4732 21.2254L51.1577 24.1825C51.6814 23.8192 52.0569 23.2796 52.2158 22.6623C52.3746 22.045 52.3062 21.3912 52.0229 20.8202C51.9578 20.7363 51.8749 20.6677 51.7803 20.6194C51.6856 20.5712 51.5815 20.5444 51.4753 20.5409C51.2633 20.5583 51.0594 20.6305 50.8837 20.7506C50.708 20.8706 50.5665 21.0342 50.4732 21.2254Z" fill="#758287"/>
<path d="M16.1878 69.1415C16.142 69.1417 16.0968 69.1304 16.0564 69.1086C6.10627 63.6325 0.400146 55.369 0.400146 46.4484C0.400146 34.5104 11.0074 23.7006 26.8006 19.5387C26.8732 19.5205 26.95 19.532 27.0142 19.5705C27.0784 19.609 27.1247 19.6714 27.1428 19.7441C27.161 19.8167 27.1495 19.8935 27.111 19.9577C27.0725 20.0219 27.0101 20.0682 26.9375 20.0863C11.3907 24.1825 0.947759 34.7842 0.947759 46.4648C0.947759 55.1774 6.54984 63.2601 16.3193 68.6486C16.3508 68.6653 16.3787 68.6881 16.4013 68.7156C16.4239 68.7432 16.4408 68.775 16.451 68.8091C16.4612 68.8433 16.4645 68.8791 16.4607 68.9146C16.4568 68.95 16.446 68.9843 16.4288 69.0155C16.4027 69.0553 16.3668 69.0878 16.3247 69.1098C16.2825 69.1319 16.2354 69.1428 16.1878 69.1415Z" fill="#758287"/>
<path d="M36.5258 74.9792C32.2527 74.6623 28.0333 73.8332 23.9581 72.5094C23.89 72.4857 23.8337 72.4365 23.801 72.3722C23.7684 72.3079 23.7619 72.2334 23.7828 72.1644C23.7934 72.1299 23.8108 72.0978 23.834 72.0701C23.8572 72.0424 23.8858 72.0197 23.918 72.0033C23.9502 71.987 23.9854 71.9773 24.0215 71.9749C24.0575 71.9724 24.0937 71.9773 24.1278 71.9892C28.1635 73.2952 32.34 74.1169 36.5696 74.437C36.6422 74.437 36.7119 74.4659 36.7632 74.5172C36.8146 74.5686 36.8434 74.6382 36.8434 74.7108C36.8434 74.7834 36.8146 74.8531 36.7632 74.9044C36.7119 74.9558 36.6422 74.9846 36.5696 74.9846L36.5258 74.9792Z" fill="#758287"/>
<path d="M45.3866 74.9847C45.314 74.9847 45.2443 74.9558 45.193 74.9045C45.1416 74.8531 45.1128 74.7835 45.1128 74.7109C45.1128 74.6383 45.1416 74.5686 45.193 74.5173C45.2443 74.4659 45.314 74.4371 45.3866 74.4371C49.6261 74.1205 53.8123 73.2968 57.8557 71.9838C57.9247 71.9628 57.9992 71.9693 58.0635 72.002C58.1278 72.0346 58.177 72.0909 58.2007 72.159C58.2126 72.1931 58.2175 72.2293 58.2151 72.2654C58.2126 72.3014 58.203 72.3366 58.1866 72.3688C58.1702 72.401 58.1475 72.4296 58.1198 72.4528C58.0922 72.4761 58.0601 72.4935 58.0255 72.504C53.942 73.8327 49.7131 74.6638 45.4304 74.9792L45.3866 74.9847Z" fill="#758287"/>
<path d="M65.7516 69.1363C65.6905 69.1366 65.6311 69.1165 65.5828 69.0791C65.5345 69.0418 65.5 68.9894 65.4849 68.9302C65.4698 68.871 65.4749 68.8085 65.4994 68.7526C65.5239 68.6967 65.5664 68.6505 65.6202 68.6215C75.3786 63.2385 80.9533 55.1557 80.9533 46.4487C80.9533 34.7736 70.5158 24.1718 54.98 20.0756C54.9074 20.0568 54.8453 20.0098 54.8073 19.9451C54.7693 19.8804 54.7585 19.8033 54.7774 19.7306C54.7963 19.658 54.8433 19.5959 54.908 19.5579C54.9727 19.5199 55.0498 19.5091 55.1224 19.528C70.9484 23.7227 81.5228 34.5217 81.5228 46.4487C81.5228 55.3638 75.8222 63.6163 65.883 69.1034C65.8424 69.1246 65.7974 69.1358 65.7516 69.1363Z" fill="#758287"/>
<path d="M40.9613 34.0451C39.2771 34.0284 37.6191 33.6256 36.1149 32.8677C36.0825 32.852 36.0535 32.83 36.0297 32.803C36.0058 32.776 35.9875 32.7445 35.9758 32.7104C35.9641 32.6763 35.9592 32.6403 35.9615 32.6043C35.9637 32.5683 35.9731 32.5332 35.989 32.5008C36.0219 32.4364 36.0786 32.3873 36.147 32.3638C36.2154 32.3403 36.2903 32.3443 36.3559 32.3749C37.7751 33.109 39.3497 33.4922 40.9476 33.4922C42.5455 33.4922 44.1201 33.109 45.5393 32.3749C45.6051 32.3456 45.6795 32.3424 45.7476 32.3657C45.8156 32.3891 45.8723 32.4374 45.9062 32.5008C45.9221 32.5332 45.9315 32.5683 45.9337 32.6043C45.936 32.6403 45.9312 32.6763 45.9195 32.7104C45.9078 32.7445 45.8894 32.776 45.8656 32.803C45.8417 32.83 45.8127 32.852 45.7803 32.8677C44.2865 33.6271 42.637 34.0301 40.9613 34.0451Z" fill="#758287"/>
<path d="M47.7683 0.679039H47.8285C52.1437 1.42379 57.0284 7.79801 50.7966 14.4351C50.9609 14.6906 51.1142 14.9371 51.2566 15.1744L51.4482 15.5248C52.8115 16.7714 53.9948 18.2016 54.9639 19.7743H55.068C70.3573 23.8047 81.2439 34.2094 81.2439 46.4102C81.2439 55.5115 75.1763 63.6162 65.7409 68.824L65.6917 68.8569V69.6345C65.6917 70.3098 65.4234 70.9575 64.9458 71.4351C64.4683 71.9126 63.8206 72.1809 63.1453 72.1809H57.9758L57.9101 72.2082C53.8475 73.5282 49.6408 74.3537 45.3807 74.667L45.7476 77.4763H48.2776C48.3579 77.4711 48.4384 77.4819 48.5145 77.5081C48.5905 77.5343 48.6607 77.5753 48.7208 77.6288C48.7809 77.6823 48.8298 77.7471 48.8646 77.8197C48.8995 77.8922 48.9196 77.9709 48.9237 78.0513V80.6908C48.9196 80.7711 48.8995 80.8498 48.8646 80.9224C48.8298 80.9949 48.7809 81.0598 48.7208 81.1133C48.6607 81.1668 48.5905 81.2078 48.5145 81.234C48.4384 81.2601 48.3579 81.271 48.2776 81.2658H33.6782C33.5979 81.271 33.5174 81.2601 33.4413 81.234C33.3652 81.2078 33.2951 81.1668 33.235 81.1133C33.1749 81.0598 33.126 80.9949 33.0911 80.9224C33.0563 80.8498 33.0362 80.7711 33.032 80.6908V78.0513C33.0362 77.9709 33.0563 77.8922 33.0911 77.8197C33.126 77.7471 33.1749 77.6823 33.235 77.6288C33.2951 77.5753 33.3652 77.5343 33.4413 77.5081C33.5174 77.4819 33.5979 77.4711 33.6782 77.4763H36.2082L36.5751 74.667H36.5313C32.2773 74.3485 28.0765 73.523 24.0183 72.2082L23.9745 72.1809H18.7831C18.1078 72.1809 17.4601 71.9126 16.9825 71.4351C16.505 70.9575 16.2367 70.3098 16.2367 69.6345V68.8459H16.1984C6.75754 63.6436 0.684516 55.5334 0.684516 46.4266C0.684516 34.2203 11.582 23.8157 26.8768 19.7853H26.9371C27.902 18.2321 29.0758 16.8188 30.4254 15.5851L30.4856 15.5467L30.6773 15.2017C30.8251 14.9663 30.973 14.7198 31.1373 14.4625C24.9054 7.82539 29.7901 1.45117 34.1053 0.706421H34.1656C34.2297 0.710126 34.2919 0.730137 34.3462 0.764564C34.4005 0.79899 34.4451 0.846693 34.4758 0.903161C34.5065 0.95963 34.5223 1.023 34.5216 1.08727C34.521 1.15154 34.504 1.21459 34.4722 1.27046C30.7704 6.80683 32.2818 9.74204 33.8425 11.1275C35.8939 9.12686 38.3107 7.53918 40.9615 6.45088C43.6122 7.54154 46.029 9.13101 48.0804 11.133C49.6521 9.73108 51.1471 6.79588 47.4452 1.27594C47.408 1.2196 47.3866 1.15432 47.3831 1.08689C47.3797 1.01946 47.3944 0.952353 47.4257 0.892537C47.457 0.83272 47.5038 0.782384 47.5612 0.746764C47.6185 0.711143 47.6844 0.691539 47.7519 0.689991L47.7683 0.679039ZM47.7519 0.00547521C47.5621 0.00886092 47.3767 0.063025 47.2149 0.162334C47.0532 0.261644 46.921 0.402474 46.8321 0.570176C46.7432 0.737879 46.7009 0.92633 46.7095 1.11593C46.7182 1.30554 46.7774 1.48937 46.8812 1.64831C49.3235 5.30637 49.7287 8.21967 48.064 10.1746C46.0529 8.32661 43.7346 6.84403 41.2134 5.79374C41.1277 5.76105 41.0367 5.74435 40.945 5.74446C40.8551 5.7444 40.766 5.76111 40.6822 5.79374C38.1594 6.84102 35.8405 8.32391 33.8315 10.1746C32.1887 8.23062 32.5775 5.30089 35.0253 1.64284C35.1274 1.48314 35.1852 1.29913 35.1927 1.10972C35.2002 0.920314 35.1571 0.732329 35.0679 0.565073C34.9787 0.397817 34.8466 0.257319 34.6851 0.158012C34.5236 0.0587053 34.3387 0.00416699 34.1491 0H33.9794C31.307 0.459995 28.8044 2.70521 27.879 5.47613C27.2985 7.21206 26.8659 10.6456 30.2666 14.5227C30.2173 14.5994 30.1735 14.676 30.1242 14.7472L30.0694 14.8458L29.9763 15.0101L29.938 15.0758C28.6213 16.2876 27.4688 17.6665 26.5099 19.1774C18.8434 21.2255 12.3158 24.8123 7.56254 29.5821C2.63402 34.5106 0 40.3536 0 46.454C0 55.4294 5.66232 63.7422 15.5522 69.295V69.6783C15.5522 70.5352 15.8926 71.357 16.4985 71.9629C17.1044 72.5688 17.9262 72.9092 18.7831 72.9092H23.854C27.7392 74.171 31.7553 74.9867 35.8248 75.3406L35.6113 76.8411H33.6782C33.3349 76.8322 33.0021 76.9598 32.7526 77.1959C32.5032 77.432 32.3575 77.7573 32.3475 78.1006V80.7401C32.3575 81.0834 32.5032 81.4087 32.7526 81.6447C33.0021 81.8808 33.3349 82.0084 33.6782 81.9996H48.2557C48.599 82.0084 48.9318 81.8808 49.1812 81.6447C49.4306 81.4087 49.5763 81.0834 49.5864 80.7401V78.1006C49.5763 77.7573 49.4306 77.432 49.1812 77.1959C48.9318 76.9598 48.599 76.8322 48.2557 76.8411H46.3062L46.109 75.3461C50.1787 74.9931 54.1949 74.1774 58.0798 72.9147H63.1288C63.9857 72.9147 64.8075 72.5743 65.4134 71.9684C66.0193 71.3624 66.3597 70.5406 66.3597 69.6838V69.3004C76.2496 63.7476 81.912 55.4349 81.912 46.4595C81.912 40.3646 79.2998 34.5325 74.3549 29.593C69.6016 24.8397 63.0522 21.2529 55.4075 19.1884C54.4463 17.6744 53.29 16.2935 51.9685 15.0813V15.0265L51.8699 14.8513L51.8151 14.7527C51.7659 14.6815 51.722 14.6048 51.6728 14.5282C55.0734 10.6511 54.6408 7.21754 54.0604 5.48161C53.1349 2.74354 50.6323 0.481899 47.9654 0.00547521H47.7902H47.7519Z" fill="#758287"/>
<path d="M35.0254 21.5815C34.8842 21.5878 34.7442 21.5535 34.6219 21.4826C34.4996 21.4118 34.4002 21.3074 34.3354 21.1818L33.9685 20.3822C33.8998 20.1834 33.9085 19.966 33.9927 19.7733C34.0769 19.5805 34.2305 19.4265 34.423 19.3418C35.3045 18.8586 36.2195 18.4395 37.1611 18.0877C37.3502 17.9904 37.5695 17.9697 37.7734 18.0299C37.9774 18.0901 38.1503 18.2265 38.2563 18.4108L38.6287 19.2158C38.6942 19.4063 38.6874 19.6141 38.6096 19.7999C38.5319 19.9856 38.3886 20.1364 38.207 20.2234C37.3052 20.7597 36.3488 21.1984 35.354 21.5322C35.2474 21.5645 35.1367 21.5811 35.0254 21.5815ZM37.5444 18.5751C37.4788 18.5763 37.4138 18.5893 37.3528 18.6134C36.4363 18.9532 35.5466 19.3614 34.6914 19.8346C34.5052 19.9332 34.4395 20.0865 34.4669 20.1522L34.8338 20.9846C34.8338 21.0449 35.009 21.0941 35.2007 21.0284C36.1423 20.7095 37.0488 20.2948 37.9059 19.7908C38.0756 19.6868 38.1359 19.5444 38.1085 19.4842L37.7361 18.6792C37.7197 18.6135 37.6485 18.5751 37.5444 18.5751Z" fill="#758287"/>
<path d="M46.8541 21.5814C46.7349 21.5791 46.6167 21.5588 46.5036 21.5211C45.5266 21.1914 44.5869 20.76 43.6999 20.2342C43.5166 20.1491 43.3718 19.9985 43.2938 19.8121C43.2158 19.6257 43.2102 19.4169 43.2782 19.2266L43.6451 18.4216C43.752 18.2383 43.925 18.1027 44.1286 18.0427C44.3321 17.9826 44.551 18.0026 44.7403 18.0986C45.6833 18.4469 46.5986 18.8661 47.4784 19.3526C47.6722 19.4332 47.8285 19.584 47.9158 19.7749C48.0032 19.9659 48.0151 20.1827 47.9493 20.3821L47.5824 21.1816C47.5156 21.314 47.4103 21.4231 47.2803 21.4945C47.1503 21.5659 47.0017 21.5961 46.8541 21.5814ZM44.3351 18.575C44.2993 18.571 44.2631 18.5759 44.2297 18.5893C44.1962 18.6027 44.1666 18.6241 44.1434 18.6516L43.7765 19.4566C43.7765 19.5169 43.7765 19.6592 43.9791 19.7633C44.8402 20.2626 45.7504 20.6718 46.6953 20.9845C46.887 21.0502 47.0348 20.9845 47.0622 20.9407L47.4291 20.1357C47.462 20.07 47.3908 19.9166 47.2101 19.8181C46.3524 19.3458 45.461 18.9377 44.5432 18.5969C44.4813 18.5772 44.4162 18.5697 44.3515 18.575H44.3351Z" fill="#758287"/>
</svg>
