<svg width="10" height="13" viewBox="0 0 10 13" fill="none" xmlns="http://www.w3.org/2000/svg">
<path d="M9.16602 0.0881348H0.594587C0.357533 0.0881348 0.166016 0.279653 0.166016 0.516706V11.6596C0.166016 11.8966 0.357533 12.0881 0.594587 12.0881H9.16602C9.40307 12.0881 9.59459 11.8966 9.59459 11.6596V0.516706C9.59459 0.279653 9.40307 0.0881348 9.16602 0.0881348ZM5.68387 1.05242H6.96959V3.86358L6.34682 3.40956L5.68387 3.88367V1.05242ZM8.6303 11.1238H1.1303V1.05242H4.8803V5.02876C4.8803 5.07296 4.89369 5.11715 4.92048 5.15331C4.93674 5.1763 4.9574 5.19583 4.98125 5.21078C5.00511 5.22573 5.0317 5.2358 5.05947 5.24041C5.08724 5.24502 5.11566 5.24407 5.14306 5.23763C5.17047 5.23118 5.19633 5.21937 5.21914 5.20287L6.34146 4.40063L7.43164 5.19617C7.4678 5.22296 7.512 5.23769 7.55753 5.23769C7.67539 5.23769 7.77182 5.14126 7.77182 5.0234V1.05242H8.62896V11.1238H8.6303Z" fill="#8D8E90"/>
</svg>
