<?xml version="1.0" encoding="utf-8"?>
<!-- Generator: Adobe Illustrator 24.2.0, SVG Export Plug-In . SVG Version: 6.00 Build 0)  -->
<svg version="1.1" id="Layer_1" xmlns="http://www.w3.org/2000/svg" xmlns:xlink="http://www.w3.org/1999/xlink" x="0px" y="0px"
	 viewBox="0 0 230 92" style="enable-background:new 0 0 230 92;" xml:space="preserve">
<style type="text/css">
	.st0{fill:#FCAF1B;}
	.st1{fill:#2DABE2;}
</style>
<g>
	<path class="st0" d="M20.4,0.5c2.4-0.3,4.8-0.2,7.2-0.3c2.2,0,4.3-0.3,6.5-0.1c2.8,0.2,5.7,0.1,8.5,0.4c10.9,0.7,21.8,2.4,32,6.5
		c7.4,2.9,14.5,7.3,19.6,13.5c2,2.5,3.8,5.2,4.7,8.3c1.1,3.6,1.2,7.5,0.9,11.2c-0.7,6.6-3,13-6,18.8C87.6,70.1,78.3,79.9,66.9,86
		c-6.9,3.6-14.7,6.4-22.6,5.6c-6.7-0.5-12.8-3.9-17.5-8.4c-6.9-6.9-11.5-15.7-15.2-24.6c-2-5-3.7-10.1-5.4-15.2
		c-2.3-7-4.8-14.1-5.8-21.5c-0.5-3.9-0.6-8,0.7-11.8c1.1-3.3,3.7-6,6.8-7.4C11.8,0.9,16.2,0.8,20.4,0.5z"/>
	<g>
		<path class="st1" d="M120.8,33.6v4.6h-6.2v1.8h5.8v4.6h-5.8v6.5H110V33.6H120.8z"/>
		<path class="st1" d="M130,36.5c2,0,3.8,0.7,5.2,2.2l-3.3,3.3c-0.5-0.5-1.2-0.8-1.9-0.8c-0.8,0-1.4,0.3-2,0.8
			c-0.5,0.5-0.8,1.2-0.8,2v7.2h-4.6V36.7h4.6v0.4C128.1,36.7,129,36.5,130,36.5z"/>
		<path class="st1" d="M141.1,32.4c0,0.7-0.3,1.4-0.8,1.9c-0.5,0.5-1.2,0.8-1.9,0.8s-1.4-0.3-1.9-0.8c-0.5-0.5-0.8-1.2-0.8-1.9
			c0-0.7,0.3-1.4,0.8-1.9c0.5-0.5,1.2-0.8,1.9-0.8s1.4,0.3,1.9,0.8C140.8,31,141.1,31.6,141.1,32.4z M136.1,36.7h4.7v14.5h-4.7V36.7
			z"/>
		<path class="st1" d="M165.6,33.6v17.6h-0.8V34.6l-8.2,16.5h-1.3l-8.4-16.9v16.9h-0.8V33.6h1.4l8.5,17.1l8.5-17.1H165.6z"/>
		<path class="st1" d="M180.4,38.8v12.3h-0.8v-3c-0.6,1-1.4,1.8-2.4,2.4c-1,0.6-2.1,0.9-3.4,0.9c-1.8,0-3.3-0.6-4.6-1.9
			c-1.3-1.3-1.9-2.8-1.9-4.6c0-1.8,0.6-3.3,1.9-4.6c1.3-1.3,2.8-1.9,4.6-1.9c1.2,0,2.3,0.3,3.4,0.9c1,0.6,1.8,1.4,2.4,2.4v-3H180.4z
			 M173.9,50.7c1.6,0,2.9-0.6,4.1-1.7c1.1-1.1,1.7-2.5,1.7-4c0-1.6-0.6-2.9-1.7-4.1c-1.1-1.1-2.5-1.7-4.1-1.7c-1.6,0-2.9,0.6-4,1.7
			c-1.1,1.1-1.7,2.5-1.7,4.1c0,1.6,0.6,2.9,1.7,4C170.9,50.2,172.3,50.7,173.9,50.7z"/>
		<path class="st1" d="M182.9,41.9c0.6-1,1.3-1.8,2.3-2.4c1-0.6,2.2-0.9,3.4-0.9v0.8c-1.6,0-2.9,0.6-4,1.7c-1.1,1.1-1.7,2.5-1.7,4
			v6.2h-0.8V38.8h0.8V41.9z"/>
		<path class="st1" d="M190.5,35.4v11.9l8.7-8.4h1.2l-5.9,5.7l5.9,6.6h-1.1l-5.4-6l-3.4,3.3v2.7h-0.8V35.4H190.5z"/>
		<path class="st1" d="M214.6,45.4h-12.2c0.1,1.5,0.7,2.7,1.8,3.8c1.1,1,2.4,1.5,3.9,1.5c1.6,0,2.9-0.6,4.1-1.7l0.6,0.6
			c-1.3,1.3-2.8,1.9-4.6,1.9c-1.8,0-3.3-0.6-4.6-1.9c-1.3-1.3-1.9-2.8-1.9-4.6c0-1.8,0.6-3.3,1.9-4.6c1.3-1.3,2.8-1.9,4.6-1.9
			c1.8,0,3.3,0.6,4.6,1.9c1.3,1.3,1.9,2.8,1.9,4.6V45.4z M213.7,44.6c-0.1-1.5-0.7-2.7-1.8-3.8c-1.1-1-2.4-1.6-3.9-1.6
			c-1.5,0-2.8,0.5-3.9,1.6c-1.1,1-1.7,2.3-1.8,3.8H213.7z"/>
		<path class="st1" d="M229.3,33.6v17.6h-0.8v-3c-0.6,1-1.4,1.8-2.4,2.4c-1,0.6-2.1,0.9-3.4,0.9c-1.8,0-3.3-0.6-4.6-1.9
			c-1.3-1.3-1.9-2.8-1.9-4.6c0-1.8,0.6-3.3,1.9-4.6c1.3-1.3,2.8-1.9,4.6-1.9c1.2,0,2.3,0.3,3.4,0.9c1,0.6,1.8,1.4,2.4,2.4v-8.3
			H229.3z M222.8,50.7c1.6,0,2.9-0.6,4.1-1.7c1.1-1.1,1.7-2.5,1.7-4c0-1.6-0.6-2.9-1.7-4.1c-1.1-1.1-2.5-1.7-4.1-1.7
			c-1.6,0-2.9,0.6-4,1.7c-1.1,1.1-1.7,2.5-1.7,4.1c0,1.6,0.6,2.9,1.7,4C219.9,50.2,221.2,50.7,222.8,50.7z"/>
	</g>
	<g>
		<g>
			<path class="st1" d="M24.8,43.7c9.5-10.2,19.1-20.3,28.8-30.3c2.9,4.6,2.9,11.4-1.1,15.4c-2.9,3.1-5.6,6.4-8.7,9.4
				c-2.5,2.9-5.8,5.4-7.6,8.8c0.4,1.4,2.3,2.3,3.3,0.9c2.3-1.9,3.5-5.4,6.4-6.3c2,1.2,3.4,3.1,5,4.8c-1.1,3.3-5,4.9-6.4,8.1
				c0.4,2.2,2.9,3,4.3,4.6c2.6,2.8,5.8,6,5.3,10.1c0.3,2.4-1.1,4.4-2.4,6.3c-1,0-1.6-1-2.3-1.5c-4.8-4.5-9.6-9.1-14.3-13.6
				c-3.9-3.7-8.2-7.2-11.7-11.3C23,47.2,23.3,45,24.8,43.7z"/>
			<path class="st1" d="M58.6,21.6c3.7,3,8.7,5.3,10.1,10.2c0.9,1.9-0.1,4-0.4,5.9c1.8-0.1,3.9-1,5.4,0.4c3.4,2.2,7.1,6.6,4.5,10.7
				c-7,7.9-14.2,15.7-21.4,23.5c0.1-2.4,0.7-4.9-0.5-7.1c-0.4-1-1.3-2-1-3.1c4.3-5.3,9.5-9.6,13.8-14.9c1.5-1.7-1.9-2.6-2.8-1.2
				c-4.5,4.4-8.4,9.4-13,13.6c-2.3-0.7-3.9-2.9-5.5-4.5c3.8-5.1,8.6-9.3,12.8-14c0.9-0.7,0.9-1.9,0.7-3c-0.5,0-1.5,0-1.9,0.1
				c-2.2,1.9-3.7,4.4-6.1,6.1c-2.2-1.1-3.8-3.2-5.5-4.9c2.1-3.9,6.4-6.6,8.9-10.3C58.3,26.9,58.4,24.2,58.6,21.6z"/>
		</g>
	</g>
</g>
</svg>
