<svg width="30" height="20" viewBox="0 0 30 20" fill="none" xmlns="http://www.w3.org/2000/svg">
<rect x="0.1" y="0.1" width="29.8" height="19.8" rx="1.9" fill="white" stroke="black" stroke-width="0.2"/>
<path d="M7.99954 18.9153V17.7901C7.99954 17.3587 7.73536 17.0775 7.28256 17.0775C7.0562 17.0775 6.81093 17.1525 6.64112 17.3963C6.50912 17.19 6.32049 17.0775 6.0375 17.0775C5.84878 17.0775 5.66023 17.1337 5.50924 17.34V17.115H5.11307V18.9153H5.50924V17.9213C5.50924 17.6026 5.67905 17.4525 5.94322 17.4525C6.20722 17.4525 6.3394 17.6213 6.3394 17.9213V18.9153H6.73557V17.9213C6.73557 17.6026 6.92411 17.4525 7.16938 17.4525C7.43355 17.4525 7.56555 17.6213 7.56555 17.9213V18.9153H7.99954ZM13.8666 17.115H13.2252V16.5711H12.8291V17.115H12.4706V17.4712H12.829V18.2964C12.829 18.709 12.9988 18.9528 13.4516 18.9528C13.6214 18.9528 13.8099 18.8966 13.9421 18.8216L13.8288 18.4839C13.7157 18.559 13.5837 18.5777 13.4893 18.5777C13.3007 18.5777 13.2252 18.4652 13.2252 18.2776V17.4712H13.8666V17.115ZM17.2247 17.0774C16.9983 17.0774 16.8474 17.19 16.753 17.34V17.115H16.3569V18.9153H16.753V17.9026C16.753 17.6026 16.885 17.4338 17.1303 17.4338C17.2058 17.4338 17.3001 17.4526 17.3756 17.4713L17.4888 17.0963C17.4133 17.0775 17.3001 17.0775 17.2247 17.0775V17.0774ZM12.1499 17.265C11.9612 17.1337 11.6971 17.0775 11.4141 17.0775C10.9614 17.0775 10.6596 17.3025 10.6596 17.6588C10.6596 17.9589 10.8859 18.1276 11.2821 18.1839L11.4707 18.2027C11.6783 18.2401 11.7914 18.2964 11.7914 18.3902C11.7914 18.5215 11.6405 18.6152 11.3764 18.6152C11.1123 18.6152 10.9047 18.5215 10.7727 18.4277L10.584 18.7278C10.7916 18.8778 11.0746 18.9528 11.3575 18.9528C11.8857 18.9528 12.1876 18.709 12.1876 18.3714C12.1876 18.0526 11.9423 17.8838 11.565 17.8276L11.3764 17.8088C11.2066 17.79 11.0746 17.7526 11.0746 17.6401C11.0746 17.5088 11.2066 17.4338 11.4141 17.4338C11.6405 17.4338 11.8669 17.5275 11.9801 17.5838L12.1499 17.265ZM22.6768 17.0775C22.4504 17.0775 22.2994 17.19 22.2051 17.34V17.115H21.8089V18.9153H22.2051V17.9026C22.2051 17.6026 22.3372 17.4338 22.5824 17.4338C22.6579 17.4338 22.7523 17.4526 22.8277 17.4713L22.9409 17.0963C22.8654 17.0775 22.7523 17.0775 22.6768 17.0775ZM17.6208 18.0151C17.6208 18.559 17.9981 18.9528 18.583 18.9528C18.8471 18.9528 19.0357 18.8966 19.2243 18.7466L19.0357 18.4277C18.8848 18.5402 18.7339 18.5965 18.5641 18.5965C18.2434 18.5965 18.017 18.3714 18.017 18.0151C18.017 17.6776 18.2434 17.4525 18.5641 17.4338C18.7339 17.4338 18.8848 17.49 19.0357 17.6026L19.2243 17.2838C19.0357 17.1337 18.8471 17.0775 18.583 17.0775C17.9981 17.0775 17.6208 17.4713 17.6208 18.0151ZM21.2807 18.0151V17.115H20.8846V17.34C20.7525 17.1713 20.5639 17.0775 20.3186 17.0775C19.8092 17.0775 19.4131 17.4713 19.4131 18.0151C19.4131 18.559 19.8092 18.9528 20.3186 18.9528C20.5827 18.9528 20.7714 18.8591 20.8846 18.6903V18.9153H21.2807V18.0151ZM19.8281 18.0151C19.8281 17.6963 20.0356 17.4338 20.3751 17.4338C20.6959 17.4338 20.9223 17.6776 20.9223 18.0151C20.9223 18.3339 20.6959 18.5965 20.3751 18.5965C20.0356 18.5777 19.8281 18.3339 19.8281 18.0151ZM15.0929 17.0775C14.5646 17.0775 14.1873 17.4525 14.1873 18.0151C14.1873 18.5777 14.5646 18.9528 15.1117 18.9528C15.3758 18.9528 15.64 18.8778 15.8475 18.709L15.6588 18.4277C15.5079 18.5402 15.3193 18.6152 15.1306 18.6152C14.8854 18.6152 14.6401 18.5027 14.5835 18.1838H15.923V18.0339C15.9419 17.4525 15.6023 17.0775 15.0928 17.0775H15.0929ZM15.0929 17.415C15.3381 17.415 15.508 17.5651 15.5456 17.8464H14.6024C14.6401 17.6026 14.8099 17.415 15.0929 17.415ZM24.9217 18.0151V16.4023H24.5256V17.34C24.3935 17.1713 24.2049 17.0775 23.9596 17.0775C23.4502 17.0775 23.0541 17.4713 23.0541 18.0151C23.0541 18.559 23.4502 18.9528 23.9596 18.9528C24.2238 18.9528 24.4124 18.8591 24.5256 18.6903V18.9153H24.9217V18.0151ZM23.4691 18.0151C23.4691 17.6963 23.6766 17.4338 24.0162 17.4338C24.3369 17.4338 24.5633 17.6776 24.5633 18.0151C24.5633 18.3339 24.3369 18.5965 24.0162 18.5965C23.6766 18.5777 23.4691 18.3339 23.4691 18.0151ZM10.2256 18.0151V17.115H9.8294V17.34C9.69732 17.1713 9.50868 17.0775 9.26342 17.0775C8.75407 17.0775 8.3579 17.4713 8.3579 18.0151C8.3579 18.559 8.75407 18.9528 9.26342 18.9528C9.52759 18.9528 9.71622 18.8591 9.8294 18.6903V18.9153H10.2256V18.0151ZM8.75407 18.0151C8.75407 17.6963 8.96161 17.4338 9.30115 17.4338C9.62186 17.4338 9.84831 17.6776 9.84831 18.0151C9.84831 18.3339 9.62186 18.5965 9.30115 18.5965C8.96161 18.5777 8.75407 18.3339 8.75407 18.0151Z" fill="black"/>
<path d="M12.0178 3.44531H17.9604V14.0597H12.0178V3.44531Z" fill="#FF5F00"/>
<path d="M12.3951 8.75122C12.3951 6.59461 13.4139 4.68173 14.9796 3.44397C13.8289 2.54383 12.3763 2 10.7916 2C7.03729 2 4 5.01925 4 8.75122C4 12.4831 7.03729 15.5024 10.7916 15.5024C12.3762 15.5024 13.8288 14.9586 14.9796 14.0584C13.4139 12.8394 12.3951 10.9078 12.3951 8.75122Z" fill="#EB001B"/>
<path d="M25.9782 8.75122C25.9782 12.4831 22.9409 15.5024 19.1866 15.5024C17.6019 15.5024 16.1493 14.9586 14.9985 14.0584C16.5832 12.8207 17.5831 10.9078 17.5831 8.75122C17.5831 6.59461 16.5643 4.68173 14.9985 3.44397C16.1492 2.54383 17.6019 2 19.1866 2C22.9409 2 25.9783 5.03804 25.9783 8.75122H25.9782Z" fill="#F79E1B"/>
</svg>
