<svg width="19" height="26" viewBox="0 0 19 26" fill="none" xmlns="http://www.w3.org/2000/svg">
<path d="M19 17.2V16H15V22H16.3333V19.6H18.3333V18.4H16.3333V17.2H19Z" fill="#1F2428"/>
<path d="M12.2857 22H10V16H12.2857C12.7402 16.0005 13.176 16.1903 13.4974 16.5277C13.8188 16.8652 13.9995 17.3228 14 17.8V20.2C13.9995 20.6772 13.8188 21.1348 13.4974 21.4723C13.176 21.8097 12.7402 21.9995 12.2857 22ZM11.1429 20.8H12.2857C12.4372 20.7998 12.5825 20.7366 12.6896 20.6241C12.7967 20.5116 12.857 20.3591 12.8571 20.2V17.8C12.857 17.6409 12.7967 17.4884 12.6896 17.3759C12.5825 17.2634 12.4372 17.2002 12.2857 17.2H11.1429V20.8Z" fill="#1F2428"/>
<path d="M6.85714 16H4V22H5.14286V20.2H6.85714C7.16011 20.1995 7.45054 20.0729 7.66476 19.848C7.87899 19.6231 7.99955 19.3181 8 19V17.2C7.9997 16.8818 7.87919 16.5768 7.66493 16.3518C7.45067 16.1268 7.16015 16.0003 6.85714 16ZM5.14286 19V17.2H6.85714L6.85771 19H5.14286Z" fill="#1F2428"/>
<path d="M18.5712 14.143V7.4288C18.5745 7.30676 18.5513 7.18547 18.5032 7.07326C18.4551 6.96105 18.3833 6.86059 18.2926 6.77881L11.7927 0.278884C11.711 0.188205 11.6105 0.11634 11.4983 0.0682465C11.3861 0.0201533 11.2648 -0.00302323 11.1427 0.000315748H1.85712C1.36503 0.00178541 0.893521 0.197918 0.545562 0.545877C0.197602 0.893837 0.00146966 1.36535 0 1.85744V24.1429C0 24.6354 0.19566 25.1078 0.543938 25.4561C0.892215 25.8043 1.36458 26 1.85712 26H17.7141V24.1429H1.85712V1.85744H9.2856V7.4288C9.28707 7.92088 9.4832 8.3924 9.83116 8.74036C10.1791 9.08832 10.6506 9.28445 11.1427 9.28592H16.7141V14.143H18.5712ZM11.1427 7.4288V2.22886L16.3427 7.4288H11.1427Z" fill="#1F2428"/>
</svg>
