<svg width="13" height="13" viewBox="0 0 13 13" fill="none" xmlns="http://www.w3.org/2000/svg">
<path d="M5.80766 9.94223C3.07897 9.94223 0.880859 7.74412 0.880859 5.01543C0.880859 2.28674 3.07897 0.088623 5.80766 0.088623C8.53635 0.088623 10.7345 2.28674 10.7345 5.01543C10.7345 7.74412 8.53635 9.94223 5.80766 9.94223ZM5.80766 0.846593C3.49586 0.846593 1.63883 2.70362 1.63883 5.01543C1.63883 7.32723 3.49586 9.18426 5.80766 9.18426C8.11947 9.18426 9.9765 7.32723 9.9765 5.01543C9.9765 2.70362 8.11947 0.846593 5.80766 0.846593Z" fill="#8D8E90"/>
<path d="M9.47729 8.14844L12.8806 11.5517L12.3447 12.0876L8.94141 8.68432L9.47729 8.14844Z" fill="#8D8E90"/>
</svg>
