<svg width="19" height="19" viewBox="0 0 19 19" fill="none" xmlns="http://www.w3.org/2000/svg">
<path d="M8.00636 14.0005C9.59766 14.0005 11.1238 13.3684 12.249 12.2431C13.3742 11.1179 14.0064 9.5918 14.0064 8.0005C14.0064 6.4092 13.3742 4.88308 12.249 3.75786C11.1238 2.63264 9.59766 2.0005 8.00636 2.0005C6.41506 2.0005 4.88894 2.63264 3.76372 3.75786C2.6385 4.88308 2.00636 6.4092 2.00636 8.0005C2.00636 9.5918 2.6385 11.1179 3.76372 12.2431C4.88894 13.3684 6.41506 14.0005 8.00636 14.0005ZM14.3264 12.9065L17.9064 16.4865C18.0018 16.5788 18.0779 16.6892 18.1302 16.8113C18.1825 16.9333 18.21 17.0645 18.2111 17.1973C18.2122 17.3301 18.1868 17.4618 18.1364 17.5846C18.086 17.7075 18.0117 17.8191 17.9177 17.9129C17.8238 18.0067 17.7121 18.0809 17.5891 18.1311C17.4662 18.1813 17.3345 18.2065 17.2017 18.2052C17.069 18.204 16.9378 18.1763 16.8158 18.1238C16.6938 18.0713 16.5835 17.9951 16.4914 17.8995L12.9114 14.3195C11.3038 15.5674 9.28116 16.1557 7.25512 15.9647C5.22908 15.7737 3.35197 14.8178 2.00591 13.2916C0.659859 11.7653 -0.0539527 9.78345 0.00978839 7.74943C0.0735295 5.71541 0.910032 3.78213 2.34901 2.34315C3.78799 0.904172 5.72126 0.0676701 7.75529 0.00392902C9.78931 -0.0598121 11.7712 0.654 13.2974 2.00005C14.8237 3.34611 15.7796 5.22322 15.9706 7.24926C16.1615 9.2753 15.5732 11.298 14.3254 12.9055L14.3264 12.9065Z" fill="#8D8E90"/>
</svg>
