<svg width="16" height="16" viewBox="0 0 16 16" fill="none" xmlns="http://www.w3.org/2000/svg">
<path d="M13.6364 0C14.2632 0 14.8644 0.249025 15.3077 0.692293C15.751 1.13556 16 1.73676 16 2.36364V13.6364C16 14.2632 15.751 14.8644 15.3077 15.3077C14.8644 15.751 14.2632 16 13.6364 16H2.36364C1.73676 16 1.13556 15.751 0.692293 15.3077C0.249025 14.8644 0 14.2632 0 13.6364V2.36364C0 1.73676 0.249025 1.13556 0.692293 0.692293C1.13556 0.249025 1.73676 0 2.36364 0H13.6364ZM14.0604 14.8364L8.38255 9.25091C8.29027 9.16037 8.16883 9.10556 8.03989 9.09623C7.91095 9.08691 7.78289 9.12368 7.67855 9.2L7.61745 9.25091L1.93891 14.8364C2.072 14.8836 2.21527 14.9091 2.36364 14.9091H13.6364C13.7847 14.9091 13.9273 14.8836 14.0604 14.8364L8.38255 9.25091L14.0604 14.8364ZM13.6364 1.09091H2.36364C2.02609 1.09091 1.70237 1.225 1.46368 1.46368C1.225 1.70237 1.09091 2.02609 1.09091 2.36364V13.6364C1.09091 13.7876 1.11709 13.9331 1.16582 14.0676L6.85309 8.47345C7.14354 8.18794 7.53002 8.021 7.937 8.00527C8.34397 7.98953 8.74219 8.12613 9.05382 8.38836L9.14764 8.47345L14.8349 14.0676C14.8829 13.9331 14.9091 13.7876 14.9091 13.6364V2.36364C14.9091 2.02609 14.775 1.70237 14.5363 1.46368C14.2976 1.225 13.9739 1.09091 13.6364 1.09091ZM11.2727 3.27273C11.7549 3.27273 12.2174 3.46429 12.5584 3.80526C12.8994 4.14624 13.0909 4.6087 13.0909 5.09091C13.0909 5.57312 12.8994 6.03558 12.5584 6.37656C12.2174 6.71753 11.7549 6.90909 11.2727 6.90909C10.7905 6.90909 10.3281 6.71753 9.98708 6.37656C9.6461 6.03558 9.45455 5.57312 9.45455 5.09091C9.45455 4.6087 9.6461 4.14624 9.98708 3.80526C10.3281 3.46429 10.7905 3.27273 11.2727 3.27273ZM11.2727 4.36364C11.0798 4.36364 10.8949 4.44026 10.7585 4.57665C10.6221 4.71304 10.5455 4.89802 10.5455 5.09091C10.5455 5.28379 10.6221 5.46878 10.7585 5.60517C10.8949 5.74156 11.0798 5.81818 11.2727 5.81818C11.4656 5.81818 11.6506 5.74156 11.787 5.60517C11.9234 5.46878 12 5.28379 12 5.09091C12 4.89802 11.9234 4.71304 11.787 4.57665C11.6506 4.44026 11.4656 4.36364 11.2727 4.36364Z" fill="#423F3F"/>
</svg>
