<svg width="192" height="192" viewBox="0 0 192 192" fill="none" xmlns="http://www.w3.org/2000/svg">
<rect width="192" height="192" rx="14" fill="#F8FAFB"/>
<rect x="10.5" y="10.5" width="171" height="171" rx="13.5" stroke="#CDCDCD" stroke-linecap="round" stroke-linejoin="round" stroke-dasharray="5 5"/>
<path d="M101.636 74C102.263 74 102.864 74.249 103.308 74.6923C103.751 75.1356 104 75.7368 104 76.3636V87.6364C104 88.2632 103.751 88.8644 103.308 89.3077C102.864 89.751 102.263 90 101.636 90H90.3636C89.7368 90 89.1356 89.751 88.6923 89.3077C88.249 88.8644 88 88.2632 88 87.6364V76.3636C88 75.7368 88.249 75.1356 88.6923 74.6923C89.1356 74.249 89.7368 74 90.3636 74H101.636ZM102.06 88.8364L96.3825 83.2509C96.2903 83.1604 96.1688 83.1056 96.0399 83.0962C95.911 83.0869 95.7829 83.1237 95.6785 83.2L95.6175 83.2509L89.9389 88.8364C90.072 88.8836 90.2153 88.9091 90.3636 88.9091H101.636C101.785 88.9091 101.927 88.8836 102.06 88.8364L96.3825 83.2509L102.06 88.8364ZM101.636 75.0909H90.3636C90.0261 75.0909 89.7024 75.225 89.4637 75.4637C89.225 75.7024 89.0909 76.0261 89.0909 76.3636V87.6364C89.0909 87.7876 89.1171 87.9331 89.1658 88.0676L94.8531 82.4735C95.1435 82.1879 95.53 82.021 95.937 82.0053C96.344 81.9895 96.7422 82.1261 97.0538 82.3884L97.1476 82.4735L102.835 88.0676C102.883 87.9331 102.909 87.7876 102.909 87.6364V76.3636C102.909 76.0261 102.775 75.7024 102.536 75.4637C102.298 75.225 101.974 75.0909 101.636 75.0909ZM99.2727 77.2727C99.7549 77.2727 100.217 77.4643 100.558 77.8053C100.899 78.1462 101.091 78.6087 101.091 79.0909C101.091 79.5731 100.899 80.0356 100.558 80.3766C100.217 80.7175 99.7549 80.9091 99.2727 80.9091C98.7905 80.9091 98.3281 80.7175 97.9871 80.3766C97.6461 80.0356 97.4545 79.5731 97.4545 79.0909C97.4545 78.6087 97.6461 78.1462 97.9871 77.8053C98.3281 77.4643 98.7905 77.2727 99.2727 77.2727ZM99.2727 78.3636C99.0798 78.3636 98.8949 78.4403 98.7585 78.5766C98.6221 78.713 98.5455 78.898 98.5455 79.0909C98.5455 79.2838 98.6221 79.4688 98.7585 79.6052C98.8949 79.7416 99.0798 79.8182 99.2727 79.8182C99.4656 79.8182 99.6506 79.7416 99.787 79.6052C99.9234 79.4688 100 79.2838 100 79.0909C100 78.898 99.9234 78.713 99.787 78.5766C99.6506 78.4403 99.4656 78.3636 99.2727 78.3636Z" fill="#423F3F"/>
<path d="M55.84 112.144C54.3573 112.144 53.232 111.755 52.464 110.976C51.696 110.187 51.312 109.04 51.312 107.536V100.72H52.624V107.472C52.624 109.808 53.696 110.976 55.84 110.976C57.9627 110.976 59.024 109.808 59.024 107.472V100.72H60.336V107.536C60.336 109.04 59.952 110.187 59.184 110.976C58.4267 111.755 57.312 112.144 55.84 112.144ZM62.8566 114.88V104.224H64.1206V105.616C64.3553 105.136 64.702 104.763 65.1606 104.496C65.63 104.219 66.174 104.08 66.7926 104.08C67.486 104.08 68.0886 104.245 68.6006 104.576C69.1233 104.896 69.5233 105.36 69.8006 105.968C70.0886 106.565 70.2326 107.28 70.2326 108.112C70.2326 108.933 70.0886 109.648 69.8006 110.256C69.5233 110.853 69.1233 111.317 68.6006 111.648C68.0886 111.979 67.486 112.144 66.7926 112.144C66.1953 112.144 65.662 112.011 65.1926 111.744C64.7233 111.477 64.3766 111.109 64.1526 110.64V114.88H62.8566ZM66.5206 111.104C67.246 111.104 67.8273 110.848 68.2646 110.336C68.702 109.813 68.9206 109.072 68.9206 108.112C68.9206 107.141 68.702 106.4 68.2646 105.888C67.8273 105.376 67.246 105.12 66.5206 105.12C65.7953 105.12 65.214 105.376 64.7766 105.888C64.3393 106.4 64.1206 107.141 64.1206 108.112C64.1206 109.072 64.3393 109.813 64.7766 110.336C65.214 110.848 65.7953 111.104 66.5206 111.104ZM74.5688 112.144C73.7794 112.144 73.1821 111.915 72.7768 111.456C72.3821 110.987 72.1848 110.309 72.1848 109.424V100.72H73.4808V109.328C73.4808 110.469 73.9341 111.04 74.8408 111.04C75.1074 111.04 75.3474 111.008 75.5608 110.944L75.5288 112.032C75.1981 112.107 74.8781 112.144 74.5688 112.144ZM80.073 112.144C79.3157 112.144 78.6597 111.979 78.105 111.648C77.5503 111.317 77.1183 110.853 76.809 110.256C76.5103 109.648 76.361 108.933 76.361 108.112C76.361 107.291 76.5103 106.581 76.809 105.984C77.1183 105.376 77.5503 104.907 78.105 104.576C78.6597 104.245 79.3157 104.08 80.073 104.08C80.8197 104.08 81.4703 104.245 82.025 104.576C82.5903 104.907 83.0223 105.376 83.321 105.984C83.6303 106.581 83.785 107.291 83.785 108.112C83.785 108.933 83.6303 109.648 83.321 110.256C83.0223 110.853 82.5903 111.317 82.025 111.648C81.4703 111.979 80.8197 112.144 80.073 112.144ZM80.073 111.104C80.7983 111.104 81.3797 110.848 81.817 110.336C82.2543 109.813 82.473 109.072 82.473 108.112C82.473 107.141 82.2543 106.4 81.817 105.888C81.3797 105.376 80.7983 105.12 80.073 105.12C79.337 105.12 78.7503 105.376 78.313 105.888C77.8863 106.4 77.673 107.141 77.673 108.112C77.673 109.072 77.8863 109.813 78.313 110.336C78.7503 110.848 79.337 111.104 80.073 111.104ZM88.1796 112.144C87.6463 112.144 87.1663 112.043 86.7396 111.84C86.3236 111.627 85.993 111.339 85.7476 110.976C85.5023 110.613 85.3796 110.208 85.3796 109.76C85.3796 109.195 85.5236 108.747 85.8116 108.416C86.1103 108.085 86.5956 107.851 87.2676 107.712C87.9503 107.563 88.8783 107.488 90.0516 107.488H90.5636V106.992C90.5636 106.331 90.425 105.856 90.1476 105.568C89.881 105.269 89.449 105.12 88.8516 105.12C88.3823 105.12 87.929 105.189 87.4916 105.328C87.0543 105.456 86.6063 105.669 86.1476 105.968L85.6996 105.024C86.105 104.736 86.5956 104.507 87.1716 104.336C87.7583 104.165 88.3183 104.08 88.8516 104.08C89.8543 104.08 90.5956 104.325 91.0756 104.816C91.5663 105.307 91.8116 106.069 91.8116 107.104V112H90.5956V110.656C90.393 111.115 90.0783 111.477 89.6516 111.744C89.2356 112.011 88.745 112.144 88.1796 112.144ZM88.3876 111.168C89.0276 111.168 89.5503 110.949 89.9556 110.512C90.361 110.064 90.5636 109.499 90.5636 108.816V108.336H90.0676C89.2036 108.336 88.521 108.379 88.0196 108.464C87.529 108.539 87.1823 108.677 86.9796 108.88C86.7876 109.072 86.6916 109.339 86.6916 109.68C86.6916 110.117 86.841 110.475 87.1396 110.752C87.449 111.029 87.865 111.168 88.3876 111.168ZM97.176 112.144C96.4827 112.144 95.8747 111.979 95.352 111.648C94.84 111.317 94.44 110.853 94.152 110.256C93.8747 109.648 93.736 108.933 93.736 108.112C93.736 107.28 93.8747 106.565 94.152 105.968C94.44 105.36 94.84 104.896 95.352 104.576C95.8747 104.245 96.4827 104.08 97.176 104.08C97.784 104.08 98.3173 104.213 98.776 104.48C99.2453 104.747 99.592 105.115 99.816 105.584V100.72H101.112V112H99.848V110.576C99.624 111.067 99.2773 111.451 98.808 111.728C98.3387 112.005 97.7947 112.144 97.176 112.144ZM97.448 111.104C98.1733 111.104 98.7547 110.848 99.192 110.336C99.6293 109.813 99.848 109.072 99.848 108.112C99.848 107.141 99.6293 106.4 99.192 105.888C98.7547 105.376 98.1733 105.12 97.448 105.12C96.712 105.12 96.1253 105.376 95.688 105.888C95.2613 106.4 95.048 107.141 95.048 108.112C95.048 109.072 95.2613 109.813 95.688 110.336C96.1253 110.848 96.712 111.104 97.448 111.104ZM107.83 112V100.72H108.854L115.654 109.792V100.72H116.87V112H115.878L109.062 102.896V112H107.83ZM123.001 112.144C121.775 112.144 120.804 111.787 120.089 111.072C119.375 110.347 119.017 109.365 119.017 108.128C119.017 107.328 119.177 106.624 119.497 106.016C119.817 105.397 120.255 104.923 120.809 104.592C121.375 104.251 122.025 104.08 122.761 104.08C123.817 104.08 124.644 104.421 125.241 105.104C125.839 105.776 126.137 106.704 126.137 107.888V108.384H120.281C120.324 109.269 120.58 109.947 121.049 110.416C121.519 110.875 122.169 111.104 123.001 111.104C123.471 111.104 123.919 111.035 124.345 110.896C124.772 110.747 125.177 110.507 125.561 110.176L126.009 111.088C125.657 111.419 125.209 111.68 124.665 111.872C124.121 112.053 123.567 112.144 123.001 112.144ZM122.793 105.04C122.057 105.04 121.476 105.269 121.049 105.728C120.623 106.187 120.372 106.789 120.297 107.536H125.017C124.985 106.747 124.777 106.133 124.393 105.696C124.02 105.259 123.487 105.04 122.793 105.04ZM129.983 112L127.087 104.224H128.447L130.639 110.48L132.911 104.224H134.015L136.255 110.496L138.479 104.224H139.775L136.863 112H135.631L133.439 105.968L131.231 112H129.983Z" fill="#423F3F"/>
</svg>
