<svg width="32" height="22" viewBox="0 0 32 22" fill="none" xmlns="http://www.w3.org/2000/svg">
<rect x="0.1" y="0.1" width="31.8" height="21.8" rx="1.9" fill="white" stroke="black" stroke-width="0.2"/>
<g clip-path="url(#clip0)">
<path d="M16.9637 9.54803C16.9483 10.658 18.0462 11.2774 18.8732 11.6457C19.7228 12.0235 20.0082 12.2658 20.0048 12.6037C19.9985 13.1208 19.3271 13.3491 18.6988 13.358C17.6027 13.3735 16.9653 13.0875 16.4587 12.8712L16.0638 14.5598C16.5721 14.7739 17.5134 14.9606 18.4896 14.9688C20.7809 14.9688 22.2799 13.9351 22.288 12.3325C22.297 10.2986 19.2096 10.186 19.2307 9.27689C19.238 9.00123 19.5258 8.70706 20.1565 8.63227C20.4687 8.59449 21.3305 8.56557 22.3075 8.97675L22.691 7.34302C22.1656 7.16817 21.4903 7.00075 20.6495 7.00075C18.4928 7.00075 16.976 8.04846 16.9637 9.54803ZM26.3759 7.14147C25.9575 7.14147 25.6049 7.36451 25.4475 7.70677L22.1745 14.8488H24.4642L24.9198 13.698H27.7177L27.982 14.8488H30L28.239 7.14147H26.3759ZM26.6962 9.2235L27.357 12.1177H25.5473L26.6962 9.2235ZM14.1877 7.14157L12.3829 14.8487H14.5648L16.3687 7.14138H14.1877V7.14157ZM10.96 7.14138L8.68909 12.3874L7.77046 7.92692C7.66267 7.42899 7.237 7.14147 6.76429 7.14147H3.052L3 7.36528C3.76212 7.51641 4.62802 7.76017 5.15262 8.02099C5.47366 8.18032 5.56521 8.31959 5.67068 8.6982L7.4106 14.8488H9.71625L13.2511 7.14147H10.96" fill="url(#paint0_linear)"/>
</g>
<defs>
<linearGradient id="paint0_linear" x1="15.413" y1="15.1286" x2="15.6238" y2="6.94426" gradientUnits="userSpaceOnUse">
<stop stop-color="#222357"/>
<stop offset="1" stop-color="#254AA5"/>
</linearGradient>
<clipPath id="clip0">
<rect width="27" height="8" fill="white" transform="translate(3 7)"/>
</clipPath>
</defs>
</svg>
