<svg width="69" height="44" viewBox="0 0 69 44" fill="none" xmlns="http://www.w3.org/2000/svg">
<path d="M46.2272 24.7874L40.3742 22.1861C39.9607 22.0024 39.6937 21.5913 39.6937 21.1389V19.5317C41.6599 17.9651 42.9236 15.5527 42.9236 12.8493V10.5868C43.5713 10.2289 44.0001 9.53727 44.0001 8.76264V8.54306C44.0001 3.83245 40.1677 0 35.4571 0H33.304C28.5934 0 24.7609 3.83245 24.7609 8.54306V10.5354C24.7609 11.2163 25.054 11.8331 25.5647 12.2278C25.6513 12.2947 25.7425 12.3535 25.8375 12.4044V12.8492C25.8375 15.5526 27.1011 17.965 29.0671 19.5314V21.1388C29.0671 21.5911 28.7999 22.0022 28.3866 22.1859L22.5336 24.7873C20.6168 25.6391 19.3782 27.5451 19.3782 29.6427V42.9924C19.3782 43.5486 19.8291 43.9996 20.3854 43.9996C20.9417 43.9996 21.3926 43.5486 21.3926 42.9924V29.6428C21.3926 29.5261 21.401 29.4107 21.413 29.2963L24.11 31.9933C24.5297 32.4131 24.7609 32.9711 24.7609 33.5648V42.9925C24.7609 43.5488 25.2119 43.9997 25.7682 43.9997C26.3244 43.9997 26.7754 43.5488 26.7754 42.9925V33.5648C26.7754 32.4331 26.3348 31.3692 25.5345 30.5689L22.3193 27.3536C22.609 27.053 22.9565 26.8039 23.3519 26.6281L29.1061 24.0707L33.3734 28.338V42.9924C33.3734 43.5486 33.8244 43.9996 34.3807 43.9996C34.9369 43.9996 35.3879 43.5486 35.3879 42.9924V28.3381L39.6552 24.0708L45.4093 26.6281C45.8047 26.8039 46.1522 27.053 46.4419 27.3537L43.2267 30.5689C42.4264 31.3692 41.9858 32.4331 41.9858 33.5648V42.9925C41.9858 43.5488 42.4368 43.9997 42.993 43.9997C43.5493 43.9997 44.0003 43.5488 44.0003 42.9925V33.5648C44.0003 32.9712 44.2314 32.4131 44.6512 31.9933L47.348 29.2964C47.3601 29.4109 47.3684 29.526 47.3684 29.6427V42.9924C47.3684 43.5486 47.8194 43.9996 48.3757 43.9996C48.9319 43.9996 49.3829 43.5486 49.3829 42.9924V29.6428C49.3825 27.5452 48.144 25.6393 46.2272 24.7874ZM34.3803 26.4965L30.6359 22.752C30.9206 22.273 31.0814 21.7187 31.0814 21.1389V20.7291C32.0971 21.1559 33.2116 21.3924 34.3804 21.3924C35.5492 21.3924 36.6636 21.156 37.6791 20.7292V21.1389C37.6791 21.7188 37.8399 22.273 38.1247 22.7521L34.3803 26.4965ZM34.3804 19.3778C30.7806 19.3779 27.8518 16.4492 27.8518 12.8493V12.3963C28.4803 12.1472 29.0938 11.7508 29.6811 11.2089C30.0897 10.8316 30.1154 10.1944 29.738 9.78558C29.3608 9.37691 28.7237 9.35126 28.3147 9.7285C27.811 10.1936 27.3076 10.494 26.8191 10.6216C26.8072 10.6247 26.7985 10.626 26.7923 10.6266C26.7851 10.6125 26.7753 10.5829 26.7753 10.5355V8.5432C26.7753 4.94335 29.704 2.0146 33.3039 2.0146H35.4569C39.0569 2.0146 41.9855 4.94335 41.9855 8.5432V8.76277C41.9855 8.79541 41.9659 8.82374 41.9401 8.82885C35.9087 10.0201 32.8835 7.77501 31.8629 6.75435C31.4695 6.361 30.8317 6.361 30.4385 6.75435C30.0451 7.14771 30.0451 7.78549 30.4385 8.17871C33.5663 11.3065 38.1304 11.3629 40.909 11.029V12.8492C40.909 16.449 37.9802 19.3778 34.3804 19.3778Z" fill="#2AABE1"/>
<path d="M18.1627 19.3089V17.1555C18.1627 14.5278 16.7971 12.2147 14.7395 10.8835C14.8666 10.4759 14.9329 10.049 14.9329 9.61963C14.9329 7.28339 13.0324 5.38281 10.6961 5.38281C8.35988 5.38281 6.4593 7.28352 6.4593 9.61963C6.4593 10.0543 6.52511 10.4771 6.65242 10.8838C4.59499 12.2148 3.22958 14.5279 3.22958 17.1555V19.3085C3.22958 21.853 4.50984 24.1031 6.45917 25.4517V27.6666C6.45917 28.1035 6.21649 28.4962 5.82582 28.6916L2.34201 30.4334C0.897375 31.156 0 32.608 0 34.2232V42.9927C0 43.5489 0.450971 43.9999 1.00723 43.9999C1.56349 43.9999 2.01446 43.5489 2.01446 42.9927V34.6588L3.65531 36.2997C4.07499 36.7195 4.30625 37.2775 4.30625 37.8712V42.9927C4.30625 43.5489 4.75722 43.9999 5.31348 43.9999C5.86974 43.9999 6.32071 43.5489 6.32071 42.9927V37.8712C6.32071 36.7395 5.87994 35.6756 5.0798 34.8753L2.79607 32.5916C2.78506 32.5806 2.77324 32.5711 2.76196 32.5607C2.90526 32.4342 3.06601 32.3241 3.24301 32.2354L6.72682 30.4936C6.90531 30.4043 7.07143 30.2989 7.22628 30.1818L9.68889 32.6445V42.9928C9.68889 43.5491 10.1399 44 10.6961 44C11.2524 44 11.7033 43.5491 11.7033 42.9928V32.6444L14.1661 30.1816C14.3211 30.2989 14.4871 30.4043 14.6655 30.4935L15.6262 30.9739C15.7708 31.0462 15.9245 31.0805 16.0759 31.0805C16.4454 31.0805 16.8011 30.8764 16.9776 30.5236C17.2265 30.026 17.0248 29.421 16.5272 29.1723L15.5666 28.6919C15.1757 28.4965 14.9331 28.1038 14.9331 27.667V25.4521C16.8824 24.1035 18.1627 21.8533 18.1627 19.3089ZM10.6961 7.39727C11.9216 7.39727 12.9185 8.3943 12.9185 9.61963C12.9185 9.7546 12.9064 9.88688 12.8833 10.0165C12.1911 9.80402 11.4569 9.68892 10.6961 9.68892C9.9364 9.68892 9.20313 9.80362 8.51204 10.0155C8.48881 9.88594 8.47377 9.75433 8.47377 9.61963C8.47377 8.39416 9.47065 7.39727 10.6961 7.39727ZM10.6961 11.7035C13.7024 11.7035 16.1482 14.1493 16.1482 17.1556V17.5206C11.9548 18.8045 9.45561 15.6145 9.34885 15.4747C9.17359 15.2412 8.90567 15.0951 8.61451 15.0744C8.32335 15.054 8.0373 15.1605 7.83088 15.3669C6.86945 16.3283 5.92775 16.792 5.24767 17.0159C5.32221 14.074 7.73674 11.7035 10.6961 11.7035ZM10.6961 30.8026L8.36861 28.4751C8.43656 28.2154 8.47377 27.9446 8.47377 27.6668V26.4373C9.17601 26.6567 9.92257 26.775 10.6961 26.775C11.4697 26.775 12.2162 26.6567 12.9185 26.4373V27.6668C12.9185 27.9446 12.9557 28.2155 13.0236 28.4751L10.6961 30.8026ZM10.6961 24.7606C7.68987 24.7606 5.24405 22.3148 5.24405 19.3085V19.0998C6.04728 18.9153 7.23823 18.4865 8.48061 17.4873C8.92017 17.902 9.54841 18.4107 10.3484 18.8471C11.2947 19.3632 12.6015 19.8406 14.1978 19.8406C14.8044 19.8406 15.4535 19.7701 16.1396 19.6081C15.9834 22.4756 13.6018 24.7606 10.6961 24.7606Z" fill="#2AABE1"/>
<path d="M66.4183 28.2805L60.7814 25.462C60.3907 25.2666 60.1481 24.8739 60.1481 24.4372V23.0098C61.4675 21.8383 62.3011 20.1311 62.3011 18.2321V17.0856C62.3243 17.0856 62.3472 17.0863 62.3704 17.0863C62.9267 17.0863 63.3776 16.6353 63.3776 16.0791V13.926C63.3776 10.4026 60.5111 7.53601 56.9876 7.53601H54.8346C51.3112 7.53601 48.4446 10.4026 48.4446 13.926V16.0791C48.4446 16.6353 48.8956 17.0863 49.4518 17.0863C49.4601 17.0863 49.4843 17.086 49.5211 17.0846V18.2321C49.5211 20.1312 50.3548 21.8384 51.6743 23.0099V24.4373C51.6743 24.8742 51.4316 25.2669 51.0408 25.4622C50.5432 25.7109 50.3415 26.3159 50.5904 26.8135C50.7669 27.1664 51.1226 27.3705 51.4921 27.3705C51.6434 27.3705 51.797 27.3363 51.9417 27.264C52.1202 27.1747 52.2863 27.0693 52.4411 26.9522L54.9039 29.4149V42.9928C54.9039 43.5491 55.3549 44 55.9111 44C56.4674 44 56.9183 43.5491 56.9183 42.9928V29.4147L59.381 26.9519C59.5359 27.0692 59.7019 27.1746 59.8804 27.2638L65.3349 29.9911L63.6805 31.6455C62.8803 32.4458 62.4396 33.5097 62.4396 34.6414V42.9925C62.4396 43.5488 62.8905 43.9998 63.4468 43.9998C64.0031 43.9998 64.454 43.5488 64.454 42.9925V34.6414C64.454 34.0478 64.6852 33.4897 65.105 33.0698L66.6721 31.5027C66.7196 31.685 66.7457 31.875 66.7457 32.07V42.9925C66.7457 43.5488 67.1967 43.9998 67.7529 43.9998C68.3092 43.9998 68.7602 43.5488 68.7602 42.9925V32.07C68.7603 30.4549 67.8629 29.0029 66.4183 28.2805ZM50.4589 14.8646V13.9259H50.459C50.459 11.5132 52.4219 9.55034 54.8346 9.55034H56.9876C59.4003 9.55034 61.3632 11.5132 61.3632 13.9259V15.0447C56.9847 14.8085 54.3424 13.1047 54.3167 13.0879C54.1463 12.9742 53.9518 12.9187 53.7583 12.9187C53.4983 12.9187 53.2405 13.0191 53.0457 13.2137C52.082 14.1774 51.1378 14.6413 50.4589 14.8646ZM55.9111 27.5731L53.5836 25.2455C53.6516 24.9858 53.6888 24.7151 53.6888 24.4372V24.2227C54.3812 24.4804 55.1299 24.622 55.9111 24.622C56.6923 24.622 57.441 24.4804 58.1335 24.2227V24.4372C58.1335 24.7151 58.1705 24.9858 58.2386 25.2455L55.9111 27.5731ZM55.9111 22.6077C53.4985 22.6077 51.5356 20.6449 51.5356 18.2321V16.6083C52.241 16.3264 53.0629 15.8783 53.8993 15.1657C54.9571 15.7161 57.17 16.6673 60.2867 16.9816V18.2321C60.2867 20.6448 58.3238 22.6077 55.9111 22.6077Z" fill="#2AABE1"/>
</svg>
