<svg width="17" height="19" viewBox="0 0 17 19" fill="none" xmlns="http://www.w3.org/2000/svg">
<path d="M10.2889 3.3776C10.2889 2.95326 10.1203 2.54629 9.82028 2.24623C9.52022 1.94618 9.11325 1.7776 8.6889 1.7776C8.26456 1.7776 7.85759 1.94618 7.55753 2.24623C7.25748 2.54629 7.0889 2.95326 7.0889 3.3776H6.02224C6.02224 2.67036 6.30319 1.99208 6.80329 1.49199C7.30338 0.991889 7.98166 0.710938 8.6889 0.710938C9.39615 0.710938 10.0744 0.991889 10.5745 1.49199C11.0746 1.99208 11.3556 2.67036 11.3556 3.3776H16.1556C16.297 3.3776 16.4327 3.43379 16.5327 3.53381C16.6327 3.63383 16.6889 3.76949 16.6889 3.91094C16.6889 4.05239 16.6327 4.18804 16.5327 4.28806C16.4327 4.38808 16.297 4.44427 16.1556 4.44427H15.5646L14.1822 16.4229C14.1221 16.9428 13.8729 17.4225 13.4821 17.7706C13.0913 18.1187 12.5861 18.311 12.0628 18.3109H5.31504C4.79168 18.311 4.28655 18.1187 3.89575 17.7706C3.50495 17.4225 3.25576 16.9428 3.19557 16.4229L1.8121 4.44427H1.22224C1.09741 4.44431 0.976523 4.40057 0.880628 4.32066C0.784733 4.24074 0.719906 4.12973 0.697437 4.00694L0.688904 3.91094C0.688904 3.76949 0.745094 3.63383 0.845114 3.53381C0.945133 3.43379 1.08079 3.3776 1.22224 3.3776H10.2889ZM14.4894 4.44427H2.8873L4.25477 16.3003C4.28487 16.5603 4.40955 16.8002 4.60506 16.9743C4.80057 17.1483 5.05326 17.2444 5.31504 17.2443H12.0628C12.3244 17.2442 12.5768 17.148 12.7721 16.9739C12.9674 16.7999 13.0919 16.5601 13.122 16.3003L14.4894 4.44427ZM7.0889 7.11094C7.35024 7.11094 7.5689 7.27627 7.6137 7.49387L7.62224 7.57814V14.1115C7.62224 14.3685 7.38331 14.5776 7.0889 14.5776C6.82757 14.5776 6.60891 14.4123 6.56411 14.1947L6.55557 14.1104V7.5792C6.55557 7.32107 6.7945 7.112 7.0889 7.112V7.11094ZM10.2889 7.11094C10.5502 7.11094 10.7689 7.27627 10.8137 7.49387L10.8222 7.57814V14.1115C10.8222 14.3685 10.5833 14.5776 10.2889 14.5776C10.0276 14.5776 9.80891 14.4123 9.76411 14.1947L9.75557 14.1104V7.5792C9.75557 7.32107 9.9945 7.112 10.2889 7.112V7.11094Z" fill="#ED4C5C"/>
</svg>
