<svg width="29" height="20" viewBox="0 0 29 20" fill="none" xmlns="http://www.w3.org/2000/svg">
<path d="M26.0251 20H2.84333C1.2766 20 0 18.7331 0 17.1663V2.84333C0 1.2766 1.2766 0 2.84333 0H26.0251C27.5919 0 28.8685 1.2766 28.8685 2.84333V17.1663C28.8685 18.7331 27.6015 20 26.0251 20ZM2.84333 1.08317C1.87621 1.08317 1.09284 1.86654 1.08317 2.84333V17.1663C1.08317 18.1335 1.86654 18.9168 2.84333 18.9265H26.0251C26.9923 18.9265 27.7756 18.1431 27.7853 17.1663V2.84333C27.7853 1.87621 27.0019 1.09284 26.0251 1.08317H2.84333Z" fill="#423F3F"/>
<path d="M14.4391 13.2012C14.3037 13.2012 14.1779 13.1528 14.0812 13.0658L0.98645 1.5087L1.70212 0.69632L14.4391 11.9342L27.1663 0.69632L27.882 1.5087L14.7969 13.0658C14.7002 13.1528 14.5648 13.2012 14.4391 13.2012Z" fill="#423F3F"/>
<path d="M0.686646 18.2979L9.48742 8.27853L10.2998 8.9942L1.5087 19.0135L0.686646 18.2979Z" fill="#423F3F"/>
<path d="M18.5977 8.98453L19.4101 8.26886L28.2012 18.2882L27.3888 19.0039L18.5977 8.98453Z" fill="#423F3F"/>
<path d="M12.824 8.98451L14.4971 7.28238L16.1702 8.98451H17.2824L15.0484 6.72145L16.9923 4.77754L14.4971 2.28238L12.0019 4.77754L13.9458 6.72145L11.7118 8.98451H12.824ZM13.1141 4.78721L14.5068 3.39456L15.8994 4.78721L14.5068 6.17986L13.1141 4.78721Z" fill="#423F3F"/>
</svg>
