<svg width="47" height="44" viewBox="0 0 47 44" fill="none" xmlns="http://www.w3.org/2000/svg">
<path d="M34.6898 17.3519H34.1225C34.3595 16.8359 34.5363 16.2901 34.6453 15.7239C35.63 15.3409 36.3196 14.1877 36.3196 12.8047C36.3196 11.5013 35.6885 10.3815 34.7784 9.94515V7.22967C34.7784 3.24322 31.5077 0 27.488 0H23.9011C19.881 0 16.6107 3.24322 16.6107 7.22967V9.94551C15.7006 10.3815 15.0695 11.5013 15.0695 12.8047C15.0695 14.1877 15.7591 15.3409 16.7434 15.7239C17.098 17.56 18.1551 19.1826 19.7067 20.2662C20.0086 22.2672 21.7575 23.7882 23.8322 23.7882H27.5565C29.6313 23.7882 31.3804 22.2672 31.682 20.2662C32.3067 19.8302 32.8492 19.3057 33.2999 18.7164H34.6898C40.7194 18.7164 45.6248 23.5812 45.6248 29.5606V38.9207H39.5257V29.3266C39.5257 28.4489 38.8056 27.7348 37.9206 27.7348H14.3534C13.4684 27.7348 12.7487 28.4489 12.7487 29.3266V38.9207H11.9853V33.7341C11.9853 32.8564 11.2653 32.1423 10.3803 32.1423H6.64923V29.5606C6.64923 24.4607 10.1461 20.1119 15.1534 18.9849C15.5238 18.9017 15.7562 18.5361 15.6719 18.1688C15.588 17.8014 15.2194 17.5713 14.849 17.6546C12.1714 18.2573 9.74094 19.7616 8.00539 21.891C6.24367 24.0524 5.27334 26.7761 5.27334 29.5606V32.1423H4.10866C3.22367 32.1423 2.50399 32.8564 2.50399 33.7341V34.9336C1.07683 35.2227 0 36.4773 0 37.9766V38.1498C0 39.6494 1.07683 40.904 2.50364 41.1931V42.4083C2.50364 43.2859 3.22367 44 4.10866 44H10.3799C11.2649 44 11.985 43.2859 11.985 42.4083V40.2849H12.7484V42.4044C12.7484 43.282 13.4684 43.9957 14.3531 43.9957H37.9203C38.8053 43.9957 39.5253 43.282 39.5253 42.4044V40.2849H46.3122C46.6923 40.2849 47 39.9794 47 39.6028V29.5606C47.0004 22.8288 41.4778 17.3519 34.6898 17.3519ZM33.3548 15.0877C33.1368 16.8206 32.1557 18.3565 30.6629 19.3018C30.4782 19.4188 30.3606 19.6158 30.3466 19.8327C30.2516 21.2857 29.0263 22.4237 27.5565 22.4237H23.8322C22.3627 22.4237 21.1375 21.2857 21.0424 19.8327C21.0281 19.6158 20.9108 19.4188 20.7262 19.3018C19.2334 18.3565 18.2519 16.8206 18.0343 15.0877C17.9941 14.7684 17.7345 14.5205 17.4114 14.4924C16.9449 14.4522 16.4454 13.7645 16.4454 12.8047C16.4454 11.8697 16.9327 11.1784 17.3878 11.1194C17.7302 11.0749 17.9866 10.7855 17.9866 10.443V10.0817C19.3112 7.50314 21.9285 5.90714 24.8549 5.90714H26.5345C27.3607 5.90714 28.1736 6.03587 28.9499 6.29013C29.311 6.4082 29.6997 6.21368 29.8188 5.85593C29.9378 5.49818 29.7417 5.11233 29.381 4.99427C28.4651 4.69484 27.5074 4.54299 26.5345 4.54299H24.8549C23.1172 4.54299 21.4279 5.03125 19.9703 5.95514C19.2251 6.4274 18.5589 7.00208 17.9866 7.65748V7.23003C17.9866 3.9957 20.6398 1.36414 23.9011 1.36414H27.488C30.7497 1.36414 33.4028 3.9957 33.4028 7.23003V7.65926C33.0253 7.22647 32.6071 6.82818 32.1546 6.47399C31.8563 6.2407 31.4238 6.2912 31.1886 6.58707C30.9534 6.88295 31.0043 7.31182 31.3026 7.5451C32.1754 8.22789 32.8987 9.10234 33.4028 10.081V10.4434C33.4028 10.7858 33.6589 11.0753 34.0013 11.1198C34.4567 11.1788 34.944 11.8701 34.944 12.805C34.944 13.7645 34.4445 14.4526 33.978 14.4928C33.6546 14.5205 33.395 14.7684 33.3548 15.0877ZM2.50364 39.7746C1.84527 39.5232 1.37553 38.8909 1.37553 38.1501V37.9769C1.37553 37.2362 1.84492 36.6035 2.50364 36.3521V39.7746ZM10.6094 42.4086C10.6094 42.5338 10.5065 42.6359 10.3799 42.6359H4.10866C3.98244 42.6359 3.87952 42.5338 3.87952 42.4086V33.7341C3.87952 33.6085 3.98244 33.5068 4.10866 33.5068H10.3799C10.5065 33.5068 10.6094 33.6085 10.6094 33.7341V42.4086ZM38.1498 42.4044C38.1498 42.5299 38.0469 42.6316 37.9206 42.6316H14.3534C14.2268 42.6316 14.1239 42.5299 14.1239 42.4044V29.3266C14.1239 29.201 14.2268 29.099 14.3534 29.099H37.9206C38.0469 29.099 38.1498 29.201 38.1498 29.3266V42.4044Z" fill="#758287"/>
</svg>
