<svg width="14" height="16" viewBox="0 0 14 16" fill="none" xmlns="http://www.w3.org/2000/svg">
<g clip-path="url(#clip0)">
<path d="M3.07183 6.15195C3.34476 5.26015 3.8715 4.48422 4.57689 3.93485C5.28229 3.38548 6.13032 3.09074 6.99999 3.09267C7.98583 3.09267 8.87716 3.47067 9.57716 4.08933L11.6142 1.89C10.3728 0.72135 8.78208 0 6.99999 0C4.24083 0 1.86549 1.69974 0.723328 4.1895L3.07183 6.15195Z" fill="white"/>
<path d="M9.35664 11.3482C8.72081 11.7911 7.91347 12.0274 6.99997 12.0274C6.13377 12.0293 5.28894 11.7369 4.58511 11.1916C3.88128 10.6463 3.35411 9.87568 3.07822 8.98889L0.721558 10.9211C1.29978 12.1851 2.19463 13.2486 3.30445 13.9908C4.41428 14.733 5.69459 15.1243 6.99997 15.1201C8.71089 15.1201 10.3454 14.463 11.5698 13.2301L9.35722 11.3482H9.35664Z" fill="white"/>
<path d="M11.5698 13.23C12.8503 11.9398 13.6815 10.0195 13.6815 7.56002C13.6815 7.11272 13.6179 6.63203 13.5228 6.18536H7V9.10667H10.7543C10.5694 10.0888 10.0718 10.8493 9.35725 11.3482L11.5698 13.23Z" fill="white"/>
<path d="M3.07826 8.98885C2.93555 8.52826 2.86305 8.0457 2.86359 7.56001C2.86359 7.06735 2.93651 6.59422 3.07184 6.15196L0.72334 4.18951C0.242894 5.23701 -0.00477434 6.39106 6.89665e-06 7.56001C6.89665e-06 8.76961 0.25959 9.90991 0.72159 10.9211L3.07826 8.98885Z" fill="white"/>
</g>
<defs>
<clipPath id="clip0">
<rect width="14" height="15.12" fill="white"/>
</clipPath>
</defs>
</svg>
