<svg width="27" height="26" viewBox="0 0 27 26" fill="none" xmlns="http://www.w3.org/2000/svg">
<path d="M3.48824 9.8618C3.31487 10.3717 3.21288 10.8918 3.17209 11.4323C2.24404 11.6873 1.57095 12.391 1.57095 13.2171C1.57095 14.2573 2.63158 15.1037 3.93696 15.1037H11.086V16.9904C11.086 17.1536 11.1676 17.3168 11.3206 17.4392L12.9013 18.6936C13.0543 18.8159 13.2583 18.8771 13.4622 18.8771C13.6662 18.8771 13.8702 18.8159 14.0231 18.6936L15.6039 17.4392C15.7466 17.3168 15.8384 17.1638 15.8384 16.9904V15.1037H22.9875C24.2929 15.1037 25.3535 14.2573 25.3535 13.2171C25.3535 12.391 24.6804 11.6873 23.7523 11.4323C23.7116 10.8918 23.5994 10.3717 23.4362 9.872C25.0985 9.02553 26.1694 8.10768 26.6283 7.14904C27.5665 5.19096 26.1694 2.07026 25.0067 0.336545C24.8334 0.0815868 24.456 -0.0509917 24.0991 0.030595C23.7421 0.112182 23.5076 0.377339 23.5178 0.662892C23.579 1.59094 23.4362 4.21192 22.1716 5.22155C21.7943 5.5173 21.2232 5.76206 20.4481 5.94563C19.3467 5.13997 18.0209 4.51787 16.5625 4.15073L14.1659 0.346744C14.0333 0.132578 13.758 0 13.4622 0C13.1665 0 12.8911 0.132578 12.7585 0.346744L10.3721 4.15073C8.91376 4.51787 7.58797 5.12977 6.48655 5.93544C5.72167 5.75187 5.14037 5.50711 4.76303 5.21135C3.48824 4.21192 3.35566 1.58074 3.41685 0.662892C3.43725 0.36714 3.19249 0.101983 2.83554 0.030595C2.4786 -0.0509917 2.10126 0.0815868 1.92789 0.336545C0.744883 2.09066 -0.621695 5.20116 0.306355 7.14904C0.76528 8.10768 1.83611 9.01534 3.48824 9.8618ZM14.2475 16.7355L13.4622 17.3678L12.6769 16.7355V15.1037H14.2577V16.7355H14.2475ZM23.7727 13.2171C23.7727 13.5638 23.4158 13.8493 22.9875 13.8493H3.93696C3.49844 13.8493 3.15169 13.5638 3.15169 13.2171C3.15169 12.8703 3.50863 12.5848 3.93696 12.5848H22.9773C23.4158 12.5848 23.7727 12.8703 23.7727 13.2171ZM12.6667 11.3304V5.06858C12.9217 5.04818 13.1869 5.03798 13.452 5.03798C13.7172 5.03798 13.9823 5.04818 14.2373 5.06858V11.3304H12.6667ZM23.2832 6.10881C24.0277 5.5173 24.558 4.57906 24.8436 3.33486C25.2923 4.50767 25.5677 5.80286 25.1393 6.69011C24.8334 7.32241 24.0583 7.9955 22.8855 8.638C22.5489 8.0261 22.1104 7.46519 21.6107 6.94507C22.294 6.73091 22.8549 6.44535 23.2832 6.10881ZM15.8282 5.29294C15.8384 5.29294 15.8384 5.29294 15.8486 5.29294C19.2651 6.05782 21.8351 8.44423 22.1614 11.3202H15.8282V5.29294ZM13.4622 2.03967L14.584 3.82438C14.2169 3.79378 13.8396 3.77339 13.4622 3.77339C13.0849 3.77339 12.7075 3.79378 12.3404 3.82438L13.4622 2.03967ZM11.0758 5.29294C11.086 5.29294 11.086 5.29294 11.0758 5.29294L11.086 11.3304H4.76303C5.08938 8.44423 7.65936 6.06801 11.0758 5.29294ZM2.08087 3.33486C2.36642 4.57906 2.89673 5.50711 3.64121 6.10881C4.05935 6.44535 4.62025 6.72071 5.31374 6.94507C4.80382 7.46519 4.37549 8.03629 4.03895 8.638C2.85594 7.9955 2.09106 7.33261 1.78511 6.70031C1.35678 5.81306 1.63214 4.50767 2.08087 3.33486Z" fill="#423F3F"/>
<path fill-rule="evenodd" clip-rule="evenodd" d="M13.4622 4.95061C8.04068 4.95061 3.64564 9.34564 3.64564 14.7672C3.64564 20.1887 8.04068 24.5838 13.4622 24.5838C18.8838 24.5838 23.2788 20.1887 23.2788 14.7672C23.2788 9.34564 18.8838 4.95061 13.4622 4.95061ZM2.22943 14.7672C2.22943 8.56349 7.25853 3.53439 13.4622 3.53439C19.6659 3.53439 24.695 8.56349 24.695 14.7672C24.695 20.9709 19.6659 26 13.4622 26C7.25853 26 2.22943 20.9709 2.22943 14.7672Z" fill="#423F3F"/>
</svg>
