<svg width="21" height="20" viewBox="0 0 21 20" fill="none" xmlns="http://www.w3.org/2000/svg">
<path d="M20.9302 12.262V20H16.444V12.78C16.444 10.9658 15.7949 9.7284 14.1716 9.7284C12.932 9.7284 12.1938 10.5631 11.8698 11.3695C11.7513 11.6579 11.7208 12.0596 11.7208 12.4633V20H7.23259C7.23259 20 7.29342 7.77265 7.23259 6.50482H11.7208V8.41758L11.6915 8.46162H11.7208V8.41758C12.3165 7.5 13.3809 6.18813 15.7645 6.18813C18.7164 6.18813 20.9302 8.11766 20.9302 12.262ZM2.5388 0C1.00461 0 0 1.00671 0 2.33117C0 3.62626 0.975252 4.66338 2.48008 4.66338H2.50944C4.07508 4.66338 5.04719 3.62626 5.04719 2.33117C5.01993 1.00671 4.07613 0 2.53985 0H2.5388ZM0.266359 20H4.75252V6.50482H0.266359V20Z" fill="#758287"/>
</svg>
