<svg width="24" height="26" viewBox="0 0 24 26" fill="none" xmlns="http://www.w3.org/2000/svg">
<path d="M21.4713 22.4522H2.16806C1.23387 22.4522 0.404638 21.8539 0.110734 20.9721C-0.18317 20.0904 0.121231 19.1142 0.866487 18.5579L1.84267 17.8232C2.21005 17.5503 2.45147 17.1409 2.52495 16.6895L3.74255 9.27896C4.36184 5.30076 7.78373 2.36172 11.8144 2.36172C15.8451 2.36172 19.267 5.30076 19.8863 9.28946L21.1039 16.7C21.1773 17.1514 21.4188 17.5608 21.7861 17.8337L22.7623 18.5684C23.5076 19.1247 23.812 20.1009 23.5181 20.9826C23.2347 21.8539 22.4054 22.4522 21.4713 22.4522ZM11.8249 3.54784C8.37153 3.52684 5.43249 6.05652 4.91816 9.4679L3.70056 16.889C3.5746 17.6447 3.16524 18.3165 2.55643 18.7679L1.58025 19.5026C1.24436 19.7545 1.09741 20.1954 1.23387 20.6048C1.37032 21.0036 1.7482 21.2765 2.16806 21.2765H21.4713C21.8911 21.2765 22.269 21.0036 22.4054 20.6048C22.5419 20.2059 22.4054 19.7545 22.0591 19.5026L21.0829 18.7679C20.4741 18.3165 20.0647 17.6342 19.9388 16.889L18.7211 9.4784C18.2173 6.05652 15.2783 3.52684 11.8249 3.54784Z" fill="#423F3F"/>
<path d="M13.5988 3.75777C13.2734 3.75777 13.011 3.49536 13.011 3.16996V2.36173C13.011 1.71094 12.4862 1.17562 11.8249 1.17562C11.1741 1.17562 10.6388 1.70044 10.6388 2.36173V3.16996C10.6388 3.49536 10.3764 3.75777 10.051 3.75777C9.72561 3.75777 9.4632 3.49536 9.4632 3.16996V2.36173C9.4632 1.06015 10.5233 0 11.8249 0C13.1265 0 14.1867 1.06015 14.1867 2.36173V3.16996C14.1867 3.49536 13.9242 3.75777 13.5988 3.75777Z" fill="#423F3F"/>
<path d="M11.8249 26C9.53667 26 7.68927 24.1421 7.68927 21.8644C7.68927 21.539 7.95168 21.2766 8.27708 21.2766C8.60247 21.2766 8.86489 21.539 8.86489 21.8644C8.86489 23.4913 10.1875 24.8139 11.8144 24.8139C13.4414 24.8139 14.764 23.4913 14.764 21.8644C14.764 21.539 15.0264 21.2766 15.3518 21.2766C15.6772 21.2766 15.9396 21.539 15.9396 21.8644C15.9606 24.1421 14.1027 26 11.8249 26Z" fill="#423F3F"/>
<path d="M9.68358 16.5006L11.8144 14.3278L13.9452 16.5006H15.3622L12.5281 13.6245L15.0053 11.1473L11.8249 7.97739L8.64442 11.1578L11.1216 13.635L8.27704 16.5111H9.68358V16.5006ZM10.0615 11.1578L11.8249 9.39442L13.5883 11.1578L11.8249 12.9213L10.0615 11.1578Z" fill="#423F3F"/>
</svg>
