<svg width="16" height="16" viewBox="0 0 16 16" fill="none" xmlns="http://www.w3.org/2000/svg">
<path d="M10.8172 8.58008C10.6791 8.58008 10.5672 8.69202 10.5672 8.83008C10.5673 9.4423 10.0711 9.93864 9.45884 9.93873C8.84663 9.93883 8.35028 9.44261 8.35019 8.83039C8.35019 8.8303 8.35019 8.83017 8.35019 8.83008C8.35019 8.69202 8.23825 8.58008 8.10019 8.58008H6.99219V7.67658C7.88447 7.53798 8.49547 6.70227 8.35684 5.80998C8.24756 5.10652 7.69566 4.55458 6.99219 4.44533V2.83008C6.99219 2.69202 6.88025 2.58008 6.74219 2.58008H0.742188C0.604125 2.58008 0.492188 2.69202 0.492188 2.83008V14.8301C0.492188 14.9681 0.604125 15.0801 0.742188 15.0801H12.7422C12.8802 15.0801 12.9922 14.9681 12.9922 14.8301V8.58008H10.8172ZM0.992188 3.08008H6.49219V4.67633C6.49219 4.81439 6.60413 4.92633 6.74219 4.92633C7.36881 4.93564 7.86928 5.45117 7.85997 6.0778C7.85084 6.69133 7.35572 7.18645 6.74219 7.19558C6.60413 7.19558 6.49219 7.30752 6.49219 7.44558V8.58008H5.58869C5.45009 7.6878 4.61438 7.0768 3.72209 7.21542C3.01863 7.32467 2.46672 7.87661 2.35744 8.58008H0.992188V3.08008ZM6.49219 14.5801H0.992188V9.08008H2.58844C2.7265 9.08008 2.83844 8.96814 2.83844 8.83008C2.85456 8.20345 3.37559 7.70852 4.00225 7.72464C4.60622 7.74017 5.09216 8.22611 5.10769 8.83008C5.10769 8.96814 5.21962 9.08008 5.35769 9.08008H6.49219V9.95733C5.61419 10.0792 5.00125 10.8898 5.12316 11.7678C5.22191 12.479 5.781 13.0381 6.49219 13.1368V14.5801ZM12.4922 14.5801H6.99219V12.9051C6.99219 12.767 6.88025 12.6551 6.74219 12.6551C6.12997 12.655 5.63375 12.1586 5.63384 11.5464C5.63394 10.9343 6.13009 10.4382 6.74219 10.4381C6.88025 10.4381 6.99219 10.3261 6.99219 10.1881V9.08008H7.86994C8.00784 9.9578 8.83119 10.5575 9.70891 10.4196C10.3988 10.3112 10.94 9.77002 11.0484 9.08008H12.4922V14.5801Z" fill="#A4A7AE"/>
<path d="M15.2422 0.0800781H9.24219C9.10412 0.0800781 8.99219 0.192016 8.99219 0.330078V2.17633C8.99219 2.31439 9.10412 2.42633 9.24219 2.42633C9.86881 2.44245 10.3637 2.96348 10.3476 3.59014C10.3321 4.19411 9.84616 4.68005 9.24219 4.69558C9.10412 4.69558 8.99219 4.80752 8.99219 4.94558V6.33008C8.99219 6.46814 9.10412 6.58008 9.24219 6.58008H10.3694C10.4913 7.45808 11.3019 8.07102 12.1799 7.94911C12.8911 7.85036 13.4502 7.29127 13.5489 6.58008H15.2422C15.3802 6.58008 15.4922 6.46814 15.4922 6.33008V0.330078C15.4922 0.192016 15.3802 0.0800781 15.2422 0.0800781ZM14.9922 6.08008H13.3172C13.1791 6.08008 13.0672 6.19202 13.0672 6.33008C13.0802 6.9423 12.5944 7.44911 11.9822 7.46211C11.37 7.47511 10.8632 6.98936 10.8502 6.37714C10.8498 6.36145 10.8498 6.34573 10.8502 6.33005C10.8502 6.19198 10.7382 6.08005 10.6002 6.08005H9.49219V5.1758C10.3841 5.02105 10.9816 4.17261 10.8269 3.28073C10.7085 2.59861 10.1743 2.06439 9.49219 1.94605V0.580078H14.9922V6.08008Z" fill="#A4A7AE"/>
</svg>
