<svg width="15" height="15" viewBox="0 0 15 15" fill="none" xmlns="http://www.w3.org/2000/svg">
<path fill-rule="evenodd" clip-rule="evenodd" d="M4.5 2C3.57174 2 2.6815 2.36875 2.02513 3.02513C1.36875 3.6815 1 4.57174 1 5.5V10.5C1 11.4283 1.36875 12.3185 2.02513 12.9749C2.6815 13.6313 3.57174 14 4.5 14H9.5C10.4283 14 11.3185 13.6313 11.9749 12.9749C12.6313 12.3185 13 11.4283 13 10.5V8C13 7.86739 13.0527 7.74021 13.1464 7.64645C13.2402 7.55268 13.3674 7.5 13.5 7.5C13.6326 7.5 13.7598 7.55268 13.8536 7.64645C13.9473 7.74021 14 7.86739 14 8V10.5C14 11.6935 13.5259 12.8381 12.682 13.682C11.8381 14.5259 10.6935 15 9.5 15H4.5C3.30653 15 2.16193 14.5259 1.31802 13.682C0.474106 12.8381 0 11.6935 0 10.5V5.5C0 4.30653 0.474106 3.16193 1.31802 2.31802C2.16193 1.47411 3.30653 1 4.5 1H7C7.13261 1 7.25979 1.05268 7.35355 1.14645C7.44732 1.24021 7.5 1.36739 7.5 1.5C7.5 1.63261 7.44732 1.75979 7.35355 1.85355C7.25979 1.94732 7.13261 2 7 2H4.5Z" fill="white"/>
<path d="M15 3C15 3.79565 14.6839 4.55871 14.1213 5.12132C13.5587 5.68393 12.7956 6 12 6C11.2044 6 10.4413 5.68393 9.87868 5.12132C9.31607 4.55871 9 3.79565 9 3C9 2.20435 9.31607 1.44129 9.87868 0.87868C10.4413 0.31607 11.2044 0 12 0C12.7956 0 13.5587 0.31607 14.1213 0.87868C14.6839 1.44129 15 2.20435 15 3Z" fill="white"/>
</svg>
