<svg width="12" height="16" viewBox="0 0 12 16" fill="none" xmlns="http://www.w3.org/2000/svg">
<path d="M10.4417 0.580078H1.54361C0.977849 0.580078 0.517578 1.03907 0.517578 1.60316V14.557C0.517578 15.1211 0.977849 15.5801 1.54361 15.5801H10.4417C11.0073 15.5801 11.4676 15.1211 11.4676 14.557V1.60316C11.4676 1.03907 11.0073 0.580078 10.4417 0.580078ZM10.8676 14.557C10.8676 14.7901 10.6766 14.98 10.4417 14.98H1.54361C1.30866 14.98 1.11756 14.7901 1.11756 14.557V13.5925H10.8676V14.557ZM10.8676 12.9925H1.11756V3.16751H10.8676V12.9925ZM10.8676 2.56753H1.11756V1.60316C1.11756 1.36988 1.30866 1.18006 1.54361 1.18006H10.4417C10.6766 1.18006 10.8676 1.36988 10.8676 1.60316V2.56753Z" fill="#A4A7AE"/>
<path d="M2.53895 8.6442L3.32529 8.98861C3.36451 9.10319 3.41091 9.21522 3.46384 9.32378L3.15187 10.1224C3.10855 10.2337 3.13521 10.3602 3.22019 10.4444L3.63085 10.8522C3.71494 10.9359 3.84119 10.9613 3.95078 10.919L4.74737 10.6092C4.85811 10.6628 4.97065 10.7092 5.08485 10.7483L5.42618 11.5313C5.47399 11.6405 5.58204 11.7113 5.70124 11.7113H6.28251C6.40209 11.7113 6.50988 11.6404 6.55757 11.5311L6.89838 10.7473C7.01527 10.7084 7.12896 10.6618 7.23817 10.6074L8.03207 10.9186C8.14281 10.9617 8.26855 10.9359 8.35289 10.8522L8.76368 10.4444C8.84866 10.3602 8.87532 10.2337 8.83187 10.1224L8.52054 9.32557C8.57501 9.21624 8.62154 9.10332 8.66025 8.98784L9.4448 8.6442C9.55375 8.59652 9.62437 8.48847 9.62437 8.3694V7.79108C9.62437 7.67201 9.55375 7.56409 9.4448 7.51628L8.66025 7.17265C8.62154 7.05729 8.57501 6.94424 8.52054 6.83504L8.83187 6.03818C8.87532 5.92731 8.84892 5.80119 8.76458 5.71685L8.35379 5.30631C8.26919 5.22134 8.14204 5.19583 8.03156 5.23941L7.23791 5.55279C7.12832 5.49883 7.01489 5.45205 6.89838 5.41321L6.55757 4.62956C6.50988 4.5201 6.40209 4.44922 6.28251 4.44922H5.70124C5.58204 4.44922 5.47399 4.51997 5.42618 4.6293L5.08485 5.41219C4.97116 5.45115 4.85837 5.49768 4.74801 5.55125L3.95167 5.23902C3.84067 5.19621 3.71468 5.22198 3.62996 5.30631L3.21929 5.71685C3.13482 5.80119 3.10855 5.92731 3.15187 6.03818L3.46384 6.83683C3.41091 6.94527 3.36451 7.05742 3.32529 7.17188L2.53895 7.51628C2.43 7.56409 2.35938 7.67201 2.35938 7.79108V8.3694C2.35938 8.48847 2.43 8.59652 2.53895 8.6442ZM2.95935 7.98732L3.69058 7.66688C3.77236 7.63112 3.83388 7.56088 3.85849 7.47526C3.9063 7.30979 3.97244 7.14957 4.05536 6.99923C4.09843 6.92117 4.10458 6.82799 4.07241 6.74506L3.7821 6.00255L3.9154 5.86938L4.65483 6.15918C4.73776 6.19135 4.82966 6.18584 4.90708 6.14367C5.06588 6.05779 5.22315 5.99307 5.38811 5.94539C5.47399 5.92065 5.54448 5.859 5.58024 5.77709L5.8976 5.0492H6.08589L6.4035 5.77979C6.4399 5.8631 6.51194 5.92565 6.59986 5.94949C6.76533 5.9946 6.92414 6.05997 7.07116 6.14367C7.14998 6.1884 7.24496 6.19494 7.32955 6.16174L8.06873 5.86964L8.20177 6.00255L7.91146 6.74506C7.87865 6.82927 7.88531 6.92399 7.93017 7.00256C8.01426 7.15034 8.07962 7.308 8.1241 7.47116C8.1482 7.5587 8.21023 7.63061 8.29316 7.66688L9.02439 7.98732V8.1733L8.29316 8.4936C8.21023 8.53 8.1482 8.60191 8.1241 8.68932C8.07962 8.85249 8.01426 9.01014 7.93017 9.15792C7.88531 9.23662 7.87865 9.33121 7.91146 9.41542L8.20152 10.1574L8.06899 10.2887L7.32904 9.99848C7.24406 9.96542 7.14973 9.97221 7.07116 10.0171C6.9244 10.1004 6.76597 10.1658 6.59986 10.211C6.51194 10.235 6.4399 10.2975 6.4035 10.3808L6.08589 11.1113H5.8976L5.58024 10.3834C5.54448 10.3016 5.47399 10.2398 5.38811 10.2151C5.22251 10.1674 5.06524 10.1027 4.90733 10.0169C4.8294 9.9749 4.73776 9.96913 4.65573 10.0012L3.91501 10.2891L3.78236 10.1574L4.07241 9.41542C4.10458 9.33262 4.09843 9.23944 4.05536 9.16138C3.97244 9.01104 3.9063 8.85082 3.85849 8.68522C3.83388 8.59973 3.77236 8.52936 3.69058 8.4936L2.95935 8.1733V7.98732Z" fill="#A4A7AE"/>
<path d="M5.99286 9.64464C6.85585 9.64464 7.55786 8.94251 7.55786 8.07965C7.55786 7.21665 6.85585 6.51465 5.99286 6.51465C5.12974 6.51465 4.42773 7.21665 4.42773 8.07965C4.42773 8.94251 5.12974 9.64464 5.99286 9.64464ZM5.99286 7.11463C6.52491 7.11463 6.95788 7.54747 6.95788 8.07965C6.95788 8.61182 6.52491 9.04466 5.99286 9.04466C5.46081 9.04466 5.02784 8.61182 5.02784 8.07965C5.02784 7.54747 5.46081 7.11463 5.99286 7.11463Z" fill="#A4A7AE"/>
</svg>
