<svg width="24" height="25" viewBox="0 0 24 25" fill="none" xmlns="http://www.w3.org/2000/svg">
<path d="M23.4706 20.0393C22.729 19.3781 22.0796 18.6201 21.5402 17.7858C20.9512 16.6341 20.5982 15.3763 20.5018 14.0863V10.2869C20.5069 8.26077 19.772 6.3025 18.435 4.78003C17.0981 3.25757 15.2512 2.2757 13.2414 2.01893V1.02677C13.2414 0.754453 13.1332 0.49329 12.9407 0.300734C12.7481 0.108177 12.4869 0 12.2146 0C11.9423 0 11.6812 0.108177 11.4886 0.300734C11.296 0.49329 11.1879 0.754453 11.1879 1.02677V2.03431C9.19605 2.3096 7.37149 3.29739 6.05212 4.81474C4.73275 6.33209 4.00797 8.27617 4.01202 10.2869V14.0863C3.91569 15.3763 3.56268 16.6341 2.97371 17.7858C2.4437 18.6182 1.80481 19.3761 1.074 20.0393C0.991959 20.1114 0.926207 20.2001 0.881118 20.2995C0.83603 20.399 0.812638 20.5069 0.8125 20.6161V21.6621C0.8125 21.8661 0.893532 22.0617 1.03777 22.206C1.18201 22.3502 1.37763 22.4312 1.58162 22.4312H22.963C23.167 22.4312 23.3626 22.3502 23.5069 22.206C23.6511 22.0617 23.7321 21.8661 23.7321 21.6621V20.6161C23.732 20.5069 23.7086 20.399 23.6635 20.2995C23.6184 20.2001 23.5527 20.1114 23.4706 20.0393ZM2.41226 20.893C3.12785 20.2017 3.7579 19.4271 4.2889 18.5857C5.0308 17.1947 5.46367 15.66 5.55794 14.0863V10.2869C5.52744 9.38554 5.67863 8.48724 6.00252 7.64552C6.32641 6.80379 6.81638 6.03585 7.44323 5.38742C8.07009 4.73899 8.82102 4.22334 9.65131 3.87117C10.4816 3.51899 11.3743 3.3375 12.2762 3.3375C13.1781 3.3375 14.0707 3.51899 14.901 3.87117C15.7313 4.22334 16.4822 4.73899 17.1091 5.38742C17.7359 6.03585 18.2259 6.80379 18.5498 7.64552C18.8737 8.48724 19.0249 9.38554 18.9944 10.2869V14.0863C19.0887 15.66 19.5215 17.1947 20.2634 18.5857C20.7944 19.4271 21.4245 20.2017 22.1401 20.893H2.41226Z" fill="#8D8E90"/>
<path d="M12.3112 24.9997C12.7957 24.9885 13.2607 24.8064 13.6238 24.4855C13.9869 24.1645 14.2249 23.7255 14.2955 23.2461H10.25C10.3227 23.7386 10.5717 24.1879 10.9509 24.5104C11.3301 24.833 11.8135 25.0069 12.3112 24.9997Z" fill="#8D8E90"/>
</svg>
