<svg width="18" height="20" viewBox="0 0 18 20" fill="none" xmlns="http://www.w3.org/2000/svg">
<path d="M0 2.14286C0 1.57454 0.203188 1.02949 0.564866 0.62763C0.926543 0.225766 1.41708 0 1.92857 0H16.0714C16.5829 0 17.0735 0.225766 17.4351 0.62763C17.7968 1.02949 18 1.57454 18 2.14286V17.8571C18 18.4255 17.7968 18.9705 17.4351 19.3724C17.0735 19.7742 16.5829 20 16.0714 20H1.92857C1.41708 20 0.926543 19.7742 0.564866 19.3724C0.203188 18.9705 0 18.4255 0 17.8571V2.14286ZM1.92857 1.42857C1.75808 1.42857 1.59456 1.50383 1.474 1.63778C1.35344 1.77174 1.28571 1.95342 1.28571 2.14286V17.8571C1.28571 18.0466 1.35344 18.2283 1.474 18.3622C1.59456 18.4962 1.75808 18.5714 1.92857 18.5714H16.0714C16.2419 18.5714 16.4054 18.4962 16.526 18.3622C16.6466 18.2283 16.7143 18.0466 16.7143 17.8571V2.14286C16.7143 1.95342 16.6466 1.77174 16.526 1.63778C16.4054 1.50383 16.2419 1.42857 16.0714 1.42857H1.92857Z" fill="#FFF9ED"/>
<path fill-rule="evenodd" clip-rule="evenodd" d="M13.9546 6.20921C14.2056 6.48816 14.2056 6.94042 13.9546 7.21936L8.16885 13.6479C7.9178 13.9269 7.51077 13.9269 7.25972 13.6479L4.68829 10.7908C4.43724 10.5118 4.43724 10.0596 4.68829 9.78064C4.93934 9.50169 5.34637 9.50169 5.59743 9.78064L7.71429 12.1327L13.0454 6.20921C13.2965 5.93026 13.7035 5.93026 13.9546 6.20921Z" fill="#FFF9ED"/>
</svg>
