<svg width="15" height="15" viewBox="0 0 15 15" fill="none" xmlns="http://www.w3.org/2000/svg">
<path d="M14.2992 0H0.288755C0.212173 0 0.138727 0.0232625 0.0845746 0.0646701C0.0304225 0.106078 5.98941e-08 0.162238 5.98941e-08 0.220798V14.7791C-3.67329e-05 14.8228 0.0168785 14.8655 0.0486048 14.9018C0.0803311 14.9381 0.125442 14.9665 0.178228 14.9832C0.231014 14.9999 0.289102 15.0043 0.34514 14.9958C0.401177 14.9872 0.452645 14.9662 0.493029 14.9353L1.6898 14.02L2.88673 14.9353C2.9409 14.9766 3.01434 14.9999 3.09092 14.9999C3.16749 14.9999 3.24093 14.9766 3.29511 14.9353L4.49188 14.02L5.68881 14.9353C5.74298 14.9766 5.81642 14.9999 5.893 14.9999C5.96957 14.9999 6.04302 14.9766 6.09719 14.9353L7.29396 14.02L8.49089 14.9353C8.54506 14.9766 8.6185 14.9999 8.69508 14.9999C8.77165 14.9999 8.84509 14.9766 8.89927 14.9353L10.096 14.0201L11.2928 14.9353C11.347 14.9766 11.4204 14.9999 11.497 14.9999C11.5736 14.9999 11.647 14.9766 11.7012 14.9353L12.8981 14.02L14.0949 14.9353C14.1353 14.9662 14.1867 14.9872 14.2428 14.9958C14.2988 15.0043 14.3569 14.9999 14.4097 14.9832C14.4625 14.9665 14.5076 14.9381 14.5393 14.9018C14.571 14.8655 14.5879 14.8228 14.5879 14.7791V0.220798C14.5879 0.162238 14.5575 0.106078 14.5033 0.0646701C14.4492 0.0232625 14.3757 0 14.2992 0ZM14.0104 14.246L13.1029 13.5521C13.0487 13.5107 12.9753 13.4874 12.8988 13.4874C12.8222 13.4874 12.7488 13.5107 12.6947 13.5521L11.4977 14.4673L10.3008 13.5521C10.2467 13.5107 10.1732 13.4874 10.0967 13.4874C10.0201 13.4874 9.94673 13.5107 9.89259 13.5521L8.69566 14.4673L7.49872 13.5521C7.44458 13.5107 7.37116 13.4874 7.29462 13.4874C7.21807 13.4874 7.14465 13.5107 7.09051 13.5521L5.89358 14.4673L4.69664 13.5521C4.6425 13.5107 4.56908 13.4874 4.49254 13.4874C4.41599 13.4874 4.34257 13.5107 4.28843 13.5521L3.0915 14.4673L1.89456 13.5521C1.84042 13.5107 1.767 13.4874 1.69046 13.4874C1.61391 13.4874 1.54049 13.5107 1.48635 13.5521L0.57883 14.246V0.441595H14.0117L14.0104 14.246Z" fill="white"/>
<path d="M9 6.54545V6.38636C9 5.65136 8.4732 5.05095 7.8 4.97077V4H7.2V4.97077C6.5268 5.05095 6 5.65136 6 6.38636C6 7.17577 6.6057 7.81818 7.35 7.81818H7.65C8.0637 7.81818 8.4 8.17486 8.4 8.61364C8.4 9.05241 8.0637 9.40909 7.65 9.40909H7.35C6.9363 9.40909 6.6 9.05241 6.6 8.61364V8.45455H6V8.61364C6 9.34864 6.5268 9.94905 7.2 10.0292V11H7.8V10.0292C8.4732 9.94905 9 9.34864 9 8.61364C9 7.82423 8.3943 7.18182 7.65 7.18182H7.35C6.9363 7.18182 6.6 6.82514 6.6 6.38636C6.6 5.94759 6.9363 5.59091 7.35 5.59091H7.65C8.0637 5.59091 8.4 5.94759 8.4 6.38636V6.54545H9Z" fill="white"/>
</svg>
