<svg width="14" height="14" viewBox="0 0 14 14" fill="none" xmlns="http://www.w3.org/2000/svg">
<path fill-rule="evenodd" clip-rule="evenodd" d="M12.25 0.875H1.75C1.51794 0.875 1.29538 0.967187 1.13128 1.13128C0.967187 1.29538 0.875 1.51794 0.875 1.75V12.25C0.875 12.4821 0.967187 12.7046 1.13128 12.8687C1.29538 13.0328 1.51794 13.125 1.75 13.125H12.25C12.4821 13.125 12.7046 13.0328 12.8687 12.8687C13.0328 12.7046 13.125 12.4821 13.125 12.25V1.75C13.125 1.51794 13.0328 1.29538 12.8687 1.13128C12.7046 0.967187 12.4821 0.875 12.25 0.875ZM1.75 0C1.28587 0 0.840752 0.184374 0.512563 0.512563C0.184374 0.840752 0 1.28587 0 1.75L0 12.25C0 12.7141 0.184374 13.1592 0.512563 13.4874C0.840752 13.8156 1.28587 14 1.75 14H12.25C12.7141 14 13.1592 13.8156 13.4874 13.4874C13.8156 13.1592 14 12.7141 14 12.25V1.75C14 1.28587 13.8156 0.840752 13.4874 0.512563C13.1592 0.184374 12.7141 0 12.25 0L1.75 0Z" fill="#8D8E90"/>
<path fill-rule="evenodd" clip-rule="evenodd" d="M4.06603 6.6903C4.10667 6.64956 4.15495 6.61723 4.2081 6.59518C4.26125 6.57312 4.31824 6.56177 4.37578 6.56177C4.43333 6.56177 4.49031 6.57312 4.54346 6.59518C4.59661 6.61723 4.64489 6.64956 4.68553 6.6903L7.00078 9.00642L9.31603 6.6903C9.39818 6.60815 9.5096 6.562 9.62578 6.562C9.74196 6.562 9.85338 6.60815 9.93553 6.6903C10.0177 6.77245 10.0638 6.88387 10.0638 7.00005C10.0638 7.11623 10.0177 7.22765 9.93553 7.3098L7.31053 9.9348C7.26989 9.97554 7.22161 10.0079 7.16846 10.0299C7.11531 10.052 7.05833 10.0633 7.00078 10.0633C6.94324 10.0633 6.88625 10.052 6.8331 10.0299C6.77995 10.0079 6.73167 9.97554 6.69103 9.9348L4.06603 7.3098C4.02529 7.26916 3.99296 7.22088 3.97091 7.16773C3.94885 7.11458 3.9375 7.0576 3.9375 7.00005C3.9375 6.9425 3.94885 6.88552 3.97091 6.83237C3.99296 6.77922 4.02529 6.73094 4.06603 6.6903Z" fill="#8D8E90"/>
<path fill-rule="evenodd" clip-rule="evenodd" d="M7 3.9375C7.11603 3.9375 7.22731 3.98359 7.30936 4.06564C7.39141 4.14769 7.4375 4.25897 7.4375 4.375V8.75C7.4375 8.86603 7.39141 8.97731 7.30936 9.05936C7.22731 9.14141 7.11603 9.1875 7 9.1875C6.88397 9.1875 6.77269 9.14141 6.69064 9.05936C6.60859 8.97731 6.5625 8.86603 6.5625 8.75V4.375C6.5625 4.25897 6.60859 4.14769 6.69064 4.06564C6.77269 3.98359 6.88397 3.9375 7 3.9375Z" fill="#8D8E90"/>
</svg>
