<svg width="14" height="14" viewBox="0 0 14 14" fill="none" xmlns="http://www.w3.org/2000/svg">
<path fill-rule="evenodd" clip-rule="evenodd" d="M1.75 13.125L12.25 13.125C12.4821 13.125 12.7046 13.0328 12.8687 12.8687C13.0328 12.7046 13.125 12.4821 13.125 12.25L13.125 1.75C13.125 1.51794 13.0328 1.29538 12.8687 1.13128C12.7046 0.967188 12.4821 0.875 12.25 0.875L1.75 0.874999C1.51794 0.874999 1.29538 0.967187 1.13128 1.13128C0.967189 1.29537 0.875001 1.51793 0.875001 1.75L0.875 12.25C0.875 12.4821 0.967188 12.7046 1.13128 12.8687C1.29538 13.0328 1.51794 13.125 1.75 13.125ZM12.25 14C12.7141 14 13.1592 13.8156 13.4874 13.4874C13.8156 13.1592 14 12.7141 14 12.25L14 1.75C14 1.28587 13.8156 0.840752 13.4874 0.512564C13.1592 0.184375 12.7141 -1.12414e-07 12.25 -1.5299e-07L1.75 -1.07093e-06C1.28587 -1.1115e-06 0.840753 0.184374 0.512565 0.512563C0.184376 0.84075 1.1115e-06 1.28587 1.07093e-06 1.75L1.5299e-07 12.25C1.12414e-07 12.7141 0.184375 13.1592 0.512564 13.4874C0.840752 13.8156 1.28587 14 1.75 14L12.25 14Z" fill="#8D8E90"/>
<path fill-rule="evenodd" clip-rule="evenodd" d="M9.93397 7.3097C9.89333 7.35044 9.84505 7.38277 9.7919 7.40482C9.73875 7.42688 9.68176 7.43823 9.62422 7.43823C9.56667 7.43823 9.50969 7.42688 9.45654 7.40482C9.40339 7.38277 9.35511 7.35044 9.31447 7.3097L6.99922 4.99358L4.68397 7.3097C4.60182 7.39185 4.4904 7.438 4.37422 7.438C4.25804 7.438 4.14662 7.39185 4.06447 7.3097C3.98232 7.22755 3.93617 7.11613 3.93617 6.99995C3.93617 6.88377 3.98232 6.77235 4.06447 6.6902L6.68947 4.0652C6.73011 4.02446 6.77839 3.99213 6.83154 3.97008C6.88469 3.94802 6.94167 3.93667 6.99922 3.93667C7.05676 3.93667 7.11375 3.94802 7.1669 3.97008C7.22005 3.99213 7.26833 4.02446 7.30897 4.0652L9.93397 6.6902C9.97471 6.73084 10.007 6.77912 10.0291 6.83227C10.0511 6.88542 10.0625 6.9424 10.0625 6.99995C10.0625 7.0575 10.0511 7.11448 10.0291 7.16763C10.007 7.22078 9.97471 7.26906 9.93397 7.3097Z" fill="#8D8E90"/>
<path fill-rule="evenodd" clip-rule="evenodd" d="M7 10.0625C6.88397 10.0625 6.77269 10.0164 6.69064 9.93436C6.60859 9.85231 6.5625 9.74103 6.5625 9.625L6.5625 5.25C6.5625 5.13397 6.60859 5.02269 6.69064 4.94064C6.77269 4.85859 6.88397 4.8125 7 4.8125C7.11603 4.8125 7.22731 4.85859 7.30936 4.94064C7.39141 5.02269 7.4375 5.13397 7.4375 5.25L7.4375 9.625C7.4375 9.74103 7.39141 9.85231 7.30936 9.93436C7.22731 10.0164 7.11603 10.0625 7 10.0625Z" fill="#8D8E90"/>
</svg>
