<svg width="15" height="14" viewBox="0 0 15 14" fill="none" xmlns="http://www.w3.org/2000/svg">
<path d="M14.9539 3.85847C12.3574 0.529179 12.4682 0.612587 12.3295 0.598994L8.26503 0.0515248C7.24047 -0.0864923 6.54452 0.0928919 6.18915 0.12503C6.06988 0.141085 5.98624 0.250801 6.00227 0.370069C6.01832 0.489336 6.12818 0.573154 6.2473 0.556953C6.60771 0.523906 7.25409 0.355186 8.20685 0.483447L10.998 0.859384C10.7891 0.901952 7.70898 1.52961 7.49995 1.5722L4.00203 0.859384L6.40429 0.526068C6.52356 0.510013 6.6072 0.400297 6.59117 0.28103C6.57512 0.161733 6.46517 0.0780617 6.34614 0.0941456L2.67064 0.598935C2.67028 0.598964 2.66993 0.599023 2.66958 0.599082L2.6663 0.599521C2.66296 0.59999 2.65971 0.600722 2.6564 0.601337C2.65426 0.601748 2.65206 0.602041 2.64995 0.602509C2.64817 0.60289 2.64638 0.603271 2.64462 0.603681C2.64213 0.604297 2.63967 0.605029 2.63721 0.605703C2.6334 0.606757 2.62959 0.607783 2.62584 0.609043C2.62429 0.60957 2.62282 0.610214 2.62127 0.610771C2.6206 0.611005 2.61992 0.611269 2.61928 0.611533C2.61711 0.612353 2.61486 0.613115 2.61272 0.613964C2.60879 0.615576 2.60498 0.617363 2.60117 0.619209C2.5995 0.62 2.59786 0.620732 2.59622 0.621552C2.59438 0.62249 2.59259 0.623398 2.5908 0.624365C2.58907 0.625302 2.58743 0.626357 2.5857 0.627382C2.49108 0.682519 2.53728 0.686415 0.0460839 3.85844C-0.0057128 3.92488 -0.014619 4.0152 0.023291 4.09047C0.111006 4.26449 0.535135 4.79236 5.34417 11.1757C5.41665 11.2718 5.55329 11.2909 5.64939 11.2185C5.74545 11.146 5.76455 11.0093 5.6921 10.9132L0.810701 4.44338L4.22383 5.51845C4.30569 5.73434 6.80573 12.3284 6.85211 12.4507L5.64939 10.8566C5.57691 10.7606 5.4403 10.7415 5.34417 10.8139C5.24808 10.8864 5.22901 11.0231 5.30146 11.1191C6.56084 12.788 6.69059 12.9609 6.69956 12.971C6.85867 13.1504 7.07872 13.2638 7.28919 13.2993C7.32033 13.3046 7.68545 13.3045 7.71598 13.2985C7.98135 13.247 8.2055 13.0971 8.31132 12.9577L13.2203 6.45128C13.2928 6.35519 13.2737 6.21855 13.1776 6.14607C13.0815 6.07364 12.9449 6.09274 12.8724 6.18878L8.14779 12.4508C8.27778 12.108 10.6806 5.77043 10.7761 5.51848L14.1893 4.44341L12.8297 6.24539C12.7572 6.34148 12.7763 6.47813 12.8724 6.55061C12.9685 6.62309 13.1051 6.60398 13.1776 6.50789C15.0029 4.08639 14.9045 4.23317 14.9765 4.09082C15.0146 4.0155 15.0058 3.925 14.9539 3.85847ZM7.49998 2.12518L10.129 5.12444H4.87094L7.49998 2.12518ZM0.560447 3.90763L2.62777 1.25653L4.02936 5.00034L0.560447 3.90763ZM3.03743 1.10759C3.46891 1.19551 6.56283 1.82603 7.08874 1.9332L4.46644 4.92472L3.03743 1.10759ZM7.52406 12.8667H7.47595L4.7058 5.56023H10.2942L7.52406 12.8667ZM10.5335 4.92469L7.91121 1.9332C8.26005 1.8621 11.4261 1.21692 11.9625 1.10759L10.5335 4.92469ZM10.9706 5.00028L12.3722 1.25647L14.4395 3.9076L10.9706 5.00028Z" fill="white"/>
</svg>
