<svg width="16" height="14" viewBox="0 0 16 14" fill="none" xmlns="http://www.w3.org/2000/svg">
<path d="M15.3953 4.28718C12.7988 0.95789 12.9096 1.0413 12.7709 1.0277L8.70644 0.480236C7.68187 0.342219 6.98593 0.521603 6.63056 0.553741C6.51129 0.569796 6.42765 0.679512 6.44367 0.79878C6.45973 0.918047 6.56959 1.00186 6.68871 0.985664C7.04912 0.952617 7.69549 0.783897 8.64826 0.912158L11.4394 1.28809C11.2305 1.33066 8.15039 1.95832 7.94135 2.00091L4.44343 1.28809L6.8457 0.954779C6.96496 0.938724 7.0486 0.829008 7.03258 0.709741C7.01652 0.590444 6.90657 0.506773 6.78754 0.522857L3.11204 1.02765C3.11169 1.02768 3.11134 1.02773 3.11099 1.02779L3.10771 1.02823C3.10437 1.0287 3.10111 1.02943 3.0978 1.03005C3.09567 1.03046 3.09347 1.03075 3.09136 1.03122C3.08957 1.0316 3.08778 1.03198 3.08603 1.03239C3.08354 1.03301 3.08108 1.03374 3.07861 1.03441C3.07481 1.03547 3.071 1.03649 3.06725 1.03775C3.06569 1.03828 3.06423 1.03893 3.06268 1.03948C3.062 1.03972 3.06133 1.03998 3.06068 1.04024C3.05852 1.04106 3.05626 1.04183 3.05412 1.04268C3.0502 1.04429 3.04639 1.04607 3.04258 1.04792C3.04091 1.04871 3.03927 1.04944 3.03763 1.05026C3.03578 1.0512 3.034 1.05211 3.03221 1.05308C3.03048 1.05401 3.02884 1.05507 3.02711 1.05609C2.93248 1.11123 2.97868 1.11513 0.48749 4.28715C0.435693 4.35359 0.426787 4.44391 0.464697 4.51918C0.552412 4.6932 0.976541 5.22107 5.78558 11.6045C5.85806 11.7006 5.9947 11.7197 6.09079 11.6472C6.18686 11.5747 6.20596 11.4381 6.13351 11.342L1.25211 4.87209L4.66524 5.94716C4.7471 6.16305 7.24714 12.7571 7.29351 12.8794L6.09079 11.2854C6.01831 11.1893 5.8817 11.1702 5.78558 11.2426C5.68949 11.3151 5.67041 11.4518 5.74286 11.5479C7.00224 13.2167 7.132 13.3896 7.14096 13.3997C7.30008 13.5791 7.52012 13.6925 7.73059 13.728C7.76173 13.7333 8.12686 13.7332 8.15739 13.7272C8.42276 13.6757 8.64691 13.5258 8.75273 13.3864L13.6617 6.87999C13.7342 6.7839 13.7151 6.64726 13.619 6.57478C13.5229 6.50235 13.3863 6.52146 13.3138 6.61749L8.58919 12.8795C8.71918 12.5367 11.122 6.19914 11.2175 5.94719L14.6307 4.87212L13.2711 6.6741C13.1986 6.7702 13.2177 6.90684 13.3138 6.97932C13.4099 7.0518 13.5465 7.0327 13.619 6.9366C15.4443 4.51511 15.3459 4.66188 15.4179 4.51953C15.456 4.44421 15.4472 4.35371 15.3953 4.28718ZM7.94138 2.55389L10.5704 5.55315H5.31235L7.94138 2.55389ZM1.00185 4.33634L3.06918 1.68524L4.47077 5.42905L1.00185 4.33634ZM3.47884 1.5363C3.91032 1.62422 7.00424 2.25474 7.53014 2.36191L4.90785 5.35343L3.47884 1.5363ZM7.96546 13.2954H7.91736L5.1472 5.98894H10.7356L7.96546 13.2954ZM10.9749 5.3534L8.35262 2.36191C8.70146 2.29081 11.8675 1.64563 12.4039 1.5363L10.9749 5.3534ZM11.412 5.42899L12.8136 1.68518L14.8809 4.33631L11.412 5.42899Z" fill="#A4A7AE"/>
</svg>
