<svg width="18" height="14" viewBox="0 0 18 14" fill="none" xmlns="http://www.w3.org/2000/svg">
<path fill-rule="evenodd" clip-rule="evenodd" d="M12.7911 0.142488C12.9811 -0.0474961 13.2891 -0.0474961 13.4791 0.142488L17.8575 4.52086C17.9966 4.65999 18.0382 4.86924 17.9629 5.05103C17.8876 5.23281 17.7103 5.35134 17.5135 5.35134H0.486486C0.217807 5.35134 0 5.13354 0 4.86486C0 4.59618 0.217807 4.37837 0.486486 4.37837H16.339L12.7911 0.830483C12.6011 0.640499 12.6011 0.332473 12.7911 0.142488Z" fill="#FFF9ED"/>
<path fill-rule="evenodd" clip-rule="evenodd" d="M5.20888 13.4792C5.0189 13.6692 4.71087 13.6692 4.52089 13.4792L0.142517 9.10084C0.00338404 8.96171 -0.0382381 8.75246 0.0370621 8.57067C0.112359 8.38889 0.28975 8.27036 0.486516 8.27036L17.5135 8.27036C17.7822 8.27036 18 8.48817 18 8.75685C18 9.02553 17.7822 9.24333 17.5135 9.24333L1.661 9.24333L5.20888 12.7912C5.39887 12.9812 5.39887 13.2892 5.20888 13.4792Z" fill="#FFF9ED"/>
</svg>
