<svg width="16" height="11" viewBox="0 0 16 11" fill="none" xmlns="http://www.w3.org/2000/svg">
<path d="M15.3081 0.761566C15.2248 0.702972 15.1179 0.688616 15.0221 0.724036L12.4745 1.65055C12.1587 1.76531 11.9072 1.99664 11.7665 2.30179C11.7401 2.35901 11.7228 2.41845 11.7055 2.47781C11.268 2.35344 10.455 2.0937 9.64709 1.67742C8.4262 1.04832 7.49347 1.35905 6.69349 1.96924C6.28814 1.97721 5.72944 2.02514 5.18024 2.07354C4.82991 2.10445 4.49883 2.1329 4.23035 2.14927C4.22376 1.98802 4.18602 1.828 4.11641 1.67683C3.97573 1.37164 3.72427 1.14032 3.40839 1.02559L0.860733 0.0990152C0.765225 0.0639175 0.657793 0.0782732 0.574795 0.136545C0.491152 0.195168 0.441406 0.290676 0.441406 0.3926V6.6426C0.441406 6.81534 0.581182 6.95511 0.753917 6.95511H1.66669C2.05491 6.95511 2.41608 6.77201 2.64955 6.47634C2.77391 6.57091 2.92122 6.68166 3.0757 6.79764C3.44039 7.07201 3.83956 7.37136 4.01472 7.51817C5.17837 8.49229 6.5773 9.54423 6.85591 9.72733C7.11621 9.89822 7.58497 10.0801 7.94142 10.0801C8.08087 10.0801 8.43214 10.0801 8.67874 9.87168C8.93295 9.97147 9.20699 9.9666 9.46181 9.85428C9.71602 9.74228 9.92172 9.5311 10.0413 9.27443C10.2855 9.32447 10.5659 9.28785 10.8201 9.16029C11.0585 9.04097 11.234 8.86029 11.3279 8.64912C11.5538 8.66986 11.7949 8.59633 12.0106 8.43121C12.3189 8.19557 12.46 7.84759 12.4201 7.50428L13.2128 7.06574C13.4449 7.38042 13.8139 7.58007 14.2161 7.58007H15.1289C15.3016 7.58007 15.4414 7.4403 15.4414 7.26756V1.01762C15.4414 0.915667 15.3917 0.820159 15.3081 0.761566ZM2.25202 5.92453C2.16108 6.16714 1.92579 6.33012 1.66669 6.33012H1.0664V0.838763L3.1947 1.6127C3.35279 1.67039 3.47853 1.78605 3.5487 1.93863C3.61919 2.09121 3.62531 2.26213 3.56639 2.41927L2.25202 5.92453ZM11.6313 7.93474C11.5254 8.01592 11.3771 8.0611 11.3112 7.99518C11.3078 7.99181 11.3026 7.99214 11.2991 7.98891C11.2932 7.98338 11.2902 7.97591 11.2837 7.97075C11.0603 7.79435 10.0594 6.77019 9.44078 6.12504C9.32145 6.00024 9.12341 5.99564 8.99919 6.11558C8.87438 6.23491 8.8701 6.43266 8.98972 6.55717C9.13492 6.70873 10.3005 7.92264 10.767 8.34719C10.7321 8.48441 10.6049 8.56914 10.5403 8.60154C10.3401 8.70194 10.1314 8.68515 10.0533 8.61253C10.0509 8.61036 10.0475 8.61048 10.0451 8.60837C10.0413 8.60497 10.0396 8.60019 10.0355 8.59697C9.66077 8.29759 8.72054 7.29844 8.50782 7.06711C8.39092 6.93985 8.19349 6.93191 8.06623 7.04851C7.93928 7.16541 7.93073 7.36316 8.04762 7.4901C8.05788 7.50121 8.97932 8.49516 9.49685 8.95685C9.44599 9.10299 9.34237 9.22401 9.20942 9.2827C9.11131 9.32629 8.95785 9.34864 8.78251 9.21906C8.33374 8.83855 7.43312 7.87987 7.25599 7.69029C7.13851 7.56393 6.94014 7.55755 6.8144 7.67535C6.68836 7.79315 6.68165 7.99091 6.79946 8.11694C7.00946 8.34171 7.63017 8.9996 8.10203 9.44506C8.04932 9.45148 7.99398 9.45514 7.94142 9.45514C7.7345 9.45514 7.37898 9.32301 7.19924 9.20488C6.98013 9.06083 5.60438 8.03424 4.41633 7.03934C4.23659 6.88858 3.82643 6.58005 3.45105 6.29807C3.24987 6.14704 3.06451 6.0078 2.9279 5.90271L4.09796 2.78212C4.40168 2.76884 4.80659 2.73383 5.23512 2.69604C5.47749 2.67468 5.72013 2.65385 5.95198 2.63581C5.59562 3.00164 5.06578 3.65686 5.13562 4.27105C5.16768 4.5506 5.32058 4.78345 5.57845 4.94458C6.089 5.26409 7.03415 4.99614 7.48946 4.43616C7.78333 4.39374 7.98203 4.31868 8.19868 4.21125C8.56489 4.55549 9.05591 4.96017 9.57168 5.38527C10.4695 6.12501 11.4873 6.96364 11.7564 7.43391C11.9063 7.69548 11.6985 7.88347 11.6313 7.93474ZM12.1674 6.92974C11.751 6.37275 10.8485 5.62752 9.969 4.9028C9.38277 4.4197 8.82918 3.96346 8.47486 3.60917C8.37721 3.51211 8.22736 3.49014 8.10651 3.55453C7.7882 3.72513 7.64479 3.79561 7.28529 3.83162C7.18946 3.84138 7.10341 3.89449 7.05214 3.97597C6.80707 4.36477 6.12592 4.54969 5.90985 4.4148C5.78716 4.3379 5.76337 4.25977 5.75666 4.20026C5.72646 3.93445 5.99561 3.47426 6.44209 3.02748C7.54776 1.92181 8.33816 1.70545 9.3608 2.2328C10.3324 2.73375 11.2913 3.01699 11.6939 3.12398C11.7055 3.1708 11.7139 3.21808 11.7311 3.26399L12.9445 6.49987L12.1674 6.92974ZM14.8164 6.95511H14.2162C13.957 6.95511 13.7218 6.79213 13.6308 6.54953L12.3164 3.04459C12.2575 2.88712 12.2636 2.71623 12.3341 2.56362C12.4043 2.41104 12.5301 2.29538 12.6881 2.23769L14.8164 1.46375V6.95511H14.8164Z" fill="#A4A7AE"/>
</svg>
