<svg width="14" height="16" viewBox="0 0 14 16" fill="none" xmlns="http://www.w3.org/2000/svg">
<path d="M0.970463 15.56L3.65913 15.5647L4.29275 15.5658L4.94799 15.5667L7.88518 15.5716L8.97348 15.5734L8.97369 15.5733L10.1134 15.5755L10.2201 15.5756L11.3113 15.5773C11.3116 15.5772 11.3116 15.5772 11.3118 15.5771L12.988 15.58C13.1414 15.5803 13.2697 15.4521 13.27 15.2987L13.2703 15.1077L13.2714 14.4508L13.2761 11.6037L13.2772 10.9468L13.2835 7.18843L13.2851 6.09389L13.2861 5.53791L13.294 0.87793C13.2942 0.722403 13.1681 0.596115 13.0126 0.595829L3.39886 0.580079C3.32517 0.579923 3.25157 0.610306 3.19946 0.662365L0.792142 3.0615C0.739797 3.11374 0.709414 3.18701 0.709284 3.26072L0.704502 6.176L0.703281 6.91473L0.702163 7.57164L0.700708 8.46499L0.697121 10.5543L0.69725 10.5546L0.689454 15.2781C0.689194 15.4336 0.814962 15.5598 0.970463 15.56ZM1.82022 2.83247L3.11582 1.54131L3.11322 2.98314L1.67137 2.98059L1.82022 2.83247ZM1.27206 3.54339L3.39389 3.54664C3.54939 3.5469 3.67581 3.42103 3.6761 3.26553L3.67945 1.14392L12.73 1.15884L12.7072 15.0163L1.25319 14.9973L1.27206 3.54339Z" fill="#A4A7AE"/>
<path d="M9.38672 13.208L6.98327 13.2041C6.93036 13.204 6.88087 13.2186 6.83851 13.2438C6.75645 13.293 6.70141 13.3827 6.70117 13.4852C6.70086 13.6409 6.82673 13.7672 6.98242 13.7675L9.38587 13.7714C9.54134 13.7716 9.66768 13.6458 9.66797 13.4902C9.66812 13.3346 9.54225 13.2083 9.38672 13.208Z" fill="#A4A7AE"/>
<path d="M5.7822 13.2017L2.47742 13.1963C2.31163 13.1961 2.17905 13.3442 2.19693 13.5088C2.21242 13.6495 2.33507 13.7593 2.47646 13.7596L5.78131 13.765C5.93681 13.7653 6.06315 13.6394 6.06344 13.4839C6.06362 13.3283 5.93772 13.2019 5.7822 13.2017Z" fill="#A4A7AE"/>
<path d="M11.4938 11.4088L8.78992 11.4043C8.737 11.4042 8.68749 11.4187 8.64515 11.4441C8.56312 11.4931 8.50805 11.5829 8.50781 11.6854C8.5074 11.841 8.63335 11.9674 8.78898 11.9676L11.4929 11.9721C11.6484 11.9723 11.7747 11.8464 11.775 11.6909C11.7753 11.5354 11.6493 11.4091 11.4938 11.4088Z" fill="#A4A7AE"/>
<path d="M2.48034 11.9578L7.58779 11.9664C7.74324 11.9667 7.86961 11.8407 7.86979 11.6851C7.8701 11.5296 7.74418 11.4032 7.58865 11.403L2.48133 11.3945C2.31551 11.3943 2.18283 11.5426 2.20086 11.7071C2.21615 11.8479 2.33882 11.9576 2.48034 11.9578Z" fill="#A4A7AE"/>
<path d="M2.48232 10.4549L11.4953 10.4698C11.6508 10.4701 11.7772 10.3443 11.7774 10.1887C11.7777 10.0332 11.6518 9.90686 11.4963 9.9066L2.48326 9.8916C2.31746 9.89139 2.18478 10.0396 2.20282 10.2042C2.2182 10.3451 2.34088 10.4546 2.48232 10.4549Z" fill="#A4A7AE"/>
<path d="M2.48437 8.95308L9.39422 8.96446C9.54987 8.96465 9.67606 8.83883 9.67645 8.68323C9.67671 8.52771 9.55076 8.4014 9.39515 8.40119L2.48526 8.38965C2.31944 8.38947 2.18675 8.53766 2.20477 8.70218C2.2202 8.84314 2.34296 8.95285 2.48437 8.95308Z" fill="#A4A7AE"/>
<path d="M11.5004 6.90242L6.09267 6.89356C6.03971 6.89348 5.99022 6.90798 5.94786 6.93329C5.8658 6.98236 5.81078 7.07213 5.81055 7.17472C5.81026 7.33021 5.93619 7.45653 6.09169 7.45681L11.4995 7.46581C11.6552 7.46601 11.7814 7.34017 11.7816 7.18451C11.7818 7.02902 11.6559 6.90268 11.5004 6.90242Z" fill="#A4A7AE"/>
<path d="M2.48622 7.45095L4.88965 7.45488C5.04512 7.45514 5.17156 7.32937 5.17172 7.17372C5.17214 7.01814 5.04621 6.89183 4.89058 6.89162L2.48718 6.8877C2.32129 6.88736 2.18871 7.03568 2.20672 7.20023C2.22216 7.34094 2.34481 7.45077 2.48622 7.45095Z" fill="#A4A7AE"/>
<path d="M11.5043 5.39999L9.40138 5.39649C9.34835 5.39633 9.29881 5.41078 9.25645 5.43609C9.17429 5.48527 9.11927 5.57501 9.11914 5.6777C9.11886 5.8332 9.24478 5.95954 9.40039 5.95974L11.5034 5.96323C11.6589 5.96351 11.7852 5.83762 11.7855 5.68209C11.7857 5.52646 11.6598 5.40012 11.5043 5.39999Z" fill="#A4A7AE"/>
<path d="M2.49011 5.94898L8.19826 5.95847C8.35389 5.95865 8.48015 5.83283 8.48052 5.67728C8.48078 5.52172 8.35485 5.39541 8.19932 5.39515L2.49107 5.38574C2.32525 5.38553 2.1927 5.53365 2.21061 5.69833C2.22607 5.83897 2.34872 5.9488 2.49011 5.94898Z" fill="#A4A7AE"/>
<path d="M2.49196 4.44614L11.505 4.46111C11.6606 4.46126 11.7868 4.33544 11.7871 4.17994C11.7874 4.02438 11.6614 3.89807 11.5059 3.89778L2.49289 3.88281C2.3272 3.88255 2.19455 4.03075 2.21258 4.19535C2.22787 4.33606 2.35051 4.44588 2.49196 4.44614Z" fill="#A4A7AE"/>
<path d="M7.90223 2.95292L11.5074 2.95889C11.663 2.9591 11.7892 2.83323 11.7896 2.67765C11.7899 2.52212 11.664 2.39578 11.5083 2.39558L7.90317 2.38965C7.85018 2.38947 7.80066 2.40394 7.7583 2.42926C7.67625 2.47836 7.62125 2.5681 7.62109 2.67079C7.62081 2.82634 7.74673 2.95268 7.90223 2.95292Z" fill="#A4A7AE"/>
<path d="M4.59755 2.94801L6.70055 2.95149C6.85615 2.95172 6.98241 2.82588 6.98265 2.67035C6.98304 2.5148 6.85711 2.38846 6.70151 2.38825L4.59851 2.38477C4.43272 2.38453 4.30004 2.53273 4.31805 2.6973C4.33341 2.83807 4.45606 2.94785 4.59755 2.94801Z" fill="#A4A7AE"/>
</svg>
