<svg width="15" height="14" viewBox="0 0 15 14" fill="none" xmlns="http://www.w3.org/2000/svg">
<g clip-path="url(#clip0)">
<path d="M5.78121 4.6667H1.09371C0.490608 4.6667 0 4.2088 0 3.6458V1.0208C0 0.457901 0.490608 0 1.09371 0H5.78121C6.38443 0 6.87504 0.457901 6.87504 1.0208V3.6458C6.87504 4.2088 6.38443 4.6667 5.78121 4.6667ZM1.09371 0.875C1.00754 0.875 0.9375 0.940369 0.9375 1.0208V3.6458C0.9375 3.72633 1.00754 3.7917 1.09371 3.7917H5.78121C5.8675 3.7917 5.93754 3.72633 5.93754 3.6458V1.0208C5.93754 0.940369 5.8675 0.875 5.78121 0.875H1.09371Z" fill="white"/>
<path d="M5.78121 14.0002H1.09371C0.490608 14.0002 0 13.5423 0 12.9794V6.8544C0 6.2914 0.490608 5.8335 1.09371 5.8335H5.78121C6.38443 5.8335 6.87504 6.2914 6.87504 6.8544V12.9794C6.87504 13.5423 6.38443 14.0002 5.78121 14.0002ZM1.09371 6.7085C1.00754 6.7085 0.9375 6.77386 0.9375 6.8544V12.9794C0.9375 13.0598 1.00754 13.1252 1.09371 13.1252H5.78121C5.8675 13.1252 5.93754 13.0598 5.93754 12.9794V6.8544C5.93754 6.77386 5.8675 6.7085 5.78121 6.7085H1.09371Z" fill="white"/>
<path d="M13.9062 14.0002H9.2187C8.61549 14.0002 8.12488 13.5423 8.12488 12.9794V10.3544C8.12488 9.7914 8.61549 9.3335 9.2187 9.3335H13.9062C14.5093 9.3335 14.9999 9.7914 14.9999 10.3544V12.9794C14.9999 13.5423 14.5093 14.0002 13.9062 14.0002ZM9.2187 10.2085C9.13242 10.2085 9.06238 10.2739 9.06238 10.3544V12.9794C9.06238 13.0598 9.13242 13.1252 9.2187 13.1252H13.9062C13.9924 13.1252 14.0624 13.0598 14.0624 12.9794V10.3544C14.0624 10.2739 13.9924 10.2085 13.9062 10.2085H9.2187Z" fill="white"/>
<path d="M13.9062 8.1667H9.2187C8.61549 8.1667 8.12488 7.7088 8.12488 7.1458V1.0208C8.12488 0.457901 8.61549 0 9.2187 0H13.9062C14.5093 0 14.9999 0.457901 14.9999 1.0208V7.1458C14.9999 7.7088 14.5093 8.1667 13.9062 8.1667ZM9.2187 0.875C9.13242 0.875 9.06238 0.940369 9.06238 1.0208V7.1458C9.06238 7.22633 9.13242 7.2917 9.2187 7.2917H13.9062C13.9924 7.2917 14.0624 7.22633 14.0624 7.1458V1.0208C14.0624 0.940369 13.9924 0.875 13.9062 0.875H9.2187Z" fill="white"/>
</g>
<defs>
<clipPath id="clip0">
<rect width="15" height="14" fill="white"/>
</clipPath>
</defs>
</svg>
