<svg width="16" height="15" viewBox="0 0 16 15" fill="none" xmlns="http://www.w3.org/2000/svg">
<g clip-path="url(#clip0)">
<path d="M6.2734 5.24678H1.5859C0.982796 5.24678 0.492188 4.78888 0.492188 4.22588V1.60088C0.492188 1.03798 0.982796 0.580078 1.5859 0.580078H6.2734C6.87662 0.580078 7.36723 1.03798 7.36723 1.60088V4.22588C7.36723 4.78888 6.87662 5.24678 6.2734 5.24678ZM1.5859 1.45508C1.49973 1.45508 1.42969 1.52045 1.42969 1.60088V4.22588C1.42969 4.30641 1.49973 4.37178 1.5859 4.37178H6.2734C6.35969 4.37178 6.42973 4.30641 6.42973 4.22588V1.60088C6.42973 1.52045 6.35969 1.45508 6.2734 1.45508H1.5859Z" fill="#A4A7AE"/>
<path d="M6.2734 14.5798H1.5859C0.982796 14.5798 0.492188 14.1219 0.492188 13.559V7.43399C0.492188 6.87099 0.982796 6.41309 1.5859 6.41309H6.2734C6.87662 6.41309 7.36723 6.87099 7.36723 7.43399V13.559C7.36723 14.1219 6.87662 14.5798 6.2734 14.5798ZM1.5859 7.28809C1.49973 7.28809 1.42969 7.35345 1.42969 7.43399V13.559C1.42969 13.6394 1.49973 13.7048 1.5859 13.7048H6.2734C6.35969 13.7048 6.42973 13.6394 6.42973 13.559V7.43399C6.42973 7.35345 6.35969 7.28809 6.2734 7.28809H1.5859Z" fill="#A4A7AE"/>
<path d="M14.3985 14.5798H9.71101C9.1078 14.5798 8.61719 14.1219 8.61719 13.559V10.934C8.61719 10.371 9.1078 9.91309 9.71101 9.91309H14.3985C15.0016 9.91309 15.4922 10.371 15.4922 10.934V13.559C15.4922 14.1219 15.0016 14.5798 14.3985 14.5798ZM9.71101 10.7881C9.62473 10.7881 9.55469 10.8535 9.55469 10.934V13.559C9.55469 13.6394 9.62473 13.7048 9.71101 13.7048H14.3985C14.4847 13.7048 14.5547 13.6394 14.5547 13.559V10.934C14.5547 10.8535 14.4847 10.7881 14.3985 10.7881H9.71101Z" fill="#A4A7AE"/>
<path d="M14.3985 8.74678H9.71101C9.1078 8.74678 8.61719 8.28888 8.61719 7.72588V1.60088C8.61719 1.03798 9.1078 0.580078 9.71101 0.580078H14.3985C15.0016 0.580078 15.4922 1.03798 15.4922 1.60088V7.72588C15.4922 8.28888 15.0016 8.74678 14.3985 8.74678ZM9.71101 1.45508C9.62473 1.45508 9.55469 1.52045 9.55469 1.60088V7.72588C9.55469 7.80641 9.62473 7.87178 9.71101 7.87178H14.3985C14.4847 7.87178 14.5547 7.80641 14.5547 7.72588V1.60088C14.5547 1.52045 14.4847 1.45508 14.3985 1.45508H9.71101Z" fill="#A4A7AE"/>
</g>
<defs>
<clipPath id="clip0">
<rect width="15" height="14" fill="white" transform="translate(0.492188 0.580078)"/>
</clipPath>
</defs>
</svg>
