<svg width="44" height="44" viewBox="0 0 44 44" fill="none" xmlns="http://www.w3.org/2000/svg">
<rect width="44" height="44" rx="2" fill="#FFCCCF"/>
<path d="M24.9738 18.9707C24.6892 18.9707 24.4586 19.2013 24.4586 19.4859V29.2236C24.4586 29.508 24.6892 29.7389 24.9738 29.7389C25.2584 29.7389 25.489 29.508 25.489 29.2236V19.4859C25.489 19.2013 25.2584 18.9707 24.9738 18.9707Z" fill="#EB4949"/>
<path d="M18.8942 18.9707C18.6096 18.9707 18.379 19.2013 18.379 19.4859V29.2236C18.379 29.508 18.6096 29.7389 18.8942 29.7389C19.1788 29.7389 19.4094 29.508 19.4094 29.2236V19.4859C19.4094 19.2013 19.1788 18.9707 18.8942 18.9707Z" fill="#EB4949"/>
<path d="M14.4633 17.5496V30.2436C14.4633 30.9939 14.7384 31.6985 15.219 32.204C15.6974 32.711 16.3632 32.9988 17.0599 33H26.8081C27.505 32.9988 28.1708 32.711 28.649 32.204C29.1296 31.6985 29.4047 30.9939 29.4047 30.2436V17.5496C30.3601 17.296 30.9792 16.3731 30.8514 15.3927C30.7234 14.4126 29.8883 13.6794 28.8998 13.6792H26.2619V13.0352C26.2649 12.4936 26.0507 11.9736 25.6674 11.591C25.284 11.2086 24.7631 10.9956 24.2215 11.0001H19.6465C19.1049 10.9956 18.5841 11.2086 18.2007 11.591C17.8173 11.9736 17.6031 12.4936 17.6062 13.0352V13.6792H14.9683C13.9797 13.6794 13.1447 14.4126 13.0167 15.3927C12.8889 16.3731 13.5079 17.296 14.4633 17.5496ZM26.8081 31.9696H17.0599C16.179 31.9696 15.4938 31.2128 15.4938 30.2436V17.5949H28.3743V30.2436C28.3743 31.2128 27.689 31.9696 26.8081 31.9696ZM18.6366 13.0352C18.6332 12.7669 18.7386 12.5087 18.929 12.3193C19.1192 12.1299 19.378 12.0259 19.6465 12.0305H24.2215C24.49 12.0259 24.7488 12.1299 24.939 12.3193C25.1294 12.5085 25.2348 12.7669 25.2314 13.0352V13.6792H18.6366V13.0352ZM14.9683 14.7097H28.8998C29.412 14.7097 29.8272 15.1249 29.8272 15.6371C29.8272 16.1493 29.412 16.5645 28.8998 16.5645H14.9683C14.4561 16.5645 14.0409 16.1493 14.0409 15.6371C14.0409 15.1249 14.4561 14.7097 14.9683 14.7097Z" fill="#EB4949"/>
<path d="M21.934 18.9707C21.6494 18.9707 21.4188 19.2013 21.4188 19.4859V29.2236C21.4188 29.508 21.6494 29.7389 21.934 29.7389C22.2186 29.7389 22.4492 29.508 22.4492 29.2236V19.4859C22.4492 19.2013 22.2186 18.9707 21.934 18.9707Z" fill="#EB4949"/>
</svg>
