<svg width="16" height="15" viewBox="0 0 16 15" fill="none" xmlns="http://www.w3.org/2000/svg">
<path d="M0.701975 9.85746L0.701142 9.87205C0.644654 10.8615 1.1989 11.7885 2.11353 12.2328L2.12291 12.2374C2.44537 12.3917 2.70967 12.646 2.87643 12.9622L2.88018 12.9691C3.34104 13.8466 4.29424 14.3785 5.31039 14.3252L5.32581 14.3243C5.69433 14.3037 6.06015 14.3988 6.37197 14.5964C7.23241 15.1345 8.32464 15.1345 9.18509 14.5964C9.49691 14.3988 9.86273 14.3037 10.2312 14.3243L10.2467 14.3252C11.2612 14.379 12.2156 13.8466 12.6775 12.9676L12.6798 12.9628C12.8472 12.6458 13.1121 12.3911 13.4356 12.2366L13.4431 12.2328C14.3577 11.7882 14.9122 10.8615 14.8555 9.87184L14.8547 9.85809C14.8359 9.50957 14.9326 9.16461 15.1302 8.87675C15.6991 8.04716 15.6991 6.95326 15.1304 6.12346C14.933 5.83581 14.8359 5.49105 14.8547 5.14254L14.8555 5.12795C14.9122 4.13827 14.3577 3.21155 13.4423 2.76673L13.4339 2.76257C13.1121 2.60874 12.8484 2.35569 12.6815 2.04032L12.6767 2.03094C12.2156 1.15341 11.2612 0.621674 10.2467 0.674826L10.231 0.67566C9.86273 0.696295 9.49691 0.601246 9.18529 0.403645H9.18488C8.32443 -0.134548 7.23221 -0.134548 6.37176 0.403645C6.05994 0.601038 5.69412 0.696087 5.3256 0.675451L5.31018 0.674618C4.29549 0.62084 3.34125 1.1532 2.88039 2.03052L2.87684 2.03698C2.70988 2.35381 2.44537 2.60832 2.1225 2.76277L2.11374 2.76694C1.19911 3.21134 0.644654 4.13827 0.70135 5.12795L0.702184 5.14171C0.720943 5.49022 0.624227 5.83519 0.426625 6.12283C-0.142209 6.95264 -0.142209 8.04674 0.426625 8.87633C0.624019 9.16398 0.720943 9.50895 0.701975 9.85746ZM1.12928 6.60767C1.43423 6.16369 1.58368 5.63133 1.5545 5.09355L1.55366 5.07896C1.52365 4.42321 1.89175 3.81415 2.48602 3.53546L2.49331 3.53192C2.98085 3.29847 3.38002 2.9141 3.63181 2.43594L3.63598 2.42802C3.94218 1.8448 4.58355 1.49129 5.26474 1.52756L5.27974 1.52818C5.82482 1.55882 6.36572 1.41833 6.82679 1.1261C7.40896 0.761954 8.14768 0.761954 8.72985 1.1261C9.19092 1.41792 9.73182 1.55861 10.2767 1.52839L10.2917 1.52756C10.9762 1.4917 11.6145 1.8448 11.9198 2.42635L11.9255 2.43698C12.1772 2.91452 12.576 3.29826 13.0629 3.5315L13.07 3.53505C13.6736 3.82853 14.0401 4.43447 14.0032 5.07917L14.0024 5.09439C13.9732 5.63217 14.1228 6.16431 14.4278 6.60829C14.7963 7.14586 14.7961 7.85456 14.4274 8.39192C14.1226 8.8361 13.9732 9.36846 14.0024 9.90624L14.0032 9.92062C14.0401 10.5653 13.6736 11.1715 13.0698 11.4652L13.0635 11.4681C12.5756 11.702 12.176 12.0867 11.924 12.5657L11.9209 12.572C11.6145 13.1552 10.9741 13.5089 10.2919 13.4724L10.2771 13.4716C9.73203 13.4412 9.19092 13.5819 8.72964 13.8739C8.14768 14.2378 7.40896 14.2378 6.827 13.8739C6.40762 13.6081 5.92112 13.4672 5.42461 13.4677C5.37646 13.4677 5.3281 13.4689 5.27974 13.4716L5.26474 13.4722C4.59252 13.515 3.95656 13.1631 3.63536 12.5709L3.63098 12.5628C3.3796 12.0855 2.98106 11.702 2.49435 11.4687L2.48643 11.4647C1.88258 11.1713 1.51614 10.5651 1.55325 9.92062L1.55408 9.9054C1.58305 9.36763 1.43339 8.83527 1.12865 8.3915C0.760339 7.85393 0.760547 7.14523 1.12928 6.60808V6.60767Z" fill="white"/>
<path d="M5.02401 11.913C5.22391 12.0378 5.48717 11.9768 5.61202 11.7769L10.669 3.67563C10.7515 3.54619 10.7584 3.38236 10.6867 3.24666C10.615 3.11076 10.4758 3.02405 10.3224 3.01925C10.1689 3.01446 10.0247 3.09241 9.94467 3.22352L4.8879 11.3248C4.76304 11.5249 4.82391 11.7881 5.02401 11.913Z" fill="white"/>
<path d="M5.47715 7.52118C6.51664 7.52118 7.36249 6.55673 7.36249 5.37133C7.36249 4.18593 6.51664 3.22168 5.47715 3.22168C4.43765 3.22168 3.59201 4.18593 3.59201 5.37133C3.59201 6.55673 4.43765 7.52118 5.47715 7.52118ZM5.47715 4.07545C6.04598 4.07545 6.50872 4.65679 6.50872 5.37133C6.50872 6.08586 6.04598 6.66741 5.47715 6.66741C4.90852 6.66741 4.44578 6.08565 4.44578 5.37133C4.44578 4.657 4.90852 4.07545 5.47715 4.07545Z" fill="white"/>
<path d="M8.1944 9.62914C8.1944 10.8145 9.04004 11.7788 10.0795 11.7788C11.119 11.7788 11.9649 10.8143 11.9649 9.62914C11.9649 8.44415 11.1192 7.47949 10.0797 7.47949C9.04004 7.47949 8.1944 8.44353 8.1944 9.62914ZM11.1111 9.62914C11.1111 10.3437 10.6484 10.925 10.0795 10.925C9.51091 10.925 9.04817 10.3437 9.04817 9.62914C9.04817 8.9146 9.51091 8.33326 10.0795 8.33326C10.6484 8.33326 11.1111 8.91419 11.1111 9.62914Z" fill="white"/>
</svg>
