<svg width="44" height="44" viewBox="0 0 44 44" fill="none" xmlns="http://www.w3.org/2000/svg">
<rect width="44" height="44" rx="2" fill="#BAFAC7"/>
<mask id="path-2-inside-1" fill="white">
<path d="M27.5 18.6826H30.25C30.9793 18.6826 31.6788 18.8687 32.1945 19.1999C32.7103 19.5311 33 19.9803 33 20.4487V29.6322C33 30.1006 32.7103 30.5498 32.1945 30.881C31.6788 31.2122 30.9793 31.3983 30.25 31.3983H13.75C13.0207 31.3983 12.3212 31.2122 11.8055 30.881C11.2897 30.5498 11 30.1006 11 29.6322V20.4487C11 19.9803 11.2897 19.5311 11.8055 19.1999C12.3212 18.8687 13.0207 18.6826 13.75 18.6826H16.5"/>
</mask>
<path d="M27.5 17.6826C26.9477 17.6826 26.5 18.1303 26.5 18.6826C26.5 19.2349 26.9477 19.6826 27.5 19.6826V17.6826ZM13.75 31.3983V30.3983V31.3983ZM11 29.6322H10H11ZM11 20.4487H10H11ZM16.5 19.6826C17.0523 19.6826 17.5 19.2349 17.5 18.6826C17.5 18.1303 17.0523 17.6826 16.5 17.6826V19.6826ZM27.5 19.6826H30.25V17.6826H27.5V19.6826ZM30.25 19.6826C30.8246 19.6826 31.3281 19.8319 31.6542 20.0413L32.7349 18.3585C32.0295 17.9054 31.134 17.6826 30.25 17.6826V19.6826ZM31.6542 20.0413C31.9828 20.2523 32 20.424 32 20.4487H34C34 19.5366 33.4378 18.8098 32.7349 18.3585L31.6542 20.0413ZM32 20.4487V29.6322H34V20.4487H32ZM32 29.6322C32 29.657 31.9828 29.8286 31.6542 30.0396L32.7349 31.7225C33.4378 31.2711 34 30.5443 34 29.6322H32ZM31.6542 30.0396C31.3281 30.249 30.8246 30.3983 30.25 30.3983V32.3983C31.134 32.3983 32.0295 32.1755 32.7349 31.7225L31.6542 30.0396ZM30.25 30.3983H13.75V32.3983H30.25V30.3983ZM13.75 30.3983C13.1754 30.3983 12.6719 30.249 12.3458 30.0396L11.2651 31.7225C11.9705 32.1755 12.866 32.3983 13.75 32.3983V30.3983ZM12.3458 30.0396C12.0172 29.8286 12 29.657 12 29.6322H10C10 30.5443 10.5622 31.2711 11.2651 31.7225L12.3458 30.0396ZM12 29.6322V20.4487H10V29.6322H12ZM12 20.4487C12 20.424 12.0172 20.2523 12.3458 20.0413L11.2651 18.3585C10.5622 18.8098 10 19.5366 10 20.4487H12ZM12.3458 20.0413C12.6719 19.8319 13.1754 19.6826 13.75 19.6826V17.6826C12.866 17.6826 11.9705 17.9054 11.2651 18.3585L12.3458 20.0413ZM13.75 19.6826H16.5V17.6826H13.75V19.6826Z" fill="#4FB263" mask="url(#path-2-inside-1)"/>
<mask id="path-4-inside-2" fill="white">
<path d="M17.8223 23.6934L21.9986 27.8697L26.1749 23.6934"/>
</mask>
<path d="M18.5294 22.9863C18.1388 22.5957 17.5057 22.5957 17.1152 22.9863C16.7246 23.3768 16.7246 24.0099 17.1152 24.4005L18.5294 22.9863ZM21.9986 27.8697L21.2915 28.5768C21.682 28.9673 22.3152 28.9673 22.7057 28.5768L21.9986 27.8697ZM26.882 24.4005C27.2725 24.0099 27.2725 23.3768 26.882 22.9863C26.4915 22.5957 25.8583 22.5957 25.4678 22.9863L26.882 24.4005ZM17.1152 24.4005L21.2915 28.5768L22.7057 27.1626L18.5294 22.9863L17.1152 24.4005ZM22.7057 28.5768L26.882 24.4005L25.4678 22.9863L21.2915 27.1626L22.7057 28.5768Z" fill="#4FB263" mask="url(#path-4-inside-2)"/>
<mask id="path-6-inside-3" fill="white">
<path d="M22 12V26V12Z"/>
</mask>
<path d="M22.6 12C22.6 11.6686 22.3314 11.4 22 11.4C21.6686 11.4 21.4 11.6686 21.4 12H22.6ZM21.4 26C21.4 26.3314 21.6686 26.6 22 26.6C22.3314 26.6 22.6 26.3314 22.6 26H21.4ZM21.4 12V26H22.6V12H21.4Z" fill="#4FB263" mask="url(#path-6-inside-3)"/>
</svg>
