<svg width="44" height="44"  fill="none" xmlns="http://www.w3.org/2000/svg">
<rect width="44" height="44" rx="2" />
<path d="M28.5983 31.5338H12.4665V15.4021H22.1602L23.6268 13.9355H12.4665C12.0776 13.9355 11.7046 14.0901 11.4295 14.3651C11.1545 14.6401 11 15.0131 11 15.4021V31.5338C11 31.9228 11.1545 32.2958 11.4295 32.5708C11.7046 32.8458 12.0776 33.0004 12.4665 33.0004H28.5983C28.9872 33.0004 29.3602 32.8458 29.6353 32.5708C29.9103 32.2958 30.0648 31.9228 30.0648 31.5338V20.5349L28.5983 22.0014V31.5338Z" fill="#758287"/>
<path d="M32.6528 13.818L30.1817 11.3469C30.0721 11.237 29.9418 11.1497 29.7983 11.0902C29.6549 11.0306 29.5011 11 29.3458 11C29.1905 11 29.0367 11.0306 28.8933 11.0902C28.7498 11.1497 28.6195 11.237 28.5099 11.3469L18.4569 21.4586L17.6429 24.9856C17.6083 25.1566 17.6119 25.3331 17.6536 25.5025C17.6953 25.6719 17.774 25.8299 17.8841 25.9652C17.9942 26.1006 18.1329 26.2098 18.2903 26.2851C18.4476 26.3604 18.6197 26.3999 18.7942 26.4008C18.8843 26.4107 18.9753 26.4107 19.0655 26.4008L22.6218 25.6162L32.6528 15.4898C32.7628 15.3802 32.85 15.2499 32.9096 15.1065C32.9691 14.963 32.9997 14.8092 32.9997 14.6539C32.9997 14.4986 32.9691 14.3448 32.9096 14.2014C32.85 14.058 32.7628 13.9277 32.6528 13.818ZM21.8592 24.2597L19.1755 24.8536L19.7987 22.1919L27.366 14.5733L29.4338 16.6411L21.8592 24.2597ZM30.2624 15.8125L28.1946 13.7447L29.3311 12.5861L31.4136 14.6686L30.2624 15.8125Z" fill="#758287"/>
</svg>
