<svg width="50" height="50" viewBox="0 0 50 50" fill="none" xmlns="http://www.w3.org/2000/svg">
<path fill-rule="evenodd" clip-rule="evenodd" d="M2.65804 23.5632C3.45156 22.7301 4.77026 22.6979 5.60345 23.4914L14.9673 32.4094L19.005 27.7948C19.7627 26.9289 21.0789 26.8412 21.9448 27.5988C22.8107 28.3565 22.8985 29.6727 22.1408 30.5386L16.672 36.7886C16.2981 37.2159 15.7661 37.4721 15.1989 37.4979C14.6317 37.5237 14.0785 37.3169 13.6674 36.9253L2.72988 26.5086C1.8967 25.7151 1.86453 24.3964 2.65804 23.5632Z" fill="#5BC236"/>
<path fill-rule="evenodd" clip-rule="evenodd" d="M47.2052 13.0155C48.0711 13.7732 48.1589 15.0893 47.4012 15.9552L29.172 36.7886C28.7981 37.2159 28.2661 37.4721 27.6989 37.4979C27.1317 37.5237 26.5785 37.3169 26.1674 36.9253L15.2299 26.5087C14.3967 25.7151 14.3645 24.3964 15.158 23.5632C15.9516 22.7301 17.2703 22.6979 18.1034 23.4914L27.4673 32.4094L44.2655 13.2115C45.0231 12.3456 46.3393 12.2578 47.2052 13.0155Z" fill="#5BC236"/>
<path fill-rule="evenodd" clip-rule="evenodd" d="M34.7052 13.0155C35.5711 13.7732 35.6589 15.0893 34.9012 15.9552L27.6095 24.2886C26.8519 25.1545 25.5357 25.2422 24.6698 24.4846C23.8039 23.7269 23.7161 22.4107 24.4738 21.5448L31.7655 13.2115C32.5231 12.3456 33.8393 12.2578 34.7052 13.0155Z" fill="#5BC236"/>
</svg>
