<svg width="10" height="16" viewBox="0 0 10 16" fill="none" xmlns="http://www.w3.org/2000/svg">
<path d="M0.925324 9.20278L0.551387 12.8184C0.550623 12.8271 0.550114 12.8358 0.550114 12.8447C0.550114 12.9528 0.53815 13.0603 0.514731 13.1649C0.383637 13.7557 0.525677 14.3656 0.904196 14.8373C1.28322 15.3095 1.84757 15.5801 2.45264 15.5801H7.54368C8.14875 15.5801 8.7131 15.3095 9.09187 14.8373C9.47039 14.3654 9.61243 13.7557 9.48108 13.1644C9.45792 13.0603 9.44595 12.9528 9.44595 12.8447C9.44595 12.836 9.44544 12.8274 9.44468 12.8184L9.071 9.20278C8.89785 7.91873 8.56316 7.25467 8.03395 6.50096L7.65467 6.84054C8.0774 7.31253 8.47135 8.38718 8.56189 9.21627C8.56189 9.22493 8.5624 9.23358 8.56316 9.24249L8.9371 12.8584C8.93812 12.9992 8.9539 13.1394 8.98445 13.2754C9.0822 13.7147 8.97656 14.1681 8.69477 14.5191C8.41323 14.8696 7.99373 15.071 7.54368 15.071H2.45264C2.00259 15.071 1.58309 14.8696 1.30181 14.5189C1.02027 14.1678 0.914633 13.7145 1.01187 13.2756C1.04242 13.1394 1.05845 12.9989 1.05947 12.8582L1.43341 9.24224C1.43392 9.23358 1.43443 9.22493 1.43443 9.21627C1.43443 7.98984 2.05732 6.90647 3.00298 6.26499C3.8066 6.14001 4.55422 5.86102 4.90321 5.71643C5.171 6.10106 5.84887 6.95483 6.71842 7.17222L6.84163 6.67864C6.29663 6.5422 5.82087 6.06033 5.52687 5.69709C6.34169 5.82004 7.09771 6.21866 7.65467 6.84054L8.03395 6.50096C7.57499 5.9883 6.99665 5.60927 6.36129 5.38322C7.3072 4.99325 8.21264 4.05939 8.51989 2.63737L8.01664 2.55871C7.81603 3.84564 6.70697 4.83746 5.66611 5.06885C6.05761 4.58699 6.27092 3.99082 6.27092 3.36157H5.76182C5.76182 3.95035 5.53272 4.50349 5.11653 4.91968L4.89787 5.13835C4.87878 5.13784 4.85994 5.13656 4.8411 5.13555L4.39283 4.68728C3.99802 4.29247 3.83689 3.71056 3.97231 3.16862L3.47874 3.04542C3.30997 3.71973 3.49376 4.43858 3.95246 4.95507C2.78228 4.52666 1.94353 3.40535 1.94353 2.08881V1.79047C1.94353 1.63265 2.06394 1.5708 2.10059 1.55527C2.13725 1.53974 2.26605 1.49876 2.37805 1.61051L2.90218 2.13463C3.05236 2.28481 3.26008 2.36525 3.47161 2.35787C3.6834 2.34973 3.88398 2.25274 4.0217 2.09161L4.8047 1.17802C4.90321 1.06373 5.09311 1.06373 5.19162 1.17802L5.97437 2.09161C6.11234 2.25274 6.31292 2.34973 6.52471 2.35787C6.73701 2.365 6.94396 2.28481 7.09414 2.13463L7.61827 1.61051C7.72976 1.49901 7.85856 1.53999 7.89573 1.55527C7.93238 1.5708 8.05279 1.63265 8.05279 1.79047V2.08881C8.05279 2.24714 8.04057 2.40522 8.01664 2.55871L8.51989 2.63737C8.54764 2.45766 8.56189 2.27336 8.56189 2.08881V1.79047C8.56189 1.47585 8.38116 1.20551 8.09046 1.08511C7.79976 0.964961 7.48081 1.02809 7.25807 1.25057L6.73421 1.77469C6.6833 1.8256 6.61559 1.85589 6.54431 1.84902C6.47278 1.84622 6.40762 1.81491 6.36078 1.76044L5.57778 0.846849C5.43268 0.677317 5.2214 0.580078 4.99816 0.580078C4.77492 0.580078 4.56364 0.677317 4.41854 0.846849L3.63529 1.76044C3.5887 1.81491 3.52379 1.84622 3.45201 1.84902C3.38175 1.85513 3.31302 1.8256 3.26211 1.77469L2.73799 1.25057C2.51551 1.02809 2.19605 0.964961 1.9056 1.08511C1.61516 1.20551 1.43443 1.47585 1.43443 1.79047V2.08881C1.43443 3.57259 2.34623 4.84612 3.6386 5.3817C3.35146 5.48377 3.07934 5.61614 2.82581 5.77702C2.02804 5.88495 1.24861 5.80578 0.882559 5.25697L0.458984 5.53927C0.834194 6.10183 1.45963 6.30547 2.13165 6.32634C1.39014 7.06174 0.928888 8.07919 0.925324 9.20278Z" fill="#A4A7AE"/>
<path d="M6.27013 9.97978V9.8525C6.27013 9.26449 5.82314 8.78415 5.25192 8.72V7.94336H4.74282V8.72C4.1716 8.78415 3.72461 9.26449 3.72461 9.8525C3.72461 10.484 4.23855 10.998 4.87009 10.998H5.12465C5.47567 10.998 5.76103 11.2833 5.76103 11.6344C5.76103 11.9854 5.47567 12.2707 5.12465 12.2707H4.87009C4.51907 12.2707 4.23371 11.9854 4.23371 11.6344V11.5071H3.72461V11.6344C3.72461 12.2224 4.1716 12.7027 4.74282 12.7669V13.5435H5.25192V12.7669C5.82314 12.7027 6.27013 12.2224 6.27013 11.6344C6.27013 11.0028 5.75619 10.4889 5.12465 10.4889H4.87009C4.51907 10.4889 4.23371 10.2035 4.23371 9.8525C4.23371 9.50147 4.51907 9.21612 4.87009 9.21612H5.12465C5.47567 9.21612 5.76103 9.50147 5.76103 9.8525V9.97978H6.27013Z" fill="#A4A7AE"/>
</svg>
