<svg width="17" height="13" viewBox="0 0 17 13" fill="none" xmlns="http://www.w3.org/2000/svg">
<mask id="path-1-inside-1" fill="white">
<path d="M10.2109 9.39258V10.9551C10.2109 11.3695 10.0463 11.7669 9.75329 12.0599C9.46027 12.353 9.06284 12.5176 8.64844 12.5176H2.39844C1.98404 12.5176 1.58661 12.353 1.29358 12.0599C1.00056 11.7669 0.835938 11.3695 0.835938 10.9551V1.58008C0.835938 1.16568 1.00056 0.768249 1.29358 0.475224C1.58661 0.182198 1.98404 0.0175781 2.39844 0.0175781H8.33594C9.19883 0.0175781 10.2109 0.717188 10.2109 1.58008V3.14258"/>
</mask>
<path d="M11.2109 9.39258C11.2109 8.84029 10.7632 8.39258 10.2109 8.39258C9.65865 8.39258 9.21094 8.84029 9.21094 9.39258H11.2109ZM0.835938 10.9551H-0.164062H0.835938ZM0.835938 1.58008H-0.164062H0.835938ZM9.21094 3.14258C9.21094 3.69486 9.65865 4.14258 10.2109 4.14258C10.7632 4.14258 11.2109 3.69486 11.2109 3.14258H9.21094ZM9.21094 9.39258V10.9551H11.2109V9.39258H9.21094ZM9.21094 10.9551C9.21094 11.1043 9.15167 11.2473 9.04619 11.3528L10.4604 12.767C10.941 12.2865 11.2109 11.6347 11.2109 10.9551H9.21094ZM9.04619 11.3528C8.9407 11.4583 8.79762 11.5176 8.64844 11.5176V13.5176C9.32805 13.5176 9.97984 13.2476 10.4604 12.767L9.04619 11.3528ZM8.64844 11.5176H2.39844V13.5176H8.64844V11.5176ZM2.39844 11.5176C2.24925 11.5176 2.10618 11.4583 2.00069 11.3528L0.586476 12.767C1.06704 13.2476 1.71882 13.5176 2.39844 13.5176V11.5176ZM2.00069 11.3528C1.8952 11.2473 1.83594 11.1043 1.83594 10.9551H-0.164062C-0.164062 11.6347 0.105914 12.2865 0.586476 12.767L2.00069 11.3528ZM1.83594 10.9551V1.58008H-0.164062V10.9551H1.83594ZM1.83594 1.58008C1.83594 1.43089 1.8952 1.28782 2.00069 1.18233L0.586476 -0.231883C0.105914 0.248679 -0.164062 0.900461 -0.164062 1.58008H1.83594ZM2.00069 1.18233C2.10618 1.07684 2.24925 1.01758 2.39844 1.01758V-0.982422C1.71882 -0.982422 1.06704 -0.712445 0.586476 -0.231883L2.00069 1.18233ZM2.39844 1.01758H8.33594V-0.982422H2.39844V1.01758ZM8.33594 1.01758C8.5187 1.01758 8.77457 1.10123 8.98027 1.2624C9.18979 1.42657 9.21094 1.55511 9.21094 1.58008H11.2109C11.2109 0.742153 10.726 0.0894464 10.2138 -0.311912C9.6977 -0.716267 9.01607 -0.982422 8.33594 -0.982422V1.01758ZM9.21094 1.58008V3.14258H11.2109V1.58008H9.21094Z" fill="#8D8E90" mask="url(#path-1-inside-1)"/>
<mask id="path-3-inside-2" fill="white">
<path d="M12.7109 9.39258L15.8359 6.26758L12.7109 3.14258"/>
</mask>
<path d="M12.0038 8.68547C11.6133 9.076 11.6133 9.70916 12.0038 10.0997C12.3944 10.4902 13.0275 10.4902 13.418 10.0997L12.0038 8.68547ZM15.8359 6.26758L16.543 6.97468C16.9336 6.58416 16.9336 5.951 16.543 5.56047L15.8359 6.26758ZM13.418 2.43547C13.0275 2.04495 12.3944 2.04495 12.0038 2.43547C11.6133 2.826 11.6133 3.45916 12.0038 3.84968L13.418 2.43547ZM13.418 10.0997L16.543 6.97468L15.1288 5.56047L12.0038 8.68547L13.418 10.0997ZM16.543 5.56047L13.418 2.43547L12.0038 3.84968L15.1288 6.97468L16.543 5.56047Z" fill="#8D8E90" mask="url(#path-3-inside-2)"/>
<mask id="path-5-inside-3" fill="white">
<path d="M5.21094 6.26758H15.2109H5.21094Z"/>
</mask>
<path d="M5.21094 5.26758C4.65865 5.26758 4.21094 5.71529 4.21094 6.26758C4.21094 6.81986 4.65865 7.26758 5.21094 7.26758V5.26758ZM15.2109 7.26758C15.7632 7.26758 16.2109 6.81986 16.2109 6.26758C16.2109 5.71529 15.7632 5.26758 15.2109 5.26758V7.26758ZM5.21094 7.26758H15.2109V5.26758H5.21094V7.26758Z" fill="#8D8E90" mask="url(#path-5-inside-3)"/>
</svg>
