<svg width="16" height="16" viewBox="0 0 16 16" fill="none" xmlns="http://www.w3.org/2000/svg">
<path d="M14.8972 8.52831L13.331 5.81555L13.4581 5.74213C13.7311 5.58451 13.9264 5.33003 14.008 5.02555C14.0896 4.72103 14.0477 4.40304 13.8901 4.13005C13.5647 3.56649 12.8416 3.37266 12.278 3.69809L12.1509 3.77148L10.5847 1.05871C10.4569 0.837462 10.2507 0.679199 10.0039 0.613075C9.75716 0.546952 9.4994 0.580907 9.27815 0.708643C9.0569 0.836378 8.8986 1.0426 8.83248 1.28937C8.78719 1.45842 8.78889 1.63259 8.83547 1.79668L7.33569 3.48417C7.2282 3.60513 7.23913 3.79029 7.36006 3.89778C7.48097 4.00525 7.66619 3.99438 7.77368 3.87344L9.12384 2.35429L13.0466 9.14871L6.49091 10.555L4.65755 7.37952L7.94035 3.68591C8.04784 3.56494 8.03692 3.37978 7.91598 3.27229C7.7951 3.16483 7.60988 3.1757 7.50236 3.29663L4.11054 7.11291L1.65978 8.52785C1.33675 8.71435 1.10565 9.01553 1.00912 9.37579C0.912583 9.73612 0.962125 10.1125 1.14863 10.4355L2.09083 12.0674C2.3492 12.5149 2.81956 12.7654 3.30259 12.7654C3.53934 12.7654 3.77916 12.7052 3.99848 12.5786L4.6949 12.1765L7.75194 15.2333C7.98002 15.4613 8.28407 15.5801 8.59122 15.5801C8.79419 15.5801 8.99854 15.5282 9.18311 15.4216C9.50491 15.2358 9.71728 14.918 9.7658 14.5496C9.81431 14.1811 9.69141 13.8191 9.42865 13.5564L8.36932 12.4972L8.65825 12.3304C8.87918 12.2028 9.02203 11.9842 9.05016 11.7307C9.07828 11.4772 8.98688 11.2326 8.79935 11.0597L8.44687 10.7347L13.3848 9.67541C13.5034 9.79714 13.6529 9.88527 13.8214 9.93039C13.9038 9.95248 13.9874 9.96341 14.0705 9.96341C14.2362 9.96341 14.3998 9.91993 14.5472 9.83482C14.7684 9.70711 14.9267 9.50086 14.9928 9.25409C15.0589 9.00732 15.025 8.74957 14.8972 8.52831ZM12.4438 4.27891L12.571 4.20552C12.8547 4.04163 13.2188 4.13925 13.3827 4.42302C13.5465 4.70677 13.4489 5.07087 13.1652 5.2347L13.0381 5.30812L12.4536 4.29581L12.4438 4.27891ZM3.70551 12.0712C3.31844 12.2945 2.82173 12.1615 2.59825 11.7745L1.65606 10.1426C1.5478 9.95506 1.51906 9.73665 1.57508 9.52749C1.6311 9.31834 1.76525 9.14358 1.95275 9.0353L4.19087 7.74315L5.94361 10.779L3.70551 12.0712ZM9.18486 14.4731C9.16034 14.6594 9.05291 14.8202 8.89014 14.9142C8.6555 15.0497 8.35781 15.0105 8.16623 14.8189L5.22026 11.8732L6.29564 11.2523L9.01433 13.9708C9.14722 14.1036 9.20939 14.2868 9.18486 14.4731ZM8.40216 11.4905C8.45124 11.5357 8.47514 11.5997 8.46779 11.666C8.46043 11.7324 8.42305 11.7896 8.36525 11.8229L7.94035 12.0682L6.93171 11.0597L7.74558 10.8851L8.40216 11.4905ZM14.4268 9.10245C14.4012 9.19805 14.3399 9.27791 14.2542 9.32742C14.1685 9.37688 14.0686 9.39009 13.973 9.36446C13.8774 9.33885 13.7975 9.27753 13.748 9.19181L9.43542 1.72209C9.38596 1.6364 9.37284 1.53658 9.39844 1.44104C9.42408 1.34545 9.48537 1.26558 9.57109 1.21607C9.62819 1.18311 9.69153 1.16626 9.75575 1.16626C9.78795 1.16626 9.82032 1.17051 9.85223 1.17907C9.94782 1.20467 10.0277 1.26599 10.0772 1.35172L14.3898 8.82132C14.4392 8.90701 14.4524 9.00685 14.4268 9.10245Z" fill="#A4A7AE"/>
</svg>
