<svg width="18" height="18" viewBox="0 0 18 18" fill="none" xmlns="http://www.w3.org/2000/svg">
<path d="M10.0294 2C10.0294 1.17157 10.701 0.5 11.5294 0.5H16C16.8284 0.5 17.5 1.17157 17.5 2V6.47059C17.5 7.29901 16.8284 7.97059 16 7.97059H10.0294V2Z" stroke="#FFF9ED"/>
<path d="M10.0294 10.0294H16C16.8284 10.0294 17.5 10.701 17.5 11.5294V16C17.5 16.8284 16.8284 17.5 16 17.5H11.5294C10.701 17.5 10.0294 16.8284 10.0294 16V10.0294Z" stroke="#FFF9ED"/>
<path d="M0.5 2C0.5 1.17157 1.17157 0.5 2 0.5H6.47059C7.29901 0.5 7.97059 1.17157 7.97059 2V7.97059H2C1.17157 7.97059 0.5 7.29902 0.5 6.47059V2Z" stroke="#FFF9ED"/>
<path d="M0.5 11.5294C0.5 10.701 1.17157 10.0294 2 10.0294H7.97059V16C7.97059 16.8284 7.29902 17.5 6.47059 17.5H2C1.17157 17.5 0.5 16.8284 0.5 16V11.5294Z" stroke="#FFF9ED"/>
</svg>
