 <svg xmlns="http://www.w3.org/2000/svg"
                      viewBox="0 0 40 41"
                      width="40"
                      height="41"
                      fill={"#FFFFFF"}
                    >
                      <path
                        id="Layer"
                        fillRule="evenodd"
                        // class="shp0"
                        d="M34.14 6.61C37.89 10.36 40 15.45 40 20.75C40 24.71 38.83 28.57 36.63 31.86C34.43 35.15 31.31 37.71 27.65 39.23C24 40.74 19.98 41.14 16.1 40.37C12.22 39.59 8.65 37.69 5.86 34.89C3.06 32.1 1.16 28.53 0.38 24.65C-0.39 20.77 0.01 16.75 1.52 13.1C3.04 9.44 5.6 6.32 8.89 4.12C12.18 1.92 16.04 0.75 20 0.75C25.3 0.75 30.39 2.86 34.14 6.61ZM31.43 33.49C34.02 31.17 35.84 28.13 36.66 24.75C37.48 21.37 37.25 17.83 36.01 14.58C34.77 11.34 32.57 8.55 29.71 6.58C26.85 4.61 23.46 3.56 19.98 3.56C16.51 3.56 13.12 4.62 10.26 6.59C7.4 8.56 5.2 11.36 3.97 14.6C2.73 17.85 2.51 21.39 3.33 24.77C4.15 28.15 5.98 31.19 8.57 33.5L8.57 32.67C8.57 32.65 8.59 32.64 8.59 32.62C8.54 30.68 9.27 28.79 10.6 27.37C11.93 25.95 13.77 25.11 15.71 25.04L24.29 25.04C26.23 25.11 28.07 25.95 29.41 27.37C30.74 28.79 31.47 30.67 31.43 32.62L31.43 33.49Z"
                      />
                      <path
                        id="Layer"
                        // class="shp0"
                        d="M20 7.89C18.59 7.89 17.21 8.31 16.03 9.1C14.86 9.88 13.94 11 13.4 12.3C12.86 13.61 12.72 15.04 12.99 16.43C13.27 17.81 13.95 19.09 14.95 20.09C15.95 21.09 17.22 21.77 18.61 22.04C19.99 22.32 21.43 22.18 22.73 21.63C24.04 21.09 25.15 20.18 25.94 19C26.72 17.83 27.14 16.45 27.14 15.04C27.14 13.14 26.39 11.32 25.05 9.98C23.71 8.65 21.89 7.89 20 7.89Z"
                      />
                    </svg>