<svg width="16" height="16" viewBox="0 0 16 16" fill="none" xmlns="http://www.w3.org/2000/svg">
<path d="M14.2993 12.1593L13.6106 11.2886C13.942 10.7542 14.1846 10.1765 14.3346 9.56491L15.449 9.42774C15.6705 9.40083 15.8359 9.21592 15.8359 8.99715V7.26091C15.8359 7.04214 15.6705 6.85723 15.4495 6.83032L14.3351 6.69316C14.1851 6.08157 13.9424 5.50427 13.6111 4.9695L14.2998 4.09878C14.4365 3.92602 14.4211 3.67991 14.2636 3.52538L13.0155 2.29786C12.8584 2.14333 12.6078 2.12727 12.4327 2.26227L11.5477 2.9394C11.0042 2.61342 10.4174 2.37469 9.79579 2.22711L9.65638 1.13067C9.62858 0.913207 9.44064 0.75 9.21829 0.75H7.45358C7.23123 0.75 7.04329 0.913207 7.01594 1.13024L6.87653 2.22667C6.25491 2.37426 5.66814 2.61299 5.12461 2.93897L4.23961 2.26183C4.06447 2.12684 3.81432 2.1429 3.65682 2.29743L2.40873 3.52495C2.25123 3.67948 2.23579 3.92559 2.37256 4.09834L3.06123 4.96907C2.72991 5.5034 2.48726 6.08113 2.33726 6.69273L1.22285 6.82989C1.00138 6.85723 0.835938 7.04214 0.835938 7.26091V8.99715C0.835938 9.21592 1.00138 9.40083 1.22241 9.42774L2.33682 9.56491C2.48682 10.1765 2.72947 10.7538 3.06079 11.2886L2.37211 12.1593C2.23535 12.332 2.25079 12.5782 2.40829 12.7327L3.65638 13.9602C3.81344 14.1147 4.06358 14.1312 4.23917 13.9958L5.12417 13.3187C5.66726 13.6446 6.25447 13.8834 6.87653 14.031L7.01594 15.1274C7.04329 15.3449 7.23123 15.5081 7.45358 15.5081H9.21829C9.44064 15.5081 9.62858 15.3449 9.65594 15.1278L9.79535 14.0314C10.4174 13.8838 11.0046 13.6451 11.5477 13.3191L12.4327 13.9962C12.6078 14.1317 12.858 14.1152 13.0155 13.9606L14.2636 12.7331C14.4206 12.5782 14.4361 12.3325 14.2993 12.1593ZM12.7221 11.5785L13.3636 12.3898L12.6665 13.0756L11.8415 12.4445C11.6902 12.3277 11.4793 12.3216 11.3214 12.4288C10.7165 12.8364 10.0415 13.1107 9.31491 13.2444C9.12653 13.2792 8.98226 13.4302 8.95844 13.6173L8.82873 14.6399H7.84314L7.71344 13.6177C7.68961 13.4302 7.54535 13.2796 7.35697 13.2449C6.63035 13.1112 5.95491 12.8373 5.3505 12.4293C5.19255 12.3225 4.98211 12.329 4.83035 12.4449L4.00535 13.076L3.30829 12.3902L3.94976 11.5789C4.06755 11.4296 4.07417 11.223 3.96564 11.0672C3.55138 10.4717 3.27256 9.80754 3.13623 9.09265C3.10094 8.9073 2.94785 8.76537 2.75726 8.74193L1.71829 8.61388V7.64419L2.75726 7.51614C2.94785 7.4927 3.10094 7.35076 3.13623 7.16542C3.27256 6.45095 3.55138 5.78641 3.96564 5.19088C4.07417 5.03548 4.06755 4.82843 3.94976 4.67912L3.30829 3.86786L4.00535 3.18204L4.83035 3.81317C4.98123 3.92993 5.19167 3.93557 5.3505 3.82879C5.95623 3.42121 6.63123 3.14688 7.35697 3.01319C7.54535 2.97847 7.68961 2.82741 7.71344 2.64033L7.84314 1.61812H8.82873L8.95844 2.64033C8.98226 2.82785 9.12653 2.97847 9.31491 3.01319C10.0411 3.14688 10.7161 3.42078 11.3214 3.82879C11.4798 3.93557 11.6898 3.92949 11.8415 3.81317L12.6665 3.18204L13.3636 3.86786L12.7221 4.67912C12.6043 4.82843 12.5977 5.03505 12.7062 5.19088C13.1205 5.78641 13.3993 6.45052 13.5356 7.16542C13.5709 7.35076 13.724 7.4927 13.9146 7.51614L14.9536 7.64419V8.61388L13.9146 8.74193C13.724 8.76537 13.5709 8.9073 13.5356 9.09265C13.3993 9.80711 13.1205 10.4717 12.7062 11.0672C12.5981 11.2226 12.6043 11.4296 12.7221 11.5785Z" fill="#8D8E90"/>
<path d="M8.33559 3.78906C5.90295 3.78906 3.92383 5.73626 3.92383 8.12967C3.92383 10.5231 5.90295 12.4703 8.33559 12.4703C10.7682 12.4703 12.7474 10.5231 12.7474 8.12967C12.7474 5.73626 10.7682 3.78906 8.33559 3.78906ZM8.33559 11.6022C6.38956 11.6022 4.80618 10.0443 4.80618 8.12967C4.80618 6.21503 6.38956 4.65718 8.33559 4.65718C10.2816 4.65718 11.865 6.21503 11.865 8.12967C11.865 10.0443 10.2816 11.6022 8.33559 11.6022Z" fill="#8D8E90"/>
</svg>
