<svg width="9" height="12" viewBox="0 0 9 12" fill="none" xmlns="http://www.w3.org/2000/svg">
<path d="M4.4998 1.96019L2.69096 0.151361C2.48941 -0.0504535 2.16175 -0.0504535 1.96019 0.151361L0.151361 1.96019C-0.0504535 2.16201 -0.0504535 2.48915 0.151361 2.69096C0.352916 2.89278 0.680573 2.89278 0.882129 2.69096L1.80877 1.76432V7.85291C1.80877 8.13819 2.0403 8.36972 2.32558 8.36972C2.61086 8.36972 2.84239 8.13819 2.84239 7.85291V1.76432L3.76903 2.69096C3.8698 2.792 4.00211 2.84239 4.13441 2.84239C4.26671 2.84239 4.39902 2.792 4.4998 2.69096C4.70161 2.48915 4.70161 2.16201 4.4998 1.96019Z" fill="#8D8E90"/>
<path d="M7.9412 9.30865C7.73939 9.10683 7.41224 9.10683 7.21043 9.30865L6.28379 10.2353V4.14669C6.28379 3.86141 6.05226 3.62988 5.76698 3.62988C5.4817 3.62988 5.25017 3.86141 5.25017 4.14669V10.2353L4.32354 9.30865C4.12172 9.10683 3.79432 9.10683 3.59277 9.30865C3.39095 9.51046 3.39095 9.8376 3.59277 10.0394L5.4016 11.8482C5.50263 11.9493 5.63468 11.9997 5.76698 11.9997C5.89929 11.9997 6.03133 11.9493 6.13237 11.8482L7.9412 10.0394C8.14301 9.8376 8.14301 9.51046 7.9412 9.30865Z" fill="#8D8E90"/>
</svg>
