<svg width="18" height="16" viewBox="0 0 18 16" fill="none" xmlns="http://www.w3.org/2000/svg">
<path d="M8.92834 1.14439C8.95039 1.1323 8.97518 1.1261 9.00033 1.12639C9.02509 1.1263 9.04947 1.13249 9.07119 1.14439C9.09691 1.15982 9.11792 1.18199 9.13193 1.20851L16.8447 14.3316C16.8852 14.399 16.8841 14.471 16.8469 14.5374C16.8327 14.5646 16.8118 14.5878 16.7862 14.6049C16.7639 14.6186 16.7381 14.6252 16.712 14.624H1.28869C1.26258 14.6253 1.2367 14.6186 1.21445 14.6049C1.18887 14.5878 1.16798 14.5646 1.15371 14.5374C1.13517 14.5062 1.12558 14.4705 1.12598 14.4342C1.12637 14.3979 1.13675 14.3624 1.15596 14.3316L8.8676 1.20851C8.88166 1.18202 8.90265 1.15986 8.92834 1.14439ZM10.1026 0.638231C9.99129 0.444275 9.83074 0.283131 9.6372 0.17107C9.44365 0.0590096 9.22397 0 9.00033 0C8.77668 0 8.557 0.0590096 8.36345 0.17107C8.16991 0.283131 8.00936 0.444275 7.89802 0.638231L0.185257 13.7613C-0.328777 14.6364 0.287614 15.7488 1.28756 15.7488H16.712C17.7119 15.7488 18.3294 14.6353 17.8143 13.7613L10.1026 0.638231Z" fill="#FFF9ED"/>
<path d="M7.87558 12.3745C7.87558 12.2268 7.90467 12.0805 7.9612 11.944C8.01773 11.8076 8.10058 11.6836 8.20503 11.5791C8.30947 11.4747 8.43347 11.3918 8.56994 11.3353C8.70641 11.2788 8.85267 11.2497 9.00038 11.2497C9.14809 11.2497 9.29436 11.2788 9.43082 11.3353C9.56729 11.3918 9.69129 11.4747 9.79574 11.5791C9.90018 11.6836 9.98304 11.8076 10.0396 11.944C10.0961 12.0805 10.1252 12.2268 10.1252 12.3745C10.1252 12.6728 10.0067 12.9589 9.79574 13.1698C9.58479 13.3808 9.2987 13.4993 9.00038 13.4993C8.70207 13.4993 8.41597 13.3808 8.20503 13.1698C7.99409 12.9589 7.87558 12.6728 7.87558 12.3745ZM7.98581 5.62004C7.97083 5.47814 7.98585 5.33467 8.0299 5.19895C8.07395 5.06322 8.14604 4.93828 8.2415 4.83222C8.33695 4.72615 8.45364 4.64134 8.58399 4.58329C8.71434 4.52524 8.85544 4.49524 8.99813 4.49524C9.14082 4.49524 9.28192 4.52524 9.41227 4.58329C9.54262 4.64134 9.65931 4.72615 9.75476 4.83222C9.85022 4.93828 9.92231 5.06322 9.96636 5.19895C10.0104 5.33467 10.0254 5.47814 10.0105 5.62004L9.61677 9.56472C9.60355 9.71968 9.53264 9.86404 9.41808 9.96924C9.30353 10.0744 9.15366 10.1328 8.99813 10.1328C8.8426 10.1328 8.69274 10.0744 8.57818 9.96924C8.46362 9.86404 8.39272 9.71968 8.37949 9.56472L7.98581 5.62004Z" fill="#FFF9ED"/>
</svg>
