<svg width="12" height="15" viewBox="0 0 12 15" fill="none" xmlns="http://www.w3.org/2000/svg">
<path d="M5 8.18182V8.04545C5 7.41545 4.4732 6.90082 3.8 6.83209V6H3.2V6.83209C2.5268 6.90082 2 7.41545 2 8.04545C2 8.72209 2.6057 9.27273 3.35 9.27273H3.65C4.0637 9.27273 4.4 9.57845 4.4 9.95455C4.4 10.3306 4.0637 10.6364 3.65 10.6364H3.35C2.9363 10.6364 2.6 10.3306 2.6 9.95455V9.81818H2V9.95455C2 10.5845 2.5268 11.0992 3.2 11.1679V12H3.8V11.1679C4.4732 11.0992 5 10.5845 5 9.95455C5 9.27791 4.3943 8.72727 3.65 8.72727H3.35C2.9363 8.72727 2.6 8.42155 2.6 8.04545C2.6 7.66936 2.9363 7.36364 3.35 7.36364H3.65C4.0637 7.36364 4.4 7.66936 4.4 8.04545V8.18182H5Z" fill="white"/>
<path d="M7.89474 6.31579C7.26659 6.31579 6.66418 6.06626 6.22001 5.6221C5.77584 5.17793 5.52632 4.57551 5.52632 3.94737V0.789474H2.36842C1.94966 0.789474 1.54805 0.955827 1.25194 1.25194C0.955826 1.54805 0.789474 1.94966 0.789474 2.36842V12.6316C0.789474 13.0503 0.955826 13.452 1.25194 13.7481C1.54805 14.0442 1.94966 14.2105 2.36842 14.2105H9.47368C9.89245 14.2105 10.2941 14.0442 10.5902 13.7481C10.8863 13.452 11.0526 13.0503 11.0526 12.6316V6.31579H7.89474ZM6.31579 3.94737C6.31579 4.36613 6.48214 4.76774 6.77825 5.06385C7.07436 5.35996 7.47597 5.52632 7.89474 5.52632H10.7258L6.31579 1.11632V3.94737ZM2.36842 0H6.31579L11.8421 5.52632V12.6316C11.8421 13.2597 11.5926 13.8621 11.1484 14.3063C10.7042 14.7505 10.1018 15 9.47368 15H2.36842C1.74028 15 1.13786 14.7505 0.693695 14.3063C0.249529 13.8621 0 13.2597 0 12.6316V2.36842C0 1.74028 0.249529 1.13786 0.693695 0.693695C1.13786 0.249529 1.74028 0 2.36842 0Z" fill="white"/>
</svg>
