<svg width="16" height="14" viewBox="0 0 16 14" fill="none" xmlns="http://www.w3.org/2000/svg">
<path d="M15.3562 7.73205C15.5629 7.73205 15.7305 7.5644 15.7305 7.35747V2.63407C15.7305 1.45517 14.7714 0.496094 13.5925 0.496094H2.86845C1.68954 0.496094 0.730469 1.45517 0.730469 2.63407V8.29946C0.730469 9.47836 1.68954 10.4374 2.86845 10.4374H7.85606V13.2901C7.85606 13.4418 7.94723 13.5782 8.08728 13.6362C8.13347 13.6553 8.18235 13.6646 8.2306 13.6646C8.32807 13.6646 8.42374 13.6265 8.49541 13.5549L11.6129 10.4374H13.5925C14.7714 10.4374 15.7305 9.47836 15.7305 8.29946V6.96461C15.7305 6.75798 15.5628 6.59033 15.3562 6.59033C15.1493 6.59033 14.9817 6.75798 14.9817 6.96461V8.29946C14.9817 9.0654 14.3585 9.68859 13.5925 9.68859H11.4578C11.3586 9.68859 11.2632 9.72787 11.193 9.79805L8.60491 12.3862V10.0629C8.60491 9.85593 8.43726 9.68859 8.23063 9.68859H2.86845C2.10281 9.68859 1.47932 9.0654 1.47932 8.29946V2.63407C1.47932 1.86813 2.10281 1.24524 2.86845 1.24524H13.5925C14.3585 1.24524 14.9817 1.86813 14.9817 2.63407V7.35747C14.9817 7.5644 15.1493 7.73205 15.3562 7.73205Z" fill="#A4A7AE"/>
<path d="M11.8825 2.9502H4.57959C4.37278 2.9502 4.20508 3.1179 4.20508 3.32471C4.20508 3.53161 4.37278 3.69922 4.57959 3.69922H11.8825C12.0893 3.69922 12.257 3.53164 12.257 3.32471C12.257 3.1179 12.0893 2.9502 11.8825 2.9502Z" fill="#A4A7AE"/>
<path d="M12.257 5.34717C12.257 5.14036 12.0893 4.97266 11.8825 4.97266H4.57959C4.37278 4.97266 4.20508 5.14036 4.20508 5.34717C4.20508 5.55407 4.37278 5.72168 4.57959 5.72168H11.8825C12.0893 5.72165 12.257 5.55407 12.257 5.34717Z" fill="#A4A7AE"/>
<path d="M4.57959 6.99512C4.37278 6.99512 4.20508 7.16282 4.20508 7.36963C4.20508 7.57653 4.37278 7.74414 4.57959 7.74414H8.79282C8.99963 7.74414 9.16731 7.57656 9.16731 7.36963C9.16731 7.16282 8.9996 6.99512 8.79282 6.99512H4.57959Z" fill="#A4A7AE"/>
</svg>
