<svg width="15" height="14" viewBox="0 0 15 14" fill="none" xmlns="http://www.w3.org/2000/svg">
<path d="M14.6258 7.23595C14.8324 7.23595 15 7.06831 15 6.86138V2.13798C15 0.959076 14.041 0 12.862 0H2.13798C0.959076 0 0 0.959076 0 2.13798V7.80336C0 8.98226 0.959076 9.94134 2.13798 9.94134H7.12559V12.794C7.12559 12.9457 7.21676 13.0821 7.35681 13.1401C7.403 13.1593 7.45188 13.1685 7.50014 13.1685C7.5976 13.1685 7.69327 13.1304 7.76495 13.0588L10.8824 9.94134H12.862C14.041 9.94134 15 8.98226 15 7.80336V6.46851C15 6.26188 14.8324 6.09424 14.6258 6.09424C14.4188 6.09424 14.2512 6.26188 14.2512 6.46851V7.80336C14.2512 8.5693 13.628 9.19249 12.8621 9.19249H10.7274C10.6281 9.19249 10.5327 9.23178 10.4626 9.30196L7.87444 11.8901V9.56677C7.87444 9.35984 7.70679 9.19249 7.50016 9.19249H2.13798C1.37234 9.19249 0.748847 8.5693 0.748847 7.80336V2.13798C0.748847 1.37204 1.37234 0.749147 2.13798 0.749147H12.8621C13.628 0.749147 14.2512 1.37204 14.2512 2.13798V6.86138C14.2512 7.06831 14.4188 7.23595 14.6258 7.23595Z" fill="white"/>
<path d="M11.152 2.4541H3.84912C3.64231 2.4541 3.47461 2.6218 3.47461 2.82861C3.47461 3.03552 3.64231 3.20313 3.84912 3.20313H11.152C11.3589 3.20313 11.5265 3.03555 11.5265 2.82861C11.5265 2.6218 11.3588 2.4541 11.152 2.4541Z" fill="white"/>
<path d="M11.5265 4.85108C11.5265 4.64427 11.3588 4.47656 11.152 4.47656H3.84912C3.64231 4.47656 3.47461 4.64427 3.47461 4.85108C3.47461 5.05798 3.64231 5.22559 3.84912 5.22559H11.152C11.3588 5.22556 11.5265 5.05798 11.5265 4.85108Z" fill="white"/>
<path d="M3.84912 6.49902C3.64231 6.49902 3.47461 6.66673 3.47461 6.87354C3.47461 7.08044 3.64231 7.24805 3.84912 7.24805H8.06235C8.26916 7.24805 8.43684 7.08047 8.43684 6.87354C8.43684 6.66673 8.26913 6.49902 8.06235 6.49902H3.84912Z" fill="white"/>
</svg>
