<svg width="18" height="14" viewBox="0 0 18 14" fill="none" xmlns="http://www.w3.org/2000/svg">
<path opacity="0.9" d="M12.5979 6.48218L17.8762 11.7604L17.1271 12.509L11.8488 7.23077L12.5979 6.48218Z" fill="#FFF9ED"/>
<path opacity="0.9" d="M5.44125 6.505L6.18984 7.25359L0.948661 12.4948L0.200073 11.7483L5.44125 6.505Z" fill="#FFF9ED"/>
<path d="M9.00008 9.4766C8.20596 9.4766 7.3589 9.15895 6.77655 8.52366L0.158905 1.95895L0.900081 1.21777L7.51773 7.83542C8.36479 8.68248 9.68832 8.68248 10.5354 7.83542L17.153 1.21777L17.8942 1.95895L11.2236 8.5766C10.6413 9.15895 9.7942 9.4766 9.00008 9.4766V9.4766Z" fill="#FFF9ED"/>
<path d="M16.4118 13.7647H1.58824C0.688235 13.7647 0 13.0765 0 12.1765V1.58824C0 0.688235 0.688235 0 1.58824 0H16.4118C17.3118 0 18 0.688235 18 1.58824V12.1765C18 13.0765 17.3118 13.7647 16.4118 13.7647ZM1.58824 1.05882C1.27059 1.05882 1.05882 1.27059 1.05882 1.58824V12.1765C1.05882 12.4941 1.27059 12.7059 1.58824 12.7059H16.4118C16.7294 12.7059 16.9412 12.4941 16.9412 12.1765V1.58824C16.9412 1.27059 16.7294 1.05882 16.4118 1.05882H1.58824Z" fill="#FFF9ED"/>
</svg>
