<svg width="15" height="15" viewBox="0 0 15 15" fill="none" xmlns="http://www.w3.org/2000/svg">
<path d="M15 14.9999H13.9286V12.3213C13.9277 11.6111 13.6452 10.9303 13.1431 10.4282C12.641 9.92605 11.9601 9.64357 11.25 9.64272V8.57129C12.2442 8.57242 13.1974 8.96788 13.9004 9.67089C14.6034 10.3739 14.9989 11.3271 15 12.3213V14.9999Z" fill="#8D8E90"/>
<path d="M10.7143 14.9999H9.64286V12.3213C9.64201 11.6111 9.35953 10.9303 8.85738 10.4282C8.35524 9.92605 7.67443 9.64357 6.96429 9.64272H3.75C3.03986 9.64357 2.35905 9.92605 1.8569 10.4282C1.35476 10.9303 1.07228 11.6111 1.07143 12.3213V14.9999H0V12.3213C0.0011343 11.3271 0.396587 10.3739 1.0996 9.67089C1.80262 8.96788 2.75579 8.57242 3.75 8.57129H6.96429C7.9585 8.57242 8.91167 8.96788 9.61468 9.67089C10.3177 10.3739 10.7132 11.3271 10.7143 12.3213V14.9999Z" fill="#8D8E90"/>
<path d="M9.64285 0V1.07143C10.3533 1.07143 11.0346 1.35363 11.5369 1.85596C12.0392 2.35829 12.3214 3.0396 12.3214 3.75C12.3214 4.4604 12.0392 5.14171 11.5369 5.64404C11.0346 6.14637 10.3533 6.42857 9.64285 6.42857V7.5C10.6374 7.5 11.5912 7.10491 12.2945 6.40165C12.9978 5.69839 13.3929 4.74456 13.3929 3.75C13.3929 2.75544 12.9978 1.80161 12.2945 1.09835C11.5912 0.395088 10.6374 0 9.64285 0Z" fill="#8D8E90"/>
<path d="M5.35715 1.07143C5.88692 1.07143 6.40479 1.22852 6.84528 1.52285C7.28577 1.81717 7.62909 2.23551 7.83183 2.72495C8.03456 3.2144 8.08761 3.75297 7.98425 4.27256C7.8809 4.79216 7.62579 5.26943 7.25118 5.64404C6.87658 6.01864 6.3993 6.27375 5.87971 6.3771C5.36012 6.48046 4.82155 6.42741 4.3321 6.22468C3.84266 6.02194 3.42432 5.67862 3.13 5.23813C2.83567 4.79765 2.67858 4.27977 2.67858 3.75C2.67858 3.0396 2.96078 2.35829 3.46311 1.85596C3.96544 1.35363 4.64675 1.07143 5.35715 1.07143ZM5.35715 0C4.61547 0 3.89044 0.219934 3.27376 0.631989C2.65708 1.04404 2.17643 1.62971 1.8926 2.31494C1.60877 3.00016 1.53451 3.75416 1.6792 4.48159C1.8239 5.20902 2.18105 5.8772 2.7055 6.40165C3.22995 6.9261 3.89813 7.28325 4.62556 7.42794C5.35299 7.57264 6.10699 7.49838 6.79221 7.21455C7.47743 6.93072 8.0631 6.45007 8.47516 5.83339C8.88722 5.2167 9.10715 4.49168 9.10715 3.75C9.10715 2.75544 8.71206 1.80161 8.0088 1.09835C7.30554 0.395088 6.35171 0 5.35715 0Z" fill="#8D8E90"/>
</svg>
