<svg width="18" height="18" viewBox="0 0 18 18" fill="none" xmlns="http://www.w3.org/2000/svg">
<path d="M18 9.00301C18.001 7.50589 17.6283 6.03218 16.9155 4.71545C16.2028 3.39872 15.1727 2.28059 13.9185 1.46241C12.6643 0.644222 11.2257 0.151845 9.73308 0.0298982C8.24044 -0.0920482 6.74095 0.160291 5.37051 0.764048C4.00007 1.3678 2.80201 2.30389 1.8849 3.48747C0.967795 4.67105 0.360638 6.0647 0.118457 7.54212C-0.123724 9.01954 0.00672799 10.534 0.497989 11.9483C0.98925 13.3626 1.82579 14.632 2.93179 15.6414C2.96213 15.6769 2.99706 15.7081 3.03565 15.7344C4.67943 17.1939 6.80165 18 9.00023 18C11.1988 18 13.321 17.1937 14.9647 15.7341C15.003 15.708 15.0376 15.677 15.0678 15.6418C15.9919 14.8003 16.7301 13.7751 17.235 12.6319C17.74 11.4887 18.0005 10.2527 18 9.00301ZM1.05882 9.00301C1.05784 7.70729 1.37413 6.43103 1.98009 5.28563C2.58605 4.14023 3.46326 3.16052 4.53514 2.43202C5.60701 1.70351 6.84098 1.24836 8.12931 1.10629C9.41764 0.964226 10.7212 1.13956 11.9261 1.617C13.1311 2.09444 14.2008 2.85946 15.0419 3.84529C15.883 4.83112 16.47 6.00778 16.7516 7.27255C17.0331 8.53733 17.0007 9.85178 16.6571 11.1012C16.3136 12.3505 15.6693 13.4968 14.7806 14.44C13.9486 13.1471 12.7052 12.1719 11.251 11.6717C11.9759 11.1887 12.5261 10.4854 12.8203 9.66566C13.1146 8.84595 13.1371 7.95335 12.8847 7.11982C12.6324 6.28629 12.1184 5.55605 11.4188 5.03706C10.7192 4.51807 9.87117 4.23787 9 4.23787C8.12883 4.23787 7.28077 4.51807 6.5812 5.03706C5.88162 5.55605 5.36765 6.28629 5.11525 7.11982C4.86286 7.95335 4.88544 8.84595 5.17965 9.66566C5.47387 10.4854 6.0241 11.1887 6.74903 11.6717C5.29479 12.1719 4.05142 13.1471 3.21935 14.44C1.83053 12.9703 1.05742 11.0248 1.05882 9.00301ZM6 8.29736C6 7.70421 6.17595 7.12439 6.50559 6.6312C6.83523 6.13802 7.30377 5.75362 7.85195 5.52664C8.40013 5.29965 9.00333 5.24026 9.58527 5.35598C10.1672 5.47169 10.7018 5.75732 11.1213 6.17674C11.5409 6.59616 11.8266 7.13053 11.9424 7.71228C12.0581 8.29403 11.9987 8.89703 11.7716 9.44503C11.5446 9.99303 11.1601 10.4614 10.6667 10.7909C10.1734 11.1205 9.59334 11.2964 9 11.2964C8.20463 11.2955 7.4421 10.9792 6.87968 10.417C6.31727 9.85475 6.00091 9.09247 6 8.29736ZM4.00968 15.1733C4.52794 14.3134 5.25975 13.602 6.13411 13.1081C7.00848 12.6143 7.99569 12.3548 8.99995 12.3548C10.0042 12.3548 10.9914 12.6143 11.8658 13.1081C12.7402 13.602 13.472 14.3134 13.9902 15.1733C12.5788 16.3173 10.817 16.9415 8.99995 16.9415C7.18292 16.9415 5.42109 16.3173 4.00968 15.1733Z" fill="#FFF9ED"/>
</svg>
