<svg width="44" height="44" viewBox="0 0 44 44" fill="none" xmlns="http://www.w3.org/2000/svg">
<rect width="44" height="44" rx="2" fill="#BAFAC7"/>
<path d="M32.9185 22.1565C32.7453 21.9043 28.5817 16 22 16C16.3523 16 11.3197 21.8704 11.1079 22.1207C10.964 22.2912 10.964 22.5415 11.1079 22.7129C11.3197 22.9631 16.3523 28.8336 22 28.8336C27.6477 28.8336 32.6802 22.9631 32.8919 22.7129C33.0249 22.5552 33.0368 22.327 32.9185 22.1565ZM22 27.9169C17.4725 27.9169 13.1677 23.5993 12.0741 22.4168C13.1659 21.2334 17.4661 16.9167 22 16.9167C27.2975 16.9167 31.0366 21.2279 31.9496 22.3921C30.8954 23.537 26.5659 27.9169 22 27.9169Z" fill="#4FB263" stroke="#4FB263" stroke-width="0.2"/>
<path d="M22.0007 18.75C19.9785 18.75 18.334 20.3945 18.334 22.4167C18.334 24.4389 19.9785 26.0834 22.0007 26.0834C24.0229 26.0834 25.6674 24.4389 25.6674 22.4167C25.6674 20.3945 24.0229 18.75 22.0007 18.75ZM22.0007 25.1668C20.4845 25.1668 19.2507 23.9329 19.2507 22.4168C19.2507 20.9006 20.4845 19.6667 22.0007 19.6667C23.5169 19.6667 24.7507 20.9006 24.7507 22.4168C24.7507 23.9329 23.5169 25.1668 22.0007 25.1668Z" fill="#4FB263" stroke="#4FB263" stroke-width="0.2"/>
</svg>
