<?xml version="1.0" standalone="no"?>
<!DOCTYPE svg PUBLIC "-//W3C//DTD SVG 1.1//EN" "http://www.w3.org/Graphics/SVG/1.1/DTD/svg11.dtd" >
<svg xmlns="http://www.w3.org/2000/svg">
<metadata>Generated by IcoMoon</metadata>
<defs>
<font id="icomoon" horiz-adv-x="1024">
<font-face units-per-em="1024" ascent="960" descent="-64" />
<missing-glyph horiz-adv-x="1024" />
<glyph unicode="&#x20;" horiz-adv-x="512" d="" />
<glyph unicode="&#xe900;" glyph-name="bussiness" horiz-adv-x="1606" d="M1075.833 383.13l-136.215 60.539c-9.623 4.275-15.837 13.843-15.837 24.371v37.404c45.759 36.459 75.169 92.602 75.169 155.518v52.655c15.074 8.329 25.053 24.425 25.053 42.453v5.11c0 109.629-89.19 198.82-198.819 198.82h-50.109c-109.629 0-198.821-89.192-198.821-198.82v-46.367c0-15.846 6.821-30.201 18.707-39.387 2.015-1.557 4.138-2.925 6.349-4.11v-10.352c0-62.915 29.407-119.059 75.162-155.513v-37.409c0-10.526-6.218-20.094-15.837-24.369l-136.215-60.542c-44.609-19.824-73.435-64.182-73.435-112.998v-310.684c0-12.944 10.494-23.44 23.44-23.44s23.44 10.496 23.44 23.44v310.682c0 2.716 0.195 5.402 0.475 8.064l62.767-62.767c9.768-9.77 15.148-22.756 15.148-36.573v-219.408c0-12.947 10.496-23.44 23.443-23.44 12.944 0 23.44 10.494 23.44 23.44v219.408c0 26.338-10.254 51.098-28.879 69.723l-74.826 74.829c6.742 6.996 14.829 12.793 24.031 16.884l133.916 59.518 99.312-99.312v-341.048c0-12.944 10.496-23.44 23.443-23.44 12.944 0 23.44 10.496 23.44 23.44v341.046l99.312 99.312 133.914-59.515c9.202-4.091 17.289-9.889 24.031-16.887l-74.826-74.826c-18.625-18.625-28.879-43.385-28.879-69.723v-219.408c0-12.947 10.496-23.44 23.44-23.44 12.947 0 23.443 10.494 23.443 23.44v219.408c0 13.815 5.378 26.803 15.148 36.573l62.762 62.764c0.282-2.665 0.475-5.343 0.475-8.059v-310.684c0-12.944 10.496-23.44 23.443-23.44 12.944 0 23.44 10.496 23.44 23.44v310.682c-0.009 48.817-28.833 93.172-73.442 112.998zM800.123 343.354l-87.142 87.145c6.626 11.148 10.368 24.048 10.368 37.541v9.537c23.638-9.933 49.576-15.437 76.777-15.437s53.136 5.502 76.77 15.434v-9.535c0-13.496 3.742-26.394 10.37-37.544l-87.142-87.142zM800.126 509.026c-83.777-0.002-151.938 68.157-151.938 151.936v10.543c14.627 5.797 28.905 15.023 42.573 27.634 9.509 8.781 10.107 23.61 1.324 33.125-8.778 9.511-23.606 10.108-33.124 1.328-11.722-10.824-23.438-17.815-34.807-20.785-0.277-0.072-0.479-0.102-0.624-0.116-0.168 0.328-0.396 1.017-0.396 2.12v46.366c0 83.778 68.159 151.938 151.938 151.938h50.106c83.782 0 151.938-68.16 151.938-151.938v-5.11c0-0.76-0.456-1.419-1.057-1.538-140.367-27.724-210.772 24.526-234.524 48.279-9.155 9.154-23.999 9.154-33.15 0-9.155-9.155-9.155-23.997 0-33.149 72.792-72.792 179.011-74.105 243.677-66.334v-42.361c0-83.777-68.161-151.938-151.938-151.938zM422.696 510.629v50.115c0 61.154-31.781 114.986-79.667 145.967 2.958 9.486 4.501 19.421 4.501 29.414 0 54.371-44.23 98.602-98.602 98.602-54.37 0-98.602-44.235-98.602-98.602 0-10.116 1.532-19.956 4.494-29.421-47.882-30.976-79.659-84.808-79.659-145.96v-50.106c0-59.217 29.795-111.583 75.161-142.969v-51.547c0-10.168-5.648-19.307-14.74-23.855l-81.078-40.536c-33.621-16.817-54.505-50.609-54.505-88.199v-204.090c0-12.944 10.495-23.44 23.441-23.44s23.441 10.496 23.441 23.44v193.953l38.187-38.188c9.767-9.77 15.149-22.756 15.149-36.573v-119.191c0-12.944 10.495-23.44 23.441-23.44s23.441 10.496 23.441 23.44v119.191c0 26.338-10.258 51.098-28.879 69.723l-53.149 53.148c-0.256 0.256-0.531 0.477-0.794 0.719 3.335 2.944 7.076 5.506 11.195 7.571l81.078 40.536c4.154 2.078 8.020 4.531 11.624 7.256l57.312-57.314v-240.833c0-12.947 10.496-23.44 23.441-23.44 12.947 0 23.44 10.494 23.44 23.44v240.835l57.316 57.316c3.607-2.73 7.471-5.183 11.622-7.259l22.358-11.18c3.365-1.683 6.942-2.481 10.466-2.481 8.599 0 16.877 4.75 20.985 12.961 5.793 11.581 1.098 25.661-10.482 31.448l-22.356 11.18c-9.097 4.547-14.743 13.687-14.743 23.852v51.547c45.366 31.386 75.162 83.754 75.162 142.969zM248.927 787.845c28.521 0 51.721-23.204 51.721-51.72 0-3.141-0.282-6.22-0.819-9.236-16.109 4.945-33.196 7.624-50.902 7.624-17.68 0-34.745-2.669-50.829-7.6-0.541 3.015-0.891 6.078-0.891 9.213 0 28.52 23.2 51.72 51.72 51.72zM248.927 687.628c69.965 0 126.885-56.92 126.885-126.885v-8.495c-97.592-29.88-155.755 44.36-158.239 47.614-4.079 5.434-10.314 8.834-17.090 9.316-6.776 0.475-13.433-2.004-18.237-6.807-22.375-22.374-44.291-33.166-60.118-38.377 1.735 68.466 57.927 123.634 126.8 123.634zM248.927 243.139l-54.167 54.167c1.581 6.044 2.447 12.346 2.447 18.811v28.614c16.343-5.106 33.718-7.859 51.72-7.859 18.004 0 35.377 2.753 51.721 7.859v-28.614c0-6.465 0.866-12.77 2.446-18.811l-54.167-54.167zM248.927 383.753c-69.963 0-126.884 56.92-126.884 126.885v4.857c18.693 4.294 46.41 14.273 75.324 37.527 10.23-9.651 24.851-21.49 43.469-31.646 22.023-12.011 52.436-23.121 89.586-23.121 14.117 0 29.224 1.641 45.191 5.411-3.635-66.735-59.062-119.913-126.685-119.913zM1545.735 301.836l-131.186 65.594c-9.093 4.547-14.739 13.687-14.739 23.85v33.219c30.706 27.264 50.106 66.995 50.106 111.19v26.682c0.54 0 1.073-0.016 1.613-0.016 12.947 0 23.44 10.496 23.44 23.44v50.109c0 81.999-66.711 148.712-148.713 148.712h-50.106c-81.999 0-148.713-66.713-148.713-148.712v-50.109c0-12.944 10.496-23.44 23.44-23.44 0.193 0 0.756 0.007 1.613 0.040v-26.705c0-44.197 19.402-83.928 50.111-111.192v-33.219c0-10.168-5.648-19.307-14.743-23.852-11.581-5.788-16.275-19.868-10.482-31.448 4.108-8.213 12.386-12.963 20.985-12.963 3.521 0 7.096 0.796 10.463 2.479 4.154 2.078 8.020 4.531 11.622 7.256l57.316-57.314v-315.995c0-12.947 10.496-23.44 23.44-23.44 12.947 0 23.44 10.494 23.44 23.44v315.999l57.314 57.316c3.605-2.73 7.468-5.183 11.622-7.259l126.941-63.472-38.502-38.502c-18.623-18.625-28.879-43.385-28.879-69.723v-194.353c0-12.947 10.494-23.443 23.44-23.443s23.44 10.496 23.44 23.443v194.353c0 13.815 5.381 26.803 15.151 36.575l36.471 36.471c1.105-4.243 1.713-8.664 1.713-13.203v-254.196c0-12.947 10.496-23.443 23.44-23.443 12.947 0 23.443 10.496 23.443 23.443v254.196c0.002 37.588-20.883 71.38-54.502 88.192zM1174.316 614.060v21.846h0.002c0 56.15 45.682 101.831 101.832 101.831h50.106c56.15 0 101.832-45.681 101.832-101.831v-26.038c-101.9 5.497-163.393 45.149-163.991 45.54-3.966 2.646-8.492 3.938-12.995 3.938-6.051 0-12.051-2.337-16.584-6.865-22.428-22.428-44.402-33.224-60.202-38.421zM1301.204 318.299l-54.167 54.17c1.583 6.044 2.448 12.344 2.448 18.811v4.992c16.114-5.997 33.538-9.293 51.719-9.293s35.605 3.295 51.721 9.293v-4.992c0-6.467 0.861-12.767 2.446-18.811l-54.167-54.17zM1301.204 433.857c-56.148 0-101.83 45.68-101.83 101.832v37.79c16.417 6.561 35.544 16.989 55.010 33.573 24.618-12.809 76.118-34.946 148.652-42.261v-29.103c0-56.15-45.682-101.832-101.832-101.832z" />
<glyph unicode="&#xe901;" glyph-name="delete" horiz-adv-x="916" d="M554.518 777.965c0 22.87-9.087 44.803-25.256 60.975-16.172 16.171-38.105 25.257-60.975 25.257s-44.803-9.086-60.975-25.257c-16.171-16.172-25.257-38.105-25.257-60.975h-57.487c0 38.117 15.142 74.672 42.094 101.624s63.508 42.095 101.624 42.095c38.117 0 74.671-15.142 101.624-42.095s42.097-63.508 42.097-101.624h258.695c7.621 0 14.934-3.028 20.324-8.419s8.418-12.702 8.418-20.325c0-7.623-3.029-14.934-8.418-20.325s-12.703-8.419-20.324-8.419h-31.852l-74.504-645.585c-3.239-28.020-16.67-53.873-37.732-72.634s-48.29-29.125-76.493-29.119h-363.669c-28.206-0.005-55.43 10.359-76.492 29.119s-34.492 44.614-37.736 72.634l-74.562 645.585h-31.79c-6.728-0.002-13.243 2.355-18.411 6.662s-8.662 10.29-9.873 16.908l-0.46 5.174c0 7.623 3.028 14.935 8.419 20.325s12.702 8.419 20.325 8.419h488.645zM780.902 720.477h-625.292l73.699-638.978c1.622-14.013 8.342-26.942 18.879-36.325 10.537-9.378 24.156-14.557 38.264-14.552h363.669c14.099 0.005 27.702 5.19 38.228 14.573 10.526 9.378 17.236 22.302 18.858 36.303l73.696 638.978zM382.054 576.758c14.085 0 25.869-8.91 28.284-20.638l0.46-4.542v-352.114c0-13.851-12.877-25.12-28.744-25.12-14.084 0-25.869 8.909-28.283 20.636l-0.46 4.543v351.997c0 13.912 12.877 25.18 28.744 25.18v0.057zM554.518 576.758c14.083 0 25.869-8.91 28.284-20.638l0.458-4.542v-352.114c0-13.851-12.875-25.12-28.742-25.12-14.083 0-25.869 8.909-28.283 20.636l-0.46 4.543v351.997c0 13.912 12.877 25.18 28.744 25.18v0.057z" />
<glyph unicode="&#xe902;" glyph-name="envelop" horiz-adv-x="1485" d="M1332.485-64h-1186.907c-80.217 0-145.578 64.865-145.578 145.085v733.336c0 80.217 65.362 145.578 145.578 145.578h1186.907c80.22 0 145.582-65.362 145.582-145.578v-733.336c0-80.22-64.87-145.085-145.582-145.085zM145.578 904.542c-49.517 0-89.625-40.109-90.12-90.12v-733.336c0-49.521 40.109-89.626 90.12-90.122h1186.907c49.521 0 89.626 40.11 90.122 90.122v733.336c0 49.517-40.11 89.625-90.122 90.12h-1186.907zM739.282 284.099c-6.932 0-13.373 2.478-18.324 6.932l-670.451 591.724 36.642 41.594 652.133-575.379 651.633 575.379 36.644-41.594-669.957-591.724c-4.951-4.454-11.884-6.932-18.319-6.932zM35.156 23.148l450.6 512.992 41.594-36.642-450.104-512.988-42.089 36.639zM952.202 499.992l41.595 36.642 450.104-512.99-41.595-36.644-450.104 512.992zM656.589 499.993l85.663 87.149 85.663-87.149h56.945l-114.381 115.869 99.528 99.528-127.754 127.752-127.754-127.752 99.528-99.528-114.381-115.869h56.945zM671.442 714.895l71.306 71.304 71.301-71.304-71.301-71.304-71.306 71.304z" />
<glyph unicode="&#xe903;" glyph-name="facebook" horiz-adv-x="512" d="M332.614-7.68v440.686h151.636l22.54 172.543h-174.177v109.903c0 49.789 14.149 83.878 87.033 83.878h92.353v153.832c-44.935 4.721-90.102 7.001-135.294 6.829-134.033 0-226.056-80.223-226.056-227.494v-126.625h-150.65v-172.543h150.979v-441.009h181.635z" />
<glyph unicode="&#xe904;" glyph-name="freelancer" horiz-adv-x="1094" d="M807.326 556.174h-13.203c5.516 12.009 9.63 24.711 12.167 37.888 22.917 8.913 38.966 35.752 38.966 67.938 0 30.334-14.687 56.394-35.868 66.55v63.197c0 92.776-76.118 168.254-169.667 168.254h-83.477c-93.559 0-169.667-75.479-169.667-168.254v-63.205c-21.181-10.147-35.868-36.207-35.868-66.541 0-32.186 16.049-59.024 38.956-67.938 8.253-42.731 32.854-80.493 68.964-105.712 7.026-46.569 47.728-81.967 96.012-81.967h86.675c48.286 0 88.993 35.398 96.012 81.967 14.538 10.147 27.164 22.353 37.653 36.068h32.347c140.325 0 254.487-113.217 254.487-252.374v-217.835h-141.943v223.281c0 20.426-16.759 37.046-37.355 37.046h-548.473c-20.596 0-37.346-16.619-37.346-37.046v-223.281h-17.766v120.706c0 20.426-16.756 37.046-37.353 37.046h-86.832v60.083c0 118.689 81.382 219.897 197.915 246.125 8.62 1.936 14.029 10.445 12.067 18.993-1.953 8.55-10.531 13.905-19.151 11.967-62.315-14.026-118.878-49.036-159.269-98.593-41-50.302-63.582-113.69-63.582-178.493v-60.083h-27.105c-20.596 0-37.345-16.619-37.345-37.046v-27.916c-33.214-6.728-58.275-35.926-58.275-70.819v-4.031c0-34.9 25.061-64.098 58.267-70.826v-28.281c0-20.424 16.757-37.043 37.353-37.043h145.949c20.596 0 37.355 16.619 37.355 37.043v49.417h17.766v-49.327c0-20.424 16.756-37.034 37.346-37.034h548.473c20.596 0 37.353 16.61 37.353 37.034v49.327h157.95c8.846 0 16.007 7.11 16.007 15.874v233.709c0.009 156.667-128.517 284.13-286.492 284.13zM776.257 608.868c-5.073-40.329-27.906-76.074-62.648-98.074-4.298-2.723-7.035-7.308-7.361-12.355-2.211-33.815-30.727-60.3-64.933-60.3h-86.675c-34.199 0-62.713 26.484-64.926 60.3-0.333 5.048-3.063 9.633-7.359 12.355-34.742 22-57.584 57.744-62.648 98.074-0.936 7.431-6.977 13.2-14.497 13.854-10.857 0.936-22.481 16.94-22.481 39.277 0 21.76 11.341 37.848 21.932 39.222 7.969 1.036 13.936 7.771 13.936 15.742v8.408c30.827 60.010 91.739 97.153 159.844 97.153h39.089c19.228 0 38.146-2.996 56.213-8.913 8.404-2.748 17.45 1.779 20.222 10.105 2.769 8.326-1.794 17.306-10.189 20.053-21.315 6.969-43.604 10.503-66.246 10.503h-39.089c-40.441 0-79.756-11.363-113.678-32.865-17.343-10.991-32.847-24.365-46.166-39.618v9.948c0 75.272 61.747 136.515 137.647 136.515h83.477c75.909 0 137.654-61.244 137.654-136.515v-9.989c-8.785 10.072-18.518 19.341-29.049 27.584-6.942 5.429-17.008 4.254-22.481-2.632s-4.289-16.867 2.653-22.296c20.312-15.89 37.146-36.241 48.877-59.017v-8.434c0-7.969 5.96-14.706 13.929-15.742 10.598-1.373 21.939-17.462 21.939-39.219 0-22.33-11.625-38.344-22.481-39.28-7.526-0.645-13.568-6.414-14.504-13.845zM58.267 34.337c-15.322 5.851-26.254 20.566-26.254 37.807v4.031c0 17.238 10.924 31.963 26.254 37.814v-79.651zM246.91-26.964c0-2.914-2.395-5.29-5.341-5.29h-145.949c-2.937 0-5.333 2.376-5.333 5.29v201.879c0 2.923 2.395 5.29 5.333 5.29h145.949c2.946 0 5.341-2.367 5.341-5.29v-201.879zM887.85-26.866c0-2.921-2.395-5.288-5.334-5.288h-548.473c-2.946 0-5.341 2.367-5.341 5.288v304.356c0 2.923 2.395 5.297 5.341 5.297h548.473c2.939 0 5.334-2.374 5.334-5.297v-304.356z" />
<glyph unicode="&#xe905;" glyph-name="google" horiz-adv-x="896" d="M196.597 566.275c17.468 57.075 51.179 106.735 96.324 141.894s99.42 54.023 155.078 53.9c63.094 0 120.139-24.192 164.939-63.786l130.371 140.757c-79.45 74.794-181.256 120.96-295.309 120.96-176.586 0-328.608-108.783-401.706-268.128l150.304-125.597zM598.825 233.715c-40.693-28.346-92.363-43.469-150.827-43.469-55.437-0.122-109.506 18.592-154.551 53.491s-78.784 84.219-96.441 140.973l-150.826-123.661c37.006-80.896 94.277-148.96 165.305-196.461s152.969-72.544 236.513-72.275c109.499 0 214.108 42.054 292.469 120.96l-141.642 120.442zM740.467 113.28c81.952 82.573 135.149 205.472 135.149 362.879 0 28.627-4.070 59.391-10.157 87.978h-417.459v-186.964h240.275c-11.834-62.856-43.68-111.528-89.411-143.458l141.603-120.435zM197.009 384.714c-9.133 29.478-13.773 60.362-13.739 91.446 0 31.53 4.667 61.811 13.328 90.115l-150.304 125.597c-30.749-67.040-46.599-140.899-46.293-215.712 0-77.414 16.613-150.394 46.181-215.11l150.827 123.664z" />
<glyph unicode="&#xe906;" glyph-name="Union" horiz-adv-x="1063" d="M133.174 573.773c-11.245-22.81-20.583-46.724-27.805-71.545-26.073-13.19-43.498-36.399-43.498-62.779 0-19.96 9.917-38.112 26.036-51.476-0.068-3.182-0.102-6.376-0.102-9.574 0-244.33 198.069-442.4 442.398-442.4 244.33 0 442.4 198.069 442.4 442.4 0 3.198-0.032 6.392-0.102 9.574 16.12 13.363 26.037 31.516 26.037 51.476 0 26.38-17.424 49.585-43.496 62.779-7.188 24.698-16.471 48.506-27.644 71.215 62.98 32.712 103.68 68.086 121.348 104.994 36.951 77.118-18.074 200.026-63.866 268.307-6.825 10.041-21.689 15.263-35.745 12.050-14.060-3.213-23.296-13.656-22.894-24.903 2.41-36.551-3.214-139.777-53.020-179.541-14.86-11.648-37.352-21.288-67.879-28.518-4.939 3.612-9.992 7.131-15.155 10.552-42.669 31.041-91.101 54.64-143.388 68.888l-88.879 141.070c-5.222 8.435-16.065 13.656-27.715 13.656-11.646 0-22.493-5.222-27.715-13.656l-88.422-140.947c-51.695-14.027-99.631-37.192-141.965-67.653-5.676-3.715-11.222-7.552-16.631-11.509-30.125 7.23-53.019 16.87-67.88 28.518-50.207 39.362-55.429 142.99-53.019 179.139 0.803 11.648-8.836 22.091-22.895 24.903-14.058 3.213-28.919-2.008-35.747-12.050-46.592-69.085-100.414-191.591-63.864-268.307 17.682-36.935 58.427-71.949 121.108-104.665zM568.222 819.187c-12.532 1.067-25.21 1.611-38.018 1.611-12.804 0-25.486-0.544-38.014-1.611l38.014 60.481 38.018-60.481zM907.252 464.286c3.588-15.805 6.203-31.98 7.786-48.459-3.056-0.827-6.313-1.276-9.685-1.276h-750.298c-3.395 0-6.65 0.433-9.689 1.233 1.583 16.502 4.203 32.697 7.794 48.522 0.627 0.032 1.259 0.047 1.895 0.047h749.896c0.772 0 1.54-0.020 2.3-0.067zM685.8 732.435c57.565-25.335 107.776-64.296 146.55-112.799 21.996-31.893 36.171-67.606 40.468-105.478h-249.431v237.381h0.803c21.461-4.804 42.071-11.233 61.609-19.105zM229.123 620.962c37.767 46.818 86.231 84.647 141.677 109.772 20.664 8.614 42.561 15.62 65.415 20.805l0.402-237.783h-249.028c4.366 38.617 18.93 74.912 41.533 107.206zM143.787 365.686c3.694-0.358 7.455-0.54 11.268-0.54h281.562v-74.307c0-6.428 3.214-12.855 9.24-17.676l62.255-49.404c6.026-4.817 14.060-7.227 22.091-7.227 8.034 0 16.069 2.41 22.091 7.227l62.259 49.404c5.62 4.821 9.236 10.847 9.236 17.676v74.307h281.565c3.812 0 7.574 0.181 11.268 0.54-6.707-207.644-177.144-373.91-386.418-373.91-209.27 0-379.707 166.266-386.416 373.91zM530.204 275.976l-30.929 24.903v64.268h62.259v-64.268h-0.402l-30.929-24.903zM498.873 760.376c10.043 0.803 20.488 1.205 30.929 1.205 10.445 0 20.886-0.402 30.929-1.205v-246.619h-61.857v246.619zM978.456 828.658c17.672-46.191 28.518-97.201 11.646-132.145-12.048-24.903-42.575-51.412-88.765-76.717-13.257 24.099-30.527 46.191-50.208 66.675 26.912 8.435 49.002 19.681 65.871 32.936 29.322 23.296 50.208 60.249 61.456 109.251zM143.408 719.407c16.468-13.254 38.559-24.099 65.872-32.936-20.083-20.485-36.953-42.977-50.207-66.675-46.592 25.305-76.717 51.412-88.767 76.315-16.87 34.944-6.025 86.356 11.648 132.547 11.246-49.002 32.132-85.553 61.453-109.251z" />
<glyph unicode="&#xe907;" glyph-name="instagram" d="M785.326 659.87c33.93 0 61.44 27.507 61.44 61.44s-27.51 61.44-61.44 61.44c-33.935 0-61.44-27.508-61.44-61.44s27.505-61.44 61.44-61.44zM511.996 710.919c-51.999 0-102.831-15.419-146.066-44.308s-76.934-69.95-96.833-117.991c-19.899-48.041-25.106-100.905-14.961-151.906 10.144-50.995 35.185-97.843 71.953-134.615 36.769-36.767 83.615-61.809 134.615-71.951s103.862-4.936 151.903 14.961c48.041 19.901 89.103 53.596 117.99 96.835 28.892 43.233 44.308 94.065 44.308 146.065 0 69.729-27.699 136.602-77.005 185.907s-116.178 77.005-185.906 77.005zM511.996 277.34c-33.755 0-66.751 10.010-94.817 28.764-28.066 18.749-49.941 45.404-62.858 76.59s-16.297 65.502-9.712 98.608c6.585 33.106 22.839 63.516 46.708 87.384s54.278 40.123 87.384 46.708c33.106 6.585 67.424 3.205 98.605-9.712 31.186-12.917 57.841-34.792 76.595-62.858s28.764-61.063 28.764-94.817c0-45.262-17.981-88.675-49.987-120.68-32.010-32.005-75.418-49.987-120.682-49.987zM512 867.754c136.704 0 152.919-0.512 206.889-2.986 32.466-0.386 64.62-6.346 95.063-17.622 22.088-8.52 42.148-21.57 58.885-38.309s29.788-36.798 38.308-58.885c11.279-30.444 17.239-62.599 17.623-95.062 2.473-53.973 2.985-70.186 2.985-206.931 0-136.75-0.512-152.878-2.985-206.848-0.384-32.466-6.344-64.62-17.623-95.063-8.52-22.088-21.571-42.148-38.308-58.885s-36.797-29.788-58.885-38.308c-30.444-11.279-62.597-17.239-95.063-17.623-53.97-2.473-70.185-2.985-206.889-2.985s-152.918 0.512-206.89 2.985c-32.463 0.384-64.617 6.344-95.062 17.623-22.087 8.52-42.146 21.571-58.885 38.308s-29.789 36.797-38.309 58.885c-11.276 30.444-17.236 62.597-17.622 95.063-2.474 53.97-2.986 70.185-2.986 206.889s0.512 152.918 2.986 206.89c0.386 32.463 6.346 64.617 17.622 95.062 8.52 22.087 21.57 42.146 38.309 58.885s36.798 29.789 58.885 38.309c30.444 11.276 62.599 17.236 95.062 17.622 53.973 2.474 70.186 2.986 206.89 2.986zM512 960c-139.050 0-156.502-0.597-211.114-3.072-42.463-0.857-84.473-8.907-124.246-23.808-34.017-13.154-64.91-33.27-90.7-59.060s-45.906-56.683-59.060-90.7c-14.905-39.785-22.955-81.81-23.808-124.288-2.475-54.614-3.072-71.978-3.072-211.072s0.597-156.503 3.072-211.113c0.857-42.465 8.907-84.475 23.808-124.247 13.154-34.017 33.27-64.911 59.060-90.701s56.683-45.906 90.7-59.059c39.785-14.904 81.81-22.953 124.288-23.808 54.614-2.473 72.022-3.072 211.072-3.072s156.503 0.599 211.113 3.072c42.481 0.855 84.506 8.904 124.288 23.808 34.017 13.153 64.911 33.27 90.701 59.059s45.906 56.684 59.059 90.701c14.894 39.788 22.927 81.812 23.767 124.288 2.473 54.615 3.072 71.977 3.072 211.072s-0.599 156.502-3.072 211.114c-0.855 42.463-8.909 84.473-23.808 124.246-13.153 34.017-33.27 64.91-59.059 90.7s-56.684 45.906-90.701 59.060c-39.788 14.891-81.812 22.926-124.288 23.765-54.615 2.56-71.977 3.115-211.072 3.115z" />
<glyph unicode="&#xe908;" glyph-name="linked-in" horiz-adv-x="1075" d="M1071.626 332.186v-396.186h-229.693v369.664c0 92.887-33.234 156.242-116.347 156.242-63.468 0-101.263-42.737-117.852-84.024-6.067-14.766-7.629-35.333-7.629-56.003v-385.879h-229.796c0 0 3.114 626.040 0 690.953h229.796v-97.933l-1.5-2.255h1.5v2.255c30.5 46.98 84.997 114.148 207.037 114.148 151.137 0 264.484-98.792 264.484-310.982zM129.987 960c-78.551 0-129.987-51.544-129.987-119.356 0-66.309 49.933-119.409 126.98-119.409h1.503c80.161 0 129.933 53.101 129.933 119.409-1.396 67.812-49.718 119.356-128.376 119.356h-0.054zM13.638-64h229.691v690.953h-229.691v-690.953z" />
<glyph unicode="&#xe909;" glyph-name="notification" horiz-adv-x="945" d="M845.639 75.729h-760.251c-36.793 0-69.452 23.564-81.027 58.293-11.575 34.725 0.413 73.173 29.765 95.082l38.447 28.936c14.469 10.748 23.977 26.872 26.871 44.65l47.955 291.861c24.39 156.68 159.16 272.433 317.907 272.433s293.518-115.753 317.909-272.846l47.955-291.861c2.891-17.778 12.402-33.902 26.868-44.65l38.447-28.936c29.353-21.91 41.342-60.357 29.767-95.082-11.162-34.316-43.823-57.88-80.612-57.88zM465.719 820.27c-136.010 0.827-251.763-98.803-272.019-233.159l-47.955-292.277c-4.961-29.763-21.083-56.222-45.061-74l-38.446-28.936c-13.229-9.921-19.016-27.286-13.642-43.41 5.374-15.707 20.257-26.455 36.793-26.455h760.251c16.534 0 31.417 10.748 36.789 26.455 5.376 15.711 0 33.489-13.639 43.41l-38.447 28.936c-23.977 17.778-40.101 44.65-45.060 74l-47.959 291.864c-19.842 134.769-135.593 234.4-271.604 233.573zM535.584 812.002c-12.816 0-23.15 10.335-23.15 23.151v31.832c0 25.631-20.669 46.714-46.714 46.714-25.632 0-46.714-20.67-46.714-46.714v-31.832c0-12.816-10.335-23.151-23.15-23.151s-23.15 10.335-23.15 23.151v31.832c0 51.262 41.752 93.016 93.015 93.016s93.019-41.754 93.019-93.016v-31.832c0-12.816-10.338-23.151-23.154-23.151zM465.719-64c-90.121 0-162.88 73.173-162.88 162.879 0 12.816 10.335 23.15 23.151 23.15s23.151-10.335 23.151-23.15c0-64.075 52.090-116.165 116.165-116.165 64.079 0 116.169 52.090 116.169 116.165 0 12.816 10.335 23.15 23.15 23.15s23.15-10.335 23.15-23.15c0.827-89.706-72.346-162.879-162.056-162.879zM381.384 310.13l83.922 85.575 83.921-85.575h55.808l-111.62 113.274 97.564 97.564-125.259 124.846-125.262-125.259 97.563-97.564-112.032-113.274h55.396v0.414zM396.268 520.554l69.451 69.45 69.451-69.45-69.451-69.455-69.451 69.455z" />
<glyph unicode="&#xe90a;" glyph-name="task-employer" d="M1010.341 567.467c-54.615 225.28-256 392.533-498.345 392.533h-17.069v-392.533h515.415zM255.996 891.734c-119.467-69.973-208.213-186.027-242.347-324.267h242.347v324.267zM13.649 328.535c34.133-138.24 122.88-254.295 242.347-324.265v324.265h-242.347zM494.927-64h17.069c242.345 0 443.731 167.255 498.345 392.535h-515.415v-392.535z" />
<glyph unicode="&#xe90b;" glyph-name="twitter" horiz-adv-x="1205" d="M1204.706 831.66l-129.078-21.512 86.052 107.563-150.588-43.025c-193.614 215.126-494.789-21.513-408.739-215.126-344.202 0-516.303 258.151-516.303 258.151s-129.076-193.613 86.050-344.201l-129.075 43.025c0-129.076 86.051-215.126 236.639-258.151h-150.588c86.050-172.099 236.639-172.099 236.639-172.099s-129.076-107.562-365.714-107.562c709.915-344.203 1140.17 301.174 1075.628 645.376l129.078 107.563z" />
<glyph unicode="&#xe90c;" glyph-name="cunstruction" horiz-adv-x="1088" d="M1015.77 371.376c-27.808 58.115-54.381 112.909-54.381 156.911 0 9.963 7.891 17.85 17.85 17.85 9.965 0 17.85-7.887 17.85-17.85 0-17.434 14.118-31.963 31.968-31.963 17.434 0 31.962 14.113 31.962 31.963 0 44.832-36.531 81.361-81.363 81.361s-81.357-36.529-81.357-81.361c0-58.53 29.472-119.551 61.018-184.308 9.133-18.68 18.266-37.777 26.982-56.868 6.227-16.608 2.074-22.419 0.832-24.077-7.475-10.797-37.363-28.646-153.594-28.646h-256.535v52.307h195.101c15.776 0 29.056 11.622 31.546 27.398 2.496 15.772-7.053 30.716-22.413 35.283-30.72 9.132-84.269 42.341-97.549 157.741-14.528 129.514 34.035 277.708 103.776 317.974 12.454 7.057 18.682 22.001 14.944 35.699-3.738 14.113-16.192 23.661-30.72 23.661h-196.346v43.587c0 17.435-14.114 31.963-31.964 31.963-17.434 0-31.964-14.114-31.964-31.963v-44.831h-153.59c-6.642 0-12.868-2.076-18.265-5.812-61.852-44.001-105.437-102.116-128.269-172.685-19.095-59.36-23.246-125.778-11.208-192.61 20.34-114.57 82.191-207.138 150.269-224.988 2.49-0.832 5.396-1.248 8.302-1.248h153.59v-52.301h-256.538c-116.23 0-146.118 17.85-153.59 28.64-1.245 2.074-5.396 7.475 0.831 24.077 8.717 19.098 17.85 38.19 26.982 56.87 31.133 64.757 61.021 126.193 61.021 184.308 0 44.832-36.529 81.361-81.361 81.361s-81.361-36.529-81.361-81.361c0-17.434 14.114-31.964 31.963-31.964 17.435 0 31.963 14.114 31.963 31.964 0 9.963 7.887 17.85 17.85 17.85s17.85-7.887 17.85-17.85c0-44.001-26.567-98.796-54.379-156.911-34.869-69.739-73.475-149.438-73.475-230.385 0-96.723 73.475-201.325 234.122-201.325h619.76c161.056 0 234.118 104.192 234.118 201.325 0 80.947-38.605 160.646-72.23 231.216zM363.22 349.79c-36.114 12.868-83.852 80.947-100.456 173.516-10.378 58.115-20.34 201.328 106.268 296.388h324.197c-59.358-83.022-84.264-215.857-72.641-320.879 5.812-51.058 19.508-94.644 40.68-129.929 4.154-6.642 8.301-13.283 12.87-19.095h-310.918zM853.882 2.758h-619.76c-117.891 0-170.61 68.909-170.61 137.402 0 20.755 3.321 41.926 8.718 63.098 33.624-23.245 91.324-33.626 183.063-33.626h576.586c91.738 0 149.44 10.381 183.066 33.626 5.395-21.171 8.717-42.342 8.717-63.098 0.826-95.059-85.101-137.402-169.779-137.402z" />
<glyph unicode="&#xe90d;" glyph-name="down-rembo" horiz-adv-x="870" d="M783.708 507.63l-90.132-86.31v-12.221c0-72.182-83.64-135.583-171.479-161.167v219.216h87.076v173.771h-87.076v58.051c37.043 27.879 59.197 72.182 58.051 119.157-2.673 126.795-156.585 189.047-246.717 100.061-63.397-62.252-56.141-165.75 14.513-219.218v-58.051h-87.076v-174.153h87.076v-219.218c-87.84 25.969-171.479 88.986-171.479 161.167v12.221l-90.131 86.312-86.312-86.312c1.146-7.255-10.694-103.501 71.418-203.177 118.011-143.601 249.008-115.338 341.048-217.692l22.533-25.206 25.206 27.5c40.865 44.682 91.659 65.69 158.875 90.895 140.928 52.321 251.3 169.185 251.3 315.843v11.837l-86.692 86.694zM598.861 147.487c-64.164-24.064-118.012-46.213-163.842-88.223-46.594 42.394-101.971 65.306-163.459 88.223-125.267 46.592-207.378 143.601-213.107 249.769l29.025 29.025 31.699-30.551c9.93-113.428 140.162-193.249 252.826-213.489l33.991-6.113v348.688h-87.076v58.051h87.076v148.564c-3.82 3.438-58.051 23.297-58.051 83.639 0 23.297 9.166 45.448 25.97 61.87 54.232 53.468 146.653 15.277 148.184-59.96 1.526-61.488-54.615-82.875-58.052-85.549v-148.182h87.077v-58.433h-87.077v-348.688c14.513 4.204 116.103 10.696 205.088 82.877 48.886 39.716 77.527 87.839 81.731 137.103l31.698 30.556 29.025-29.025c-5.35-106.173-87.839-203.561-212.726-250.153z" />
<glyph unicode="&#xe90e;" glyph-name="handyman" horiz-adv-x="967" d="M923.415 593.933l-392.452 340.921-137.688 25.147-235.8-271.253 44.109-132.741 114.602-99.35-316.187-364.008 170.667-147.991 316.187 364.004 107.18-93.167 137.279-25.145 235.799 271.254-43.696 132.329zM542.094 849.108l294.338-256-253.525-291.864-294.752 255.587 253.939 292.277zM223.433 674.731l192.927 222.196 77.501-14.016-246.106-282.796-24.322 74.615zM82.035 97.599l37.926 43.696 82.035-71.316-37.926-43.696-82.035 71.316zM239.923 113.26l-82.035 71.322 202.821 233.325 82.035-71.316-202.821-233.33zM708.636 253.013l-77.5 14.012 245.692 282.798 24.735-74.615-192.927-222.194z" />
<glyph unicode="&#xe90f;" glyph-name="location" horiz-adv-x="731" d="M365.714 960c-202.188 0-365.714-160.256-365.714-358.4 0-268.8 365.714-665.6 365.714-665.6s365.714 396.8 365.714 665.6c0 198.144-163.526 358.4-365.714 358.4zM365.714 473.6c-34.64 0-67.862 13.485-92.357 37.49s-38.255 56.562-38.255 90.51c0 33.948 13.76 66.505 38.255 90.51s57.716 37.49 92.357 37.49c34.64 0 67.862-13.485 92.357-37.49s38.255-56.562 38.255-90.51c0-33.948-13.76-66.505-38.255-90.51s-57.716-37.49-92.357-37.49z" />
<glyph unicode="&#xe910;" glyph-name="down-arrow" horiz-adv-x="1920" d="M896.16 63.84c-29.907-0.059-58.892 10.358-81.92 29.44l-768 640c-26.14 21.727-42.578 52.947-45.699 86.793s7.332 67.547 29.059 93.687 52.947 42.578 86.794 45.699c33.846 3.121 67.547-7.332 93.686-29.059l686.080-573.44 686.086 552.96c13.082 10.632 28.147 18.573 44.326 23.364 16.166 4.791 33.126 6.339 49.894 4.555 16.781-1.784 33.024-6.865 47.834-14.952 14.797-8.086 27.853-19.018 38.426-32.167 11.712-13.161 20.595-28.601 26.074-45.353s7.437-34.455 5.747-51.998c-1.677-17.544-6.963-34.552-15.526-49.957s-20.211-28.878-34.214-39.571l-768.006-618.24c-23.69-16.067-52.083-23.727-80.64-21.76z" />
<glyph unicode="&#xe911;" glyph-name="cross" d="M595.601 450.819l414.723 414.72c9.318 10.883 14.189 24.882 13.632 39.199-0.55 14.318-6.483 27.899-16.614 38.031-10.138 10.132-23.718 16.067-38.035 16.62s-28.314-4.317-39.2-13.637l-414.718-414.72-414.72 415.289c-10.883 9.32-24.882 14.19-39.2 13.637s-27.899-6.488-38.031-16.62c-10.132-10.132-16.067-23.713-16.62-38.031s4.317-28.317 13.637-39.199l414.72-415.289-415.289-414.723c-5.955-5.094-10.792-11.373-14.207-18.432s-5.334-14.746-5.636-22.579c-0.303-7.834 1.018-15.648 3.878-22.95 2.86-7.296 7.198-13.926 12.742-19.475 5.544-5.542 12.174-9.882 19.475-12.736 7.3-2.861 15.113-4.186 22.948-3.878 7.834 0.301 15.522 2.221 22.58 5.632 7.058 3.418 13.334 8.256 18.434 14.208l415.289 414.721 414.718-414.721c10.886-9.318 24.883-14.189 39.2-13.638 14.317 0.557 27.898 6.49 38.035 16.621 10.131 10.131 16.064 23.712 16.614 38.029 0.557 14.323-4.314 28.32-13.632 39.2l-414.723 414.723z" />
<glyph unicode="&#xe912;" glyph-name="plumbing-work" horiz-adv-x="1088" d="M1022.72 785.92h-239.405v65.28c-0.032 28.846-11.501 56.501-31.898 76.898s-48.058 31.87-76.902 31.902h-261.119c-28.846-0.032-56.501-11.505-76.898-31.902s-31.87-48.052-31.902-76.898v-65.28h-239.316c-17.308-0.019-33.901-6.902-46.139-19.14s-19.122-28.832-19.141-46.14v-696.32c0.019-17.306 6.902-33.901 19.141-46.138s28.832-19.123 46.139-19.142h957.44c17.306 0.019 33.901 6.906 46.138 19.142 12.243 12.237 19.123 28.832 19.142 46.138v696.32c-0.019 17.308-6.899 33.901-19.142 46.14-12.237 12.238-28.832 19.122-46.138 19.14zM348.116 851.2c0.019 17.308 6.902 33.901 19.14 46.139s28.832 19.122 46.14 19.141h261.119c17.312-0.019 33.901-6.902 46.138-19.141 12.243-12.238 19.123-28.832 19.142-46.139v-65.28h-391.679v65.28zM65.28 742.4h957.44c5.766-0.006 11.302-2.3 15.379-6.38 4.083-4.080 6.374-9.611 6.381-15.38v-239.132c-152.87-85.782-325.229-130.819-500.524-130.788-175.26-0.031-347.587 44.99-500.436 130.739v239.181c0.006 5.77 2.3 11.3 6.38 15.38s9.611 6.374 15.38 6.38zM1022.72 2.56h-957.44c-5.769 0.006-11.301 2.298-15.38 6.381-4.080 4.077-6.374 9.613-6.38 15.379v407.434c154.113-81.827 325.948-124.593 500.436-124.554 174.52-0.045 346.386 42.74 500.524 124.598v-407.478c-0.006-5.766-2.298-11.302-6.381-15.379-4.077-4.083-9.613-6.374-15.379-6.381zM456.916 503.040c0 5.771 2.292 11.306 6.373 15.387s9.616 6.373 15.387 6.373h130.56c5.771 0 11.306-2.292 15.387-6.373s6.373-9.616 6.373-15.387c0-5.771-2.292-11.306-6.373-15.387s-9.616-6.373-15.387-6.373h-130.56c-5.771 0-11.306 2.292-15.387 6.373s-6.373 9.616-6.373 15.387z" />
<glyph unicode="&#xe913;" glyph-name="construction-repair1" d="M903.529 478.118h-361.412v361.412c0 66.259 54.212 120.471 120.471 120.471h240.941c66.259 0 120.471-54.212 120.471-120.471v-240.941c0-66.259-54.212-120.471-120.471-120.471zM602.353 538.353h301.176c36.141 0 60.235 24.094 60.235 60.235v240.941c0 36.141-24.094 60.235-60.235 60.235h-240.941c-36.141 0-60.235-24.094-60.235-60.235v-301.176zM903.529-64h-240.941c-66.259 0-120.471 54.212-120.471 120.471v361.412h361.412c66.259 0 120.471-54.212 120.471-120.471v-240.941c0-66.259-54.212-120.471-120.471-120.471zM602.353 357.647v-301.176c0-36.141 24.094-60.235 60.235-60.235h240.941c36.141 0 60.235 24.094 60.235 60.235v240.941c0 36.141-24.094 60.235-60.235 60.235h-301.176zM481.882 478.118h-361.412c-66.259 0-120.471 54.212-120.471 120.471v240.941c0 66.259 54.212 120.471 120.471 120.471h240.941c66.259 0 120.471-54.212 120.471-120.471v-361.412zM120.471 899.765c-36.141 0-60.235-24.094-60.235-60.235v-240.941c0-36.141 24.094-60.235 60.235-60.235h301.176v301.176c0 36.141-24.094 60.235-60.235 60.235h-240.941zM361.412-64h-240.941c-66.259 0-120.471 54.212-120.471 120.471v240.941c0 66.259 54.212 120.471 120.471 120.471h361.412v-361.412c0-66.259-54.212-120.471-120.471-120.471zM120.471 357.647c-36.141 0-60.235-24.094-60.235-60.235v-240.941c0-36.141 24.094-60.235 60.235-60.235h240.941c36.141 0 60.235 24.094 60.235 60.235v301.176h-301.176z" />
<glyph unicode="&#xe914;" glyph-name="left-arrow" horiz-adv-x="512" d="M427.047-63.994c-10.929-0.040-21.728 2.372-31.602 7.054-9.874 4.688-18.574 11.52-25.459 20.008l-353.344 438.813c-10.76 13.087-16.642 29.501-16.642 46.442s5.882 33.355 16.642 46.441l365.78 438.816c12.417 14.936 30.261 24.328 49.605 26.111s38.605-4.189 53.545-16.603c14.94-12.414 24.335-30.253 26.118-49.592s-4.19-38.594-16.608-53.53l-327.008-392.009 316.034-392.007c8.946-10.735 14.628-23.808 16.375-37.672s-0.515-27.938-6.518-40.556c-6.003-12.618-15.496-23.25-27.355-30.646-11.86-7.39-25.589-11.236-39.565-11.071z" />
<glyph unicode="&#xe915;" glyph-name="specialist" d="M86.475 43.197l179.523 179.523h571.409c26.557 0 52.024 10.547 70.799 29.327 18.78 18.775 29.327 44.242 29.327 70.799v450.557c0 26.555-10.547 52.022-29.327 70.799-18.775 18.777-44.242 29.326-70.799 29.326h-650.807c-26.555 0-52.022-10.549-70.799-29.326s-29.326-44.244-29.326-70.799v-730.207zM86.475-27.592h-50.062v800.996c0 39.832 15.823 78.033 43.989 106.198s66.366 43.989 106.198 43.989h650.807c39.834 0 78.034-15.823 106.199-43.989s43.991-66.366 43.991-106.198v-450.557c0-39.834-15.826-78.034-43.991-106.199s-66.365-43.991-106.199-43.991h-550.683l-200.249-200.248zM236.661 723.342h550.682v-50.062h-550.682v50.062zM236.661 573.155h550.682v-50.062h-550.682v50.062zM236.661 422.968h400.497v-50.063h-400.497v50.063z" />
<glyph unicode="&#xe916;" glyph-name="correct" horiz-adv-x="1297" d="M1236.726 914.489h-102.919c-14.432 0-28.126-6.626-36.96-17.963l-607.052-769.011-291.086 368.824c-4.403 5.59-10.016 10.111-16.417 13.223s-13.423 4.732-20.539 4.74h-102.918c-9.865 0-15.313-11.338-9.276-18.994l403.279-510.907c18.846-23.852 55.067-23.852 74.060 0l719.104 911.242c6.035 7.509 0.587 18.846-9.277 18.846z" />
<glyph unicode="&#xe917;" glyph-name="star" horiz-adv-x="1088" d="M822.298-63.994c-14.323 0.013-28.314 4.301-40.186 12.314l-241.76 162.035c-1.19 0.819-2.604 1.261-4.051 1.261s-2.86-0.442-4.051-1.261l-241.759-162.035c-12.14-8.109-26.459-12.326-41.055-12.102s-28.778 4.877-40.664 13.357c-11.885 8.474-20.912 20.365-25.881 34.086-4.969 13.728-5.644 28.64-1.938 42.758l79.398 280c0.375 1.408 0.33 2.893-0.131 4.275s-1.316 2.605-2.461 3.501l-228.796 179.863c-12.045 8.973-20.979 21.49-25.55 35.797s-4.551 29.685 0.059 43.98c4.61 14.294 13.578 26.788 25.647 35.728s26.633 13.88 41.65 14.125l291.667 11.018c1.434 0.099 2.809 0.611 3.959 1.473s2.026 2.039 2.522 3.388l100.463 273.194c5.064 13.85 14.262 25.809 26.348 34.258s26.476 12.981 41.222 12.981c14.746 0 29.136-4.531 41.222-12.981s21.283-20.408 26.348-34.258l100.46-273.194c0.499-1.349 1.376-2.525 2.528-3.388 1.146-0.863 2.522-1.374 3.955-1.473l291.667-11.018c15.014-0.245 29.581-5.185 41.651-14.125s21.037-21.434 25.645-35.728c4.608-14.294 4.634-29.673 0.058-43.98-4.57-14.307-13.504-26.824-25.549-35.797l-228.794-179.863c-1.184-0.87-2.067-2.086-2.528-3.475-0.461-1.395-0.486-2.893-0.064-4.301l79.398-280c2.784-10.739 3.059-21.978 0.806-32.838-2.259-10.867-6.982-21.062-13.818-29.805-6.829-8.749-15.584-15.802-25.581-20.614-9.99-4.813-20.966-7.264-32.058-7.155z" />
<glyph unicode="&#xe918;" glyph-name="bid" horiz-adv-x="1451" d="M824.5 272.916c39.116 0 70.834 31.713 70.834 70.833s-31.718 70.833-70.834 70.833c-39.12 0-70.833-31.713-70.833-70.833s31.713-70.833 70.833-70.833zM1022.831 272.916c39.125 0 70.835 31.713 70.835 70.833s-31.71 70.833-70.835 70.833c-39.117 0-70.835-31.713-70.835-70.833s31.718-70.833 70.835-70.833zM626.167 272.916c39.12 0 70.833 31.713 70.833 70.833s-31.713 70.833-70.833 70.833c-39.12 0-70.833-31.713-70.833-70.833s31.713-70.833 70.833-70.833zM427.833 272.916c39.12 0 70.833 31.713 70.833 70.833s-31.713 70.833-70.833 70.833c-39.12 0-70.833-31.713-70.833-70.833s31.713-70.833 70.833-70.833zM1393.997 960h-1337.33c-31.297 0-56.667-25.37-56.667-56.667v-906.67c0-31.292 25.37-56.661 56.667-56.661h1337.33c31.3 0 56.67 25.37 56.67 56.661v906.67c0 31.297-25.37 56.667-56.67 56.667zM1337.335 53.333h-1224.003v793.334h1224.003v-793.334zM427.833 570.417h594.998c31.3 0 56.67 25.37 56.67 56.666s-25.37 56.667-56.67 56.667h-594.998c-31.297 0-56.666-25.37-56.666-56.667s25.37-56.666 56.666-56.666z" />
<glyph unicode="&#xe919;" glyph-name="betch" horiz-adv-x="832" d="M548.673 297.683c-4.474-6.285-6.775-13.856-6.552-21.568l7.548-261.178-125.433 87.168c-21.916 15.232-50.982 15.264-72.931 0.077l-126.285-87.354 7.553 261.286c0.223 7.712-2.077 15.283-6.552 21.568-19.726 27.702-63.359 14.381-64.253-19.61l-7.418-282.067c-0.865-32.89 25.56-60.019 58.459-60.019 11.887 0 23.491 3.622 33.267 10.387l105.139 72.723c21.949 15.181 51.014 15.149 72.931-0.083l104.447-72.582c9.789-6.797 21.423-10.445 33.344-10.445 32.872 0 59.274 27.104 58.41 59.968l-7.42 282.118c-0.894 33.99-44.527 47.311-64.253 19.61zM733.952 651.312c-4.256 8.221-6.682 17.268-7.104 26.517l-2.528 55.379c-0.947 20.769-11.923 39.782-29.434 50.988l-46.688 29.878c-7.802 4.989-14.421 11.611-19.411 19.407l-29.891 46.705c-11.204 17.508-30.214 28.483-50.979 29.434l-55.394 2.536c-9.245 0.423-18.288 2.846-26.506 7.102l-49.229 25.496c-18.46 9.56-40.412 9.559-58.87-0.003l-49.229-25.501c-8.22-4.258-17.264-6.682-26.511-7.105l-55.393-2.536c-20.764-0.951-39.772-11.925-50.977-29.431l-29.891-46.7c-4.989-7.795-11.611-14.415-19.407-19.404l-46.691-29.88c-17.511-11.206-28.488-30.22-29.437-50.988l-2.528-55.377c-0.422-9.249-2.847-18.298-7.106-26.519l-25.499-49.224c-9.563-18.46-9.563-40.415 0-58.876l25.502-49.229c4.258-8.22 6.682-17.264 7.105-26.511l2.536-55.388c0.951-20.764 11.926-39.772 29.432-50.977l46.685-29.88c7.796-4.99 14.418-11.61 19.407-19.412l29.882-46.694c11.206-17.517 30.22-28.493 50.988-29.44l55.381-2.528c9.248-0.422 18.294-2.848 26.515-7.104l49.233-25.504c18.46-9.562 40.414-9.562 58.874 0l49.224 25.498c8.221 4.262 17.268 6.688 26.518 7.11l55.379 2.528c20.769 0.947 39.782 11.923 50.988 29.44l29.878 46.694c4.991 7.795 11.614 14.422 19.416 19.412l46.688 29.869c17.51 11.205 28.493 30.22 29.44 50.99l2.528 55.373c0.422 9.249 2.848 18.296 7.11 26.517l25.498 49.228c9.562 18.46 9.562 40.414 0 58.874l-25.504 49.234zM666.432 512.078c-4.262-8.22-6.682-17.267-7.11-26.515l-1.6-35.027c-0.954-20.767-11.93-39.777-29.439-50.982l-29.532-18.897c-7.8-4.991-14.423-11.614-19.414-19.414l-18.895-29.53c-11.206-17.512-30.219-28.488-50.987-29.436l-35.024-1.606c-9.249-0.422-18.297-2.842-26.518-7.104l-31.122-16.122c-18.46-9.562-40.416-9.562-58.876 0l-31.131 16.122c-8.221 4.262-17.267 6.682-26.515 7.104l-35.026 1.606c-20.768 0.947-39.781 11.923-50.987 29.436l-18.896 29.532c-4.99 7.798-11.613 14.421-19.411 19.411l-29.526 18.895c-17.51 11.206-28.487 30.219-29.436 50.986l-1.599 35.018c-0.422 9.252-2.849 18.303-7.11 26.527l-16.127 31.12c-9.569 18.465-9.569 40.428 0 58.893l16.12 31.108c4.26 8.221 6.686 17.27 7.109 26.52l1.604 35.039c0.95 20.765 11.927 39.775 29.436 50.98l29.529 18.897c7.798 4.99 14.42 11.613 19.41 19.411l18.897 29.531c11.206 17.511 30.219 28.489 50.986 29.437l35.026 1.601c9.249 0.423 18.296 2.847 26.516 7.106l31.132 16.127c18.46 9.562 40.414 9.563 58.875 0.001l31.132-16.126c8.22-4.258 17.267-6.682 26.515-7.105l35.026-1.601c20.768-0.949 39.781-11.926 50.986-29.438l18.897-29.531c4.989-7.798 11.612-14.42 19.409-19.411l29.528-18.897c17.509-11.206 28.485-30.218 29.432-50.986l1.6-35.020c0.422-9.253 2.848-18.304 7.11-26.528l16.128-31.118c9.568-18.463 9.568-40.425 0.006-58.89l-16.128-31.126z" />
<glyph unicode="&#xe91a;" glyph-name="search" d="M189.355 888.196c70.066 46.816 152.441 71.804 236.708 71.804h0.002c112.996-0.007 221.362-44.898 301.262-124.798s124.794-188.266 124.801-301.262v-0.002c0-84.268-24.993-166.642-71.804-236.708-46.819-70.063-113.362-124.679-191.214-156.92-77.853-32.249-163.52-40.689-246.168-24.247-82.648 16.435-158.565 57.015-218.151 116.602s-100.165 135.504-116.604 218.151c-16.44 82.648-8.002 168.315 24.245 246.167s86.857 144.395 156.923 191.211zM426.063 881.232c92.106-0.007 180.438-36.598 245.567-101.727 65.131-65.129 101.724-153.461 101.724-245.567zM426.060 881.232c-68.687-0.001-135.832-20.369-192.944-58.53s-101.626-92.401-127.911-155.861c-26.286-63.459-33.164-133.289-19.763-200.658s46.477-129.25 95.047-177.82c48.57-48.571 110.452-81.647 177.821-95.047s137.198-6.524 200.657 19.763c63.46 26.285 117.7 70.799 155.861 127.911 38.164 57.111 58.527 124.256 58.527 192.944zM686.705 273.25c15.38 15.38 40.318 15.38 55.695 0l270.058-270.054c15.375-15.382 15.375-40.316 0-55.698-15.382-15.375-40.324-15.375-55.698 0l-270.055 270.058c-15.38 15.377-15.38 40.313 0 55.694z" />
<glyph unicode="&#xe91b;" glyph-name="invisiable" d="M30.522 929.471c-6.253-6.252-10.055-14.54-10.715-23.358s1.867-17.579 7.121-24.691l3.594-4.135 198.597-198.646c-96.835-67.871-165.962-168.373-194.708-283.077-2.216-9.444-0.628-19.377 4.421-27.66s13.155-14.241 22.564-16.597c9.409-2.355 19.367-0.91 27.721 4.017s14.433 12.946 16.924 22.319c25.546 101.809 88.463 190.279 176.246 247.828l89.108-89.108c-35.594-37.195-55.208-86.847-54.64-138.327 0.568-51.476 21.272-100.687 57.678-137.086s85.618-57.092 137.098-57.651c51.476-0.559 101.128 19.062 138.315 54.666l291.395-291.45c6.589-6.605 15.435-10.472 24.757-10.823s18.436 2.844 25.502 8.936c7.066 6.093 11.563 14.635 12.587 23.906 1.024 9.275-1.501 18.593-7.066 26.080l-3.596 4.135-910.719 910.72c-6.923 6.914-16.308 10.798-26.092 10.798s-19.169-3.884-26.092-10.798zM423.582 484.179l174.029-174.080c-23.213-22.418-54.3-34.824-86.571-34.544s-63.141 13.225-85.961 36.045c-22.819 22.819-35.762 53.689-36.042 85.957-0.28 32.272 12.124 63.362 34.546 86.571v0.051zM512 767.994c-49.231 0-96.985-7.286-142.229-20.923l60.9-60.849c105.33 20.856 214.65 0.439 305.353-57.030s155.853-147.596 181.981-251.745c2.552-9.303 8.641-17.235 16.963-22.107 8.326-4.868 18.227-6.29 27.585-3.954s17.432 8.239 22.493 16.447c5.061 8.212 6.707 18.074 4.592 27.483-26.699 106.464-88.198 200.959-174.73 268.478-86.536 67.519-193.15 104.194-302.907 104.201zM521.598 595.194l187.128-187.079c-2.422 48.845-22.914 95.043-57.498 129.615-34.584 34.575-80.786 55.057-129.631 57.464z" />
<glyph unicode="&#xe91c;" glyph-name="visiable" horiz-adv-x="1664" d="M187.84 342.56c-7.162-19.553-21.666-35.546-40.431-44.576-18.764-9.024-40.31-10.381-60.059-3.782-19.748 6.605-36.144 20.653-45.703 39.151-9.559 18.5-11.527 39.999-5.487 59.927-1.6-4.8 0 0.16 0 0.16 2.853 8.807 6.164 17.459 9.92 25.92 6.4 15.2 15.84 36.16 28.8 60.96 26.24 49.6 67.52 115.68 128 181.76 122.72 133.6 323.2 265.92 629.12 265.92 306.080 0 506.56-132.32 628.96-265.92 65.344-71.665 118.336-153.688 156.8-242.72 3.2-7.52 5.6-13.6 7.2-18.080 0.64-1.28 2.24-9.6 3.84-17.6 1.44-7.36 2.72-14.4 3.2-15.68 0 0 13.44-53.28-54.72-75.84-20.070-6.701-41.984-5.178-60.934 4.237-18.957 9.414-33.402 25.957-40.186 46.003v0.48l-1.12 2.56c-8.038 20.554-17.222 40.639-27.52 60.16-28.397 53.668-63.507 103.508-104.48 148.32-97.6 106.4-257.12 214.080-511.040 214.080s-413.44-107.68-511.040-214.080c-52.842-57.931-95.813-124.145-127.2-196-1.679-4.129-3.279-8.29-4.8-12.48l-1.12-2.88zM512 288c0 84.869 33.714 166.262 93.726 226.274 60.008 60.012 141.404 93.726 226.274 93.726s166.266-33.714 226.272-93.726c60.013-60.012 93.728-141.405 93.728-226.274s-33.715-166.266-93.728-226.272c-60.006-60.013-141.402-93.728-226.272-93.728s-166.266 33.715-226.274 93.728c-60.012 60.006-93.726 141.402-93.726 226.272z" />
<glyph unicode="&#xe91d;" glyph-name="capture" horiz-adv-x="1229" d="M38.684 685.805c0 65.394 53.504 118.898 118.898 118.898h178.346l118.898 118.898h356.694l118.897-118.898h178.35c31.529 0 61.773-12.527 84.070-34.824s34.826-52.54 34.826-84.073v-594.489c0-31.534-12.529-61.773-34.826-84.076-22.298-22.298-52.541-34.821-84.070-34.821h-951.184c-31.534 0-61.776 12.524-84.073 34.821-22.298 22.303-34.824 52.541-34.824 84.076v594.489zM633.175 91.315c78.833 0 154.44 31.319 210.181 87.060 55.747 55.747 87.060 131.348 87.060 210.186 0 78.832-31.314 154.438-87.060 210.182-55.741 55.744-131.348 87.061-210.181 87.061-78.838 0-154.441-31.317-210.185-87.061s-87.061-131.35-87.061-210.182c0-78.838 31.316-154.44 87.061-210.186 55.744-55.741 131.347-87.060 210.185-87.060zM633.175 210.212c-23.424 0-46.612 4.613-68.25 13.578-21.642 8.96-41.303 22.098-57.862 38.661-16.561 16.558-29.698 36.219-38.661 57.856-8.963 21.642-13.576 44.831-13.576 68.255 0 23.419 4.613 46.612 13.576 68.249s22.1 41.298 38.661 57.86c16.559 16.561 36.22 29.698 57.862 38.661 21.637 8.963 44.826 13.576 68.25 13.576 47.299 0 92.662-18.79 126.111-52.237 33.444-33.446 52.234-78.81 52.234-126.108 0-47.304-18.79-92.667-52.234-126.111-33.449-33.449-78.812-52.239-126.111-52.239z" />
<glyph unicode="&#xe91e;" glyph-name="calender" d="M834.56 7.68h-640c-66.56 0-122.88 56.32-122.88 122.88v573.44c0 66.56 56.32 122.88 122.88 122.88h640c66.56 0 122.88-56.32 122.88-122.88v-578.56c-5.12-66.56-56.32-117.76-122.88-117.76zM194.56 775.68c-40.96 0-71.68-30.72-71.68-71.68v-578.56c0-40.96 30.72-71.68 71.68-71.68h640c40.96 0 71.68 30.72 71.68 71.68v578.56c0 40.96-30.72 71.68-71.68 71.68h-640zM593.92 448c25.6 0 46.080 20.48 46.080 46.080s-20.48 46.080-46.080 46.080-46.080-20.48-46.080-46.080 15.36-46.080 46.080-46.080zM752.64 448c25.6 0 46.080 20.48 46.080 46.080s-20.48 46.080-46.080 46.080-46.080-20.48-46.080-46.080 20.48-46.080 46.080-46.080zM593.92 289.28c25.6 0 46.080 20.48 46.080 46.080s-20.48 46.080-46.080 46.080-46.080-20.48-46.080-46.080 15.36-46.080 46.080-46.080zM752.64 289.28c25.6 0 46.080 20.48 46.080 46.080s-20.48 46.080-46.080 46.080-46.080-20.48-46.080-46.080 20.48-46.080 46.080-46.080zM271.36 289.28c25.6 0 46.080 20.48 46.080 46.080s-20.48 46.080-46.080 46.080-46.080-20.48-46.080-46.080 20.48-46.080 46.080-46.080zM430.080 289.28c25.6 0 46.080 20.48 46.080 46.080s-15.36 46.080-46.080 46.080-46.080-20.48-46.080-46.080 20.48-46.080 46.080-46.080zM271.36 125.44c25.6 0 46.080 20.48 46.080 46.080s-20.48 46.080-46.080 46.080-46.080-20.48-46.080-46.080 20.48-46.080 46.080-46.080zM430.080 125.44c25.6 0 46.080 20.48 46.080 46.080s-15.36 51.2-46.080 51.2-46.080-20.48-46.080-46.080 20.48-51.2 46.080-51.2zM593.92 125.44c25.6 0 46.080 20.48 46.080 46.080s-20.48 46.080-46.080 46.080-46.080-20.48-46.080-46.080 15.36-46.080 46.080-46.080zM256 775.68c-15.36 0-25.6 10.24-25.6 25.6v61.44c0 15.36 10.24 25.6 25.6 25.6s25.6-10.24 25.6-25.6v-66.56c0-10.24-10.24-20.48-25.6-20.48zM768 775.68c-15.36 0-25.6 10.24-25.6 25.6v61.44c0 15.36 10.24 25.6 25.6 25.6s25.6-10.24 25.6-25.6v-66.56c0-10.24-10.24-20.48-25.6-20.48zM97.28 663.040h834.56v-51.2h-834.56v51.2z" />
<glyph unicode="&#xe91f;" glyph-name="send" d="M79.034 920.537l905.358-446.105c4.936-2.433 9.093-6.199 12.001-10.873s4.449-10.067 4.449-15.569c0-5.504-1.541-10.9-4.449-15.575-2.908-4.669-7.066-8.438-12.001-10.87l-905.417-446.106c-5.072-2.493-10.754-3.476-16.368-2.826-5.615 0.645-10.925 2.888-15.299 6.467s-7.627 8.34-9.372 13.716c-1.745 5.376-1.908 11.141-0.47 16.604l116.096 438.323-116.155 438.793c-1.462 5.477-1.314 11.259 0.426 16.653s4.999 10.173 9.385 13.764c4.387 3.59 9.715 5.84 15.348 6.479s11.329-0.359 16.409-2.875h0.059zM111.050 838.993l94.929-358.606 3.656 0.708 3.773 0.236h412.732c7.368 0.013 14.474-2.732 19.917-7.695s8.832-11.785 9.498-19.122c0.666-7.338-1.439-14.66-5.903-20.522-4.46-5.857-10.957-9.841-18.207-11.151l-5.304-0.471h-412.732c-1.819-0.010-3.635 0.148-5.425 0.471l-96.874-365.916 793.508 391.035-793.567 391.034z" />
<glyph unicode="&#xe920;" glyph-name="pin" horiz-adv-x="1126" d="M236.202-50.35c-56.449-0.005-110.638 22.185-150.869 61.783l-4.438 4.439c-20.214 19.722-36.275 43.295-47.237 69.32-10.962 26.030-16.604 53.985-16.592 82.232-0.071 30.572 5.926 60.861 17.644 89.103 11.718 28.237 28.925 53.873 50.623 75.418l529.067 523.263c53.755 55.97 127.345 88.585 204.918 90.819 77.568 2.235 152.914-26.090 209.802-78.872 25.656-25.593 45.962-56.037 59.735-89.558s20.731-69.447 20.48-105.686c-0.307-40.472-8.607-80.485-24.422-117.74s-38.835-71.017-67.738-99.347l-475.479-471.039c-2.954-3.978-6.743-7.26-11.095-9.626s-9.17-3.758-14.111-4.076c-4.945-0.317-9.899 0.445-14.519 2.237-4.619 1.787-8.794 4.562-12.234 8.125-3.44 3.569-6.062 7.839-7.685 12.518s-2.208 9.661-1.713 14.587c0.494 4.931 2.056 9.692 4.576 13.957 2.52 4.27 5.938 7.931 10.018 10.747l474.114 471.037c22.513 21.979 40.468 48.189 52.828 77.126s18.883 60.029 19.19 91.492c0.251 27.23-4.936 54.236-15.252 79.438s-25.554 48.094-44.82 67.336c-44.109 40.18-102.226 61.439-161.843 59.205-59.622-2.234-115.988-27.784-156.964-71.152l-527.359-523.265c-15.54-15.089-27.92-33.121-36.418-53.048s-12.942-41.344-13.075-63.002c-0.073-19.021 3.631-37.868 10.896-55.444s17.948-33.541 31.429-46.956l4.438-4.439c30.541-28.124 70.904-43.131 112.399-41.789s80.805 18.918 109.467 48.957l455.679 450.559c8.617 8.713 15.411 19.057 19.983 30.427s6.83 23.538 6.641 35.791c0.077 10.643-1.966 21.194-6.011 31.039s-10.004 18.787-17.541 26.305c-17.234 15.806-39.997 24.201-63.37 23.371s-45.486-10.818-61.558-27.808l-314.025-311.293c-6.428-6.385-15.127-9.953-24.185-9.923-9.058 0.036-17.732 3.661-24.114 10.092-6.382 6.426-9.95 15.124-9.918 24.182 0.032 9.062 3.661 17.736 10.088 24.115l315.393 312.321c28.908 29.617 68.306 46.681 109.681 47.511 41.38 0.83 81.428-14.641 111.503-43.074 13.829-14.079 24.704-30.787 31.969-49.137 7.27-18.349 10.793-37.968 10.358-57.7-0.041-21.249-4.316-42.276-12.58-61.852s-20.347-37.306-35.548-52.153l-454.317-451.924c-44.036-43.965-103.662-68.751-165.888-68.951z" />
<glyph unicode="&#xe921;" glyph-name="profile" d="M1024 447.828c0.058 85.17-21.146 169.008-61.696 243.915-40.544 74.908-99.142 138.516-170.496 185.062-71.347 46.546-153.188 74.557-238.104 81.494s-170.219-7.418-248.182-41.765c-77.963-34.347-146.12-87.6-198.292-154.932s-86.714-146.616-100.491-230.665c-13.777-84.049-6.356-170.206 21.591-250.662 27.947-80.461 75.537-152.672 138.457-210.099 1.726-2.016 3.713-3.795 5.908-5.286 93.513-83.034 214.244-128.89 339.318-128.89s245.805 45.869 339.315 128.902c2.176 1.485 4.147 3.251 5.862 5.248 52.57 47.878 94.566 106.202 123.29 171.232 28.73 65.037 43.552 135.354 43.52 206.446zM60.235 447.828c-0.056 73.712 17.938 146.317 52.41 211.478s84.376 120.895 145.354 162.339c60.978 41.444 131.177 67.337 204.468 75.419s147.448-1.893 215.997-29.054c68.55-27.161 129.402-70.682 177.254-126.765s81.242-123.021 97.261-194.973c16.013-71.952 14.17-146.73-5.376-217.805-19.539-71.073-56.192-136.289-106.746-189.946-47.341 73.555-118.074 129.030-200.8 157.491 41.235 27.474 72.538 67.485 89.28 114.118 16.736 46.632 18.022 97.411 3.661 144.83-14.355 47.419-43.597 88.961-83.398 118.486-39.795 29.525-88.040 45.466-137.6 45.466s-97.805-15.94-137.603-45.466c-39.798-29.524-69.037-71.067-83.396-118.486s-13.074-98.198 3.664-144.83c16.737-46.633 48.040-86.644 89.28-114.118-82.73-28.461-153.464-83.936-200.799-157.491-79.009 83.61-122.99 194.291-122.91 309.307zM341.333 487.972c0 33.743 10.010 66.729 28.763 94.786s45.407 49.924 76.593 62.837c31.185 12.913 65.501 16.292 98.607 9.709s63.516-22.832 87.384-46.692c23.871-23.86 40.12-54.26 46.706-87.355s3.206-67.4-9.709-98.575c-12.922-31.174-34.794-57.82-62.86-76.567s-61.062-28.752-94.817-28.752c-45.248 0.051-88.627 18.042-120.622 50.027s-49.993 75.349-50.045 120.582zM228.106 96.806c29.483 48.922 71.116 89.395 120.857 117.485 49.741 28.096 105.903 42.861 163.034 42.861s113.293-14.765 163.036-42.861c49.741-28.090 91.373-68.563 120.858-117.485-80.294-65.075-180.525-100.589-283.894-100.589s-203.597 35.514-283.891 100.589z" />
<glyph unicode="&#xe922;" glyph-name="up-arrow" horiz-adv-x="1920" d="M898.976 959.66c29.908 0.058 58.892-10.358 81.92-29.44l768.006-640c26.138-21.727 42.573-52.947 45.696-86.794s-7.334-67.547-29.056-93.686c-21.734-26.14-52.954-42.578-86.797-45.699s-67.546 7.332-93.683 29.059l-686.086 573.44-686.080-552.96c-13.093-10.633-28.157-18.573-44.329-23.364s-33.13-6.34-49.902-4.556c-16.772 1.784-33.025 6.866-47.827 14.952s-27.859 19.018-38.422 32.168c-11.722 13.161-20.6 28.602-26.078 45.353s-7.436 34.454-5.754 51.999c1.682 17.544 6.969 34.551 15.53 49.957s20.212 28.877 34.221 39.571l767.999 618.24c23.692 16.066 52.083 23.727 80.64 21.76z" />
</font>
</defs>
</svg>
