<svg width="17" height="20" viewBox="0 0 17 20" fill="none" xmlns="http://www.w3.org/2000/svg">
<path d="M0.374681 19.9733L3.95958 19.9795L4.80441 19.981L5.67807 19.9822L9.59433 19.9888L11.0454 19.9911L11.0457 19.991L12.5653 19.9939L12.7075 19.9941L14.1626 19.9964C14.1629 19.9962 14.1629 19.9962 14.1632 19.996L16.3981 20C16.6026 20.0004 16.7737 19.8294 16.7742 19.6248L16.7746 19.3702L16.776 18.4943L16.7823 14.6982L16.7837 13.8224L16.7921 8.81117L16.7943 7.35178L16.7955 6.61046L16.8061 0.397138C16.8064 0.189767 16.6382 0.0213824 16.4309 0.0210012L3.61255 7.96506e-07C3.51431 -0.000207129 3.41617 0.0403036 3.34668 0.109716L0.136918 3.30857C0.0671251 3.37823 0.0266149 3.47592 0.0264416 3.5742L0.0200656 7.46125L0.018437 8.44623L0.0169469 9.32211L0.0150062 10.5132L0.010224 13.2991L0.0103963 13.2994L5.36138e-07 19.5974C-0.000346005 19.8048 0.167346 19.973 0.374681 19.9733ZM1.5077 3.0032L3.23517 1.28165L3.2317 3.20409L1.30923 3.2007L1.5077 3.0032ZM0.776807 3.9511L3.60593 3.95543C3.81327 3.95577 3.98182 3.78794 3.98221 3.58061L3.98668 0.751788L16.0541 0.77168L16.0237 19.2484L0.751648 19.223L0.776807 3.9511Z" fill="#8D8E90"/>
<path d="M11.5983 16.8375L8.39372 16.8322C8.32316 16.8322 8.25718 16.8515 8.20069 16.8852C8.09129 16.9507 8.01789 17.0703 8.01758 17.2071C8.01716 17.4147 8.18499 17.583 8.39257 17.5834L11.5972 17.5886C11.8045 17.589 11.9729 17.4211 11.9733 17.2137C11.9735 17.0063 11.8057 16.8379 11.5983 16.8375Z" fill="#8D8E90"/>
<path d="M6.79034 16.8295L2.38396 16.8223C2.1629 16.822 1.98613 17.0195 2.00997 17.2391C2.03063 17.4266 2.19416 17.5731 2.38268 17.5734L6.78916 17.5806C6.9965 17.581 7.16495 17.4131 7.16533 17.2058C7.16558 16.9983 6.99771 16.8298 6.79034 16.8295Z" fill="#8D8E90"/>
<path d="M14.4052 14.4386L10.8 14.4327C10.7294 14.4326 10.6634 14.4519 10.6069 14.4857C10.4976 14.5511 10.4241 14.6707 10.4238 14.8075C10.4233 15.015 10.5912 15.1834 10.7987 15.1837L14.4039 15.1897C14.6113 15.1901 14.7797 15.0221 14.7801 14.8148C14.7804 14.6074 14.6125 14.439 14.4052 14.4386Z" fill="#8D8E90"/>
<path d="M2.38655 15.1697L9.19651 15.1811C9.40378 15.1816 9.57227 15.0136 9.57251 14.8061C9.57292 14.5988 9.40502 14.4303 9.19765 14.43L2.38787 14.4187C2.16677 14.4184 1.98986 14.616 2.01391 14.8354C2.03429 15.0231 2.19786 15.1695 2.38655 15.1697Z" fill="#8D8E90"/>
<path d="M2.39049 13.1668L14.4079 13.1867C14.6152 13.1871 14.7838 13.0194 14.784 12.8119C14.7844 12.6046 14.6165 12.4361 14.4092 12.4357L2.39174 12.4157C2.17068 12.4155 1.99377 12.6131 2.01782 12.8325C2.03833 13.0203 2.2019 13.1664 2.39049 13.1668Z" fill="#8D8E90"/>
<path d="M2.39453 11.164L11.6077 11.1792C11.8152 11.1795 11.9835 11.0117 11.984 10.8042C11.9843 10.5969 11.8164 10.4285 11.6089 10.4282L2.39571 10.4128C2.17461 10.4126 1.9977 10.6101 2.02172 10.8295C2.0423 11.0175 2.20597 11.1637 2.39453 11.164Z" fill="#8D8E90"/>
<path d="M14.4166 8.42997L7.20625 8.41815C7.13562 8.41805 7.06964 8.43738 7.01316 8.47114C6.90375 8.53656 6.83039 8.65626 6.83008 8.79303C6.8297 9.00037 6.9976 9.16878 7.20493 9.16916L14.4154 9.18116C14.6229 9.18143 14.7912 9.01364 14.7915 8.8061C14.7918 8.59877 14.6239 8.43032 14.4166 8.42997Z" fill="#8D8E90"/>
<path d="M2.39634 9.1612L5.60092 9.16643C5.80822 9.16678 5.97681 8.99909 5.97702 8.79155C5.97758 8.58411 5.80968 8.4157 5.60217 8.41542L2.39763 8.41019C2.17643 8.40974 1.99966 8.60751 2.02367 8.8269C2.04426 9.01451 2.20779 9.16096 2.39634 9.1612Z" fill="#8D8E90"/>
<path d="M14.4185 6.42723L11.6146 6.42255C11.5439 6.42234 11.4778 6.44161 11.4214 6.47536C11.3118 6.54092 11.2385 6.66058 11.2383 6.7975C11.2379 7.00483 11.4058 7.17328 11.6133 7.17356L14.4173 7.1782C14.6246 7.17859 14.7931 7.01072 14.7934 6.80336C14.7937 6.59585 14.6258 6.4274 14.4185 6.42723Z" fill="#8D8E90"/>
<path d="M2.40023 7.15825L10.0111 7.1709C10.2186 7.17114 10.387 7.00338 10.3875 6.79597C10.3878 6.58857 10.2199 6.42015 10.0125 6.4198L2.40151 6.40726C2.18042 6.40698 2.00368 6.60447 2.02756 6.82404C2.04818 7.01156 2.21171 7.15801 2.40023 7.15825Z" fill="#8D8E90"/>
<path d="M2.40204 5.15541L14.4194 5.17537C14.6269 5.17558 14.7952 5.00782 14.7955 4.80048C14.796 4.59307 14.628 4.42465 14.4207 4.42427L2.40328 4.40431C2.18236 4.40397 2.00549 4.60157 2.02954 4.82103C2.04991 5.00865 2.21345 5.15507 2.40204 5.15541Z" fill="#8D8E90"/>
<path d="M9.61704 3.16445L14.4239 3.17242C14.6314 3.17269 14.7997 3.00486 14.8002 2.79743C14.8006 2.59006 14.6327 2.4216 14.4252 2.42133L9.61829 2.41342C9.54763 2.41318 9.48161 2.43248 9.42513 2.46624C9.31572 2.5317 9.2424 2.65136 9.24219 2.78828C9.24181 2.99568 9.40971 3.16414 9.61704 3.16445Z" fill="#8D8E90"/>
<path d="M5.21079 3.15709L8.0148 3.16173C8.22228 3.16204 8.39063 2.99425 8.39094 2.78688C8.39146 2.57947 8.22356 2.41102 8.01608 2.41074L5.21208 2.4061C4.99102 2.40579 4.81411 2.60338 4.83813 2.82281C4.85861 3.0105 5.02214 3.15688 5.21079 3.15709Z" fill="#8D8E90"/>
</svg>
