<svg width="20" height="18" viewBox="0 0 20 18" fill="none" xmlns="http://www.w3.org/2000/svg">
<path d="M19.501 9.64794C19.7765 9.64794 20 9.42441 20 9.14851V2.85064C20 1.27877 18.7213 0 17.1494 0H2.85064C1.27877 0 0 1.27877 0 2.85064V10.4045C0 11.9764 1.27877 13.2551 2.85064 13.2551H9.50079V17.0586C9.50079 17.261 9.62235 17.4429 9.80908 17.5201C9.87066 17.5457 9.93584 17.558 10.0002 17.558C10.1301 17.558 10.2577 17.5072 10.3533 17.4117L14.5099 13.2551H17.1494C18.7213 13.2551 20 11.9764 20 10.4045V8.62468C20 8.34918 19.7765 8.12565 19.501 8.12565C19.2251 8.12565 19.0016 8.34918 19.0016 8.62468V10.4045C19.0016 11.4257 18.1707 12.2567 17.1494 12.2567H14.3032C14.1708 12.2567 14.0437 12.309 13.9501 12.4026L10.4993 15.8534V12.7557C10.4993 12.4798 10.2757 12.2567 10.0002 12.2567H2.85064C1.82978 12.2567 0.998463 11.4257 0.998463 10.4045V2.85064C0.998463 1.82938 1.82978 0.998862 2.85064 0.998862H17.1494C18.1707 0.998862 19.0016 1.82938 19.0016 2.85064V9.14851C19.0016 9.42441 19.2251 9.64794 19.501 9.64794Z" fill="#8D8E90"/>
<path d="M14.8694 3.27214H5.13216C4.85642 3.27214 4.63281 3.49574 4.63281 3.77149C4.63281 4.04736 4.85642 4.27084 5.13216 4.27084H14.8694C15.1451 4.27084 15.3687 4.0474 15.3687 3.77149C15.3687 3.49574 15.1451 3.27214 14.8694 3.27214Z" fill="#8D8E90"/>
<path d="M15.3687 6.4681C15.3687 6.19235 15.1451 5.96875 14.8694 5.96875H5.13216C4.85642 5.96875 4.63281 6.19235 4.63281 6.4681C4.63281 6.74397 4.85642 6.96745 5.13216 6.96745H14.8694C15.1451 6.96741 15.3687 6.74397 15.3687 6.4681Z" fill="#8D8E90"/>
<path d="M5.13216 8.66536C4.85642 8.66536 4.63281 8.88896 4.63281 9.16471C4.63281 9.44058 4.85642 9.66406 5.13216 9.66406H10.7498C11.0256 9.66406 11.2491 9.44062 11.2491 9.16471C11.2491 8.88896 11.0255 8.66536 10.7498 8.66536H5.13216Z" fill="#8D8E90"/>
</svg>
