<svg width="19" height="20" viewBox="0 0 19 20" fill="none" xmlns="http://www.w3.org/2000/svg">
<path d="M18.1263 16.0313C17.533 15.5023 17.0135 14.896 16.5819 14.2285C16.1108 13.3071 15.8284 12.3009 15.7513 11.2689V8.22944C15.7554 6.60854 15.1674 5.04194 14.0979 3.82398C13.0283 2.60602 11.5508 1.82054 9.94301 1.61512V0.821406C9.94301 0.603555 9.85647 0.394628 9.70242 0.240584C9.54838 0.0865408 9.33945 0 9.1216 0C8.90375 0 8.69482 0.0865408 8.54078 0.240584C8.38674 0.394628 8.3002 0.603555 8.3002 0.821406V1.62743C6.70677 1.84766 5.24713 2.63788 4.19165 3.85175C3.13616 5.06562 2.55634 6.62086 2.55959 8.22944V11.2689C2.48252 12.3009 2.20012 13.3071 1.72895 14.2285C1.30495 14.8944 0.793838 15.5007 0.209197 16.0313C0.143565 16.0889 0.0909646 16.1599 0.0548942 16.2395C0.0188237 16.319 0.000110626 16.4054 0 16.4927V17.3295C0 17.4927 0.0648245 17.6492 0.180213 17.7646C0.295601 17.88 0.452102 17.9448 0.615285 17.9448H17.7202C17.8834 17.9448 18.0399 17.88 18.1553 17.7646C18.2707 17.6492 18.3355 17.4927 18.3355 17.3295V16.4927C18.3354 16.4054 18.3167 16.319 18.2806 16.2395C18.2445 16.1599 18.1919 16.0889 18.1263 16.0313ZM1.27979 16.7142C1.85226 16.1612 2.3563 15.5415 2.78109 14.8684C3.3746 13.7556 3.72089 12.5278 3.79631 11.2689V8.22944C3.77191 7.50835 3.89286 6.78972 4.15197 6.11634C4.41108 5.44297 4.80305 4.82863 5.30453 4.30989C5.80601 3.79115 6.40674 3.37863 7.07097 3.0969C7.73519 2.81516 8.44932 2.66997 9.17083 2.66997C9.89233 2.66997 10.6065 2.81516 11.2707 3.0969C11.9349 3.37863 12.5356 3.79115 13.0371 4.30989C13.5386 4.82863 13.9306 5.44297 14.1897 6.11634C14.4488 6.78972 14.5697 7.50835 14.5453 8.22944V11.2689C14.6208 12.5278 14.9671 13.7556 15.5606 14.8684C15.9854 15.5415 16.4894 16.1612 17.0619 16.7142H1.27979Z" fill="#8D8E90"/>
<path d="M9.19975 19.9999C9.58734 19.991 9.95928 19.8453 10.2498 19.5885C10.5403 19.3318 10.7307 18.9806 10.7872 18.597H7.55078C7.60891 18.991 7.80817 19.3505 8.11149 19.6085C8.41481 19.8666 8.80155 20.0057 9.19975 19.9999Z" fill="#8D8E90"/>
</svg>
