<svg width="20" height="19" viewBox="0 0 20 19" fill="none" xmlns="http://www.w3.org/2000/svg">
<path d="M7.70833 6.2223H1.45829C0.654148 6.2223 0 5.61177 0 4.86109V1.36107C0 0.610538 0.654148 0 1.45829 0H7.70833C8.51262 0 9.16677 0.610538 9.16677 1.36107V4.86109C9.16677 5.61177 8.51262 6.2223 7.70833 6.2223ZM1.45829 1.16667C1.34339 1.16667 1.25001 1.25383 1.25001 1.36107V4.86109C1.25001 4.96847 1.34339 5.05563 1.45829 5.05563H7.70833C7.82338 5.05563 7.91676 4.96847 7.91676 4.86109V1.36107C7.91676 1.25383 7.82338 1.16667 7.70833 1.16667H1.45829Z" fill="#8D8E90"/>
<path d="M7.70833 18.6667H1.45829C0.654148 18.6667 0 18.0562 0 17.3056V9.13892C0 8.38825 0.654148 7.77771 1.45829 7.77771H7.70833C8.51262 7.77771 9.16677 8.38825 9.16677 9.13892V17.3056C9.16677 18.0562 8.51262 18.6667 7.70833 18.6667ZM1.45829 8.94438C1.34339 8.94438 1.25001 9.03154 1.25001 9.13892V17.3056C1.25001 17.4129 1.34339 17.5 1.45829 17.5H7.70833C7.82338 17.5 7.91676 17.4129 7.91676 17.3056V9.13892C7.91676 9.03154 7.82338 8.94438 7.70833 8.94438H1.45829Z" fill="#8D8E90"/>
<path d="M18.5405 18.6667H12.2905C11.4862 18.6667 10.832 18.0562 10.832 17.3056V13.8056C10.832 13.055 11.4862 12.4444 12.2905 12.4444H18.5405C19.3447 12.4444 19.9988 13.055 19.9988 13.8056V17.3056C19.9988 18.0562 19.3447 18.6667 18.5405 18.6667ZM12.2905 13.6111C12.1754 13.6111 12.082 13.6982 12.082 13.8056V17.3056C12.082 17.4129 12.1754 17.5 12.2905 17.5H18.5405C18.6554 17.5 18.7488 17.4129 18.7488 17.3056V13.8056C18.7488 13.6982 18.6554 13.6111 18.5405 13.6111H12.2905Z" fill="#8D8E90"/>
<path d="M18.5405 10.889H12.2905C11.4862 10.889 10.832 10.2785 10.832 9.52778V1.36107C10.832 0.610538 11.4862 0 12.2905 0H18.5405C19.3447 0 19.9988 0.610538 19.9988 1.36107V9.52778C19.9988 10.2785 19.3447 10.889 18.5405 10.889ZM12.2905 1.16667C12.1754 1.16667 12.082 1.25383 12.082 1.36107V9.52778C12.082 9.63517 12.1754 9.72233 12.2905 9.72233H18.5405C18.6554 9.72233 18.7488 9.63517 18.7488 9.52778V1.36107C18.7488 1.25383 18.6554 1.16667 18.5405 1.16667H12.2905Z" fill="#8D8E90"/>
</svg>
