<svg width="20" height="20" viewBox="0 0 20 20" fill="none" xmlns="http://www.w3.org/2000/svg">
<g clip-path="url(#clip0)">
<path d="M2.73889 4.60463H3.28683C3.44888 4.60463 3.58026 4.4731 3.58026 4.31105C3.58026 4.149 3.44888 4.01747 3.28683 4.01747H2.73889C2.57669 4.01747 2.44531 4.149 2.44531 4.31105C2.44531 4.4731 2.57669 4.60463 2.73889 4.60463Z" fill="#8D8E90"/>
<path d="M8.31607 4.60463C8.47827 4.60463 8.60965 4.4731 8.60965 4.31105C8.60965 4.149 8.47827 4.01747 8.31607 4.01747H4.63718C4.47513 4.01747 4.34375 4.149 4.34375 4.31105C4.34375 4.4731 4.47513 4.60463 4.63718 4.60463H8.31607Z" fill="#8D8E90"/>
<path d="M2.73889 5.80185H9.37051C9.53271 5.80185 9.66409 5.67047 9.66409 5.50827C9.66409 5.34622 9.53271 5.21484 9.37051 5.21484H2.73889C2.57669 5.21484 2.44531 5.34622 2.44531 5.50827C2.44531 5.67032 2.57669 5.80185 2.73889 5.80185Z" fill="#8D8E90"/>
<path d="M2.73889 8.64029H3.28683C3.44888 8.64029 3.58026 8.50891 3.58026 8.34671C3.58026 8.18466 3.44888 8.05328 3.28683 8.05328H2.73889C2.57669 8.05328 2.44531 8.18466 2.44531 8.34671C2.44531 8.50876 2.57669 8.64029 2.73889 8.64029Z" fill="#8D8E90"/>
<path d="M6.41779 11.0347C6.57983 11.0347 6.71121 10.9033 6.71121 10.7413C6.71121 10.5791 6.57983 10.4477 6.41779 10.4477H2.73874C2.57669 10.4477 2.44531 10.5791 2.44531 10.7413C2.44531 10.9033 2.57669 11.0347 2.73874 11.0347H6.41779Z" fill="#8D8E90"/>
<path d="M18.6679 6.65634H14.8107V1.32141C14.8107 0.592804 14.2178 0 13.4892 0H3.17461C3.16286 0 3.15126 0.000915527 3.13967 0.00228882C3.09129 0.00808715 3.01958 0.0402832 2.9854 0.0691223C2.97487 0.0779724 2.96449 0.0868225 2.95397 0.09552C2.66893 0.336151 2.38374 0.57663 2.09871 0.817108C1.67101 1.17783 1.2433 1.53854 0.815599 1.89926C0.652941 2.03644 0.490282 2.17361 0.327623 2.31094C0.192278 2.42508 0.0117662 2.53922 0.00291612 2.73376C-0.00364516 2.88162 0.00291612 3.03131 0.00291612 3.17947V4.15009V5.49179V7.05017V8.67126V10.2011V11.4853V14.0367V14.3675C0.00291612 14.5295 0.134447 14.6611 0.296495 14.6611C0.458544 14.6611 0.590074 14.5295 0.590074 14.3675V3.01468H2.97899C3.24861 3.01468 3.46819 2.7951 3.46819 2.52533V0.587006H13.4892C13.8942 0.587006 14.2236 0.916595 14.2236 1.32141V6.65634H9.15681C8.42882 6.65634 7.83662 7.24869 7.83662 7.97668V8.05328H4.63732C4.47527 8.05328 4.34389 8.18466 4.34389 8.34671C4.34389 8.50891 4.47527 8.64029 4.63732 8.64029H7.83662V9.25049H2.73927C2.57707 9.25049 2.4457 9.38187 2.4457 9.54391C2.4457 9.70612 2.57707 9.83749 2.73927 9.83749H7.83662V10.4477H7.76842C7.60622 10.4477 7.47484 10.5791 7.47484 10.7413C7.47484 10.9033 7.60622 11.0347 7.76842 11.0347H7.83662V18.6797C7.83662 18.9508 7.91887 19.203 8.05956 19.413H1.32448C0.919511 19.413 0.590074 19.0834 0.590074 18.6786V14.0703C0.590074 13.9082 0.458696 13.7767 0.296495 13.7767C0.134447 13.7767 0.00306871 13.9082 0.00306871 14.0703V18.6786C0.00291612 19.4072 0.59572 20 1.32448 20H18.6679C19.3959 20 19.9881 19.4078 19.9881 18.6797V7.97653C19.9881 7.24869 19.3959 6.65634 18.6679 6.65634ZM1.09972 2.42752L2.88103 0.92514V2.42752H1.09972ZM19.4011 18.6797C19.4011 19.084 19.0721 19.413 18.6679 19.413H9.15681C8.75261 19.413 8.42363 19.084 8.42363 18.6797V7.97653C8.42363 7.57233 8.75261 7.24335 9.15681 7.24335H18.6679C19.0721 7.24335 19.4011 7.57233 19.4011 7.97653V18.6797Z" fill="#8D8E90"/>
<path d="M17.5538 8.40485L11.1717 8.405C11.0096 8.405 10.8781 8.53638 10.8781 8.69843C10.8781 8.86063 11.0096 8.992 11.1717 8.992L17.5538 8.99185C17.6298 8.99185 17.6916 9.0538 17.6916 9.12979V10.7153C17.6916 10.7913 17.6298 10.8531 17.5538 10.8531H10.2717C10.1957 10.8531 10.1339 10.7913 10.1339 10.7153V9.12979C10.1339 9.0538 10.1957 8.99185 10.2717 8.99185H11.4832C11.6453 8.99185 11.7768 8.86047 11.7768 8.69843C11.7768 8.53622 11.6453 8.40485 11.4832 8.40485H10.2717C9.87204 8.40485 9.54688 8.73001 9.54688 9.12979V10.7153C9.54688 11.115 9.87204 11.4401 10.2717 11.4401H17.5538C17.9536 11.4401 18.2787 11.1151 18.2787 10.7153V9.12979C18.2787 8.73001 17.9536 8.40485 17.5538 8.40485Z" fill="#8D8E90"/>
<path d="M11.3746 12.171H10.2717C9.87204 12.171 9.54688 12.4962 9.54688 12.896V13.9989C9.54688 14.3985 9.87204 14.7237 10.2717 14.7237H11.3746C11.7742 14.7237 12.0995 14.3985 12.0995 13.9989V12.896C12.0995 12.4962 11.7742 12.171 11.3746 12.171ZM11.5125 13.9989C11.5125 14.0749 11.4506 14.1367 11.3746 14.1367H10.2717C10.1957 14.1367 10.1339 14.0749 10.1339 13.9989V12.896C10.1339 12.82 10.1957 12.758 10.2717 12.758H11.3746C11.4506 12.758 11.5125 12.82 11.5125 12.896V13.9989Z" fill="#8D8E90"/>
<path d="M14.4646 12.171H13.3617C12.962 12.171 12.6367 12.4962 12.6367 12.896V13.9989C12.6367 14.3985 12.9619 14.7237 13.3617 14.7237H14.4646C14.8644 14.7237 15.1895 14.3985 15.1895 13.9989V12.896C15.1895 12.4962 14.8644 12.171 14.4646 12.171ZM14.6024 13.9989C14.6024 14.0749 14.5406 14.1367 14.4646 14.1367H13.3617C13.2857 14.1367 13.2239 14.0749 13.2239 13.9989V12.896C13.2239 12.82 13.2857 12.758 13.3617 12.758H14.4646C14.5406 12.758 14.6024 12.82 14.6024 12.896V13.9989Z" fill="#8D8E90"/>
<path d="M17.5544 12.171H16.4515C16.0519 12.171 15.7266 12.4962 15.7266 12.896V17.5266C15.7266 17.9262 16.0517 18.2515 16.4515 18.2515H17.5544C17.9542 18.2515 18.2794 17.9262 18.2794 17.5266V12.896C18.2794 12.4962 17.9542 12.171 17.5544 12.171ZM17.6922 17.5266C17.6922 17.6026 17.6304 17.6645 17.5544 17.6645H16.4515C16.3755 17.6645 16.3137 17.6026 16.3137 17.5266V12.896C16.3137 12.82 16.3755 12.758 16.4515 12.758H17.5544C17.6304 12.758 17.6922 12.82 17.6922 12.896V17.5266Z" fill="#8D8E90"/>
<path d="M11.3746 15.6987H10.2717C9.87204 15.6987 9.54688 16.024 9.54688 16.4236V17.5265C9.54688 17.9262 9.87204 18.2513 10.2717 18.2513H11.3746C11.7742 18.2513 12.0995 17.9262 12.0995 17.5265V16.4236C12.0995 16.024 11.7742 15.6987 11.3746 15.6987ZM11.5125 17.5265C11.5125 17.6025 11.4506 17.6645 11.3746 17.6645H10.2717C10.1957 17.6645 10.1339 17.6025 10.1339 17.5265V16.4236C10.1339 16.3477 10.1957 16.2859 10.2717 16.2859H11.3746C11.4506 16.2859 11.5125 16.3477 11.5125 16.4236V17.5265Z" fill="#8D8E90"/>
<path d="M14.4646 15.6987H13.3617C12.962 15.6987 12.6367 16.024 12.6367 16.4236V17.5265C12.6367 17.9262 12.9619 18.2513 13.3617 18.2513H14.4646C14.8644 18.2513 15.1895 17.9262 15.1895 17.5265V16.4236C15.1895 16.024 14.8644 15.6987 14.4646 15.6987ZM14.6024 17.5265C14.6024 17.6025 14.5406 17.6645 14.4646 17.6645H13.3617C13.2857 17.6645 13.2239 17.6025 13.2239 17.5265V16.4236C13.2239 16.3477 13.2857 16.2859 13.3617 16.2859H14.4646C14.5406 16.2859 14.6024 16.3477 14.6024 16.4236V17.5265Z" fill="#8D8E90"/>
</g>
<defs>
<clipPath id="clip0">
<rect width="20" height="20" fill="white"/>
</clipPath>
</defs>
</svg>
