<svg width="20" height="20" viewBox="0 0 20 20" fill="none" xmlns="http://www.w3.org/2000/svg">
<path d="M19.0909 10.3757V1.8182C19.0909 0.815413 18.275 0 17.2727 0H1.8182C0.815881 0 0 0.815413 0 1.8182V17.2728C0 18.2755 0.815881 19.0909 1.8182 19.0909H10.3757C11.3308 19.6642 12.4438 20 13.6364 20C17.1449 20 20 17.1453 20 13.6364C20 12.4437 19.6642 11.3308 19.0909 10.3757ZM10 0.909077H17.2728C17.7744 0.909077 18.1818 1.31702 18.1818 1.81815V9.19138C17.0257 8.00937 15.4162 7.2727 13.6364 7.2727C12.2844 7.2727 11.032 7.69974 10 8.42161V0.909077ZM0.909077 1.8182C0.909077 1.31706 1.31659 0.90912 1.81815 0.90912H9.0909V9.09094H0.909077V1.8182ZM1.8182 18.1818C1.31659 18.1818 0.90912 17.7739 0.90912 17.2728V10H8.42165C7.69982 11.0319 7.27275 12.2843 7.27275 13.6364C7.27275 15.4163 8.00945 17.0258 9.19143 18.1818H1.8182ZM13.6364 19.0909C10.6286 19.0909 8.18182 16.6442 8.18182 13.6364C8.18182 10.6286 10.6286 8.18182 13.6364 8.18182C16.6442 8.18182 19.0909 10.6286 19.0909 13.6364C19.0909 16.6442 16.6442 19.0909 13.6364 19.0909Z" fill="#8D8E90"/>
<path d="M6.81752 4.54548H5.45388V3.18184C5.45388 2.93059 5.25057 2.72728 4.99932 2.72728C4.74807 2.72728 4.54476 2.93059 4.54476 3.18184V4.54548H3.18112C2.92987 4.54548 2.72656 4.74879 2.72656 5.00004C2.72661 5.25124 2.92991 5.45455 3.18117 5.45455H4.5448V6.81819C4.5448 7.06944 4.74811 7.27275 4.99936 7.27275C5.25061 7.27275 5.45392 7.06944 5.45392 6.81819V5.45455H6.81756C7.06881 5.45455 7.27212 5.25124 7.27212 4.99999C7.27208 4.74874 7.06877 4.54548 6.81752 4.54548Z" fill="#8D8E90"/>
<path d="M16.3638 4.99999C16.3638 4.74874 16.1605 4.54543 15.9093 4.54543H12.2729C12.0217 4.54543 11.8184 4.74874 11.8184 4.99999C11.8184 5.25124 12.0217 5.45455 12.2729 5.45455H15.9093C16.1605 5.45455 16.3638 5.25124 16.3638 4.99999Z" fill="#8D8E90"/>
<path d="M6.68479 12.4059C6.50722 12.2283 6.21958 12.2283 6.04205 12.4059L4.99981 13.4481L3.95756 12.4059C3.77999 12.2283 3.49235 12.2283 3.31482 12.4059C3.13725 12.5835 3.13725 12.8711 3.31482 13.0486L4.35706 14.0909L3.31482 15.1331C3.13725 15.3107 3.13725 15.5983 3.31482 15.7759C3.40358 15.8646 3.51992 15.909 3.63621 15.909C3.7525 15.909 3.8688 15.8646 3.9576 15.7759L4.99985 14.7336L6.04209 15.7759C6.13086 15.8646 6.24719 15.909 6.36349 15.909C6.47978 15.909 6.59607 15.8646 6.68488 15.7759C6.86245 15.5983 6.86245 15.3107 6.68488 15.1331L5.64263 14.0909L6.68488 13.0486C6.86236 12.8711 6.86236 12.5835 6.68479 12.4059Z" fill="#8D8E90"/>
<path d="M15.9101 11.8182H11.3647C11.1135 11.8182 10.9102 12.0215 10.9102 12.2727C10.9102 12.524 11.1135 12.7273 11.3647 12.7273H15.9102C16.1614 12.7273 16.3647 12.524 16.3647 12.2727C16.3647 12.0215 16.1614 11.8182 15.9101 11.8182Z" fill="#8D8E90"/>
<path d="M15.9101 14.5454H11.3647C11.1135 14.5454 10.9102 14.7488 10.9102 15C10.9102 15.2513 11.1135 15.4546 11.3647 15.4546H15.9102C16.1614 15.4546 16.3647 15.2513 16.3647 15C16.3647 14.7488 16.1614 14.5454 15.9101 14.5454Z" fill="#8D8E90"/>
</svg>
