<svg width="15" height="20" viewBox="0 0 15 20" fill="none" xmlns="http://www.w3.org/2000/svg">
<path d="M3.14067 4.05765H11.1113C11.2618 4.05765 11.3836 3.93521 11.3836 3.78473C11.3836 3.63369 11.2618 3.51125 11.1113 3.51125H3.14067C2.98963 3.51125 2.86719 3.63369 2.86719 3.78473C2.86719 3.93521 2.98963 4.05765 3.14067 4.05765Z" fill="#8D8E90"/>
<path d="M0 2.72797V19.1435C0.00171634 19.6161 0.384484 19.9989 0.856507 20H13.3929C13.866 19.9989 14.2488 19.6161 14.2494 19.1435V2.72797C14.2488 2.2548 13.866 1.87203 13.3929 1.87146H9.22991C9.09259 0.708852 8.03927 -0.122481 6.87666 0.0148347C5.90286 0.129265 5.13504 0.897661 5.02004 1.87146H0.856507C0.383912 1.87203 0.000572112 2.2548 0 2.72797ZM13.7013 19.1435C13.7013 19.3146 13.5628 19.453 13.3917 19.453H0.856507C0.685434 19.453 0.546974 19.3146 0.546974 19.1435V5.37358H13.7035L13.7013 19.1435ZM7.12497 0.541212C7.89966 0.542356 8.55706 1.1065 8.67778 1.87146H5.5796C5.69918 1.10936 6.35314 0.545789 7.12497 0.541212ZM13.3929 2.41729C13.5645 2.41729 13.7035 2.55689 13.7035 2.72797V4.82661H0.546974V2.72797C0.546974 2.55689 0.685434 2.41729 0.856507 2.41729H13.3929Z" fill="#8D8E90"/>
<path d="M5.52096 8.38538H11.9828C12.1333 8.38538 12.2557 8.26294 12.2557 8.11246C12.2557 7.96084 12.1333 7.83897 11.9828 7.83897H5.52096C5.36991 7.83897 5.24805 7.96084 5.24805 8.11246C5.24805 8.26294 5.36991 8.38538 5.52096 8.38538Z" fill="#8D8E90"/>
<path d="M5.52096 11.2375H11.9828C12.1333 11.2375 12.2557 11.1151 12.2557 10.9641C12.2557 10.813 12.1333 10.6906 11.9828 10.6906H5.52096C5.36991 10.6906 5.24805 10.813 5.24805 10.9641C5.24805 11.1151 5.36991 11.2375 5.52096 11.2375Z" fill="#8D8E90"/>
<path d="M5.52096 14.0874H11.9828C12.1333 14.0874 12.2557 13.9644 12.2557 13.8139C12.2557 13.6629 12.1333 13.5404 11.9828 13.5404H5.52096C5.36991 13.5404 5.24805 13.6629 5.24805 13.8139C5.24805 13.9644 5.36991 14.0874 5.52096 14.0874Z" fill="#8D8E90"/>
<path d="M5.52096 16.9367H11.9828C12.1333 16.9367 12.2557 16.8148 12.2557 16.6632C12.2557 16.5128 12.1333 16.3909 11.9828 16.3909H5.52096C5.36991 16.3909 5.24805 16.5128 5.24805 16.6632C5.24805 16.8148 5.36991 16.9367 5.52096 16.9367Z" fill="#8D8E90"/>
<path d="M2.79613 8.53814C2.83905 8.59936 2.90484 8.63998 2.97808 8.65142H3.0187C3.07878 8.65142 3.13771 8.63083 3.18634 8.59306L4.92739 7.23249C5.05841 7.1564 5.10304 6.98933 5.02752 6.85888C4.95199 6.72786 4.78492 6.68323 4.65447 6.75933C4.63159 6.77191 4.61099 6.78851 4.59268 6.80739L3.0782 7.99231L2.81387 7.61526C2.72748 7.49168 2.55698 7.46078 2.43339 7.54775C2.30981 7.63414 2.27891 7.80464 2.36588 7.92823L2.79613 8.53814Z" fill="#8D8E90"/>
<path d="M2.79468 11.348C2.83759 11.4092 2.90339 11.4504 2.97662 11.4618H3.01724C3.07732 11.4613 3.13625 11.4407 3.18488 11.4029L4.92593 10.0418C5.04837 9.9525 5.07412 9.78142 4.98429 9.65956C4.89504 9.53826 4.72396 9.51194 4.6021 9.60234C4.59809 9.6052 4.59351 9.60863 4.58951 9.61207L3.07675 10.7981L2.81241 10.4211C2.7449 10.2861 2.58069 10.2311 2.44624 10.2981C2.31121 10.3656 2.25629 10.5298 2.3238 10.6654C2.33467 10.6866 2.34783 10.7072 2.36442 10.7249L2.79468 11.348Z" fill="#8D8E90"/>
<path d="M2.7958 14.1658C2.83872 14.2264 2.90451 14.2671 2.97775 14.2785H3.01837C3.07845 14.2785 3.13738 14.2579 3.18601 14.2201L4.92706 12.859C5.0495 12.7692 5.07525 12.5981 4.98542 12.4768C4.89616 12.3549 4.72509 12.3298 4.60322 12.419C4.59922 12.4225 4.59464 12.4253 4.59064 12.4288L3.07616 13.6114L2.8124 13.2343C2.72543 13.1108 2.55493 13.0804 2.43135 13.1668C2.30719 13.2538 2.27744 13.4243 2.36383 13.5479L2.7958 14.1658Z" fill="#8D8E90"/>
<path d="M2.79613 17.0157C2.83905 17.0763 2.90484 17.1175 2.97808 17.1289H3.0187C3.07878 17.1278 3.13771 17.1072 3.18634 17.0706L4.92739 15.7089C5.05555 15.6288 5.09389 15.4594 5.01378 15.3318C4.93254 15.2037 4.76376 15.1665 4.63617 15.2466C4.62072 15.2563 4.60584 15.2677 4.59268 15.2809L3.0782 16.4653L2.81387 16.0882C2.72748 15.9641 2.55698 15.9343 2.43339 16.0207C2.30981 16.1071 2.27891 16.2776 2.36588 16.4012L2.79613 17.0157Z" fill="#8D8E90"/>
</svg>
