<svg width="20" height="19" viewBox="0 0 20 19" fill="none" xmlns="http://www.w3.org/2000/svg">
<path d="M15.8592 15.5254H4.14157C3.93944 15.5254 3.77539 15.3613 3.77539 15.1592V3.44152C3.77539 3.2394 3.93944 3.07535 4.14157 3.07535H15.8592C16.0614 3.07535 16.2254 3.2394 16.2254 3.44152V15.1592C16.2254 15.3613 16.0614 15.5254 15.8592 15.5254ZM4.50774 14.793H15.493V3.8077H4.50774V14.793Z" fill="#8D8E90"/>
<path d="M19.6667 9.63368H0.333333C0.149333 9.63368 0 9.48434 0 9.30034C0 9.11634 0.149333 8.96701 0.333333 8.96701H19.6667C19.8507 8.96701 20 9.11634 20 9.30034C20 9.48434 19.8507 9.63368 19.6667 9.63368Z" fill="#8D8E90"/>
<path d="M0.432695 3.54494C0.671943 3.54494 0.865524 3.35123 0.865524 3.11225V0.865524H3.03048C3.26959 0.865524 3.46344 0.671943 3.46344 0.432829C3.46344 0.19385 3.26959 0 3.03048 0H0.432695C0.19385 0 0 0.19385 0 0.432829V3.11225C0 3.35123 0.19385 3.54494 0.432695 3.54494Z" fill="#8D8E90"/>
<path d="M19.5659 0H16.9681C16.729 0 16.5352 0.19385 16.5352 0.432829C16.5352 0.671943 16.729 0.865524 16.9681 0.865524H19.1331V3.11225C19.1331 3.35123 19.3267 3.54494 19.5659 3.54494C19.8047 3.54494 19.9986 3.35123 19.9986 3.11225V0.432829C19.9986 0.19385 19.8047 0 19.5659 0Z" fill="#8D8E90"/>
<path d="M3.03048 17.7351H0.865524V15.4885C0.865524 15.2497 0.671943 15.0558 0.432695 15.0558C0.19385 15.0558 0 15.2497 0 15.4885V18.1679C0 18.4069 0.19385 18.6007 0.432695 18.6007H3.03048C3.26959 18.6007 3.46344 18.4069 3.46344 18.1679C3.46344 17.9288 3.26959 17.7351 3.03048 17.7351Z" fill="#8D8E90"/>
<path d="M19.5659 15.0558C19.3267 15.0558 19.1331 15.2497 19.1331 15.4885V17.7351H16.9681C16.729 17.7351 16.5352 17.9288 16.5352 18.1679C16.5352 18.4069 16.729 18.6007 16.9681 18.6007H19.5659C19.8047 18.6007 19.9986 18.4069 19.9986 18.1679V15.4885C19.9986 15.2497 19.8047 15.0558 19.5659 15.0558Z" fill="#8D8E90"/>
</svg>
