<svg width="20" height="13" viewBox="0 0 20 13" fill="none" xmlns="http://www.w3.org/2000/svg">
<path d="M2.35294 0H12.9412C13.5652 0 14.1637 0.247898 14.605 0.68916C15.0462 1.13042 15.2941 1.7289 15.2941 2.35294V5.29412L20 0.588235V12.3529L15.2941 7.64706V10.5882C15.2941 11.2123 15.0462 11.8108 14.605 12.252C14.1637 12.6933 13.5652 12.9412 12.9412 12.9412H2.35294C1.7289 12.9412 1.13042 12.6933 0.68916 12.252C0.247898 11.8108 0 11.2123 0 10.5882V2.35294C0 1.7289 0.247898 1.13042 0.68916 0.68916C1.13042 0.247898 1.7289 0 2.35294 0ZM2.35294 1.17647C2.04092 1.17647 1.74168 1.30042 1.52105 1.52105C1.30042 1.74168 1.17647 2.04092 1.17647 2.35294V10.5882C1.17647 10.9003 1.30042 11.1995 1.52105 11.4201C1.74168 11.6408 2.04092 11.7647 2.35294 11.7647H12.9412C13.2532 11.7647 13.5524 11.6408 13.7731 11.4201C13.9937 11.1995 14.1176 10.9003 14.1176 10.5882V2.35294C14.1176 2.04092 13.9937 1.74168 13.7731 1.52105C13.5524 1.30042 13.2532 1.17647 12.9412 1.17647H2.35294ZM18.8235 3.42823L15.7812 6.47059L18.8235 9.51294V3.42823Z" fill="#8D8E90"/>
</svg>
