<svg width="16" height="20" viewBox="0 0 16 20" fill="none" xmlns="http://www.w3.org/2000/svg">
<path d="M3.33333 0H12.2222C13.1063 0 13.9541 0.35119 14.5792 0.976311C15.2044 1.60143 15.5556 2.44928 15.5556 3.33333V20L7.77778 16.6667L0 20V3.33333C0 2.44928 0.35119 1.60143 0.976311 0.976311C1.60143 0.35119 2.44928 0 3.33333 0ZM3.33333 1.11111C2.74396 1.11111 2.17873 1.34524 1.76198 1.76198C1.34524 2.17873 1.11111 2.74396 1.11111 3.33333V18.3222L7.77778 15.4911L14.4444 18.3211V3.33333C14.4444 2.74396 14.2103 2.17873 13.7936 1.76198C13.3768 1.34524 12.8116 1.11111 12.2222 1.11111H3.33333Z" fill="#8D8E90"/>
</svg>
