<svg width="20" height="18" viewBox="0 0 20 18" fill="none" xmlns="http://www.w3.org/2000/svg">
<path d="M1.99999 6.66643C0.895413 6.66643 0 7.56184 0 8.66642C0 9.771 0.895413 10.6664 1.99999 10.6664C3.10457 10.6664 3.99999 9.771 3.99999 8.66642C3.99999 7.56184 3.10457 6.66643 1.99999 6.66643ZM1.99999 9.33308C1.63183 9.33308 1.33333 9.03459 1.33333 8.66642C1.33333 8.29825 1.63183 7.99976 1.99999 7.99976C2.36816 7.99976 2.66666 8.29825 2.66666 8.66642C2.66666 9.03459 2.36816 9.33308 1.99999 9.33308Z" fill="#8D8E90"/>
<path d="M19.9993 8.00002H6.66602V9.33334H19.9993V8.00002Z" fill="#8D8E90"/>
<path d="M1.99999 0C0.895413 0 0 0.895414 0 1.99999C0 3.10457 0.895413 3.99999 1.99999 3.99999C3.10457 3.99999 3.99999 3.10457 3.99999 1.99999C3.99999 0.895414 3.10457 0 1.99999 0ZM1.99999 2.66666C1.63183 2.66666 1.33333 2.36816 1.33333 1.99999C1.33333 1.63183 1.63183 1.33333 1.99999 1.33333C2.36816 1.33333 2.66666 1.63183 2.66666 1.99999C2.66666 2.36816 2.36816 2.66666 1.99999 2.66666Z" fill="#8D8E90"/>
<path d="M19.9993 1.33301H6.66602V2.66634H19.9993V1.33301Z" fill="#8D8E90"/>
<path d="M1.99999 13.333C0.895413 13.333 0 14.2284 0 15.333C0 16.4375 0.895413 17.3329 1.99999 17.3329C3.10457 17.3329 3.99999 16.4375 3.99999 15.333C3.99999 14.2284 3.10457 13.333 1.99999 13.333ZM1.99999 15.9996C1.63183 15.9996 1.33333 15.7011 1.33333 15.333C1.33333 14.9648 1.63183 14.6663 1.99999 14.6663C2.36816 14.6663 2.66666 14.9648 2.66666 15.333C2.66666 15.7011 2.36816 15.9996 1.99999 15.9996Z" fill="#8D8E90"/>
<path d="M19.9993 14.6664H6.66602V15.9998H19.9993V14.6664Z" fill="#8D8E90"/>
</svg>
