<svg width="20" height="18" viewBox="0 0 20 18" fill="none" xmlns="http://www.w3.org/2000/svg">
<path d="M14.7368 8.42105C13.8993 8.42105 13.0961 8.08835 12.5039 7.49613C11.9117 6.90391 11.5789 6.10068 11.5789 5.26316V1.05263H3.15789C2.59954 1.05263 2.06406 1.27444 1.66925 1.66925C1.27444 2.06406 1.05263 2.59954 1.05263 3.15789V14.7368C1.05263 15.2952 1.27444 15.8307 1.66925 16.2255C2.06406 16.6203 2.59954 16.8421 3.15789 16.8421H16.8421C17.4005 16.8421 17.9359 16.6203 18.3308 16.2255C18.7256 15.8307 18.9474 15.2952 18.9474 14.7368V8.42105H14.7368ZM12.6316 5.26316C12.6316 5.82151 12.8534 6.35699 13.2482 6.7518C13.643 7.14662 14.1785 7.36842 14.7368 7.36842H18.5116L12.6316 1.48842V5.26316ZM3.15789 0H12.6316L20 7.36842V14.7368C20 15.5744 19.6673 16.3776 19.0751 16.9698C18.4829 17.562 17.6796 17.8947 16.8421 17.8947H3.15789C2.32037 17.8947 1.51715 17.562 0.924926 16.9698C0.332706 16.3776 0 15.5744 0 14.7368V3.15789C0 2.32037 0.332706 1.51715 0.924926 0.924926C1.51715 0.332706 2.32037 0 3.15789 0ZM3.15789 4.21053H9.47368V5.26316H3.15789V4.21053ZM3.15789 8.42105H9.47368V9.47368H3.15789V8.42105ZM3.15789 12.6316H16.8421V13.6842H3.15789V12.6316Z" fill="#8D8E90"/>
</svg>
